<?xml version="1.0" encoding="UTF-8"?>
<svg xmlns="http://www.w3.org/2000/svg" xmlns:xlink="http://www.w3.org/1999/xlink" viewBox="0 0 400 394.44">
  <defs>
    <style>
      .cls-1 {
        fill: #c43937;
      }

      .cls-1, .cls-2, .cls-3, .cls-4, .cls-5, .cls-6, .cls-7, .cls-8, .cls-9, .cls-10, .cls-11, .cls-12, .cls-13, .cls-14, .cls-15, .cls-16, .cls-17, .cls-18, .cls-19, .cls-20, .cls-21, .cls-22, .cls-23, .cls-24, .cls-25, .cls-26, .cls-27, .cls-28, .cls-29, .cls-30, .cls-31, .cls-32, .cls-33, .cls-34, .cls-35, .cls-36, .cls-37, .cls-38, .cls-39 {
        stroke-width: 0px;
      }

      .cls-2, .cls-7, .cls-19, .cls-21, .cls-26, .cls-39 {
        fill: #010101;
      }

      .cls-3 {
        fill: #c26a2f;
      }

      .cls-40, .cls-7, .cls-8, .cls-19, .cls-21, .cls-25, .cls-26, .cls-39 {
        mix-blend-mode: overlay;
      }

      .cls-40, .cls-24, .cls-25, .cls-39 {
        opacity: .4;
      }

      .cls-4, .cls-16, .cls-23, .cls-24, .cls-38 {
        fill: #e86767;
      }

      .cls-5 {
        fill: #472215;
      }

      .cls-6 {
        fill: #fac6c7;
      }

      .cls-7 {
        opacity: .2;
      }

      .cls-8, .cls-9, .cls-19, .cls-38 {
        opacity: .3;
      }

      .cls-8, .cls-9, .cls-25, .cls-27 {
        fill: #fff;
      }

      .cls-10 {
        fill: url(#_ÂÁ_Ï_ÌÌ_È_ËÂÌÚ_19-2);
      }

      .cls-11 {
        fill: url(#_ÂÁ_Ï_ÌÌ_È_ËÂÌÚ_65-3);
      }

      .cls-12 {
        fill: url(#_ÂÁ_Ï_ÌÌ_È_ËÂÌÚ_65-2);
      }

      .cls-13 {
        fill: url(#_ÂÁ_Ï_ÌÌ_È_ËÂÌÚ_60-2);
      }

      .cls-14 {
        fill: url(#_ÂÁ_Ï_ÌÌ_È_ËÂÌÚ_58-2);
      }

      .cls-15 {
        fill: #f69a9c;
      }

      .cls-16, .cls-22 {
        opacity: .7;
      }

      .cls-17 {
        fill: #4fa89f;
      }

      .cls-18, .cls-20 {
        fill: #d34444;
      }

      .cls-18, .cls-23 {
        opacity: .6;
      }

      .cls-21 {
        opacity: .15;
      }

      .cls-22 {
        fill: #fce3ac;
      }

      .cls-41 {
        isolation: isolate;
      }

      .cls-26 {
        opacity: .25;
      }

      .cls-28 {
        fill: url(#_ÂÁ_Ï_ÌÌ_È_ËÂÌÚ_58);
      }

      .cls-29 {
        fill: url(#_ÂÁ_Ï_ÌÌ_È_ËÂÌÚ_48);
      }

      .cls-30 {
        fill: url(#_ÂÁ_Ï_ÌÌ_È_ËÂÌÚ_55);
      }

      .cls-31 {
        fill: url(#_ÂÁ_Ï_ÌÌ_È_ËÂÌÚ_75);
      }

      .cls-32 {
        fill: url(#_ÂÁ_Ï_ÌÌ_È_ËÂÌÚ_76);
      }

      .cls-33 {
        fill: url(#_ÂÁ_Ï_ÌÌ_È_ËÂÌÚ_60);
      }

      .cls-34 {
        fill: url(#_ÂÁ_Ï_ÌÌ_È_ËÂÌÚ_19);
      }

      .cls-35 {
        fill: url(#_ÂÁ_Ï_ÌÌ_È_ËÂÌÚ_88);
      }

      .cls-36 {
        fill: url(#_ÂÁ_Ï_ÌÌ_È_ËÂÌÚ_61);
      }

      .cls-37 {
        fill: url(#_ÂÁ_Ï_ÌÌ_È_ËÂÌÚ_65);
      }
    </style>
    <linearGradient id="_ÂÁ_Ï_ÌÌ_È_ËÂÌÚ_76" data-name="¡ÂÁ˚ÏˇÌÌ˚È „‡‰ËÂÌÚ 76" x1="120.34" y1="362.43" x2="27.02" y2="363.94" gradientUnits="userSpaceOnUse">
      <stop offset="0" stop-color="#fac6c7"/>
      <stop offset=".18" stop-color="#f7b9ba"/>
      <stop offset=".51" stop-color="#f19999"/>
      <stop offset=".93" stop-color="#e86767"/>
    </linearGradient>
    <linearGradient id="_ÂÁ_Ï_ÌÌ_È_ËÂÌÚ_65" data-name="¡ÂÁ˚ÏˇÌÌ˚È „‡‰ËÂÌÚ 65" x1="147.07" y1="382.74" x2="147.07" y2="237.95" gradientUnits="userSpaceOnUse">
      <stop offset="0" stop-color="#fac6c7"/>
      <stop offset=".39" stop-color="#f2a0a0"/>
      <stop offset=".93" stop-color="#e86767"/>
    </linearGradient>
    <linearGradient id="_ÂÁ_Ï_ÌÌ_È_ËÂÌÚ_75" data-name="¡ÂÁ˚ÏˇÌÌ˚È „‡‰ËÂÌÚ 75" x1="149.2" y1="308.08" x2="106.81" y2="385.62" gradientUnits="userSpaceOnUse">
      <stop offset="0" stop-color="#fac6c7"/>
      <stop offset=".43" stop-color="#facccd"/>
      <stop offset="1" stop-color="#fcdddd"/>
    </linearGradient>
    <linearGradient id="_ÂÁ_Ï_ÌÌ_È_ËÂÌÚ_88" data-name="¡ÂÁ˚ÏˇÌÌ˚È „‡‰ËÂÌÚ 88" x1="163.21" y1="365.1" x2="81.99" y2="366.41" gradientUnits="userSpaceOnUse">
      <stop offset="0" stop-color="#f8b3b4"/>
      <stop offset=".19" stop-color="#f6abac"/>
      <stop offset=".46" stop-color="#f29797"/>
      <stop offset=".8" stop-color="#eb7676"/>
      <stop offset=".94" stop-color="#e86767"/>
    </linearGradient>
    <linearGradient id="_ÂÁ_Ï_ÌÌ_È_ËÂÌÚ_48" data-name="¡ÂÁ˚ÏˇÌÌ˚È „‡‰ËÂÌÚ 48" x1="238.5" y1="40.66" x2="244.58" y2="358.61" gradientUnits="userSpaceOnUse">
      <stop offset="0" stop-color="#fcc64d"/>
      <stop offset=".11" stop-color="#fbc248"/>
      <stop offset=".96" stop-color="#f4a72b"/>
    </linearGradient>
    <linearGradient id="_ÂÁ_Ï_ÌÌ_È_ËÂÌÚ_65-2" data-name="¡ÂÁ˚ÏˇÌÌ˚È „‡‰ËÂÌÚ 65" x1="111.54" y1="352.82" x2="111.54" y2="283.72" xlink:href="#_ÂÁ_Ï_ÌÌ_È_ËÂÌÚ_65"/>
    <linearGradient id="_ÂÁ_Ï_ÌÌ_È_ËÂÌÚ_65-3" data-name="¡ÂÁ˚ÏˇÌÌ˚È „‡‰ËÂÌÚ 65" x1="173.13" y1="340.73" x2="173.13" y2="261.55" xlink:href="#_ÂÁ_Ï_ÌÌ_È_ËÂÌÚ_65"/>
    <linearGradient id="_ÂÁ_Ï_ÌÌ_È_ËÂÌÚ_58" data-name="¡ÂÁ˚ÏˇÌÌ˚È „‡‰ËÂÌÚ 58" x1="175.08" y1="181.94" x2="115.25" y2="114.74" gradientUnits="userSpaceOnUse">
      <stop offset=".35" stop-color="#f69a9c"/>
      <stop offset=".49" stop-color="#f59698"/>
      <stop offset=".62" stop-color="#f28b8d"/>
      <stop offset=".75" stop-color="#ed797a"/>
      <stop offset=".85" stop-color="#e86767"/>
    </linearGradient>
    <linearGradient id="_ÂÁ_Ï_ÌÌ_È_ËÂÌÚ_58-2" data-name="¡ÂÁ˚ÏˇÌÌ˚È „‡‰ËÂÌÚ 58" x1="55.53" y1="211.65" x2="7.56" y2="157.76" xlink:href="#_ÂÁ_Ï_ÌÌ_È_ËÂÌÚ_58"/>
    <linearGradient id="_ÂÁ_Ï_ÌÌ_È_ËÂÌÚ_55" data-name="¡ÂÁ˚ÏˇÌÌ˚È „‡‰ËÂÌÚ 55" x1="109.55" y1="139.94" x2="109.55" y2="307.28" gradientUnits="userSpaceOnUse">
      <stop offset="0" stop-color="#fac6c7"/>
      <stop offset=".22" stop-color="#f9c2c3"/>
      <stop offset=".42" stop-color="#f7b7b8"/>
      <stop offset=".61" stop-color="#f3a4a5"/>
      <stop offset=".8" stop-color="#ee8a8b"/>
      <stop offset=".99" stop-color="#e86969"/>
      <stop offset="1" stop-color="#e86767"/>
    </linearGradient>
    <radialGradient id="_ÂÁ_Ï_ÌÌ_È_ËÂÌÚ_19" data-name="¡ÂÁ˚ÏˇÌÌ˚È „‡‰ËÂÌÚ 19" cx="67.03" cy="241.59" fx="67.03" fy="241.59" r="19.85" gradientUnits="userSpaceOnUse">
      <stop offset="0" stop-color="#fff"/>
      <stop offset=".48" stop-color="#fdfdfd"/>
      <stop offset=".65" stop-color="#f6f8f8"/>
      <stop offset=".77" stop-color="#eaeeef"/>
      <stop offset=".87" stop-color="#d9e1e1"/>
      <stop offset=".95" stop-color="#c3d0d1"/>
      <stop offset="1" stop-color="#b3c3c4"/>
    </radialGradient>
    <radialGradient id="_ÂÁ_Ï_ÌÌ_È_ËÂÌÚ_19-2" data-name="¡ÂÁ˚ÏˇÌÌ˚È „‡‰ËÂÌÚ 19" cx="146.13" cy="215.29" fx="146.13" fy="215.29" r="19.73" xlink:href="#_ÂÁ_Ï_ÌÌ_È_ËÂÌÚ_19"/>
    <linearGradient id="_ÂÁ_Ï_ÌÌ_È_ËÂÌÚ_61" data-name="¡ÂÁ˚ÏˇÌÌ˚È „‡‰ËÂÌÚ 61" x1="111.53" y1="201.94" x2="111.76" y2="290.71" gradientUnits="userSpaceOnUse">
      <stop offset="0" stop-color="#fac6c7"/>
      <stop offset=".23" stop-color="#f9c1c3"/>
      <stop offset=".46" stop-color="#f8b5b7"/>
      <stop offset=".7" stop-color="#f6a1a3"/>
      <stop offset=".77" stop-color="#f69a9c"/>
    </linearGradient>
    <linearGradient id="_ÂÁ_Ï_ÌÌ_È_ËÂÌÚ_60" data-name="¡ÂÁ˚ÏˇÌÌ˚È „‡‰ËÂÌÚ 60" x1="1.43" y1="169.02" x2="38.67" y2="208.1" gradientUnits="userSpaceOnUse">
      <stop offset="0" stop-color="#fac6c7"/>
      <stop offset=".26" stop-color="#f9c0c1"/>
      <stop offset=".57" stop-color="#f8b1b3"/>
      <stop offset=".9" stop-color="#f69a9c"/>
    </linearGradient>
    <linearGradient id="_ÂÁ_Ï_ÌÌ_È_ËÂÌÚ_60-2" data-name="¡ÂÁ˚ÏˇÌÌ˚È „‡‰ËÂÌÚ 60" x1="119.53" y1="119.51" x2="161.09" y2="163.12" xlink:href="#_ÂÁ_Ï_ÌÌ_È_ËÂÌÚ_60"/>
  </defs>
  <g class="cls-41">
    <g id="Layer_1" data-name="Layer 1">
      <g>
        <g>
          <path class="cls-15" d="M228.7,324.81c1.65,3.84,4.06,8.94,3.16,13.23-.52,2.48-2.24,4.69-4.31,5.59,1.93-6.56.85-14.09-4.62-17.91-4.25-2.97-8.3.07-8.61,4.73-.38,5.67,1.58,13.26,6.69,16.51-2.91,3.89-7.62,5.67-12.14,1.18-5.1-5.06-7.46-12.49-8.25-19.45-.31-2.74-4.48-2.9-4.41,0,.24,9.99,8.31,31.59,22,26.33,3.04-1.17,5.54-3.62,7.31-6.65,3.47.07,6.79-1.98,8.66-5.16,3.89-6.62.25-13.84-3.34-19.64-.86-1.39-2.75-.18-2.13,1.25ZM223,343.22c-.42-.27-.83-.6-1.22-1.03-1.61-1.74-2.24-4.23-2.71-6.48.06.3-.96-4.72-.54-5.28,3.28-4.34,5.38,7.07,5.36,8.3-.03,1.5-.35,3.04-.88,4.49Z"/>
          <g>
            <path class="cls-32" d="M113.96,346.06c-21.29,5.49-42.58,10.98-63.87,16.47,3.58,2.26,6.77,4.22,10.36,6.47-2.59,2.58-6.29,5.52-8.88,8.1,30.85,3.08,62.7,3.18,93.33-1.62-10.13-9.97-19.41-21.12-30.94-29.43Z"/>
            <path class="cls-3" d="M50.09,362.53c3.59,2.26,6.78,4.21,10.36,6.47-2.59,2.58-6.29,5.52-8.88,8.1,8.32.84,16.73,1.45,25.16,1.81-1.58-7.45-2.34-15.06-2.25-22.67-8.13,2.1-16.26,4.19-24.39,6.3Z"/>
            <path class="cls-23" d="M89.33,371.16c-1.29.6-2.96,2.07-1.46,3.7,1.49,1.62,4.26,1.06,5.91.3.02,0,.04-.02.06-.03.46-.22.91-.51,1.22-.98.44-.68.42-1.57-.06-2.26-1.4-2-3.95-1.55-5.68-.74Z"/>
            <path class="cls-23" d="M79.63,364.88c-.95.44-2.19,1.53-1.08,2.74,1.1,1.2,3.16.79,4.37.22.02,0,.03-.01.05-.02.34-.16.68-.38.9-.72.33-.5.31-1.16-.04-1.67-1.03-1.48-2.92-1.15-4.2-.55Z"/>
            <path class="cls-23" d="M97.36,362.18c-.74.35-1.7,1.19-.84,2.14.86.93,2.46.61,3.41.17.01,0,.02-.01.04-.02.27-.13.53-.29.7-.56.26-.39.24-.9-.03-1.3-.8-1.16-2.28-.89-3.27-.43Z"/>
            <path class="cls-19" d="M50.1,362.53c3.58,2.26,6.77,4.22,10.36,6.47-2.59,2.58-6.29,5.52-8.88,8.1.1,0,.2.02.3.03,4.4-2.85,9.21-5.74,14.29-7.94-5.64-4.01-10.63-4.84-16-6.68-.02,0-.05.01-.07.02Z"/>
            <path class="cls-19" d="M113.96,346.06c-9.33,2.41-18.66,4.81-27.99,7.22-1.43,12.7-11.23,20.78-23.64,24.77,27.45,2.09,55.49,1.68,82.57-2.56-10.13-9.97-19.41-21.12-30.94-29.43Z"/>
          </g>
          <path class="cls-18" d="M100.1,363.08c-2.78-3.68-5.07-7.57-6.95-11.65-1.02.27-2.03.53-3.06.79,4.75,10.47,12.35,20.11,21.65,26.62,1.71-.08,3.42-.18,5.13-.28-6.3-4.35-12.01-9.15-16.78-15.47Z"/>
          <g>
            <path class="cls-37" d="M160.49,240.77c-8.98-7.94-37.75,3.46-50.27,3.07-.84-.02-4.74,7.29-5.3,8.32-1.65,3.02-9.53.38-11.05,3.46-.82,1.66-1.53,3.37-2.17,5.11-.19.5-.39,1.01-.57,1.51-6.03,16.87-8.95,36.88-7.45,55.69,1.62,20.27,9.17,41.86,26.18,54.26,22.73,16.57,59.75,12.13,82.28-2.93,45.75-30.58-3.26-103.38-31.66-128.5Z"/>
            <path class="cls-31" d="M151.31,275.18c-5.81-5.13-24.41,2.24-32.51,1.99-.54-.01-3.07,4.71-3.42,5.38-1.06,1.95-6.16.25-7.14,2.24-.53,1.07-.99,2.18-1.41,3.3-.13.33-.25.65-.37.98-3.9,10.91-5.79,23.85-4.82,36.01,1.05,13.11,5.93,27.07,16.93,35.09,14.7,10.72,38.64,7.85,53.2-1.89,29.58-19.77-2.11-66.85-20.47-83.08Z"/>
            <path class="cls-24" d="M201.86,326.77c-.66-.62-1.73-.52-2.57-.16-2.6,1.1-3.62,4.02-3.95,6.62-.16,1.24-.21,3.34,1.05,4.07,1.67.98,3.55-.86,4.4-2.16,1.03-1.56,1.7-3.43,1.78-5.31.02-.46,0-.93-.05-1.39-.07-.61-.22-1.25-.67-1.67Z"/>
            <path class="cls-24" d="M205.57,342.72c-3.02-2.15-5.75,3.3-6.27,5.37-.45,1.79-.43,4.58,2.15,4.03,2.27-.49,4.2-3.78,4.75-6.32.1-.47.16-.91.16-1.31,0-.67-.24-1.39-.79-1.78Z"/>
            <path class="cls-9" d="M126.3,332.07c-1.89.45-1.97,3.07-1.69,4.6.33,1.85,1.14,3.65,2.38,5.07.3.35.64.68.99.97.47.39,1.02.75,1.64.75.91-.01,1.61-.82,1.97-1.65,1.12-2.59-.16-5.41-1.71-7.52-.74-1-2.15-2.56-3.57-2.22Z"/>
            <path class="cls-9" d="M112.4,324.82c-1.31,1.92-.43,5.63.92,7.85.25.41.52.77.79,1.06.46.49,1.13.84,1.8.74,3.66-.53,1.88-6.36.83-8.22-.91-1.61-2.85-3.61-4.34-1.43Z"/>
            <path class="cls-9" d="M117.88,311.39c-1.2,1.46-.6,4.11.1,5.67,0,.02.02.04.03.06.2.44.46.87.85,1.15.56.41,1.27.37,1.79-.1,1.51-1.38,1.01-3.82.26-5.46-.55-1.22-1.82-2.79-3.03-1.31Z"/>
            <path class="cls-19" d="M160.49,240.77c-8.98-7.94-37.75,3.46-50.27,3.07-.84-.02-4.74,7.29-5.3,8.32-1.65,3.02-9.53.38-11.05,3.46-.82,1.66-1.53,3.37-2.17,5.11-.19.5-.39,1.01-.57,1.51-6.03,16.87-8.95,36.88-7.45,55.69.32,4.07.9,8.19,1.73,12.28,20.05-14.09,47.35-16.54,71.56-10.3,18.67,3.93,33.4,15.72,41.26,32.42,1.41,2.82,2.49,5.7,3.29,8.62,28.48-33.87-14.96-97.13-41.03-120.19Z"/>
          </g>
          <path class="cls-9" d="M174.55,328.99c-.37-.35-.97-.29-1.44-.09-1.45.61-2.02,2.25-2.21,3.7-.09.69-.12,1.87.59,2.28.94.55,1.98-.48,2.46-1.21.58-.88.95-1.92,1-2.97.01-.26,0-.52-.03-.78-.04-.34-.12-.7-.37-.93Z"/>
          <path class="cls-9" d="M179.48,339.8c-3.02-2.15-5.75,3.3-6.27,5.37-.45,1.79-.43,4.58,2.15,4.03,2.27-.49,4.2-3.78,4.75-6.32.1-.47.16-.91.16-1.31,0-.67-.24-1.39-.79-1.78Z"/>
          <path class="cls-9" d="M162.88,346.76c-2.05-.05-3.36,2.07-3.96,3.77-.44,1.26-.61,3.27,1.29,3.04,1.88-.23,3.27-2.56,3.84-4.17,0-.02.01-.04.02-.06.16-.46.27-.94.18-1.42-.12-.69-.66-1.15-1.37-1.16Z"/>
          <g>
            <path class="cls-35" d="M102.16,370.37c3.74,1.99,7.07,3.7,10.81,5.69-2.39,2.77-5.86,5.97-8.26,8.73,42.98,2.84,65.47-3.77,77.22-10.08,2.72-8.57,2.72-23.29,1.63-29.72-20.83,7.05-60.57,18.33-81.4,25.38Z"/>
            <path class="cls-3" d="M102.16,370.38c3.74,1.98,7.06,3.7,10.81,5.69-2.4,2.76-5.87,5.96-8.25,8.73,9.79.65,18.2.84,25.56.67-2.1-7.6-3.17-14.93-3.73-22.82-9.23,2.82-17.76,5.49-24.38,7.73Z"/>
            <path class="cls-23" d="M141.92,376.08c-1.24.69-2.8,2.28-1.18,3.8,1.6,1.51,4.33.75,5.91-.14.02-.01.04-.02.06-.03.44-.26.87-.58,1.15-1.07.39-.71.31-1.59-.22-2.24-1.54-1.9-4.05-1.25-5.72-.32Z"/>
            <path class="cls-23" d="M131.79,370.53c-.92.51-2.07,1.69-.87,2.81,1.19,1.11,3.21.55,4.38-.1.01,0,.03-.02.04-.02.33-.19.65-.43.85-.79.29-.52.23-1.18-.17-1.66-1.14-1.4-3-.93-4.23-.24Z"/>
            <path class="cls-23" d="M149.27,366.53c-.71.4-1.61,1.32-.68,2.19.93.87,2.5.43,3.41-.08.01,0,.02-.01.03-.02.26-.15.5-.33.66-.61.23-.41.18-.92-.13-1.29-.89-1.09-2.33-.72-3.3-.18Z"/>
            <path class="cls-8" d="M150.7,357.79c-11,2.46-21.65,6.3-32.26,10.04-1.37.48-.83,2.45.6,2.18,11.06-2.11,22.2-4.15,32.95-7.55,2.97-.94,1.76-5.34-1.29-4.66Z"/>
            <path class="cls-19" d="M102.16,370.37c3.74,1.99,7.07,3.7,10.81,5.69-2.39,2.77-5.86,5.97-8.26,8.73.15,0,.28.02.43.03,4.73-2.32,8.26-6.48,12.53-9.9-4.81-3.21-10.28-3.14-15.33-4.61-.06.02-.13.04-.19.06Z"/>
          </g>
        </g>
        <g>
          <path class="cls-29" d="M390.65,284.65c-30.55,0-72.75,1.35-126.58,4.05,75.86-66.92,113.8-125.44,113.8-175.53,0-37.62-15.7-66.61-47.08-86.99C304.18,8.73,271.13,0,231.64,0c-24.32,0-49.37,3.12-75.14,9.35-28.89,7.07-51.96,16.73-69.21,29-3.54,2.49-5.3,5.1-5.3,7.79,0,3.54,13.51,86.05,20.58,86.05,1.04,0,6.65-3.22,16.84-9.67,12.05-7.9,23.59-13.92,34.61-18.08,16.42-6.65,32.94-9.98,49.57-9.98,14.76,0,27.48,5.04,38.19,15.12,10.7,10.08,16.06,22.5,16.06,37.26,0,21.54-16.33,43-28.49,59.37-20.26,27.27-47.22,48.07-74.6,68.01-10.36,7.55-21.25,14.38-31.61,21.88-5.06,3.66-10.58,6.38-15.12,10.76-.74.72-1.48,1.49-1.87,2.44-2.42,5.89,2.45,16.07,3.79,21.82,2.01,8.64,3.8,17.33,5.37,26.06,1.38,7.71.09,16.7,4.02,23.8,4.2,7.59,17.16,5.22,24.68,5.28,5.28.04,10.55-.23,15.82-.44,71.33-2.77,144.11-9.57,214.39,6.71,6.71,1.56,22.05,5.29,22.05-5.63,0-5.2.1-13.15.31-23.85.2-10.7.31-18.55.31-23.54s.52-12.26,1.56-21.82c1.04-9.56,1.56-16.73,1.56-21.51,0-7.69-3.12-11.54-9.35-11.54Z"/>
          <path class="cls-22" d="M355.72,62.55c-3.41-3.06-6.79-6.16-10.28-9.13-2.61-2.23-5.27-4.68-8.85-5.02-7.83-.74-13.55,7.78-18.46,12.69-4.46,4.48-8.74,8.97-12.73,13.78-3.84-5.2-7.92-10.23-12.04-15.2-3.87-4.67-8.43-11.96-15.32-11.99-6.97-.03-11.56,6.61-15.83,11.17-3.52,3.76-7.73,7.56-10.91,11.88-4.08-4.82-8.37-9.44-12.66-14.09-3.94-4.25-8.21-9.89-14.8-7.68-5.71,1.92-10.19,9.21-14.01,13.52-1.49,1.69-3.44,3.52-5.1,5.51-4.63-4.88-9.51-9.5-14.37-14.17-4.57-4.4-9.68-8.98-16.45-6.46-5.73,2.13-9.15,8.57-12.57,13.21-2.21,3.01-4.47,5.97-6.51,9.1-.33.51-.69,1.02-1.04,1.53-4.34-4.54-9.12-8.76-13.55-13.16-4.09-4.06-8.9-10.92-15.08-11.65-6.07-.72-9.43,4.32-12.06,8.97-1.85,3.27-3.6,6.59-5.35,9.91-.68,1.27-1.47,2.54-2.17,3.84-4.76-4.44-9.91-8.56-14.81-12.82-2.46-2.15-5.24-4.99-8.33-6.44.48,3.4,1.35,8.82,2.47,15.31,1.2,1.01,2.41,2.02,3.61,3.04,4.56,3.84,8.99,7.88,13.8,11.39,2.68,1.96,5.57.35,6.79-2.11,3.32-2.16,4.94-5.97,7.11-9.42,1.67-2.64,3.31-5.31,4.93-7.99,1.28-2.12,1.96-4.82,4.42-2.82,4.17,3.39,7.71,8.08,11.43,11.97,4.05,4.25,7.87,8.87,12.23,12.82,3.13,2.84,6.94,1.32,8.39-1.48,2.61-1.8,4.71-4.63,6.78-7,3.76-4.32,7.09-9.05,10.95-13.27,1.66-1.82,2.05-2.34,3.95-.57,2.07,1.95,3.98,4.1,5.96,6.14,4.55,4.69,9.05,9.34,13.94,13.68,3.08,2.75,6.78,1.75,8.73-.65,2.09-.84,3.84-2.53,5.76-4.28,4.06-3.69,8.01-7.56,11.9-11.44l.94-.93c.46.59,1.03,1.21,1.13,1.32,1.68,1.96,3.36,3.91,5.05,5.87,3.58,4.17,7.16,8.27,10.98,12.23,3.24,3.36,7.26,2.14,9.33-.69,4.4-2.07,7.91-5.58,11.37-8.97,2.31-2.25,4.61-4.51,6.91-6.76,1.3-1.27,4.12-5.16,5.86-5.46,2.58-.45,8.56,8.79,10.38,11.01,3.76,4.58,7.38,9.27,11.12,13.87,1.67,2.05,4.14,2.11,6.17,1.1.25-.07.49-.17.72-.31,5.78-3.71,11.16-7.83,16.29-12.4l7.26-6.46c1.44-1.28,2.98-2.53,4.36-3.88,1.42-1.39.94-1.31,2.22-.88.96.31,2.93,2.72,3.61,3.33,1.21,1.1,2.43,2.19,3.64,3.28,2.67,2.41,5.34,4.81,8.02,7.23,5.37,4.83,10.71,9.63,16.37,14.13,2.57,2.05,5.59,1.79,7.72.37.22-.02.43-.05.64-.09-.84-4.22-1.93-8.32-3.26-12.28-5.42-5.24-11.06-10.21-16.69-15.23Z"/>
          <path class="cls-22" d="M302.4,25.72c-3.84-5.2-7.92-10.23-12.04-15.2-.9-1.09-1.84-2.32-2.83-3.57-6.88-1.89-14.03-3.39-21.48-4.51-2.52,2.22-4.73,5-6.84,7.26-3.52,3.76-7.73,7.55-10.91,11.88-4.08-4.83-8.38-9.45-12.67-14.09-2.52-2.74-5.19-6.03-8.51-7.46-2.46.04-4.91.11-7.38.22-5.19,2.41-9.34,9.04-12.91,13.08-1.49,1.68-3.44,3.52-5.1,5.51-4.63-4.88-9.52-9.5-14.38-14.18-.4-.38-.81-.78-1.22-1.15-8.48,1.28-17.05,2.92-25.68,4.91-.72,1.04-1.4,2.05-2.1,3-2.22,3-4.48,5.97-6.51,9.1-.33.51-.69,1.02-1.05,1.53-2.87-3-5.92-5.87-8.95-8.73-3.71,1.1-7.32,2.26-10.82,3.46.99,1.12,1.97,2.23,2.97,3.27,4.06,4.25,7.88,8.87,12.23,12.81,3.14,2.84,6.95,1.33,8.4-1.47,2.61-1.8,4.7-4.63,6.77-7.01,3.76-4.32,7.1-9.04,10.96-13.26,1.66-1.82,2.05-2.34,3.95-.57,2.07,1.95,3.98,4.09,5.96,6.13,4.55,4.7,9.05,9.34,13.93,13.69,3.09,2.75,6.79,1.75,8.73-.65,2.09-.85,3.84-2.53,5.77-4.28,4.06-3.69,8.01-7.57,11.9-11.44l.93-.94c.46.6,1.04,1.22,1.13,1.33,1.69,1.96,3.37,3.91,5.05,5.87,3.59,4.17,7.17,8.27,10.98,12.22,3.24,3.36,7.27,2.14,9.34-.68,4.39-2.07,7.9-5.58,11.37-8.97,2.3-2.25,4.61-4.51,6.91-6.76,1.29-1.27,4.11-5.17,5.85-5.47,2.59-.45,8.57,8.8,10.39,11.02,3.76,4.58,7.38,9.27,11.12,13.86,1.67,2.05,4.14,2.11,6.17,1.11.25-.08.48-.18.72-.32,5.77-3.71,11.15-7.83,16.29-12.39l3.29-2.93c-3.43-1.92-6.96-3.7-10.59-5.34-3.18,3.28-6.24,6.61-9.14,10.12Z"/>
          <path class="cls-22" d="M92.56,104.22c.84,3.69,1.7,7.23,2.54,10.45,4.47,4.86,8.97,9.7,13.49,14.5,2.09-1.23,4.73-2.83,7.89-4.81-7.45-6.53-14.95-13-22.5-19.42-.45-.39-.94-.62-1.42-.72Z"/>
          <path class="cls-22" d="M138.99,97.11c-2.51,1.26-3.74,3.86-4.95,6.22-1.75,3.44-3.46,6.89-5.18,10.34-.72,1.42-1.42,2.84-2.14,4.26,5.62-3.39,11.13-6.36,16.52-8.9.17-.33.33-.66.5-.99.2.17.39.32.58.49,3.27-1.52,6.5-2.88,9.69-4.08.42-.17.84-.34,1.27-.5-.15-.13-.29-.26-.44-.38-4.3-3.75-9.56-9.63-15.85-6.45Z"/>
          <path class="cls-22" d="M357.42,106.95c-3.87-4.67-8.43-11.96-15.32-11.99-6.97-.03-11.57,6.61-15.83,11.17-3.52,3.76-7.73,7.55-10.91,11.88-4.08-4.83-8.37-9.44-12.67-14.09-3.93-4.26-8.21-9.89-14.8-7.68-5.7,1.92-10.19,9.21-14,13.52-1.49,1.69-3.44,3.52-5.1,5.51-4.63-4.88-9.52-9.5-14.37-14.17-4.58-4.4-9.68-8.98-16.45-6.46-3.16,1.18-5.62,3.66-7.77,6.44,3.22,1.78,6.31,3.92,9.23,6.43,1.63-1.8,2.03-2.3,3.92-.54,2.07,1.95,3.98,4.1,5.96,6.13,4.55,4.7,9.05,9.34,13.94,13.69,3.08,2.75,6.78,1.75,8.72-.65,2.09-.85,3.85-2.53,5.77-4.28,4.06-3.69,8.01-7.56,11.9-11.44l.94-.93c.46.59,1.03,1.21,1.12,1.32,1.69,1.96,3.37,3.91,5.05,5.87,3.59,4.17,7.17,8.27,10.99,12.22,3.23,3.37,7.26,2.14,9.33-.68,4.4-2.07,7.9-5.58,11.37-8.97,2.3-2.25,4.61-4.51,6.91-6.76,1.3-1.27,4.11-5.16,5.86-5.46,2.58-.46,8.56,8.79,10.38,11.01,3.76,4.58,7.38,9.27,11.12,13.87,1.67,2.05,4.14,2.11,6.17,1.1.25-.08.49-.18.72-.32,2.48-1.59,4.88-3.25,7.22-5,.69-4.91,1.03-9.76,1.03-14.52v-.37c-2.92,3.04-5.73,6.12-8.4,9.35-3.84-5.2-7.92-10.23-12.04-15.2Z"/>
          <path class="cls-22" d="M349.31,150.36c-2.61-2.23-5.26-4.68-8.85-5.02-7.83-.74-13.55,7.78-18.45,12.69-4.47,4.48-8.75,8.98-12.74,13.79-3.84-5.21-7.92-10.24-12.03-15.21-3.88-4.66-8.44-11.96-15.33-11.99-6.97-.03-11.56,6.61-15.83,11.17-3.52,3.76-7.73,7.56-10.9,11.88-.41-.49-.83-.97-1.26-1.45-1.63,4.31-3.69,8.55-6.01,12.68,3.17,2.94,6.99,1.71,9-1.02,4.39-2.07,7.9-5.57,11.36-8.96,2.31-2.26,4.61-4.51,6.92-6.77,1.29-1.26,4.11-5.16,5.85-5.46,2.58-.45,8.56,8.79,10.38,11.02,3.77,4.57,7.38,9.26,11.12,13.86,1.67,2.05,4.14,2.11,6.17,1.11.25-.08.49-.18.72-.32,5.78-3.71,11.16-7.83,16.29-12.4l7.26-6.46c1.44-1.28,2.98-2.52,4.36-3.87,1.42-1.4.95-1.31,2.22-.89.96.31,2.93,2.72,3.61,3.33,1.21,1.1,2.43,2.19,3.64,3.28,2.67,2.41,5.34,4.82,8.03,7.23,1.66,1.49,3.32,2.99,4.98,4.47,2.17-4.08,4.15-8.11,5.92-12.09-2.04-1.83-4.09-3.64-6.13-5.47-3.42-3.05-6.79-6.16-10.29-9.13Z"/>
          <path class="cls-22" d="M323.27,203.96c-3.52,3.76-7.73,7.56-10.91,11.88-4.09-4.82-8.38-9.44-12.67-14.09-3.94-4.25-8.21-9.89-14.8-7.68-5.7,1.92-10.19,9.21-14,13.52-1.5,1.69-3.44,3.53-5.1,5.52-4.64-4.89-9.52-9.51-14.38-14.18-3.41-3.28-7.13-6.67-11.62-7.12-3.51,5.12-7.13,9.95-10.44,14.41-5.65,7.61-11.83,14.72-18.4,21.44,3,2.09,6.38.59,7.73-2,2.61-1.81,4.7-4.63,6.77-7.01,3.76-4.32,7.1-9.04,10.96-13.27,1.66-1.82,2.05-2.34,3.94-.56,2.08,1.94,3.99,4.09,5.96,6.13,4.55,4.69,9.06,9.34,13.94,13.69,3.09,2.74,6.79,1.75,8.73-.65,2.09-.85,3.84-2.53,5.77-4.29,4.06-3.69,8-7.56,11.9-11.43l.93-.94c.46.6,1.04,1.21,1.13,1.32,1.68,1.96,3.37,3.92,5.05,5.87,3.59,4.17,7.17,8.27,10.98,12.23,3.24,3.36,7.26,2.14,9.34-.68,4.39-2.08,7.9-5.58,11.36-8.97,2.31-2.26,4.61-4.51,6.92-6.77,1.29-1.26,4.11-5.16,5.85-5.46.77-.14,1.84.59,3.01,1.73,2.33-3.22,4.54-6.41,6.63-9.57-2.48-2.4-5.33-4.2-8.75-4.21-6.97-.04-11.56,6.6-15.82,11.16Z"/>
          <path class="cls-22" d="M278.9,239.44c-6.97-.03-11.57,6.61-15.83,11.17-3.52,3.76-7.73,7.56-10.91,11.88-4.08-4.82-8.38-9.44-12.67-14.09-3.93-4.25-8.21-9.89-14.8-7.68-5.7,1.92-10.19,9.21-14,13.52-1.49,1.69-3.44,3.53-5.1,5.51-4.56-4.8-9.37-9.35-14.15-13.95-3.05,2.59-6.14,5.14-9.26,7.65,1.33,1.37,2.61,2.77,3.94,4.14,4.55,4.69,9.05,9.34,13.94,13.69,3.08,2.74,6.78,1.75,8.72-.65,2.09-.85,3.85-2.53,5.77-4.29,4.06-3.69,8.01-7.56,11.9-11.44l.94-.93c.46.59,1.03,1.21,1.12,1.32,1.69,1.96,3.37,3.92,5.05,5.87,3.59,4.17,7.17,8.27,10.98,12.23,3.24,3.36,7.27,2.14,9.34-.69,4.4-2.07,7.9-5.57,11.37-8.96,2.3-2.26,4.61-4.51,6.91-6.77,1.3-1.26,4.11-5.16,5.86-5.46,2.58-.45,8.56,8.79,10.38,11.02.57.7,1.14,1.4,1.7,2.09,2.82-2.74,5.56-5.46,8.23-8.17-1.36-1.69-2.73-3.36-4.12-5.02-3.87-4.66-8.43-11.96-15.32-11.99Z"/>
          <path class="cls-22" d="M380.31,302.4c-3.7,3.46-8.64,7.07-11.84,11.46-5.8-5.67-11.87-11-17.92-16.41-3.41-3.06-6.79-6.16-10.28-9.13-1.07-.9-2.14-1.86-3.28-2.68-4.58.15-9.29.3-14.16.48-3.76,2.77-6.96,6.96-9.87,9.87-4.46,4.48-8.74,8.97-12.73,13.78-3.84-5.2-7.92-10.23-12.04-15.2-1.68-2.03-3.5-4.56-5.57-6.77-6.02.28-12.21.58-18.56.89,2.23-1.97,4.43-3.93,6.6-5.88-5.76,1.18-9.82,6.89-13.62,10.94-3.52,3.76-7.73,7.55-10.91,11.88-4.08-4.83-8.37-9.45-12.66-14.09-3.94-4.26-8.21-9.89-14.8-7.68-5.71,1.92-10.19,9.21-14.01,13.52-1.49,1.68-3.44,3.52-5.1,5.51-4.63-4.88-9.51-9.5-14.37-14.18-4.57-4.39-9.68-8.97-16.45-6.45-5.73,2.13-9.15,8.57-12.57,13.21-2.21,3-4.47,5.97-6.51,9.1-.33.51-.69,1.02-1.04,1.53-4.34-4.54-9.12-8.77-13.55-13.17-.94-.93-1.92-2.01-2.94-3.13-2.74,1.87-5.46,3.75-8.14,5.69,2.72,2.78,5.24,5.89,7.83,8.62,4.05,4.25,7.87,8.87,12.23,12.81,3.13,2.84,6.94,1.33,8.39-1.47,2.61-1.8,4.71-4.63,6.78-7.01,3.76-4.32,7.09-9.04,10.95-13.26,1.66-1.82,2.05-2.34,3.95-.57,2.07,1.95,3.98,4.09,5.96,6.13,4.55,4.7,9.05,9.34,13.94,13.69,3.08,2.75,6.78,1.75,8.73-.65,2.09-.85,3.84-2.53,5.76-4.28,4.06-3.69,8.01-7.57,11.9-11.44l.94-.94c.46.6,1.03,1.22,1.13,1.33,1.68,1.96,3.36,3.91,5.05,5.87,3.58,4.17,7.16,8.27,10.98,12.22,3.24,3.36,7.26,2.14,9.33-.68,4.4-2.07,7.91-5.58,11.37-8.97,2.31-2.25,4.61-4.51,6.91-6.76,1.3-1.27,4.12-5.17,5.86-5.47,2.58-.45,8.56,8.8,10.38,11.02,3.76,4.58,7.38,9.27,11.12,13.86,1.67,2.05,4.14,2.11,6.17,1.11.25-.08.49-.18.72-.32,5.78-3.71,11.16-7.83,16.29-12.39l7.26-6.46c1.44-1.29,2.98-2.53,4.36-3.88,1.42-1.39.94-1.31,2.22-.88.96.31,2.93,2.72,3.61,3.33,1.21,1.1,2.43,2.19,3.64,3.28,2.67,2.41,5.34,4.81,8.02,7.22,5.37,4.83,10.71,9.64,16.37,14.14,2.57,2.05,5.59,1.79,7.72.37,5.36-.58,9.18-4.05,13.39-7.5,2.48-2.04,4.93-4.11,7.41-6.16,1.31-1.09,5.43-4.84,5.74-4.84.75.1,1.85,1.29,2.89,2.6.47-5.41.71-9.73.71-12.96,0-1.4-.1-2.67-.3-3.81-8.1-1.95-14.11,5.09-19.38,10.02Z"/>
          <path class="cls-22" d="M371.48,362.01c-5.79-5.67-11.87-11-17.91-16.41-3.42-3.06-6.79-6.16-10.28-9.13-2.62-2.23-5.27-4.69-8.86-5.02-7.83-.74-13.55,7.77-18.45,12.69-4.47,4.48-8.75,8.97-12.74,13.78-3.84-5.2-7.91-10.23-12.03-15.2-3.87-4.67-8.44-11.96-15.33-11.99-6.97-.03-11.56,6.61-15.83,11.17-3.51,3.76-7.72,7.55-10.9,11.88-4.09-4.83-8.38-9.44-12.67-14.09-3.94-4.26-8.21-9.89-14.8-7.68-5.7,1.92-10.19,9.21-14,13.52-1.5,1.69-3.44,3.52-5.1,5.51-4.64-4.88-9.52-9.5-14.38-14.17-4.57-4.4-9.68-8.98-16.44-6.46-5.73,2.13-9.16,8.57-12.58,13.21-2.21,3.01-4.47,5.97-6.5,9.1-.33.51-.69,1.02-1.05,1.53-4.34-4.54-9.11-8.76-13.55-13.17-4.09-4.05-8.89-10.91-15.07-11.64-5.75-.68-9.05,3.78-11.62,8.19.98,4.43,1.9,8.87,2.74,13.33,1.64-2.6,3.27-5.22,4.85-7.86,1.29-2.12,1.96-4.82,4.43-2.82,4.17,3.39,7.7,8.08,11.42,11.97,4.06,4.25,7.88,8.87,12.23,12.82,3.14,2.84,6.95,1.32,8.4-1.48,2.61-1.8,4.7-4.63,6.77-7.01,3.76-4.32,7.09-9.04,10.96-13.26,1.66-1.82,2.05-2.34,3.94-.57,2.08,1.95,3.99,4.1,5.96,6.13,4.55,4.7,9.06,9.34,13.94,13.69,3.09,2.75,6.79,1.75,8.73-.65,2.09-.85,3.84-2.53,5.77-4.28,4.06-3.69,8-7.56,11.9-11.44l.93-.93c.46.59,1.04,1.21,1.13,1.32,1.68,1.96,3.37,3.91,5.05,5.87,3.59,4.17,7.17,8.27,10.98,12.22,3.24,3.37,7.26,2.14,9.34-.68,4.39-2.07,7.9-5.58,11.36-8.97,2.31-2.25,4.61-4.51,6.92-6.76,1.29-1.27,4.11-5.16,5.85-5.46,2.58-.46,8.56,8.79,10.38,11.01,3.77,4.58,7.39,9.27,11.12,13.87,1.68,2.05,4.14,2.11,6.18,1.1.25-.08.48-.18.72-.32,5.77-3.7,11.15-7.82,16.28-12.39l7.26-6.46c1.44-1.29,2.98-2.53,4.36-3.88,1.42-1.39.95-1.31,2.23-.88.96.31,2.93,2.72,3.6,3.33,1.21,1.1,2.43,2.19,3.64,3.28,2.67,2.41,5.35,4.81,8.03,7.22,5.36,4.83,10.7,9.64,16.36,14.14,2.58,2.05,5.59,1.79,7.72.37,5.36-.58,9.19-4.05,13.39-7.5,2.48-2.04,4.94-4.11,7.41-6.16.62-.51,1.85-1.61,3.02-2.62.12-6.95.19-12.39.19-16.31-5.3,1.43-9.63,6.28-13.55,9.94-3.71,3.47-8.65,7.07-11.85,11.46Z"/>
          <g class="cls-40">
            <path class="cls-2" d="M340.98,348.96c-64.84,1.96-130.66,2.95-195.5,1.96,0-14.74-10.81-36.35,6.88-44.21,49.12-21.61,91.37-54.03,120.84-100.21,18.67-29.47,26.53-65.82,10.81-98.24-34.38-67.79-115.93-41.26-172.91-27.51-5.31-17.07-7.69-34.28-8.89-51.59-5.37,2.88-10.35,5.93-14.91,9.17-3.54,2.49-5.3,5.1-5.3,7.79,0,3.54,13.51,86.05,20.58,86.05,1.04,0,6.65-3.22,16.84-9.67,12.05-7.9,23.59-13.92,34.61-18.08,16.42-6.65,32.94-9.98,49.57-9.98,14.76,0,27.48,5.04,38.19,15.12,10.7,10.08,16.06,22.5,16.06,37.26,0,21.54-16.33,43-28.49,59.37-20.26,27.27-47.22,48.07-74.6,68.01-10.36,7.55-21.25,14.38-31.61,21.88-5.06,3.66-10.58,6.38-15.12,10.76-.74.72-1.48,1.49-1.87,2.44-2.42,5.89,2.45,16.07,3.79,21.82,2.01,8.64,3.8,17.33,5.37,26.06,1.38,7.71.09,16.7,4.02,23.8,4.2,7.59,17.16,5.22,24.68,5.28,5.28.04,10.55-.23,15.82-.44,71.33-2.77,144.11-9.57,214.39,6.71,6.71,1.56,22.05,5.29,22.05-5.63,0-5.2.1-13.15.31-23.85.1-5.14.17-9.62.23-13.44-18.51-1.03-37.11-1.35-55.82-.66Z"/>
          </g>
          <path class="cls-25" d="M306.54,30.54c-16.17-8.84-36.84-15.43-55.28-11.21-2.95.67-3.03,5.42,0,6.04,15.08,3.1,29.57,5.68,43.32,13.02,13.24,7.07,25.14,17.1,33.8,29.42,17.44,24.81,20.52,56.18,10.25,84.48-5.62,15.48-15.18,29.68-26.96,41.13-6.42,6.24,2.18,18.21,9.82,12.73,28.99-20.79,43.36-57.24,40.28-92.45-3.09-35.26-24.24-66.22-55.22-83.16Z"/>
          <path class="cls-25" d="M367.71,302.2c-17.74-3.39-35.55-4.09-53.57-3.57-8.91.26-17.75,1-26.6,2.11-7.82.99-18.01,1.51-24.69,6.06-2.9,1.98-2.29,6,.94,7.18,7.64,2.81,17.62,1.32,25.65,1.33,8.23,0,16.48.21,24.7.53,17.1.67,34.12,2.72,51.15,4.21,10.13.89,12.48-15.93,2.42-17.85Z"/>
        </g>
        <g>
          <path class="cls-12" d="M98.21,283.72c-2.75.12-4.25,3.44-6.02,5.55-4.05,4.81-8.88,6.79-14.52,9.57,11.97,24.12,32.88,43.66,57.75,53.98-1.09-2.47-1.35-4.97-2.44-7.44,4.15-1.28,8.3-2.55,12.45-3.83-19.42-15.83-35.58-35.64-47.21-57.83Z"/>
          <path class="cls-3" d="M129.47,326.9c-4.61,5.02-8.9,10.33-12.85,15.89,5.92,3.94,12.22,7.31,18.79,10.04-1.09-2.48-1.35-4.97-2.45-7.45,4.15-1.27,8.3-2.55,12.45-3.83-5.6-4.57-10.92-9.46-15.95-14.65Z"/>
          <path class="cls-23" d="M100.48,321.22c-.87.16-1.45.84-1.46,1.72-.01.61.22,1.19.51,1.72.01.02.03.05.04.07,1.03,1.89,3.23,4.5,5.62,4.4,2.4-.1,1.78-2.56.98-4.04-1.09-1.99-3.14-4.35-5.68-3.87Z"/>
          <path class="cls-23" d="M114.79,324.92c-.65.12-1.07.62-1.08,1.27,0,.45.17.88.38,1.28,0,.02.02.03.03.05.76,1.4,2.39,3.33,4.16,3.26,1.78-.07,1.32-1.9.72-2.99-.8-1.47-2.33-3.22-4.2-2.87Z"/>
          <path class="cls-23" d="M101.12,309.53c-.5.09-.83.49-.84.99,0,.35.13.68.29.99,0,.01.01.03.02.04.59,1.09,1.86,2.59,3.24,2.54,1.38-.06,1.03-1.48.56-2.33-.63-1.15-1.81-2.51-3.28-2.23Z"/>
          <path class="cls-19" d="M92.18,289.27c-4.05,4.81-8.88,6.79-14.52,9.57,3.08,6.21,6.77,12.11,10.96,17.64,8.81-1.11,17.41-3.83,25.14-8.06-5.82-7.81-11.03-16.07-15.55-24.69-2.75.12-4.25,3.44-6.02,5.55Z"/>
          <path class="cls-8" d="M108.8,330.26c-1.79-1.36-4.41,1.27-2.68,2.76,6.18,5.31,13.16,10.2,20.91,13.35,1.03.42,2.24-.98,1.3-1.71-6.36-4.97-13.11-9.5-19.54-14.39Z"/>
          <path class="cls-39" d="M144.51,340.79c-5.63.84-11.35.77-17.06-.85,2.81,3.4,5.38,8.64,7.35,12.62.2.09.41.18.61.26-1.09-2.48-1.35-4.97-2.45-7.45,4.15-1.27,8.3-2.55,12.45-3.83-.3-.25-.6-.51-.9-.76Z"/>
        </g>
        <g>
          <g>
            <path class="cls-11" d="M164.49,266.27c-2.76-.04-6.25-1.08-8.14.92,9.17,23.32,13.56,48.5,12.82,73.54,3.68-2.3,7.36-4.6,11.04-6.91,1.15,2.44,2.87,4.27,4.02,6.71,8.48-25.55,7.39-54.16-3.01-78.99-5.79,2.45-10.45,4.81-16.74,4.72Z"/>
            <path class="cls-3" d="M168.53,319.09c.64,7.2.85,14.42.64,21.65,3.68-2.3,7.37-4.61,11.04-6.91,1.15,2.45,2.87,4.27,4.03,6.72,2.24-6.75,3.81-13.72,4.71-20.78-6.79-.65-13.61-.88-20.42-.68Z"/>
            <path class="cls-23" d="M186.45,294.99c-.22-.57-.5-1.13-.97-1.51-.67-.56-1.56-.57-2.26-.02-2.02,1.61-1.58,4.71-.79,6.83.59,1.58,2.05,3.65,3.7,1.9,1.63-1.74,1.1-5.11.35-7.13,0-.02-.02-.05-.03-.07Z"/>
            <path class="cls-23" d="M179.03,307.83c-.16-.42-.37-.83-.72-1.12-.5-.42-1.16-.42-1.67-.02-1.49,1.19-1.17,3.48-.58,5.06.44,1.17,1.52,2.7,2.73,1.41,1.21-1.28.81-3.78.26-5.27,0-.02-.01-.04-.02-.06Z"/>
            <path class="cls-23" d="M175.82,287.17c-.13-.33-.29-.65-.56-.87-.39-.32-.9-.33-1.3-.01-1.16.93-.91,2.71-.45,3.94.34.91,1.18,2.11,2.13,1.1.94-1,.63-2.95.2-4.11,0-.01-.01-.03-.02-.04Z"/>
            <path class="cls-39" d="M169.21,338.23c-.01.83-.01,1.67-.04,2.5,3.68-2.3,7.37-4.61,11.04-6.91,1.15,2.45,2.87,4.27,4.03,6.72.19-.57.37-1.15.55-1.72-1.55-3.36-2.41-6.93-2.99-10.59-3.93,4.21-8.16,7.41-12.59,10Z"/>
          </g>
          <path class="cls-19" d="M164.49,266.27c-2.76-.04-6.25-1.08-8.14.92,3.37,8.56,6.08,17.37,8.13,26.33,8.46-3.32,15.89-8.79,22.11-15.6-1.37-5.58-3.15-11.07-5.37-16.37-5.79,2.45-10.45,4.81-16.74,4.72Z"/>
          <path class="cls-8" d="M169.64,302.5c1.48,8.98,2.01,17.75,2.19,26.84.03,1.49,2.17,1.64,2.55.25,2.48-9.08,2.21-18.78-.11-27.86-.65-2.53-5.06-1.88-4.62.77Z"/>
        </g>
        <g>
          <g>
            <path class="cls-28" d="M127.48,116.25c-7.68,7.93-12.83,17.94-15.09,28.75,16.14,6.8,32.6,15.75,47.3,25.27,5.25-9.17,8.14-19.55,7.97-30.11-10.14-8.3-21.05-15.66-32.56-21.93-2.84-1.55-4.47-1.31-7.63-1.98Z"/>
            <path class="cls-4" d="M133.64,124.81c-5.79,5.98-9.67,13.53-11.38,21.68,12.18,5.13,24.59,11.88,35.68,19.06,3.96-6.92,6.14-14.74,6.01-22.71-7.65-6.26-15.88-11.81-24.56-16.54-2.14-1.17-3.37-.99-5.76-1.49Z"/>
            <path class="cls-26" d="M128.78,116.49c-3.26,12.57,3.59,26.14,5.27,38.8,8.85,4.65,17.52,9.72,25.65,14.98,5.25-9.17,8.14-19.55,7.97-30.11-10.14-8.3-21.05-15.66-32.56-21.93-2.42-1.32-3.97-1.34-6.33-1.74Z"/>
          </g>
          <g>
            <path class="cls-14" d="M19.3,158.58c-5.94,11.68-10.79,23.92-14.45,36.5,5.83,8.81,14.09,15.73,23.61,20.32,6.75-16.17,15.25-32.86,24.72-47.59-7.98-7.63-17.88-12.98-28.7-15.18-2.23,2.34-3.71,3.07-5.17,5.95Z"/>
            <path class="cls-4" d="M20.34,167.67c-4.48,8.81-8.14,18.04-10.9,27.53,4.4,6.64,10.63,11.87,17.81,15.33,5.09-12.19,11.5-24.78,18.65-35.9-6.02-5.76-13.49-9.79-21.65-11.45-1.68,1.76-2.8,2.31-3.9,4.49Z"/>
            <path class="cls-26" d="M23.55,153.57c-1.73,1.66-2.99,2.56-4.24,5.01-5.94,11.68-10.79,23.92-14.45,36.5,5.83,8.81,14.09,15.73,23.61,20.32,3.73-8.94,8.01-18.02,12.68-26.86-5.78-11.39-7.8-26.45-17.6-34.98Z"/>
          </g>
          <path class="cls-6" d="M93.82,125.76c-2.59,6.96-6.27,13.48-10.63,19.49,2.85-6.64,3.82-14.02,2.9-21.23-.11-.86-1.41-.82-1.36.06.55,9.06-1.78,18.13-6.25,26-.61,1.07,1.04,1.85,1.68.85.64-.99,1.24-2.01,1.78-3.05.28.58,1.06.9,1.58.25,5.21-6.53,8.92-14.03,11.37-22,.19-.62-.85-1-1.08-.38Z"/>
          <path class="cls-30" d="M73.51,146.28c-48.31,18.87-67.11,77.9-53.41,121.37,15.54,49.31,71.03,45.52,119.34,26.65,48.31-18.87,76.91-45.77,58.09-93.93-18.81-48.16-75.71-72.96-124.02-54.09Z"/>
          <path class="cls-16" d="M77.61,223.36c-.21-.12-.43-.25-.65-.37-3.39-1.87-7.26-2.85-11.13-2.84-9.97.04-18.48,6.59-21.89,14.93-.74,1.82-1.26,3.64-1.54,5.44-.35,2.21-.36,4.39-.07,6.48,1.7,12.48,14.22,21.69,30.49,15.89.43-.15.86-.31,1.28-.48.84-.35,1.66-.75,2.44-1.19,10.45-5.88,13.69-19.27,8.96-29.2-1.64-3.47-4.27-6.52-7.89-8.67Z"/>
          <path class="cls-34" d="M67.94,222.01c-8.21.03-15.81,5.81-19.18,13.25-2.01,4.43-2.53,9.45-.79,14.18,3.2,8.71,12.64,12.89,21.48,11.44,7.49-1.23,14.56-6.73,16.88-14.07,3.77-11.9-5.96-24.85-18.39-24.81Z"/>
          <path class="cls-16" d="M166.77,199.24c-1.3-1.38-2.82-2.64-4.52-3.76-7.83-5.15-18.98-5.76-27.55.07-3.33,2.26-6.07,5.38-7.88,8.98-.12.23-.23.47-.34.7-1.84,3.98-2.29,8.14-1.67,12.08,1.78,11.3,12.44,20.87,24.85,19.77.93-.08,1.87-.22,2.79-.41.46-.1.92-.22,1.38-.34,17.36-4.59,22.68-19.85,16.8-31.55-.97-1.96-2.27-3.82-3.87-5.52Z"/>
          <g>
            <path class="cls-17" d="M64.73,231.23c-6.65,4.9-6.23,15.71.03,20.55,8.16,6.31,21.92.39,21.73-10.32-.19-10.9-13.27-16.48-21.76-10.23Z"/>
            <path class="cls-5" d="M69.64,234.07c-1.54,1.08-2.7,2.74-3.08,4.92-1.32,7.54,9.2,12.63,14.24,6.8,2.74-3.17,2.15-8.11-.81-10.91-2.95-2.79-7.37-2.9-10.35-.81Z"/>
            <path class="cls-27" d="M75.48,235.16c-1.66.89-2.45,3.06-1.72,4.8.94,2.25,3.95,2.99,5.84,1.43,3.32-2.73-.18-8.34-4.12-6.23Z"/>
            <path class="cls-27" d="M73.08,246.55c-.15-.33-.37-.61-.66-.83l-.46-.26c-.35-.14-.7-.18-1.07-.13-.28.03-.54.13-.76.29-.24.12-.44.29-.6.52-.17.21-.28.45-.33.72-.09.26-.11.53-.06.81.05.18.1.36.15.53.15.33.37.61.66.83.15.09.31.17.46.26.35.14.7.18,1.07.13.28-.03.54-.13.76-.29.24-.12.44-.29.6-.52.17-.21.28-.45.33-.72.09-.26.11-.53.06-.81-.05-.18-.1-.36-.15-.53Z"/>
            <path class="cls-19" d="M64.73,231.23c-6.65,4.9-6.23,15.72.02,20.55,8.16,6.31,21.91.4,21.73-10.32-.19-10.91-13.26-16.48-21.75-10.23ZM65.04,250.33c-5.72-4.41-6.1-14.3-.03-18.77,7.76-5.72,19.7-.61,19.87,9.34.18,9.79-12.4,15.19-19.84,9.42Z"/>
          </g>
          <g>
            <path class="cls-4" d="M58.27,197.89c-8.27.66-15.32,6.75-18.58,14.15-.85,1.93-1.41,4.27-.3,6.07,4.91,7.93,20.51-4.8,24.07-8.59,1.56-1.66,3.05-3.58,3.33-5.84.56-4.63-4.85-6.08-8.52-5.78Z"/>
            <path class="cls-39" d="M63.11,198.52c1.45,7.88-10.16,19.36-20.84,21.86,6.47,2.01,18.16-7.64,21.19-10.86,1.56-1.66,3.05-3.58,3.33-5.84.33-2.74-1.43-4.35-3.68-5.16Z"/>
          </g>
          <g>
            <path class="cls-4" d="M152.6,176.52c-6.87-4.26-16.13-5.29-23.32-1.16-3.19,1.84-6.84,6.09-3.76,9.59,1.51,1.71,3.82,2.45,6.05,2.93,5.08,1.11,25.14,2.79,24.71-6.53-.1-2.11-1.88-3.72-3.67-4.83Z"/>
            <path class="cls-39" d="M125.64,178.61c-1.4,1.94-1.93,4.27-.11,6.34,1.51,1.71,3.82,2.45,6.05,2.93,4.31.94,19.42,2.29,23.62-3.03-10.22,3.97-26.29,1.07-29.55-6.25Z"/>
          </g>
          <path class="cls-10" d="M157.25,199.53c-6.99-4.22-16.52-4.7-23.31-.08-10.27,6.99-10.98,23.17-1.14,30.86,6.07,4.74,15,5.28,21.88,2.06,8.11-3.8,13.53-12.59,11.24-21.59-1.24-4.89-4.5-8.74-8.67-11.25Z"/>
          <g>
            <path class="cls-17" d="M145.32,203.89c-10.54-.35-18.17,11.64-12.16,20.74,5.91,8.94,20.6,6.04,23.76-3.78,2.42-7.53-3.35-16.69-11.6-16.96Z"/>
            <path class="cls-5" d="M142.88,209.01c-3.65-.03-7.23,2.55-8.08,6.52-.86,3.99,1.45,8.39,5.5,9.46,7.45,1.96,13.25-8.19,7.9-13.66-1.55-1.58-3.44-2.3-5.32-2.31Z"/>
            <path class="cls-27" d="M138.5,213.79c-4.44.49-4.15,7.09.13,7.47,2.44.22,4.5-2.09,4-4.48-.39-1.85-2.26-3.19-4.13-2.99Z"/>
            <path class="cls-27" d="M150.98,219.94c-.12-.26-.29-.47-.51-.64-.19-.19-.41-.33-.68-.41-.26-.1-.52-.13-.79-.09-.28,0-.54.06-.79.19-.33.17-.6.4-.81.71l-.23.47c-.12.34-.14.7-.07,1.05.06.18.12.35.18.53.12.26.29.47.51.64.19.19.41.33.68.41.26.1.52.13.79.09.28,0,.54-.06.79-.19.33-.17.6-.4.81-.71.08-.16.15-.32.23-.47.12-.34.14-.7.07-1.05-.06-.18-.12-.35-.18-.53Z"/>
            <path class="cls-19" d="M145.32,203.89c-10.54-.35-18.16,11.64-12.15,20.74,5.91,8.94,20.59,6.04,23.75-3.78,2.43-7.52-3.34-16.68-11.6-16.96ZM155.86,219.82c-2.88,8.96-16.31,11.62-21.7,3.45-5.49-8.31,1.48-19.27,11.1-18.94,7.54.25,12.81,8.62,10.59,15.49Z"/>
          </g>
          <path class="cls-1" d="M121.99,278.45c-4.09,4.42-9.99,5.33-15.15,2.15-1.05-.65-2.26,1.03-1.26,1.79,5.93,4.51,13.89,4,18.91-1.65,1.45-1.63-1.01-3.89-2.5-2.29Z"/>
          <g>
            <path class="cls-26" d="M139.49,226.29c-4.31-1.69-8.97-2.07-13.53-1.98-15.26.32-32.77,6.29-44.16,17.61-1.76,1.75-3.37,3.62-4.8,5.62-9.39,13.1-2.34,28.52,12.47,32.9,12,3.55,26.56,1.19,37.61-3.97,10.19-4.76,18.94-13.28,22.75-24.21,1.88-5.39,2.48-11.64-.03-16.87-2.06-4.29-6.01-7.42-10.32-9.11Z"/>
            <path class="cls-36" d="M138.97,224.85c-4.23-1.55-8.82-1.85-13.32-1.7-15.05.5-32.4,6.39-43.77,17.27-1.75,1.68-3.37,3.48-4.81,5.39-9.43,12.55-2.67,27.09,11.88,31.06,11.79,3.22,26.17.79,37.14-4.25,10.11-4.64,18.84-12.84,22.74-23.26,1.92-5.14,2.59-11.07.19-16-1.97-4.05-5.83-6.96-10.06-8.51Z"/>
            <path class="cls-21" d="M147,230.3c.57,6.25-.39,12.48-4.22,18.49-13.18,20.54-45.37,29.49-59.86,9.3-3.88-5.17-4.02-11.29-1.84-16.86-1.44,1.45-2.79,2.98-4,4.59-9.43,12.55-2.67,27.09,11.88,31.06,11.79,3.22,26.17.79,37.14-4.25,10.11-4.64,18.84-12.84,22.74-23.26,1.92-5.14,2.59-11.07.19-16-.54-1.11-1.24-2.13-2.03-3.06Z"/>
            <g>
              <path class="cls-4" d="M89.1,261.18c-1.37.09-2.86.43-3.99,1.15-.74.48-1.32,1.12-1.62,1.97-.81,2.32,1.04,4.7,2.98,6.21,4.29,3.3,9.68,4.88,15.07,4.73,3.28-.11,5.54-1.5,5.77-3.57.16-1.34-.53-2.97-2.33-4.7-4.18-4.01-10.1-6.17-15.88-5.79Z"/>
              <path class="cls-20" d="M89.1,261.18c-1.37.09-2.86.43-3.99,1.15-.36,2.14,1.34,4.27,3.13,5.64,4.29,3.32,9.68,4.9,15.07,4.73,1.63-.05,3.01-.42,4-1.03.16-1.34-.53-2.97-2.33-4.7-4.18-4.01-10.1-6.17-15.88-5.79Z"/>
            </g>
            <g>
              <path class="cls-4" d="M141.19,246.81c-1.34-.09-2.81.34-4.05.93-5.25,2.47-9.38,7.22-11.09,12.76-.73,2.39-.55,4.15.24,5.25,1.21,1.7,3.86,1.82,6.78.33,4.79-2.48,8.74-6.47,10.89-11.44.97-2.26,1.44-5.24-.4-6.88-.67-.6-1.5-.88-2.37-.94Z"/>
              <path class="cls-20" d="M137.13,247.73c-5.25,2.47-9.38,7.22-11.09,12.76-.73,2.39-.55,4.15.24,5.25,1.17.05,2.55-.28,4-1.03,4.8-2.47,8.75-6.46,10.89-11.44.91-2.07,1.36-4.75,0-6.46-1.34-.09-2.81.34-4.05.93Z"/>
            </g>
            <path class="cls-8" d="M139.45,228.07c-14.35-3.05-33.73-.36-46.1,7.87-2.75,1.83-.75,6.18,2.45,5.26,7.01-2.01,13.63-4.98,20.75-6.73,7.46-1.83,15.05-2.59,22.64-3.7,1.44-.21,1.9-2.36.27-2.7Z"/>
          </g>
          <path class="cls-8" d="M128.61,148.07c-10.36-2.21-21.33-1.89-31.79-.53-4.96.65-9.94,1.49-14.77,2.82-4.71,1.3-10.54,2.57-14.34,5.76-1.21,1.02-.77,2.89.92,2.97,4.64.21,9.45-1.6,14.02-2.36,5.07-.84,10.15-1.54,15.28-1.87,10.04-.65,19.91.31,29.91,1.01,4.51.31,5.07-6.88.77-7.79Z"/>
          <path class="cls-16" d="M32.44,267.85c-.48-.7-1.06-1.37-1.82-1.75-1.1-.55-2.32-.27-3.09.72-2.22,2.86-.61,6.95,1.18,9.59,1.33,1.96,4,4.31,5.67,1.38,1.66-2.91-.19-7.34-1.88-9.84-.02-.03-.04-.06-.06-.09Z"/>
          <path class="cls-16" d="M45.88,275.48s-.04-.04-.07-.06c-.5-.45-1.05-.85-1.7-1-.94-.22-1.82.22-2.22,1.1-1.17,2.58.79,5.4,2.63,7.08,1.36,1.25,3.83,2.56,4.57.02.74-2.51-1.47-5.55-3.21-7.15Z"/>
          <path class="cls-16" d="M48.8,291.62s-.04-.02-.06-.03c-.44-.21-.91-.37-1.39-.33-.7.05-1.21.53-1.31,1.23-.27,2.03,1.68,3.57,3.31,4.35,1.21.58,3.19.97,3.17-.94-.02-1.89-2.18-3.54-3.72-4.28Z"/>
          <path class="cls-16" d="M198.62,222.7c-1.03-.71-2.27-.6-3.16.25-.61.59-.96,1.4-1.21,2.22-.01.04-.02.07-.03.11-.86,2.9-1.27,7.68,1.19,9.95,2.48,2.29,4.32-.76,4.99-3.03.91-3.05,1.21-7.44-1.78-9.49Z"/>
          <path class="cls-38" d="M84.63,188.5c-1.2-.36-2.35.13-2.93,1.21-.4.75-.48,1.63-.47,2.48,0,.04,0,.08,0,.11.08,3.02,1.16,7.7,4.2,9.1,3.07,1.41,3.87-2.06,3.81-4.42-.08-3.18-1.15-7.45-4.62-8.48Z"/>
          <path class="cls-38" d="M100.14,160.58c-1.2-.36-2.35.13-2.93,1.21-.4.75-.48,1.63-.47,2.48,0,.04,0,.07,0,.11.08,3.02,1.16,7.7,4.2,9.1,3.07,1.41,3.87-2.06,3.81-4.42-.08-3.18-1.15-7.45-4.62-8.48Z"/>
          <path class="cls-38" d="M100.15,202.29c-.88-.26-1.74.09-2.17.9-.3.56-.35,1.21-.34,1.84,0,.03,0,.06,0,.08.06,2.23.86,5.7,3.11,6.73,2.27,1.05,2.87-1.52,2.82-3.27-.06-2.36-.85-5.51-3.42-6.28Z"/>
          <path class="cls-38" d="M107.13,185.24c-.88-.26-1.74.09-2.17.9-.3.56-.35,1.21-.34,1.84,0,.03,0,.06,0,.08.06,2.23.86,5.7,3.11,6.73,2.27,1.05,2.87-1.52,2.82-3.27-.06-2.36-.85-5.51-3.42-6.28Z"/>
          <path class="cls-38" d="M82.38,167.53c-.88-.26-1.74.09-2.17.9-.3.56-.35,1.21-.34,1.84,0,.03,0,.06,0,.08.06,2.23.86,5.7,3.11,6.73,2.27,1.05,2.87-1.52,2.82-3.27-.06-2.36-.85-5.51-3.42-6.28Z"/>
          <path class="cls-38" d="M94.94,181.55c-.69-.21-1.35.07-1.69.7-.23.43-.28.94-.27,1.43,0,.02,0,.04,0,.06.05,1.74.67,4.44,2.42,5.25,1.77.81,2.23-1.19,2.2-2.55-.05-1.84-.66-4.29-2.66-4.89Z"/>
          <path class="cls-16" d="M185.1,234.96c-.57.34-.98.89-1.32,1.47-.01.03-.03.05-.04.08-1.18,2.05-2.36,5.61-.9,7.79,1.47,2.19,3.42.2,4.35-1.4,1.24-2.16,2.27-5.44.37-7.55-.65-.72-1.62-.87-2.45-.38Z"/>
          <path class="cls-16" d="M187.1,251.99c-.47.11-.87.41-1.22.74-.02.01-.03.03-.05.04-1.24,1.17-2.81,3.39-2.26,5.2.56,1.83,2.33.86,3.3-.06,1.31-1.23,2.71-3.29,1.84-5.15-.3-.64-.94-.94-1.62-.78Z"/>
          <path class="cls-7" d="M65.83,296.56c-22.13-3.93-40.31-17.09-49.06-43.66.72,5.05,1.83,10,3.33,14.75,15.54,49.31,71.03,45.52,119.34,26.65,36.95-14.43,62.34-33.57,63.84-63.31-.37,3.53-2.98,10.31-4.79,12.9-29.46,41.01-83.74,61.17-132.66,52.67Z"/>
          <path class="cls-7" d="M203.27,230.98c.03-.27.05-.52.05-.74,0,.25-.03.49-.05.74Z"/>
          <path class="cls-26" d="M120.32,140.83c6.59,10.93,6.43,27.51,13.07,37.84,8.12,12.91,27.02.88,40.51-5.36,1.69-.83,3.24-1.76,4.66-2.76-15.35-16.21-36.17-26.74-58.24-29.73Z"/>
          <path class="cls-26" d="M46.17,163.75c-18.39,17.56-28.6,42.72-30.21,67.61,17.61-.79,37.08-6.73,39.12-23.28,1.48-14.16-11.93-28.36-8.91-44.33Z"/>
          <g>
            <path class="cls-33" d="M41.38,192.36c-4.56-3.98-7.62-9.46-9.51-15.21-1.49-4.55-2.28-9.29-2.82-14.06-.14-1.25-.27-2.51-.38-3.76-.2-2.13-.46-4.48-2.05-5.93-5.46-4.93-16.8,15.37-18.71,19.06C3.19,181.62.42,191.82.03,202.12c-.14,3.67.16,7.75,2.75,10.37,2.21,2.25,5.54,2.86,8.64,3.36,3.71.6,7.45,1.21,11.2,1.46.47.03.94.06,1.41.08.16,0,.33.01.49.01,1.88.07,3.77.04,5.65-.16,2.16-.21,4.33-.64,6.41-1.32,3.93-1.28,7.55-3.42,10.18-6.58,1.72-2.09,3.01-4.75,2.64-7.42-.59-4.22-4.8-6.76-8.01-9.56Z"/>
            <path class="cls-26" d="M41.38,192.36c-4.56-3.98-7.62-9.46-9.51-15.21-1.13-3.45-1.86-7.01-2.38-10.61-2.48,15.44,9.64,28.85,5.43,39.57-4.17,10.28-27.76,10.77-33.73,4.09.4.84.91,1.62,1.58,2.3,2.21,2.25,5.54,2.86,8.64,3.36,3.71.6,7.45,1.21,11.2,1.46.47.03.94.06,1.41.08.16,0,.33.01.49.01,1.88.07,3.77.04,5.65-.16,2.16-.21,4.33-.64,6.41-1.32,3.93-1.28,7.55-3.42,10.18-6.58,1.72-2.09,3.01-4.75,2.64-7.42-.59-4.22-4.8-6.76-8.01-9.56Z"/>
            <path class="cls-8" d="M20.26,159.55c-9.24,11.4-16.59,28.62-16.21,43.52.09,3.44,5.21,3.96,5.99.59,1.64-7.08,2.36-14.24,4.43-21.26,2.14-7.25,5.23-14.19,8.31-21.08.68-1.53-1.35-3.23-2.53-1.78Z"/>
          </g>
          <g>
            <path class="cls-13" d="M152.36,123.23c-3.65-1.96-24.49-12.29-26.2-5.14-.49,2.09.62,4.18,1.66,6.05.62,1.09,1.22,2.2,1.81,3.32,2.25,4.24,4.28,8.6,5.62,13.19,1.7,5.81,2.27,12.06.76,17.92-1.07,4.13-3.1,8.6-1.2,12.42,1.2,2.42,3.77,3.88,6.37,4.63,3.96,1.12,8.15.84,12.12-.33,2.1-.62,4.14-1.49,6.03-2.54,1.66-.91,3.24-1.94,4.75-3.07.13-.09.26-.19.39-.29.38-.28.75-.57,1.12-.86,2.95-2.32,5.69-4.94,8.41-7.53,2.28-2.17,4.68-4.56,5.23-7.66.65-3.63-1.41-7.16-3.6-10.11-6.15-8.27-14.2-15.12-23.27-20Z"/>
            <path class="cls-26" d="M149.11,166.25c-9.53-6.46-7.12-24.37-17.9-35.7,1.61,3.27,3.02,6.61,4.04,10.1,1.7,5.81,2.27,12.06.76,17.92-1.07,4.13-3.1,8.6-1.2,12.42,1.2,2.42,3.77,3.88,6.37,4.63,3.96,1.12,8.15.84,12.12-.33,2.1-.62,4.14-1.49,6.03-2.54,1.66-.91,3.24-1.94,4.75-3.07.13-.09.26-.19.39-.29.38-.28.75-.57,1.12-.86,2.95-2.32,5.69-4.94,8.41-7.53,2.28-2.17,4.68-4.56,5.23-7.66.17-.94.15-1.87,0-2.79-1.14,8.89-20.88,21.83-30.13,15.7Z"/>
            <path class="cls-8" d="M134.87,119.56c-1.79-.53-2.51,2.02-1.08,2.9,6.44,3.93,12.91,7.91,18.78,12.68,5.68,4.61,10.32,10.11,15.68,15.03,2.54,2.33,6.48-.99,4.61-3.88-8.11-12.5-23.91-22.55-37.98-26.73Z"/>
          </g>
        </g>
      </g>
    </g>
  </g>
</svg>