<?xml version="1.0" encoding="UTF-8"?>
<svg xmlns="http://www.w3.org/2000/svg" xmlns:xlink="http://www.w3.org/1999/xlink" viewBox="0 0 400 407.82">
  <defs>
    <style>
      .cls-1 {
        opacity: .9;
      }

      .cls-1, .cls-2, .cls-3, .cls-4, .cls-5, .cls-6, .cls-7, .cls-8, .cls-9, .cls-10, .cls-11, .cls-12, .cls-13, .cls-14, .cls-15, .cls-16, .cls-17, .cls-18, .cls-19, .cls-20, .cls-21, .cls-22, .cls-23, .cls-24, .cls-25, .cls-26, .cls-27, .cls-28, .cls-29 {
        stroke-width: 0px;
      }

      .cls-1, .cls-2, .cls-4, .cls-5, .cls-23, .cls-24, .cls-29 {
        fill: #010101;
      }

      .cls-1, .cls-3, .cls-30, .cls-4, .cls-5, .cls-20, .cls-22, .cls-23, .cls-24, .cls-25, .cls-29 {
        mix-blend-mode: overlay;
      }

      .cls-3 {
        opacity: .25;
      }

      .cls-3, .cls-20, .cls-22, .cls-25, .cls-26 {
        fill: #fff;
      }

      .cls-30, .cls-25, .cls-29 {
        opacity: .4;
      }

      .cls-4, .cls-22 {
        opacity: .35;
      }

      .cls-5 {
        opacity: .7;
      }

      .cls-6 {
        fill: #472215;
      }

      .cls-7 {
        fill: #5fa5b5;
      }

      .cls-8 {
        fill: url(#_ÂÁ_Ï_ÌÌ_È_ËÂÌÚ_169);
      }

      .cls-9 {
        fill: url(#_ÂÁ_Ï_ÌÌ_È_ËÂÌÚ_160);
      }

      .cls-10 {
        fill: url(#_ÂÁ_Ï_ÌÌ_È_ËÂÌÚ_164);
      }

      .cls-11 {
        fill: url(#_ÂÁ_Ï_ÌÌ_È_ËÂÌÚ_166);
      }

      .cls-12 {
        fill: url(#_ÂÁ_Ï_ÌÌ_È_ËÂÌÚ_190);
      }

      .cls-13 {
        fill: url(#_ÂÁ_Ï_ÌÌ_È_ËÂÌÚ_183);
      }

      .cls-14 {
        fill: url(#_ÂÁ_Ï_ÌÌ_È_ËÂÌÚ_187);
      }

      .cls-15 {
        fill: url(#_ÂÁ_Ï_ÌÌ_È_ËÂÌÚ_19-2);
      }

      .cls-16 {
        fill: url(#_ÂÁ_Ï_ÌÌ_È_ËÂÌÚ_187-2);
      }

      .cls-17 {
        fill: url(#_ÂÁ_Ï_ÌÌ_È_ËÂÌÚ_160-3);
      }

      .cls-18 {
        fill: url(#_ÂÁ_Ï_ÌÌ_È_ËÂÌÚ_160-2);
      }

      .cls-19 {
        fill: #45899b;
      }

      .cls-20 {
        opacity: .8;
      }

      .cls-21 {
        fill: #4fa89f;
      }

      .cls-23 {
        opacity: .3;
      }

      .cls-24, .cls-28 {
        opacity: .6;
      }

      .cls-31 {
        isolation: isolate;
      }

      .cls-27 {
        fill: url(#_ÂÁ_Ï_ÌÌ_È_ËÂÌÚ_19);
      }

      .cls-28 {
        fill: #b3c3c4;
      }
    </style>
    <linearGradient id="_ÂÁ_Ï_ÌÌ_È_ËÂÌÚ_169" data-name="¡ÂÁ˚ÏˇÌÌ˚È „‡‰ËÂÌÚ 169" x1="147.08" y1="79.02" x2="137.02" y2="357.01" gradientUnits="userSpaceOnUse">
      <stop offset="0" stop-color="#95d6dd"/>
      <stop offset=".25" stop-color="#8fd1d9"/>
      <stop offset=".56" stop-color="#80c3cd"/>
      <stop offset=".91" stop-color="#67acbb"/>
      <stop offset="1" stop-color="#5fa5b5"/>
    </linearGradient>
    <linearGradient id="_ÂÁ_Ï_ÌÌ_È_ËÂÌÚ_164" data-name="¡ÂÁ˚ÏˇÌÌ˚È „‡‰ËÂÌÚ 164" x1="130.01" y1="75.54" x2="142.18" y2="-165.76" gradientUnits="userSpaceOnUse">
      <stop offset="0" stop-color="#e5efef"/>
      <stop offset=".17" stop-color="#dde8e8"/>
      <stop offset=".41" stop-color="#c9d7d7"/>
      <stop offset=".63" stop-color="#b3c3c4"/>
    </linearGradient>
    <linearGradient id="_ÂÁ_Ï_ÌÌ_È_ËÂÌÚ_166" data-name="¡ÂÁ˚ÏˇÌÌ˚È „‡‰ËÂÌÚ 166" x1="82.19" y1="345.86" x2="77.3" y2="187.47" gradientUnits="userSpaceOnUse">
      <stop offset="0" stop-color="#e5efef"/>
      <stop offset=".17" stop-color="#dde8e8"/>
      <stop offset=".41" stop-color="#c9d7d7"/>
      <stop offset=".63" stop-color="#b3c3c4"/>
    </linearGradient>
    <linearGradient id="_ÂÁ_Ï_ÌÌ_È_ËÂÌÚ_160" data-name="¡ÂÁ˚ÏˇÌÌ˚È „‡‰ËÂÌÚ 160" x1="355.42" y1="340.22" x2="400" y2="340.22" gradientUnits="userSpaceOnUse">
      <stop offset="0" stop-color="#fcc64d"/>
      <stop offset=".42" stop-color="#f9bb41"/>
      <stop offset=".96" stop-color="#f4a72b"/>
    </linearGradient>
    <linearGradient id="_ÂÁ_Ï_ÌÌ_È_ËÂÌÚ_160-2" data-name="¡ÂÁ˚ÏˇÌÌ˚È „‡‰ËÂÌÚ 160" x1="312.89" y1="390.08" x2="364.09" y2="390.08" xlink:href="#_ÂÁ_Ï_ÌÌ_È_ËÂÌÚ_160"/>
    <linearGradient id="_ÂÁ_Ï_ÌÌ_È_ËÂÌÚ_190" data-name="¡ÂÁ˚ÏˇÌÌ˚È „‡‰ËÂÌÚ 190" x1="312.74" y1="207.07" x2="231.89" y2="406.58" gradientUnits="userSpaceOnUse">
      <stop offset="0" stop-color="#e5efef"/>
      <stop offset=".35" stop-color="#e2ecec"/>
      <stop offset=".59" stop-color="#d9e4e4"/>
      <stop offset=".8" stop-color="#cad7d7"/>
      <stop offset=".99" stop-color="#b4c4c5"/>
      <stop offset="1" stop-color="#b3c3c4"/>
    </linearGradient>
    <radialGradient id="_ÂÁ_Ï_ÌÌ_È_ËÂÌÚ_19" data-name="¡ÂÁ˚ÏˇÌÌ˚È „‡‰ËÂÌÚ 19" cx="242.88" cy="206.95" fx="242.88" fy="206.95" r="16.92" gradientUnits="userSpaceOnUse">
      <stop offset="0" stop-color="#fff"/>
      <stop offset=".48" stop-color="#fdfdfd"/>
      <stop offset=".65" stop-color="#f6f8f8"/>
      <stop offset=".77" stop-color="#eaeeef"/>
      <stop offset=".87" stop-color="#d9e1e1"/>
      <stop offset=".95" stop-color="#c3d0d1"/>
      <stop offset="1" stop-color="#b3c3c4"/>
    </radialGradient>
    <radialGradient id="_ÂÁ_Ï_ÌÌ_È_ËÂÌÚ_19-2" data-name="¡ÂÁ˚ÏˇÌÌ˚È „‡‰ËÂÌÚ 19" cx="303.85" cy="191.9" fx="303.85" fy="191.9" r="15.62" xlink:href="#_ÂÁ_Ï_ÌÌ_È_ËÂÌÚ_19"/>
    <linearGradient id="_ÂÁ_Ï_ÌÌ_È_ËÂÌÚ_187" data-name="¡ÂÁ˚ÏˇÌÌ˚È „‡‰ËÂÌÚ 187" x1="271.61" y1="132.54" x2="271.61" y2="389.69" gradientUnits="userSpaceOnUse">
      <stop offset=".24" stop-color="#1e4d59"/>
      <stop offset=".73" stop-color="#21525e"/>
      <stop offset="1" stop-color="#265865"/>
    </linearGradient>
    <linearGradient id="_ÂÁ_Ï_ÌÌ_È_ËÂÌÚ_187-2" data-name="¡ÂÁ˚ÏˇÌÌ˚È „‡‰ËÂÌÚ 187" x1="228.46" y1="280.95" x2="307.91" y2="280.95" xlink:href="#_ÂÁ_Ï_ÌÌ_È_ËÂÌÚ_187"/>
    <linearGradient id="_ÂÁ_Ï_ÌÌ_È_ËÂÌÚ_183" data-name="¡ÂÁ˚ÏˇÌÌ˚È „‡‰ËÂÌÚ 183" x1="321.49" y1="270.41" x2="351.16" y2="270.41" gradientUnits="userSpaceOnUse">
      <stop offset="0" stop-color="#45899b"/>
      <stop offset=".2" stop-color="#418495"/>
      <stop offset=".44" stop-color="#387686"/>
      <stop offset=".71" stop-color="#295f6d"/>
      <stop offset=".88" stop-color="#1e4d59"/>
    </linearGradient>
    <linearGradient id="_ÂÁ_Ï_ÌÌ_È_ËÂÌÚ_160-3" data-name="¡ÂÁ˚ÏˇÌÌ˚È „‡‰ËÂÌÚ 160" x1="266.83" y1="215.78" x2="291.62" y2="215.78" xlink:href="#_ÂÁ_Ï_ÌÌ_È_ËÂÌÚ_160"/>
  </defs>
  <g class="cls-31">
    <g id="Layer_1" data-name="Layer 1">
      <g>
        <g>
          <path class="cls-8" d="M239.31,172.31c-23.96-19.29-54.06-28.93-90.29-28.93-5.46,0-13.15.49-23.08,1.46-10.52.98-18.22,1.45-23.09,1.45-.98-1.36-1.45-3.31-1.45-5.84,0-16.17,1.65-27.18,4.96-33.03,1.56-2.33,13.05-3.5,34.48-3.5,10.91,0,38.38,1.94,82.4,5.84l3.22.29c4.09,0,7.6-12.37,10.51-37.11.18-1.54.37-3.06.53-4.55.03-.22.06-.44.08-.66.17-1.58.35-3.13.52-4.64.14-1.31.28-2.59.41-3.85.27-2.69.52-5.28.74-7.78.06-.77.13-1.54.19-2.29.02-.22.04-.44.06-.65.02-.26.04-.52.06-.76.02-.23.04-.45.06-.67.02-.24.04-.48.06-.72v-.07c.02-.21.04-.41.05-.62,0-.03,0-.05,0-.06h0c.02-.2.03-.4.04-.59.02-.25.04-.5.06-.74,0-.17.03-.34.04-.52,0-.04,0-.08,0-.12.3-4.51.5-8.63.58-12.35.02-.62.03-1.22.04-1.81,0-.73,0-1.44,0-2.13,0-4.28-2.63-6.53-7.89-6.72-18.92-.38-55.38-.57-109.4-.58h-8.63c-44.95.02-70.49.37-76.6,1.04-.34.04-.63.08-.85.12-3.51.78-6.68,3.18-9.49,7.16-2.5,3.54-3.9,6.96-4.19,10.27-.04.42-.06.86-.06,1.28v.45c0,.45,0,.91,0,1.38,0,1.72,0,3.54-.03,5.41,0,.18,0,.38,0,.56,0,1.28-.03,2.59-.05,3.93-.19,13.91-.71,31.62-1.53,53.1-.04.74-.06,1.47-.09,2.22-.23,5.9-.49,12.09-.76,18.55-.17,3.8-.32,7.51-.47,11.12-.06,1.3-.1,2.59-.16,3.86,0,.21-.02.42-.03.64-.03.79-.06,1.58-.09,2.38-1.16,29.43-1.74,51.97-1.74,67.62,0,6.24,3.41,9.35,10.23,9.35,7.2,0,17.96-.87,32.28-2.63,14.32-1.75,25.08-2.62,32.29-2.62,17.14,0,31.85,3.11,44.12,9.35,15.78,7.8,23.67,19.39,23.67,34.78,0,6.31-1.09,11.91-3.27,16.8-.06.15-.14.29-.2.44-1.4,3.02-3.21,5.75-5.45,8.22,0,0-.02,0-.02,0-8.07,8.89-21.61,14.2-40.62,15.96-3.02.28-6.18.47-9.48.56-1.8.06-3.65.08-5.53.08-11.52,0-22.56-.87-33.12-2.62-1.9-.31-3.77-.65-5.63-1.02-9.69-1.92-18.97-4.6-27.82-8.05-2.92-1.13-5.78-2.35-8.61-3.65-1.55-.7-3.08-1.44-4.59-2.19-1.41-.7-2.57-1.2-3.48-1.47h0c-.6-.19-1.1-.29-1.48-.29-1.22,0-2.38,1.18-3.48,3.53-.5,1.06-.99,2.36-1.47,3.89-.08.29-.17.59-.27.9,0,.02,0,.04-.02.06-.08.29-.17.59-.25.89-.08.31-.17.63-.26.96-.39,1.51-.77,3.2-1.15,5.05-.1.52-.21,1.07-.32,1.63-.12.64-.25,1.32-.37,2.01-.3,1.73-.61,3.57-.9,5.54h0c-.08.6-.17,1.21-.27,1.83-.13.91-.26,1.81-.38,2.71C.84,323.56,0,333.57,0,341.2c0,14.81.39,23.47,1.17,26,1.3,4.48,11.44,8.48,30.42,12,.67.12,1.36.25,2.05.37.39.07.77.14,1.17.2,2.58.45,5.3.88,8.18,1.32,3.65.55,7.52,1.09,11.65,1.6,26.1,3.31,46.95,4.97,62.53,4.97,92.27,0,144.89-32.17,157.83-96.52.22-1.11.44-2.25.64-3.39,0-.04,0-.06.02-.09.17-.96.33-1.92.48-2.91.03-.15.05-.29.07-.44.16-1.08.31-2.15.46-3.25.08-.65.17-1.32.25-1.99.06-.56.13-1.13.19-1.69.06-.64.14-1.28.19-1.92.06-.63.12-1.26.17-1.9.46-5.32.69-10.82.69-16.51,0-35.84-12.96-64.09-38.86-84.73Z"/>
          <path class="cls-29" d="M152.06,284.86c-39.26,20.71-89.08,20.01-127.84-1.56-3.5-1.94-7.52-2.15-11.05-.85-1.85.67-3.55,1.77-4.97,3.25-1.92,4.07-3.67,11.66-5.28,22.76-.13.91-.26,1.81-.38,2.7.66,1.47,1.82,2.69,4.11,3.19,2.31.51,4.75-.07,6.67-1.45,4.59-3.3,6.15-9,9.88-12.99,4.6,2.89,5.02,9.25,5.77,14.63.87,6.24,4.94,13.91,12.1,10.77,2.17-.96,3.87-2.72,4.97-4.81,2.19-4.15,7.6-10.42,12.75-6.79.97.68,1.7,1.64,2.26,2.68,3.82,6.97,4.34,15.21,7.56,22.43,3.54,7.96,12.49,15.06,20.92,9.36,1.46-.99,2.69-2.28,3.68-3.75,3.99-5.86,4.29-12.88,6.41-19.34,1.08-3.26,2.73-6.53,5.96-8.06,1.85-.87,4.05-.93,5.79.16,4.05,2.51,2.16,8.56,5.57,11.51.74.64,1.68,1.01,2.65.96,1.75-.09,2.47-1.42,3.04-2.69,1.89-4.17,2.99-8.69,3.25-13.27,4.89-1.32,8.35,5.75,8.62,10.14.17,2.57,1.18,5.05,3.07,6.79,4.6,4.3,9.43.64,12.43-3.08,10.1-12.45,11.98-30.42,7.7-45.86-1.85,1.1-3.73,2.16-5.63,3.16Z"/>
          <path class="cls-7" d="M225.4,49.14c-8.24-2.89-16.6-5.5-24.97-7.96-.87-.26-1.56.29-1.8.96-.09.06-.18.1-.28.17-.39.29-.74.67-1.1,1.01-.74.67-1.48,1.33-2.17,2.04-.98,1.02-1.93,2.07-2.86,3.12-.29-.06-.63.03-.77.29-.05.09-.11.17-.17.25-.55-.3-1.11-.58-1.66-.88-.8-.45-1.59-.93-2.37-1.44-1.6-1.04-3.19-2.15-4.69-3.33-.59-.46-1.52-.25-1.93.34-.46.65-.24,1.45.34,1.93,1.52,1.24,3.09,2.38,4.8,3.36.87.51,1.76.98,2.66,1.43.78.4,1.59.81,2.43,1.08.08.14.17.27.29.37.51.45,1.4.57,1.93.05,1.48-1.45,2.89-2.94,4.27-4.47.67-.74,1.28-1.53,1.9-2.3.29-.36.61-.71.87-1.09,7.25,2.26,14.54,4.42,21.89,6.37-2.26.86-4.51,1.71-6.77,2.57-.84.32-1.37,1.45-1.18,2.31.7,3.05,1.44,6.1,2.15,9.13.36,1.49.71,2.97,1.06,4.46.13.52.23,1.03.39,1.5-8.19.46-16.4.68-24.6.68-.69,0-1.22.43-1.32,1.13-.64,5.05-1.26,10.12-1.88,15.17-1.2-.04-2.39.04-3.58.06-1.5.03-3.01.05-4.51.11-3.12.12-6.25.26-9.37.39-.62.03-1.16.39-1.22,1.05,0,.11,0,.23.04.34-.13.15-.22.32-.25.54-.17,1.37-.14,2.73-.41,4.1-.18.92-.46,1.81-.79,2.69-4.19-1.92-8.38-3.86-12.58-5.78-1.33-.62-2.06,1.52-.76,2.14,4.52,2.12,9.04,4.24,13.56,6.36.61.28,1.29-.17,1.52-.72.6-1.41,1.01-2.88,1.27-4.38.23-1.32.4-2.76.22-4.11,2.93-.12,5.85-.24,8.77-.37,1.54-.06,3.08-.17,4.62-.28,1.07-.06,2.15-.1,3.22-.2-.41,3.4-.82,6.79-1.22,10.18-.13,1.07,1.48,1.16,1.65.12.56-3.6,1.1-7.21,1.65-10.81.17-.23.22-.53.12-.8.74-4.82,1.49-9.65,2.21-14.48,8.74.16,17.47-.07,26.19-.64,1.14-.07,1.29-1.26.75-2.01.17-.92-.1-1.93-.27-2.87-.28-1.5-.55-3-.82-4.5-.44-2.4-.87-4.8-1.33-7.2,6.95-2.37,13.92-4.73,20.86-7.13.16-1.91.29-3.75.41-5.52-3.94,1.48-7.87,2.97-11.8,4.47-.88.33-1.77.67-2.65,1Z"/>
          <path class="cls-25" d="M247.89,252.14c-2.88,1.4-5.63,3.08-8.38,4.74-2.34-6.92-4.64-13.92-7.87-20.46-.3-.61-.81-.84-1.32-.82-.05-.03-.1-.08-.16-.1-1.03-.48-1.94-.52-3.05-.32-.69.13-1.37.28-2.05.45-1.28.3-2.56.63-3.8,1.06-1.33.46-2.64.97-3.94,1.52-.33.14-.69.29-1.05.46-2.95-5.1-5.84-10.24-8.95-15.25-.42-.68-1.39-1.2-2.21-.9-1.1.41-2.21.8-3.3,1.23-.19.07-.39.15-.6.22.22-1.19.38-2.39.54-3.57.14-1.06.28-2.11.42-3.17.07-.51.13-1.01.2-1.52.08-.57.23-1.2.17-1.77-.1-1-.69-1.82-1.73-1.96-.99-.13-1.89.47-2.19,1.43-.34,1.09-.26,2.43-.34,3.57-.07,1.06-.15,2.11-.22,3.17-.15,2.14-.28,4.33-.06,6.46.1.94.99,1.4,1.71,1.18,1.01.05,2.12-.31,3.08-.56.62-.16,1.24-.33,1.87-.51,2.64,5.14,5.47,10.19,8.23,15.26.59,1.09,2.1,1.44,3.15.83.14-.08.27-.18.39-.29.14-.03.29-.06.44-.1.6-.13,1.19-.26,1.79-.43,1.26-.36,2.54-.68,3.83-.96,1.29-.28,2.57-.56,3.88-.79,1-.17,1.91-.19,2.8-.5,1.66,7.28,4.31,14.36,6.68,21.42.5,1.49,2.16,2.28,3.59,1.46,3.64-2.08,7.42-4,10.9-6.36,2.56-1.74.36-5.48-2.41-4.13Z"/>
          <path class="cls-25" d="M213.38,54.55c-.85-2.97-5.09-2.05-4.68,1.01.43,3.17,1.17,6.31,1.89,9.44-7.3.07-14.68.07-21.89,1.11-.68.1-1.05.51-1.19,1-.05.04-.1.07-.15.12-.78.83-1.1,1.68-1.25,2.8-.09.69-.16,1.39-.22,2.09-.11,1.31-.2,2.63-.18,3.94.02,1.41.1,2.82.22,4.22.03.35.06.74.11,1.14-5.77,1.21-11.55,2.36-17.28,3.75-.78.19-1.58.95-1.54,1.82.05,1.17.07,2.35.14,3.52.01.2.02.42.02.64-1.06-.58-2.15-1.11-3.22-1.63-.96-.46-1.92-.92-2.88-1.38-.46-.22-.92-.44-1.38-.66-.52-.25-1.07-.59-1.63-.72-.98-.22-1.94.08-2.4,1.03-.44.9-.14,1.95.68,2.53.94.66,2.22,1.01,3.28,1.44.98.4,1.96.8,2.94,1.2,1.98.81,4.02,1.62,6.12,2.07.92.2,1.64-.51,1.65-1.26.36-.95.36-2.11.43-3.1.04-.64.07-1.29.1-1.93,5.71-.91,11.38-2.03,17.07-3.07,1.22-.22,2.02-1.55,1.77-2.74-.03-.16-.09-.32-.16-.46.02-.15.03-.29.05-.45.06-.61.13-1.21.15-1.83.05-1.31.14-2.63.28-3.94.14-1.31.27-2.62.46-3.93.15-1.01.41-1.88.39-2.82,7.43.69,14.99.37,22.43.32,1.57-.01,2.84-1.34,2.5-2.95-.85-4.11-1.49-8.3-2.65-12.33Z"/>
          <path class="cls-25" d="M271.3,267.41c-1.75-1.69-3.51-3.46-5.4-5.03.27-2.25-.16-4.5-.37-6.75-.2-2.25-.34-4.49-.53-6.74-.18-2.25-.32-4.51-.56-6.75-.17-1.62-.38-3.21-.87-4.72.27-1.08-.22-2.1-1.14-2.75-1.46-1.02-3.21-1.63-4.84-2.34-.8-.35-1.6-.7-2.4-1.05-.31-.14-.64-.28-.96-.42.08-.55.23-1.11.33-1.64.17-.93.35-1.85.5-2.79.14-.88.28-1.77.41-2.65.15-.95.31-2.06.06-3-.19-.75-1.29-1.13-1.83-.49-.64.77-.99,1.86-1.28,2.82-.29,1-.6,2-.87,3.01-.27.95-.5,1.92-.75,2.88-.26,1-.59,2.01-.52,3.06.11,1.62,1.57,2.57,3.01,3.34.52.29,1.05.55,1.5.82,1.42.84,2.83,1.74,4.34,2.44.28.13.56.26.85.37-.43,2.11-.46,4.37-.41,6.56v.07c.03,1.11.07,2.2.1,3.24.04,1.22.1,2.45.18,3.67.07,1.02.15,2.04.23,3.07.17,2.26.09,4.83.88,6.96.14.37.34.7.58.99.05.2.12.4.25.59,1.63,2.41,3.71,4.61,5.64,6.79,1.93,2.18,3.89,4.35,5.87,6.47,1.13,1.21,2.26,2.42,3.39,3.63.32-2.46.6-4.96.81-7.5-.05-.06-.1-.11-.16-.17-1.99-2.02-4-4.01-6.03-5.98Z"/>
          <path class="cls-25" d="M263.72,286.84c-3.13,1.95-6.15,4.05-9.15,6.18-1.48,1.05-2.94,2.14-4.39,3.24-.76.59-1.54,1.15-2.26,1.79-.67.59-1.44,1.14-1.92,1.91-.3.48-.19.96.11,1.29-.11,1.34.55,2.75,1.06,3.97.54,1.27,1.06,2.56,1.62,3.82.98,2.17,1.9,4.38,3.04,6.47-.03.15-.04.31-.02.48,0,.05.01.1.02.15-2.89,1.62-5.8,3.2-8.76,4.69-1.72.86-3.45,1.72-5.17,2.59-.76.38-3.89,1.68-3.37,3.03-.03.71.18,1.5.31,2.16.13.7.34,1.39.51,2.08.18.69.33,1.39.54,2.07.23.7.47,1.4.71,2.1.32.96,1.35,1.69,2.39,1.36.98-.32,1.67-1.35,1.36-2.39-.22-.71-.42-1.42-.65-2.12-.22-.68-.5-1.34-.76-2.01-.29-.76-.56-1.53-.9-2.27-.05-.12-.11-.24-.17-.35.63-.2,1.23-.46,1.7-.62,1.87-.65,3.69-1.41,5.51-2.19,3.56-1.53,7.07-3.19,10.49-5.02,1.12-.59,1.36-2.04.81-3.09-.1-.2-.24-.38-.37-.56.03-.25,0-.53-.09-.82-.89-2.63-2.17-5.1-3.34-7.61-.55-1.17-1.14-2.33-1.71-3.48-.43-.86-.92-1.97-1.6-2.79.2-.11.39-.21.59-.31.84-.42,1.63-.9,2.44-1.37,1.52-.88,3-1.79,4.49-2.73,3.07-1.94,6.1-3.91,9.04-6.02.91-.66,1.36-1.82.75-2.85-.56-.95-1.89-1.35-2.85-.75Z"/>
          <path class="cls-25" d="M70.01,186.09c-1.79-.56-3.63-.9-5.47-1.23-.04-2.87-.03-5.74-.37-8.59-.21-1.74-.54-3.42-1.01-5.1-.16-.57-.6-2.23-1.34-2.74-.15-.56-.52-1.06-1.02-1.43-.99-.73-2.33-1.05-3.49-1.4-1.13-.34-2.27-.64-3.42-.87-1.45-.31-2.94-.55-4.42-.73.46-2.08.87-4.18,1.16-6.3.19-1.47.33-2.96.44-4.45.08-1.15.38-3.24-.6-4.08-.04-.25-.11-.49-.26-.69-1.02-1.51-2.94-1.93-4.58-2.57-1.54-.6-3.08-1.19-4.63-1.78-3.08-1.18-6.18-2.35-9.28-3.51-3.09-1.15-6.21-2.23-9.35-3.28-.65-.22-1.31-.44-1.96-.66-.06,1.3-.1,2.59-.16,3.86.22.09.43.18.65.28,3.08,1.3,6.13,2.61,9.23,3.87,3.08,1.24,6.15,2.5,9.22,3.76,1.45.6,2.92,1.21,4.38,1.81,1.37.57,2.8,1.4,4.28,1.45-.07.33-.14.65-.2.92-.35,1.43-.71,2.85-1.07,4.27-.08.32-.17.64-.25.97-.64,2.54-1.3,5.07-2.09,7.58-.25.78-.03,1.49.44,2.02.43.5,1.09.83,1.78.88,2.15.18,4.25.46,6.35.95,1.03.24,2.05.52,3.07.83,1.22.39,2.35.87,3.62.99.18.02.37,0,.54-.06.09.57.21,1.12.26,1.57.16,1.51.29,3.03.37,4.55.16,2.95.15,5.89-.6,8.75,0,.06-.03.13-.05.19-.12.46-.09.93.08,1.36.24.64.77,1.18,1.47,1.38,2.32.65,4.62,1.42,7,1.8,1.26.2,2.56-.33,2.92-1.66.35-1.28-.43-2.53-1.66-2.92Z"/>
          <path class="cls-25" d="M48.41,77.28c-.99-1.33-2.01-2.63-3.12-3.86-1.04-1.17-2.14-2.28-3.29-3.35-.83-.77-1.69-1.6-2.63-2.29.65-.59,1.22-1.33,1.74-2,1.02-1.3,1.9-2.78,2.19-4.44.68-3.88-1.85-6.65-4.6-8.98-3-2.55-6.07-5-9.19-7.39-1.5-1.15-3.02-2.28-4.56-3.38-1.59-1.15-3.45-2.81-5.42-3.19-1.96-.38-4.1,1.71-2.8,3.65,1.04,1.56,2.81,2.57,4.34,3.61,1.44.98,2.87,1.97,4.29,2.98,2.72,1.94,5.39,3.93,8,6,1.91,1.51,5.14,3.35,5.45,6.03.14,1.22-.46,2.47-1.04,3.49-.35.61-.74,1.19-1.15,1.76-.23.32-.37.6-.48.87-1.58.49-2.45,2.56-1.09,4.15.96,1.13,2.24,2,3.33,3.01,1.1,1.02,2.16,2.08,3.17,3.19.97,1.06,1.91,2.14,2.79,3.27.54.7,1.03,1.44,1.54,2.17-.95,1.39-2.12,2.7-3.14,3.99l-4.36,5.55c-1.4,1.78-2.78,3.58-4.15,5.38-1.37,1.79-3.01,3.66-4,5.69-.41.84.51,2.11,1.43,1.43,1.85-1.37,3.42-3.29,4.96-5,1.52-1.68,3.03-3.36,4.53-5.05,1.5-1.7,2.99-3.4,4.49-5.09,1.55-1.76,3.07-3.85,4.93-5.29.92-.71.79-2.07.38-2.98-.61-1.39-1.67-2.69-2.58-3.91Z"/>
          <path class="cls-25" d="M46.74,349.36c-3.94-2.16-7.92-4.25-11.9-6.33,1.51-3.03,2.61-6.25,3.26-9.57.13-.66.02-1.33-.3-1.88.02-.66-.26-1.33-.94-1.71-3.89-2.16-8.14-3.74-12.3-5.29-4.04-1.5-8.23-3.24-12.48-4.06-1.41-.75-2.87,1.77-1.26,2.6,3.9,2,8.18,3.37,12.21,5.11,3.45,1.49,6.85,3.13,10.34,4.54-.78,3.55-2.07,6.9-3.91,10.04-.64,1.09-.3,2.71.87,3.32,4.16,2.17,8.33,4.33,12.52,6.43-1.01,3.67-2.14,7.32-3.4,10.92-.72,2.06-1.52,4.09-2.28,6.13-.38,1.02-.72,2.05-1.09,3.07-.36,1-.67,1.85-.18,2.86.17.36.65.51,1.02.41,1.06-.27,1.53-1.17,2.01-2.07.55-1.02,1.11-2.04,1.6-3.09.94-1.99,1.79-4.03,2.62-6.06,1.73-4.19,3.28-8.44,4.67-12.75.31-.95-.2-2.14-1.06-2.61Z"/>
          <path class="cls-25" d="M80.39,365.43c-.17.03-.66-.02-.87-.08-.51-.15-1.01-.3-1.51-.49-.94-.34-1.85-.79-2.82-1.08-2.04-.62-4.45-.69-6.23.65-1.84,1.39-2.3,3.71-2.75,5.84-.21.98-.42,1.96-.64,2.94-.03.14-.08.28-.12.42-4.2-1.39-8.5-2.56-12.78-3.7-1.07-.28-2.23-.42-3.24.14-.88.5-1.35,1.41-1.57,2.36-.25,1.09-.51,2.19-.67,3.3-.15,1.07-.6,2.43-.18,3.47.29.71,1.02.92,1.62.43.73-.59.94-1.6,1.27-2.44.35-.91.64-1.82.92-2.75.11-.36.28-.76.35-1.14.8.35,1.75.53,2.58.8,3.74,1.19,7.46,2.45,11.25,3.46.55.47,1.46.55,2.1,0,.72-.63,1.22-1.63,1.62-2.48.44-.94.78-1.9,1.07-2.9.25-.89.49-1.78.78-2.65.15-.47.25-.7.45-1.1.1-.2.08-.15.17-.26.06-.07.13-.13.2-.19.01,0,.02,0,.06-.03.07-.04.19-.09.23-.11.1-.02.23-.06.27-.07.16-.01.33-.02.49-.02.03,0,.25.02.36.03.11.02.41.08.46.1.18.04.36.09.54.15.21.07.42.14.63.22.06.02.09.03.13.05.04.02.1.05.23.1,2.21.99,4.32,1.81,6.78,1.28,1.16-.25,1.83-1.6,1.53-2.7-.34-1.25-1.52-1.72-2.7-1.53Z"/>
          <path class="cls-19" d="M260.11,265.31c-.02-4.24-.12-8.49-.28-12.73-.07-2.3-.17-4.61-.29-6.91v-.07c-.11-2.16-.22-4.32-.34-6.47,0-.17-.05-.31-.1-.45-.22-.61-.82-.92-1.4-.91-.08-.07-.17-.15-.26-.2-.41-.27-.88-.47-1.32-.7-.87-.46-1.75-.94-2.66-1.35-.06-.03-.14-.06-.2-.09-1.22-.54-2.46-1.06-3.7-1.56-.04-.29-.23-.58-.52-.64-.1,0-.19-.04-.29-.07.09-.62.17-1.24.27-1.85.16-.91.35-1.81.56-2.72.44-1.86.94-3.72,1.56-5.53.24-.71-.28-1.51-.97-1.7-.77-.21-1.45.26-1.7.97-.66,1.85-1.21,3.72-1.56,5.64-.18.99-.32,1.99-.45,2.99-.1.87-.22,1.77-.19,2.65-.1.12-.19.25-.25.39-.26.64-.06,1.52.61,1.84,1.86.91,3.73,1.73,5.64,2.52.92.39,1.86.69,2.81,1.01.43.15.87.33,1.32.45.31,7.59.73,15.18,1.36,22.75-1.57-1.83-3.13-3.66-4.7-5.51-.59-.68-1.83-.8-2.57-.33-2.64,1.68-5.26,3.41-7.88,5.11-1.28.83-2.56,1.67-3.84,2.5-.45.29-.89.56-1.28.87-3.19-7.56-6.16-15.22-8.92-22.94-.24-.64-.83-1.01-1.52-.86-4.97,1.1-9.94,2.21-14.92,3.33-.37-1.13-.84-2.24-1.26-3.35-.53-1.4-1.06-2.81-1.62-4.21-1.17-2.9-2.35-5.8-3.53-8.7-.23-.57-.75-.96-1.39-.79-.11.04-.21.09-.31.16-.17-.07-.38-.11-.6-.06-1.34.3-2.61.79-4,.99-.93.14-1.86.17-2.8.16l1.22-13.78c.13-1.45-2.13-1.45-2.26,0-.47,4.97-.95,9.94-1.43,14.92-.06.66.6,1.15,1.19,1.19,1.53.08,3.05-.02,4.55-.28,1.32-.22,2.73-.55,3.95-1.18,1.1,2.72,2.19,5.43,3.3,8.14.58,1.43,1.21,2.84,1.81,4.25.42.99.82,2,1.28,2.97-3.33.75-6.67,1.51-10,2.27-1.05.24-.6,1.79.43,1.59,3.58-.68,7.16-1.4,10.74-2.09.28.09.58.03.8-.16,4.79-.93,9.58-1.84,14.37-2.8,2.8,8.29,5.96,16.43,9.42,24.45.45,1.05,1.62.79,2.15.04.93-.15,1.79-.74,2.61-1.22,1.32-.76,2.64-1.53,3.96-2.28,2.12-1.22,4.23-2.45,6.34-3.67,4.79,6.03,9.58,12.07,14.4,18.08-.54.44-1.06.91-1.57,1.32-1.1.87-2.21,1.72-3.31,2.58-2.17,1.66-4.35,3.32-6.52,4.98-4.36,3.32-8.77,6.56-13.16,9.84-.55.41-.46,1.13-.06,1.46-.02.14,0,.28.06.42,1.8,4.64,3.71,9.23,5.75,13.76-.95.37-1.81.98-2.71,1.47-1.43.79-2.88,1.55-4.34,2.28-1.45.74-2.94,1.44-4.43,2.08-1.49.65-3.09,1.11-4.53,1.85-.5.26-.75.66-.82,1.1-.63-.19-1.35.41-.96,1.16,1.76,3.34,2.97,7.03,3.73,10.73.14.67.93,1.06,1.55.88.71-.19,1-.87.88-1.55-.36-1.96-.95-3.84-1.7-5.68-.52-1.22-1.16-2.38-1.87-3.51.16,0,.32,0,.49-.04,1.64-.41,3.27-1.26,4.81-1.95,1.54-.68,3.05-1.42,4.54-2.19,1.45-.76,2.85-1.58,4.24-2.46,1.46-.93,3-1.72,3.68-3.4.05-.11.06-.22.04-.32.08-.21.08-.46-.02-.72-2-4.82-4.12-9.6-6.38-14.31-.03-.06-.06-.09-.08-.13,4.44-2.61,8.76-5.4,13.03-8.29,2.26-1.52,4.48-3.08,6.68-4.69,1.08-.78,2.15-1.57,3.2-2.36.65-.48,1.41-.96,2.11-1.48,2.39,2.98,4.81,5.95,7.23,8.9.45-2.24.86-4.51,1.22-6.83-4.71-5.65-9.49-11.26-14.26-16.85-.61-.72-1.22-1.44-1.84-2.15Z"/>
          <path class="cls-7" d="M69.51,192.05c-1.48-.45-2.95-.91-4.44-1.3-.74-.19-1.46-.39-2.19-.58-.81-.21-1.54-.41-2.38-.35-.06,0-.12.02-.18.04,0-.03,0-.06,0-.08-.05-2.96-.1-5.92-.23-8.88-.06-1.47-.1-2.96-.21-4.43-.08-1.11-.03-2.43-.26-3.57.3-.65.1-1.6-.82-1.8-2.49-.57-4.96-1.19-7.47-1.69-1.22-.25-2.45-.5-3.67-.75-.97-.19-1.94-.44-2.92-.59,1.01-5.16,1.98-10.41,2.38-15.66.06-.67-.52-1.01-1-.89-.1-.17-.26-.31-.5-.41-8.43-3.35-16.9-6.67-25.38-9.93-.03.8-.06,1.59-.09,2.38,3.61,1.42,7.22,2.84,10.83,4.25,4.56,1.79,9.11,3.57,13.68,5.31.21.08.41.09.6.06-1.27,4.81-2.11,9.79-2.86,14.69-.06.45.08.79.34,1.03-.02.3.13.61.52.77,1.24.48,2.57.75,3.86,1.09.52.13,1.04.27,1.57.41-.28,2.75-.48,5.52-.59,8.29-.37,0-.73,0-1.09,0-.8.04-1.6.08-2.39.12-.8.05-1.6.08-2.39.12-.9.05-1.89-.02-2.74.28-1.11.39-1.07,1.92-.16,2.42-.15.17-.24.4-.21.69.32,2.96.65,5.92.98,8.89.11.99,1.6.87,1.54-.13-.17-2.97-.36-5.95-.54-8.92,0-.14-.05-.25-.09-.36.49-.04.99-.11,1.46-.16.79-.08,1.58-.16,2.38-.23.79-.07,1.58-.15,2.38-.23.42-.04.86-.11,1.28-.17h.03c.67.41,1.83.19,1.9-.75.2-3.12.27-6.22.25-9.35.03,0,.06.02.09.03,2.23.58,4.47,1.07,6.72,1.58-.02.45,0,.9,0,1.33,0,.68-.02,1.37-.03,2.05-.02,1.48.04,2.96.06,4.45.06,2.96.18,5.91.32,8.88.06,1.07,1.15,1.32,1.87.89.03.18.12.36.29.49.33.25.67.48,1.06.63.37.13.75.24,1.11.36.75.24,1.48.49,2.23.73,1.54.5,3.1.94,4.66,1.37.64.18,1.32-.37,1.43-.98.13-.71-.35-1.23-.98-1.43Z"/>
          <path class="cls-7" d="M76.23,99.4c-1.67-.81-3.31-1.62-5.01-2.36-1.08-.47-2.13-1.02-3.22-1.46-.62-.25-2.77-1.37-3.3-1.66-1.57-.86-3.38,4.12-3.89,5.01-.64,1.16-1.38,2.31-1.99,3.5-2.67-.66-5.28-1.6-7.82-2.69-1.24-.53-2.47-1.12-3.66-1.78-1.05-.56-5.43-3.64-6.3-1.79-.8,1.7-1.61,3.4-2.34,5.14-.73,1.72-1.51,3.43-2.09,5.2-.07-.02-.16-.04-.24-.05-3.23-.32-6.45-.69-9.69-1.07,1.41-1.5,2.61-3.22,3.81-4.89,1.43-1.98,2.85-3.97,4.28-5.96,2.85-3.96,5.84-7.86,8.54-11.93.61-.91-6.75-8.3-9.7-11.32-.23-.24-.76-.63-.84-.97-.09-.37.17-.68.37-.99.55-.87,1.18-1.68,1.78-2.52,1.24-1.73,2.48-3.44,3.64-5.23.25-.37.27-.73.16-1.03,0-.12-.03-.24-.08-.37-.36-.79-1.22-1.49-1.87-2.07-.73-.65-1.53-1.23-2.29-1.85-1.58-1.28-3.23-2.49-4.85-3.71-1.57-1.2-3.15-2.38-4.72-3.57-.52-.4-1.05-.82-1.57-1.23,0,1.27-.03,2.58-.05,3.92h0c1.5,1.1,2.99,2.21,4.49,3.32,1.57,1.17,3.14,2.38,4.76,3.49.81.56,1.6,1.14,2.42,1.68.31.19.65.42,1.01.64-1.31,1.81-2.54,3.68-3.79,5.55-1.1,1.63-2.7,3.47-1.36,5.46.59.87,1.47,1.58,2.22,2.32.85.85,1.69,1.68,2.54,2.52,1.68,1.64,3.35,3.34,5.15,4.85-2.82,3.75-5.4,7.68-8.08,11.52-1.35,1.93-2.71,3.88-4.06,5.82-1.39,1.99-2.87,3.99-3.89,6.19-.02.04-.02.07-.03.11-.98-.12-1.94-.24-2.92-.37-.03.74-.06,1.47-.09,2.22.23.05.47.08.7.12,2.5.41,5,.78,7.51,1.1,1.57.2,5.44,1.36,6.88.5,1.39-.85,2.41-3.35,3.12-4.72,1.17-2.21,2.21-4.48,3.27-6.76.9.89,2.07,1.6,3.11,2.28,1.25.82,2.55,1.57,3.88,2.27,2.65,1.39,5.45,2.38,8.34,3.17.49.13.98-.17,1.24-.58,0,0,.03,0,.04-.03,1.14-1.24,2.06-2.74,3.05-4.12.89-1.25,1.73-2.53,2.56-3.83.03.03.04.06.07.08.75.62,1.65,1.02,2.5,1.48.78.42,1.57.84,2.35,1.26,1.63.87,3.29,1.68,4.95,2.48,1.45.71,2.46-1.6,1.01-2.3Z"/>
          <path class="cls-19" d="M30.94,345.29c-.29-.17-.9-.4-1.08-.71-.18-.33,0-.71.09-1.04.3-.99.69-1.95,1.04-2.91.73-2,1.45-3.99,2.1-6.01.13-.43.06-.78-.13-1.04-.05-.11-.1-.22-.18-.33-.56-.67-1.58-1.11-2.36-1.49-.87-.43-1.8-.78-2.7-1.17-1.87-.81-3.78-1.53-5.68-2.27-1.83-.73-3.67-1.45-5.51-2.17-1.87-.74-3.75-1.67-5.74-2.02-1.54-.28-2.4,1.68-1.03,2.54,1.67,1.05,3.62,1.63,5.45,2.33,1.9.72,3.79,1.45,5.69,2.16,1.84.71,3.67,1.45,5.53,2.09.93.32,1.85.67,2.78.96.35.11.75.24,1.15.35-.77,2.11-1.46,4.24-2.16,6.36-.63,1.88-1.67,4.08.16,5.63.8.68,1.84,1.13,2.76,1.64,1.04.58,2.08,1.17,3.13,1.75,2.05,1.12,4.12,2.31,6.25,3.29-1.7,4.36-3.14,8.85-4.69,13.26-.78,2.24-1.57,4.47-2.35,6.7-.69,1.96-1.45,3.97-1.89,6.01.67.12,1.35.25,2.05.37.85-1.7,1.49-3.53,2.15-5.3.84-2.29,1.68-4.59,2.52-6.89,1.68-4.59,3.51-9.14,5.01-13.79.34-1.04-8.73-6.19-12.38-8.3Z"/>
          <path class="cls-19" d="M79.53,360.9c-1.81-.32-3.63-.66-5.45-.92-1.17-.16-2.33-.41-3.5-.54-.66-.06-3.05-.57-3.63-.71-1.75-.41-2.15,4.87-2.38,5.87-.32,1.29-.72,2.59-.98,3.9-2.75.07-5.52-.13-8.25-.49-1.35-.18-2.69-.42-4.01-.73-1.16-.27-6.21-2.04-6.55-.04-.31,1.86-.64,3.71-.87,5.58-.23,1.86-.52,3.72-.62,5.58-.07,0-.15,0-.24.02-2.73.47-5.49.92-8.23,1.34,2.58.45,5.3.89,8.18,1.32.42-.16.77-.34,1-.59,1.12-1.2,1.42-3.89,1.75-5.4.52-2.44.91-4.92,1.33-7.38,1.1.62,2.42.99,3.61,1.36,1.43.44,2.88.83,4.35,1.14,2.93.63,5.89.84,8.89.81.5,0,.89-.42,1.04-.89,0,0,.02-.02.03-.03.76-1.51,1.24-3.2,1.82-4.8.53-1.45.99-2.91,1.44-4.37.04.02.06.05.09.06.89.4,1.87.54,2.81.76.87.19,1.73.39,2.61.58,1.8.41,3.61.73,5.43,1.06,1.59.29,1.94-2.2.35-2.5Z"/>
          <path class="cls-29" d="M232.59,20.66c-19.48-.39-57.56-.58-114.25-.58-49.87,0-76.95.39-81.23,1.16-3.51.78-6.68,3.18-9.49,7.16-2.83,4-4.24,7.84-4.24,11.55,0,.6,0,1.22,0,1.83,1.07-.72,2.32-1.18,3.45-.67,1,.45,1.51,1.51,1.86,2.5,2.61,7.38,1.36,15.82,5.33,22.64,1.17,2.03,3.18,4.01,5.63,3.86,1.89-.11,7.32-3.52,8.44-4.94,4.54-5.77,10.56-22.16,11.59-22.41,2.63-.64,1.08,5.61,1.69,8.08,3.53,14.22.46,29.72,6.52,43.16,2.1,4.65,5.98,9.3,11.35,9.7,6.14.45,15.17-5.66,17.97-10.81,7.32-13.44,7.91-29.21,13.57-43.35,1.05-2.64,5.96-9.23,8.73-8.12,4.31,1.73,4.94,7.04,5.76,11.36.82,4.33,4.28,9.48,8.77,8.22,1.8-.51,3.08-1.96,4.16-3.41,2.17-2.94,3.91-6.14,5.17-9.51.6-1.59,1.38-3.5,3.16-3.82,1.8-.32,5.29,19.69,9.04,27.94,1.88,4.12,6.85,8.58,11.6,7.99,2.74-.35,6.69-1.99,8.44-3.99,5.57-6.34,7.02-14.85,10.43-22.33.5-1.09,1.86-4.99,3.16-5.27,1.65-.34,3.42,3.62,4.14,4.75,2.68,4.22,5.05,8.61,7.12,13.15,1.34,2.95,3.37,6.05,5.79,8.19,3.49,3.08,7.78,3.48,11.01-.06,6.24-6.85,4.47-17.84,11.3-24.33.68-.64,1.5-1.25,2.47-1.35,2.2-.23,3.65,2.09,4.23,4.09,1.37,4.73,1.46,9.87,2.31,14.7,1.92-16.84,2.89-30.3,2.89-40.38,0-4.28-2.63-6.53-7.89-6.72Z"/>
          <path class="cls-10" d="M245.1,8.11c-4.53-2.1-11.55-1.34-16.5-1.75-15.35-1.27-30.73-2.35-46.11-3.24C151.57,1.34,120.62.32,89.65.06c-17.22-.14-34.44-.05-51.65.29-4.3.08-8.73.21-12.65,1.86-9.74,4.09-12.67,15.55-13.74,25.49-.53,4.93.19,11.41,5.33,12.64,4.85,1.16,8.7-3.53,12.25-6.82,1.14-1.06,2.8-2.09,4.25-1.44.95.42,1.42,1.42,1.75,2.35,2.45,6.94,1.29,14.89,5.02,21.31,1.11,1.9,2.99,3.76,5.3,3.63,1.78-.1,3.23-1.38,4.29-2.72,4.28-5.43,4.79-12.85,9.08-18.26.6-.75,1.33-1.5,2.3-1.73,2.48-.6,4.21,2.25,4.79,4.58,3.32,13.38.43,27.98,6.14,40.63,1.97,4.38,5.62,8.75,10.68,9.13,5.78.43,10.38-4.48,13.01-9.32,6.89-12.66,7.45-27.51,12.77-40.81.99-2.49,2.21-4.99,4.29-6.79,2.08-1.8,5.23-2.75,7.84-1.7,4.06,1.63,4.66,6.63,5.43,10.7.77,4.07,4.02,8.93,8.26,7.73,1.69-.48,2.91-1.85,3.92-3.21,2.05-2.76,3.69-5.78,4.87-8.95.56-1.5,1.3-3.29,2.98-3.6,1.69-.31,3.13,1.16,3.98,2.56,4.46,7.33,3.48,16.56,7.01,24.32,1.77,3.88,5.55,7.68,10.02,7.12,2.58-.32,4.72-2.05,6.37-3.93,6.52-7.43,7.7-17.73,12.63-26.16.82-1.4,2.05-2.92,3.76-2.88.98.02,1.85.57,2.58,1.17,7.15,5.8,6.48,16.2,9.98,24.43.9,2.12,2.46,4.36,4.88,4.62,1.83.19,3.57-.85,4.83-2.11,6.37-6.28,4.66-17.28,11.16-23.45.64-.61,1.42-1.18,2.33-1.28,2.07-.22,3.42,1.97,3.97,3.85,2.24,7.7.85,16.57,5.78,23.08,1.29,1.71,3.24,3.25,5.47,3.16,3.29-.14,5.16-3.5,6.21-6.42,4.56-12.63,6.52-26.08,5.77-39.39-.33-5.82-1.61-12.75-7.82-15.63Z"/>
          <path class="cls-29" d="M252.27,18.46c-.52-2.53-1.41-4.98-2.97-6.99,1.12,2.27,2.13,4.62,2.97,6.99Z"/>
          <path class="cls-24" d="M245,45.72c-10.13,4.6-8.29-14.73-17.49-19.34-1.84-.92-3.68,0-5.52.92-8.29,5.52-1.84,23.94-13.81,20.26-11.05-3.68-7.37-31.3-21.18-23.94-11.05,6.45-5.52,23.02-14.73,31.3-4.6,3.68-10.13,0-11.97-5.52-3.68-8.29,0-22.1-11.05-23.94-8.29-1.84-8.29,10.13-13.81,11.05-9.21,1.84-6.45-11.05-11.05-15.65-7.37-5.52-14.73,1.84-18.41,8.29-8.29,14.73-4.6,50.64-23.02,44.19-11.05-3.68-3.68-24.86-8.29-38.67,0-2.76-1.84-7.37-5.52-7.37-11.05-.92-11.97,15.65-21.18,15.65-8.29-.92-4.6-13.81-9.21-21.18-1.84-1.84-5.52-2.76-7.37-1.84-5.44,5.44-12.66,17.1-19.91,9.57-.16,4.58.93,9.74,5.45,10.82,4.85,1.16,8.7-3.53,12.25-6.82,1.14-1.06,2.8-2.09,4.25-1.44.95.42,1.42,1.42,1.75,2.35,2.45,6.94,1.29,14.89,5.02,21.31,1.11,1.9,2.99,3.76,5.3,3.63,1.78-.1,3.23-1.38,4.29-2.72,4.28-5.43,4.79-12.85,9.08-18.26.6-.75,1.33-1.5,2.3-1.73,2.48-.6,4.21,2.25,4.79,4.58,3.32,13.38.43,27.98,6.14,40.63,1.97,4.38,5.62,8.75,10.68,9.13,5.78.43,10.38-4.48,13.01-9.32,6.89-12.66,7.45-27.51,12.77-40.81.99-2.49,2.21-4.99,4.29-6.79,2.08-1.8,5.23-2.75,7.84-1.7,4.06,1.63,4.66,6.63,5.43,10.7.77,4.07,4.02,8.93,8.26,7.73,1.69-.48,2.91-1.85,3.92-3.21,2.05-2.76,3.69-5.78,4.87-8.95.56-1.5,1.3-3.29,2.98-3.6,1.69-.31,3.13,1.16,3.98,2.56,4.46,7.33,3.48,16.56,7.01,24.32,1.77,3.88,5.55,7.68,10.02,7.12,2.58-.32,4.72-2.05,6.37-3.93,6.52-7.43,7.7-17.73,12.63-26.16.82-1.4,2.05-2.92,3.76-2.88.98.02,1.85.57,2.58,1.17,7.15,5.8,6.48,16.2,9.98,24.43.9,2.12,2.46,4.36,4.88,4.62,1.83.19,3.57-.85,4.83-2.11,6.37-6.28,4.66-17.28,11.16-23.45.64-.61,1.42-1.18,2.33-1.28,2.07-.22,3.42,1.97,3.97,3.85,2.24,7.7.85,16.57,5.78,23.08,1.29,1.71,3.24,3.25,5.47,3.16,3.29-.14,5.16-3.5,6.21-6.42,2.8-7.77,4.62-15.86,5.43-24.02-1.52,2.7-3.96,4.98-7.58,6.61Z"/>
          <path class="cls-25" d="M191.95,6.8c-19.99-1.73-40.11-2.35-60.16-2.71-20.07-.35-40.13-.48-60.2-.19-5.67.08-11.34.22-17,.41-5.57.2-11.41.11-16.85,1.43-1.08.26-1.12,1.98,0,2.22,4.89,1.03,10.03.92,15.01,1,4.98.08,9.96.18,14.94.23,10.03.09,20.07.25,30.1.38,20.06.27,40.13.78,60.19,1.41,11.32.36,22.65.66,33.98.74,1.33,0,2.46-1.14,2.46-2.46,0-1.43-1.13-2.35-2.46-2.46Z"/>
          <path class="cls-11" d="M24.22,277.66c-5.88-3.27-13.26-1.63-17.21,3.82-4.43,6.13-6.61,13.41-5.21,21.32.44,2.52,1.24,5.13,4.85,5.91,2.31.5,4.74-.08,6.66-1.46,4.58-3.3,6.15-9,9.88-12.99,4.6,2.89,5.01,9.25,5.77,14.62.88,6.25,4.94,13.91,12.1,10.77,2.17-.95,3.86-2.71,4.97-4.8,2.2-4.15,7.6-10.42,12.75-6.78.97.68,1.7,1.64,2.27,2.68,3.82,6.98,4.33,15.21,7.55,22.44,3.54,7.95,12.49,15.06,20.93,9.36,1.46-.99,2.69-2.29,3.68-3.75,3.99-5.87,4.29-12.89,6.41-19.35,1.07-3.26,2.73-6.53,5.96-8.05,1.85-.88,4.05-.93,5.79.15,4.05,2.52,2.16,8.56,5.57,11.51.73.63,1.68,1.01,2.65.96,1.75-.1,2.47-1.42,3.04-2.69,1.89-4.17,2.99-8.7,3.25-13.27,4.89-1.31,8.35,5.74,8.62,10.13.16,2.57,1.18,5.04,3.06,6.8,4.61,4.3,9.43.64,12.44-3.07,10.1-12.45,11.97-30.42,7.69-45.86-40.03,23.88-92.84,24.21-133.48,1.6Z"/>
          <path class="cls-24" d="M157.43,276.21c3.35,14.56.02,34.07-13.72,38.36-5.52.92-4.6-9.21-8.29-12.89-8.29-7.37-10.13,6.45-13.81,11.97,0,0-2.76,3.68-3.68.92-1.84-6.45-4.6-17.49-12.89-14.73-11.97,4.6-11.05,17.49-14.73,27.62-1.84,3.68-5.52,8.29-10.13,5.52-11.97-6.45-4.6-24.86-15.65-33.15-10.13-9.21-13.81,11.05-23.94,12.89-.92,0-2.76-.92-3.68-2.76-3.68-8.29-1.84-20.26-12.89-23.94-1.84-.92-4.6.92-5.52,1.84-3.68,6.45-7.37,15.65-15.65,12.89-.48-.14-.93-.32-1.37-.51.07.84.17,1.7.32,2.56.44,2.52,1.24,5.13,4.85,5.91,2.31.5,4.74-.08,6.66-1.46,4.58-3.3,6.15-9,9.88-12.99,4.6,2.89,5.01,9.25,5.77,14.62.88,6.25,4.94,13.91,12.1,10.77,2.17-.95,3.86-2.71,4.97-4.8,2.2-4.15,7.6-10.42,12.75-6.78.97.68,1.7,1.64,2.27,2.68,3.82,6.98,4.33,15.21,7.55,22.44,3.54,7.95,12.49,15.06,20.93,9.36,1.46-.99,2.69-2.29,3.68-3.75,3.99-5.87,4.29-12.89,6.41-19.35,1.07-3.26,2.73-6.53,5.96-8.05,1.85-.88,4.05-.93,5.79.15,4.05,2.52,2.16,8.56,5.57,11.51.73.63,1.68,1.01,2.65.96,1.75-.1,2.47-1.42,3.04-2.69,1.89-4.17,2.99-8.7,3.25-13.27,4.89-1.31,8.35,5.74,8.62,10.14.16,2.57,1.18,5.04,3.06,6.8,4.61,4.3,9.43.64,12.44-3.07,10.1-12.45,11.97-30.42,7.69-45.86-.09.05-.18.1-.26.15Z"/>
          <path class="cls-22" d="M240.08,183.2c-18.16-12.62-39.38-20.82-60.94-25.49-20.9-4.53-43.86-6.52-64.94-1.99-2.88.62-2.06,4.81.67,4.95,21.09,1.07,41.57,2.38,62.06,8.03,20.18,5.57,38.95,14.51,57.01,25,6.86,3.99,12.48-6.09,6.14-10.5Z"/>
          <g class="cls-30">
            <path class="cls-2" d="M112.5,90.49c-7.55-.3-14.1,5.3-14.84,12.82-1.35,13.59-.8,27.24,3.99,40.01-.17-.85-.26-1.8-.26-2.86,0-16.17,1.65-27.18,4.96-33.03,1.56-2.33,13.05-3.5,34.48-3.5,10.91,0,38.38,1.94,82.4,5.84l3.22.29c2.94,0,5.58-6.39,7.91-19.17-40.57.97-81.42,1.17-121.87-.41Z"/>
          </g>
          <path class="cls-29" d="M239.31,172.31c-8.65-6.96-18.1-12.67-28.35-17.11-9.82,9.68-17.41,21.65-21.78,34.74-6.79,20.34-5.75,43.18,2.85,62.82,5.43,12.42,13.98,24.72,12.15,38.15-.72,5.3-3.04,10.23-4.77,15.29-4.86,14.17-4.97,29.85-.69,44.19-27.63,13.22-59.47,19.18-89.06,16.66-37.79-3.02-76.19-10.39-109.62-28.22-.02.81-.03,1.6-.03,2.37,0,14.81.39,23.47,1.17,26,1.3,4.48,11.44,8.48,30.42,12,.67.12,1.36.25,2.05.37.39.07.77.14,1.17.2,2.58.45,5.3.88,8.18,1.32,3.65.55,7.52,1.09,11.65,1.6,26.1,3.31,46.95,4.97,62.53,4.97,2.47,0,4.91-.02,7.31-.07.8,0,1.59-.03,2.38-.06.52,0,1.03-.02,1.55-.04.78-.02,1.56-.05,2.33-.08,3.38-.12,6.69-.29,9.95-.51.73-.05,1.46-.1,2.18-.16.68-.05,1.36-.1,2.03-.16.71-.06,1.41-.11,2.11-.17.97-.08,1.93-.17,2.89-.27,1.11-.11,2.23-.22,3.32-.34,1.08-.12,2.15-.25,3.22-.38.61-.07,1.22-.15,1.81-.23.89-.11,1.79-.23,2.67-.36.15,0,.29-.04.45-.06,1.18-.16,2.34-.33,3.5-.52,1.09-.17,2.16-.34,3.23-.52,1.57-.27,3.11-.54,4.64-.84.61-.11,1.21-.23,1.8-.36.68-.13,1.35-.27,2.03-.41,1.85-.39,3.67-.79,5.47-1.22.95-.22,1.91-.46,2.85-.7.67-.17,1.33-.34,1.99-.52.32-.07.65-.17.98-.26.55-.15,1.1-.3,1.64-.45.41-.11.84-.23,1.25-.36.6-.17,1.19-.35,1.77-.52.85-.25,1.68-.51,2.52-.78.84-.26,1.67-.53,2.49-.81.62-.2,1.23-.41,1.84-.63.34-.11.69-.24,1.04-.37.6-.21,1.2-.42,1.79-.64.18-.06.37-.13.55-.21.64-.24,1.29-.48,1.92-.73,1.59-.62,3.17-1.26,4.72-1.93,36-15.48,57.87-42.43,65.59-80.84.22-1.11.44-2.25.64-3.39,0-.04,0-.06.02-.09.17-.96.33-1.92.48-2.91.03-.15.05-.29.07-.44.16-1.08.31-2.15.46-3.25.08-.65.17-1.32.25-1.99.06-.56.13-1.13.19-1.69.06-.64.14-1.28.19-1.92.06-.63.12-1.26.17-1.9.46-5.32.69-10.82.69-16.51,0-35.84-12.96-64.09-38.86-84.73Z"/>
        </g>
        <g>
          <g>
            <path class="cls-9" d="M396.66,336.77c-2.65-.16-4.09,3.77-6.73,4.07,2.34-3.31,4.09-7.03,5.16-10.94.44-1.6.76-3.27.53-4.91-.23-1.64-1.1-3.27-2.56-4.05-1.87-1.01-4.28-.41-5.96.9-1.68,1.31-2.78,3.19-3.85,5.03-.9,1.55-1.45,3.44-2.34,4.99,1.06-3.37,1.07-7.07.02-10.45-.46-1.46-1.21-2.98-2.6-3.63-1.59-.74-3.55-.08-4.8,1.14-1.25,1.23-1.94,2.91-2.53,4.55-2.08,5.76-3.5,11.74-5.61,17.48-2.12,5.74-5.02,11.36-9.54,15.48-.47,1.48-.81,3.57.43,4.51,1.24.94,2.81,1.31,4.35,1.56,14.17,2.29,29.4-4.36,37.36-16.31,1.07-1.61,2.05-3.41,2.02-5.35-.03-1.94-1.41-3.97-3.34-4.09Z"/>
            <path class="cls-29" d="M373.53,318.93c-1.25,1.23-1.94,2.91-2.53,4.55-2.08,5.76-3.5,11.74-5.61,17.48-2.12,5.74-5.02,11.36-9.54,15.48-.47,1.48-.81,3.57.43,4.51,1.24.94,2.81,1.31,4.35,1.56,2.13.34,4.29.48,6.45.43,2.63-4.04,4.94-8.23,6.81-12.59,4.07-10.69,3.9-21.71,3.46-32.85-1.35-.17-2.81.43-3.81,1.41Z"/>
          </g>
          <g>
            <path class="cls-18" d="M360.98,388.2c-1.84-1.06-4.01-1.37-6.11-1.66-1.77-.24-3.74-.04-5.51-.28,3.53-.29,6.95-1.68,9.68-3.93,1.18-.98,2.3-2.25,2.37-3.78.09-1.75-1.27-3.32-2.87-4.02-1.61-.7-3.42-.69-5.17-.62-6.12.25-12.19,1.2-18.31,1.41-6.12.21-12.41-.36-17.94-2.98-1.55.13-3.61.6-4.02,2.1-.4,1.5-.15,3.1.2,4.61,3.24,13.99,15.15,25.57,29.22,28.42,1.9.38,3.93.61,5.72-.15,1.78-.76,3.15-2.8,2.52-4.64-.85-2.51-5.04-2.37-6.31-4.7,3.95.91,8.05,1.13,12.08.65,1.65-.2,3.32-.53,4.75-1.36,1.43-.83,2.61-2.25,2.79-3.9.23-2.11-1.24-4.12-3.08-5.18Z"/>
            <path class="cls-29" d="M353.37,373.9c-6.12.25-12.19,1.2-18.31,1.41-6.12.21-12.41-.36-17.94-2.98-1.55.13-3.61.6-4.02,2.1-.4,1.5-.15,3.1.2,4.61,1.72,7.43,5.88,14.17,11.52,19.3,12.63-5.24,24.28-13.87,33.66-23.84-1.59-.67-3.38-.67-5.11-.6Z"/>
          </g>
          <path class="cls-12" d="M356.5,276.29c-2.59-2.3-5.41-4.4-8.41-6.33-9.26-5.92-24.62-16.63-28.77-27.95-.12-.33-.23-.66-.33-.98-1.39-4.53,2.84-8.52,5.07-14.4,4.22-11.13,5.36-23.57,2.27-35.13-3.26-12.21-11.38-21.93-20.96-29.85-4.53-3.76-9.47-6.95-14.65-9.19-11.35-4.92-24.28-5.6-36.33-3.32-10.52,1.99-20.78,6.28-29.18,12.97-.94.75-1.87,1.54-2.76,2.34-.32.29-.63.58-.94.87-22.9,21.7-20.09,50.87-12.2,78.72.2.67.39,1.35.58,2.02,3.91,13.54,5.1,27.75,4.76,41.8-.34,14.65-.79,29.55,3.03,43.85,11.81,44.28,60.11,66.86,102.83,54.72,6.58-1.87,13.07-4.41,19.12-7.68,9.87-5.32,18.59-12.53,24.79-21.8,12.03-17.99,14.07-43,5.33-62.77-3.13-7.07-7.67-12.95-13.25-17.88Z"/>
          <g>
            <path class="cls-1" d="M253.3,192.27c-.17-.12-.35-.24-.52-.36-2.74-1.84-5.95-2.97-9.24-3.25-8.47-.72-16.19,4.2-19.71,11.03-.76,1.49-1.34,3-1.71,4.51-.47,1.85-.64,3.7-.55,5.5.5,10.72,10.44,19.48,24.69,15.78.38-.1.75-.2,1.12-.31.74-.23,1.46-.51,2.16-.83,9.31-4.2,13.07-15.33,9.8-24.12-1.13-3.07-3.13-5.85-6.05-7.96Z"/>
            <path class="cls-27" d="M245.19,190.39c-6.98-.59-13.86,3.75-17.28,9.8-2.04,3.61-2.86,7.83-1.74,11.98,2.07,7.64,9.76,11.9,17.38,11.33,6.46-.48,12.86-4.62,15.39-10.68,4.09-9.82-3.2-21.55-13.75-22.44Z"/>
            <g>
              <path class="cls-21" d="M240.88,198.95c-6.01,3.66-6.47,12.87-1.52,17.45,6.45,5.97,18.58,1.98,19.22-7.13.66-9.27-10.02-14.99-17.7-10.32Z"/>
              <path class="cls-6" d="M244.84,201.73c-1.39.8-2.5,2.12-2.98,3.94-1.69,6.3,6.86,11.42,11.58,6.84,2.56-2.49,2.44-6.72.13-9.32-2.29-2.59-6.04-3.01-8.73-1.46Z"/>
              <path class="cls-26" d="M249.71,203.09c-1.48.63-2.31,2.41-1.82,3.95.63,1.98,3.13,2.84,4.85,1.66,3.02-2.07.47-7.09-3.03-5.6Z"/>
              <path class="cls-26" d="M246.33,211.83l-.37-.26c-.28-.14-.58-.21-.9-.19-.24,0-.47.07-.67.19-.21.08-.4.21-.55.39-.16.17-.27.36-.33.59-.1.22-.14.44-.11.69.03.15.06.31.09.46.1.29.26.54.49.75.12.09.25.17.37.26.28.14.58.21.9.19.24,0,.47-.07.67-.19.21-.08.4-.21.55-.39.16-.17.27-.36.33-.59.1-.22.14-.44.11-.69-.03-.15-.06-.31-.09-.46-.1-.29-.26-.54-.49-.75Z"/>
              <path class="cls-23" d="M240.88,198.95c-6.02,3.66-6.47,12.87-1.52,17.45,6.45,5.97,18.57,1.99,19.22-7.12.66-9.27-10.02-14.99-17.7-10.32ZM257.27,208.68c-.59,8.32-11.67,11.96-17.56,6.51-4.52-4.18-4.1-12.6,1.39-15.94,7.01-4.27,16.77.96,16.17,9.43Z"/>
            </g>
          </g>
          <g>
            <path class="cls-1" d="M319.69,181.09c-.9-1.19-1.97-2.29-3.19-3.31-5.61-4.65-14-5.99-20.82-2.06-2.65,1.52-4.91,3.76-6.49,6.45-.1.17-.2.35-.3.52-1.63,2.99-2.22,6.22-1.98,9.36.67,9.02,8.15,17.36,17.6,17.44.71,0,1.42-.03,2.13-.11.35-.05.71-.1,1.06-.16,13.39-2.28,18.32-13.86,14.58-23.5-.62-1.62-1.48-3.18-2.59-4.63Z"/>
            <g>
              <path class="cls-15" d="M313.71,180.32c-5.21-3.81-12.69-4.85-18.37-1.69-8.58,4.79-10.27,17.49-3.05,24.24,4.45,4.16,11.45,5.21,17.1,3.15,6.66-2.43,11.54-8.98,10.37-16.23-.64-3.94-2.94-7.2-6.05-9.47Z"/>
              <g>
                <path class="cls-21" d="M302.21,183.37c-8.28-1.02-15.13,7.91-11.03,15.5,4.03,7.46,15.81,6.19,18.99-1.32,2.44-5.77-1.47-13.38-7.96-14.18Z"/>
                <path class="cls-6" d="M299.93,187.24c-2.87-.28-5.87,1.51-6.82,4.57-.96,3.08.56,6.71,3.68,7.84,5.74,2.06,11.01-5.53,7.18-10.21-1.11-1.35-2.55-2.05-4.03-2.19Z"/>
                <path class="cls-26" d="M296.15,190.7c-3.53.07-3.77,5.3-.42,5.89,1.91.34,3.69-1.34,3.47-3.25-.17-1.48-1.56-2.67-3.05-2.64Z"/>
                <path class="cls-26" d="M305.19,195.88c-.13-.17-.3-.29-.51-.37-.2-.1-.4-.14-.61-.12-.22-.02-.43,0-.64.1-.27.11-.5.28-.69.51l-.22.36c-.12.26-.16.54-.13.82.03.14.07.28.1.43.07.21.19.39.36.54.13.17.3.29.51.37.2.1.4.14.61.12.22.02.43,0,.64-.1.27-.11.5-.28.69-.51.07-.12.14-.24.22-.36.12-.26.16-.54.13-.82-.03-.14-.07-.28-.1-.43-.07-.21-.19-.39-.36-.54Z"/>
                <path class="cls-23" d="M302.21,183.37c-8.28-1.01-15.13,7.91-11.02,15.5,4.03,7.46,15.8,6.2,18.98-1.32,2.44-5.76-1.47-13.38-7.96-14.18ZM309.41,196.66c-2.9,6.86-13.66,8.02-17.34,1.2-3.74-6.93,2.51-15.08,10.07-14.15,5.92.72,9.49,7.69,7.26,12.95Z"/>
              </g>
            </g>
          </g>
          <path class="cls-14" d="M284.61,378.76c-23.26-7.56-43.04-28.66-43.83-53.1-.31-9.16,1.97-18.26,5.27-26.82,4.02-10.41,9.68-21.68,5.86-32.17-2.7-7.4-9.48-12.35-15.23-17.75-8.75-8.22-15.81-18.64-18.4-30.37-.27-1.23-.49-2.48-.65-3.73-2.1-16.14,5.61-32.96,24.11-34.19,15.2-1.01,32.65,29.68,30.34,34.73,2.32-1.76,12.16-4.42,15.05-4.63-2.06-5.63-4.14-11.33-4.92-17.29-.79-5.95,0-12.16,2.82-17.47,4.72-8.91,14.85-13.4,20.33-14.3-4.53-3.76-9.47-6.95-14.65-9.19-6.14-2.66-12.74-4.07-19.42-4.46,1.99-1.47,4.33-2.55,6.61-3.55.44-.19.95-.53.86-1-.06-.33-.4-.51-.71-.64-2.65-1.1-5.9-1.09-8.8-.16,1.72-1.26,3.43-2.53,5.15-3.79.32-.23.66-.52.68-.91.03-.55-.59-.89-1.11-1.07-9.1-3.09-20.09.94-25.03,9.18,1.6-2.94,3.2-5.88,4.8-8.82.71-1.31,1.38-3.09.32-4.15-1.07-1.07-2.89-.38-4.14.46-5.43,3.68-9.36,9.5-10.76,15.9.55-2.45.8-4.96.76-7.47-.02-.89-.28-2.02-1.16-2.14-.76-.1-1.32.66-1.66,1.34-2.23,4.43-2.88,9.61-1.9,14.47-3.54,1.82-6.9,3.97-10.01,6.45-.94.75-1.87,1.54-2.76,2.34-.32.29-.63.58-.94.87-22.9,21.7-20.09,50.87-12.2,78.72.2.67.39,1.35.58,2.02,3.91,13.54,5.1,27.75,4.76,41.8-.34,14.65-.79,29.55,3.03,43.85,11.81,44.28,60.11,66.86,102.83,54.72,6.58-1.87,13.07-4.41,19.12-7.68-18.17,4.78-37.3,5.76-55.02,0Z"/>
          <path class="cls-5" d="M320.51,386.43c6.58-1.87,13.07-4.41,19.12-7.68,9.87-5.32,18.59-12.53,24.79-21.8,6.99-10.45,10.6-23.27,10.69-36.05-1.41,4.66-3.24,9.21-5.5,13.59-17.47,34.94-63.52,51.61-96.08,25.41-9.53-7.15-9.53-21.44-1.59-27.79,6.82-5.68,14.17-10.46,20.95-15.71,11.13-8.62,16.68-22.57,14.8-36.52,0-.06-.02-.12-.02-.18-20.13,14.26-42.03,26.73-65.24,34.75-1.42,1.02-2.79,2.08-4.09,3.2-10.19,8.49-14.89,22.46-11.23,35.42,19.26,29.81,58.21,43.36,93.38,33.36Z"/>
          <path class="cls-16" d="M305.73,274.61c-1.73-1.43-4.17-1.75-6.46-2.07-25.44-3.46-49.77-13.02-70.16-27.57-.93,25.06-1.66,51.95,3.74,71.95,21.91-3.88,55.14-11.85,70.16-27.82,1.94-2.06,3.77-4.33,4.55-6.98.78-2.65.3-5.76-1.83-7.52Z"/>
          <path class="cls-5" d="M319.32,242.02c3.06,17.2-3.42,34.81-2.79,52.33.09,2.56.48,5.39,2.45,7.03,1.39,1.17,3.32,1.47,5.14,1.45,5.11-.03,9.99-2.18,14.26-4.97,7.98-5.2,14.32-12.84,18.13-21.56-2.59-2.3-5.41-4.4-8.41-6.33-9.26-5.92-24.62-16.63-28.77-27.95Z"/>
          <path class="cls-13" d="M334.16,250.91c-2.51-1.6-9.48-7.87-10.02-2.22-.2,2.02,1.59,5.37,1.78,7.61.2,2.39.1,4.82-.19,7.2-.62,5.24-2.11,10.32-3.31,15.46-.59,2.52-1.12,5.12-.85,7.7.26,2.58,1.43,5.18,3.6,6.61,2.96,1.95,6.94,1.25,10.2-.15,5.84-2.52,10.75-7.12,13.64-12.78,1.12-2.19,1.95-4.57,2.13-7.02.35-4.92-1.99-9.72-5.3-13.38-3.3-3.66-7.51-6.36-11.67-9.01Z"/>
          <path class="cls-17" d="M266.83,210.28c.61,3.58,2.46,5.71,5.15,8.15,3.97,3.59,9.59,6.93,14.48,9.1,2.41-2.98,3.81-6.67,4.55-10.43.74-3.76.52-7.2.6-11.03-3.55-.78-7.04-2.15-10.67-2.05-5.22.14-9.84,3.25-14.12,6.25Z"/>
          <path class="cls-4" d="M268.4,209.19c-.53.36-1.06.73-1.58,1.09.61,3.58,2.46,5.71,5.15,8.15,3.97,3.59,9.59,6.93,14.48,9.1,1.91-2.36,3.18-5.18,3.99-8.11-1.82.77-3.77,1.27-5.8,1.52-7.5,0-13.33-5.04-16.25-11.75Z"/>
          <path class="cls-22" d="M276.1,205.99c-2.39.9-1.49,4.48,1.07,3.88,1.99-.47,3.96-.87,6.01-.85,1.89.02,3.75.5,5.62.45.88-.02,1.36-1.11.72-1.75-3.22-3.21-9.43-3.23-13.42-1.73Z"/>
          <path class="cls-3" d="M299.92,276.78c-4.32-1.16-8.92-1.39-13.32-2.2-4.26-.78-8.5-1.81-12.64-3.04-8.81-2.63-16.96-6.59-24.97-11.03-3.3-1.83-6.01,2.95-2.93,5.01,7.97,5.35,17.14,9.03,26.43,11.36,8.43,2.11,18.88,4.05,27.44,1.76.92-.25.92-1.62,0-1.87Z"/>
          <path class="cls-3" d="M333.91,254.32c-2.32-1.06-4.28,2.1-2.03,3.47,2.92,1.78,5.75,3.78,8.08,6.3,1.21,1.31,2.35,2.74,3.34,4.22.81,1.21,1.36,2.54,2.49,3.47.62.51,1.4.15,1.49-.62.41-3.2-2.38-7.12-4.27-9.5-2.49-3.13-5.46-5.68-9.11-7.34Z"/>
          <path class="cls-3" d="M261.67,148.61c.91-3.18,2.36-6.22,4.26-8.93-7.26,2.78-13.84,7.35-18.98,13.18-.3-3.82.23-7.69,1.53-11.29-4,4.11-6.07,9.66-8.04,15.04-1.1-2.68-1.74-5.56-1.88-8.46-1.33,4.01-1.98,8.24-1.9,12.46.1-1.99,1.22-2.34,2.38-3.96.79,2.16,1.72,4.28,2.77,6.33.63-3.7,1.79-7.31,3.43-10.69.69,2.44,1.25,4.92,1.69,7.42,3.27-4.85,7.31-9.17,11.93-12.75-.68,3.56-.8,7.23-.36,10.83,2.33-3.53,5.28-6.65,8.66-9.18-.22,1.21.27,1.32.05,2.54.9-1.97,2.06-3.82,3.44-5.49-3.22-.15-6.48.92-8.99,2.94Z"/>
          <path class="cls-3" d="M302.07,162.83c-5.68-4.35-11.79-8.04-18.52-10.49-2.55-.92-4.24,3.19-1.84,4.35,6.03,2.92,12,5.89,17.53,9.69,5.4,3.72,9.92,8.96,15.46,12.35.83.51,1.56-.46,1.22-1.22-2.6-5.9-8.85-10.85-13.85-14.68Z"/>
          <path class="cls-22" d="M361.43,392.42c-1.9.19-3.75.77-5.64,1.06-2.08.32-4.2.33-6.29.36-2.36.04-2.23,3.32,0,3.57,4.1.46,9.48-.51,12.58-3.44.54-.51.15-1.64-.64-1.56Z"/>
          <path class="cls-22" d="M347.37,404.09c-2.01.7-4.04.29-5.75-.95-1.27-.93-2.53,1.22-1.24,2.12,2.29,1.6,5.18,1.64,7.62.33.81-.44.25-1.8-.63-1.5Z"/>
          <path class="cls-22" d="M397.24,340.56c-1.16,1.5-2.02,3.19-3.26,4.63-1.17,1.36-2.53,2.58-3.93,3.7-1.12.9.38,2.81,1.53,1.99,3.1-2.21,6.46-5.79,7.18-9.68.18-.98-.96-1.39-1.53-.65Z"/>
          <path class="cls-22" d="M391.95,324.14c-.62,1.88-.89,3.85-1.51,5.73-.68,2.05-1.68,3.96-2.64,5.89-.76,1.53,1.33,2.74,2.28,1.33,2.41-3.54,4.14-8.65,3.45-12.95-.14-.86-1.35-.69-1.58,0Z"/>
          <path class="cls-28" d="M300.43,263.91c-.07,0,.04.07.19.15-.04-.08-.1-.15-.19-.15Z"/>
          <path class="cls-28" d="M300.02,250.67s0,0,0-.01c-.1-.03-.2-.07-.3-.11.13.09.34.27.3.12Z"/>
          <path class="cls-28" d="M300.89,243.5c3.94-.4,7.92-.19,11.86.21-4.24,2.04-8.4,4.25-12.47,6.6-.13.08-.28.2-.26.35,4.11,1.38,7.97,3.49,11.33,6.23-3.18-1.48-7.02-.11-10.38-1.09,1.65,3.02,3.58,6.38,5.23,9.39-2.36-1.83-4.77-3.6-7.22-5.31.36,2.11.72,4.21,1.08,6.32-.7-1.35-1.42-2.33-2.13-3.68.74,2.48,1.76,4.88,3.03,7.14.3-1.8.2-3.67-.29-5.43-.01-.05-.04-.1-.06-.15-.15-.08-.25-.16-.19-.15.09,0,.15.07.19.15.16.09.37.17.43.14,3.07,2.35,6.32,4.48,9.71,6.34-1.11-4.49-3.46-8.67-6.72-11.95,4.05-.03,8.11.84,11.79,2.54-2.55-4.53-6.73-8.12-11.59-9.97,4.46-2.59,8.93-5.18,13.39-7.78-3.5-1.25-15.32-1.42-16.76.11Z"/>
          <path class="cls-25" d="M356.27,286.53c-1.09-.92-2.78.22-2.03,1.57,3.44,6.22,6.42,12.45,7.7,19.51,1.31,7.2.44,14.2-.86,21.32-.69,3.82,4.24,5.04,5.7,1.57,5.94-14.12,1.26-34.11-10.52-43.97Z"/>
          <path class="cls-20" d="M299.75,245.53c.87.28,2,.22,2.93.3-2.69.64-4.75,2.99-7.46,3.52.2.57.76.92,1.28,1.23,1.05.62,2.11,1.25,3.16,1.87-1.37-.26-2.74-.52-4.1-.78.73,1.56,1.6,3.05,2.57,4.47-.95-.85-1.98-1.61-3.07-2.25,1,2.87,2.16,5.68,3.46,8.42-.67-1.95-1.23-3.93-1.69-5.93,2.04,1.51,4.04,3.08,5.99,4.71-1.76-2.42-3.38-4.93-4.87-7.52,2.64-.36,5.35-.22,7.93.42-2.74-1.34-5.48-2.67-8.22-4.01,3.34-2.14,6.88-3.96,10.57-5.44-1.46.15-7.53.43-8.49,1Z"/>
        </g>
      </g>
    </g>
  </g>
</svg>