<?xml version="1.0" encoding="UTF-8"?>
<svg xmlns="http://www.w3.org/2000/svg" viewBox="0 0 867.97 787.49">
  <defs>
    <style>
      .cls-1 {
        fill: #f08577;
      }

      .cls-1, .cls-2, .cls-3, .cls-4, .cls-5, .cls-6, .cls-7, .cls-8, .cls-9, .cls-10, .cls-11, .cls-12, .cls-13, .cls-14, .cls-15 {
        stroke-width: 0px;
      }

      .cls-2 {
        fill: #c6c1ba;
      }

      .cls-3 {
        fill: #d3cfc9;
      }

      .cls-4, .cls-8 {
        fill: #f7e7cb;
      }

      .cls-5 {
        mix-blend-mode: multiply;
      }

      .cls-5, .cls-10 {
        fill: #ddcaac;
      }

      .cls-6 {
        fill: #e2413e;
        opacity: .2;
      }

      .cls-7 {
        fill: #ef5454;
      }

      .cls-8 {
        mix-blend-mode: screen;
        opacity: .7;
      }

      .cls-9 {
        fill: #ddd9d3;
      }

      .cls-11 {
        fill: #f0746b;
      }

      .cls-16 {
        isolation: isolate;
      }

      .cls-12 {
        fill: #fdac4c;
      }

      .cls-13 {
        fill: #fff;
      }

      .cls-14 {
        fill: #ffd576;
      }

      .cls-15 {
        fill: #ffeaaa;
      }
    </style>
  </defs>
  <g class="cls-16">
    <g id="Layer_2" data-name="Layer 2">
      <g>
        <g>
          <path class="cls-2" d="M863.52,684.4c-30.23-43.65-211.02-77.19-429.53-77.19S34.68,640.75,4.45,684.4H0v12.95c0,49.78,194.3,90.14,433.99,90.14s433.99-40.36,433.99-90.14v-12.95h-4.45Z"/>
          <ellipse class="cls-9" cx="433.99" cy="684.4" rx="433.99" ry="90.14"/>
          <ellipse class="cls-3" cx="433.99" cy="684.4" rx="383" ry="67.08"/>
        </g>
        <g>
          <path class="cls-15" d="M89.9,422.36v252.39c0,33.99,154.05,61.55,344.09,61.55s344.09-27.56,344.09-61.55v-252.39H89.9Z"/>
          <path class="cls-11" d="M776.25,415.99c-13.51-17.13-342.26-13.36-342.26-13.36,0,0-328.75-3.76-342.26,13.36-13.51,17.13-14.9,157.28-1.83,157.28s21.76-24.71,42.93-24.71,62.61,47.05,91.71,47.05,56.44-34.25,93.92-34.25,53.79,43.65,115.53,43.65,78.05-43.65,115.53-43.65,64.82,34.25,93.92,34.25,70.55-47.05,91.71-47.05,29.86,24.71,42.93,24.71,11.69-140.15-1.83-157.28Z"/>
          <ellipse class="cls-1" cx="433.99" cy="422.36" rx="344.09" ry="61.55"/>
          <path class="cls-15" d="M181.18,233.49v185.43c0,16.23,113.18,29.4,252.8,29.4s252.8-13.16,252.8-29.4v-185.43H181.18Z"/>
          <path class="cls-11" d="M685.48,230.48c-9.61-7.62-210.86-6.92-251.49-6.7-40.63-.22-241.89-.92-251.49,6.7-10.69,8.48-11.3,100.79-1.31,100.79s20.43-20.8,39.39-20.8,24.55,50.34,50.56,50.34,36.3-34.61,65.39-34.61,39.7,48.5,97.47,48.5,68.38-48.5,97.47-48.5,39.37,34.61,65.39,34.61,31.6-50.34,50.56-50.34,29.4,20.8,39.39,20.8,9.38-92.31-1.31-100.79Z"/>
          <ellipse class="cls-1" cx="433.99" cy="233.49" rx="252.8" ry="29.4"/>
          <g>
            <path class="cls-12" d="M442.3,0s-46.45,33.22-32.04,65.85c9.73,22.05,47.92,17.05,48.21-8.82.29-25.87-18.81-17.05-16.17-57.03Z"/>
            <path class="cls-14" d="M436.82,41.74s-19.13,13.68-13.2,27.12c4.01,9.08,19.74,7.02,19.86-3.63.12-10.66-7.75-7.02-6.66-23.49Z"/>
            <path class="cls-4" d="M448.98,242.77c-10.18,2.48-20.17,2.43-29.98,0V85.8c10.18-1.52,20.17-1.49,29.98,0v156.97Z"/>
            <polygon class="cls-6" points="418.99 218.3 418.99 231.14 448.98 201.16 448.98 188.31 418.99 218.3"/>
            <polygon class="cls-6" points="418.99 187.04 418.99 199.88 448.98 169.9 448.98 157.05 418.99 187.04"/>
            <path class="cls-6" d="M424.67,243.88c4.04.62,8.1.84,12.2.64l12.1-12.1v-12.85l-24.31,24.31Z"/>
            <polygon class="cls-6" points="418.99 124.52 418.99 137.36 448.98 107.38 448.98 94.53 418.99 124.52"/>
            <polygon class="cls-6" points="418.99 155.78 418.99 168.62 448.98 138.64 448.98 125.79 418.99 155.78"/>
            <path class="cls-8" d="M418.99,85.8c9.95,2.83,19.95,2.8,29.98,0-9.82-1.49-19.81-1.52-29.98,0Z"/>
            <path class="cls-6" d="M437.29,87.8l-18.29,18.29v-12.84l6.09-6.09c4.05.69,8.12.9,12.2.64Z"/>
            <path class="cls-10" d="M435.3,86.29c-.84.22-1.72.22-2.63,0v-15.53c0-.73.59-1.32,1.32-1.32h0c.73,0,1.32.59,1.32,1.32v15.53Z"/>
            <path class="cls-5" d="M433.99,69.44c-.73,0-1.32.59-1.32,1.32v8.99c.88.02,1.75,0,2.63-.06v-8.93c0-.73-.59-1.32-1.32-1.32Z"/>
          </g>
          <g>
            <path class="cls-12" d="M361.85,21.3s-39.81,28.47-27.46,56.44c8.34,18.9,41.07,14.61,41.32-7.56.25-22.17-16.13-14.61-13.86-48.88Z"/>
            <path class="cls-14" d="M357.15,57.08s-16.4,11.73-11.31,23.25c3.44,7.78,16.92,6.02,17.02-3.11.1-9.13-6.64-6.02-5.71-20.14Z"/>
            <path class="cls-4" d="M367.57,229.39c-8.72,2.12-17.29,2.09-25.7,0V94.84c8.72-1.3,17.29-1.28,25.7,0v134.55Z"/>
            <polygon class="cls-6" points="341.87 208.41 341.87 219.42 367.57 193.72 367.57 182.71 341.87 208.41"/>
            <polygon class="cls-6" points="341.87 181.61 341.87 192.62 367.57 166.92 367.57 155.91 341.87 181.61"/>
            <path class="cls-6" d="M346.74,230.34c3.46.53,6.95.72,10.46.55l10.38-10.38v-11.01l-20.83,20.83Z"/>
            <polygon class="cls-6" points="341.87 128.03 341.87 139.04 367.57 113.34 367.57 102.33 341.87 128.03"/>
            <polygon class="cls-6" points="341.87 154.82 341.87 165.83 367.57 140.13 367.57 129.12 341.87 154.82"/>
            <path class="cls-8" d="M341.87,94.84c8.53,2.42,17.1,2.4,25.7,0-8.41-1.28-16.98-1.3-25.7,0Z"/>
            <path class="cls-6" d="M357.55,96.56l-15.68,15.68v-11.01l5.22-5.22c3.48.59,6.96.77,10.46.55Z"/>
            <path class="cls-10" d="M355.85,95.26c-.72.18-1.47.19-2.25,0v-13.31c0-.62.5-1.13,1.13-1.13h0c.62,0,1.13.5,1.13,1.13v13.31Z"/>
            <path class="cls-5" d="M354.72,80.82c-.62,0-1.13.5-1.13,1.13v7.71c.75.01,1.5,0,2.25-.05v-7.66c0-.62-.5-1.13-1.13-1.13Z"/>
          </g>
          <g>
            <path class="cls-12" d="M522.1,21.3s-39.81,28.47-27.46,56.44c8.34,18.9,41.07,14.61,41.32-7.56.25-22.17-16.13-14.61-13.86-48.88Z"/>
            <path class="cls-14" d="M517.4,57.08s-16.4,11.73-11.31,23.25c3.44,7.78,16.92,6.02,17.02-3.11s-6.64-6.02-5.71-20.14Z"/>
            <path class="cls-4" d="M527.82,229.39c-8.72,2.12-17.29,2.09-25.7,0V94.84c8.72-1.3,17.29-1.28,25.7,0v134.55Z"/>
            <polygon class="cls-6" points="502.12 208.41 502.12 219.42 527.82 193.72 527.82 182.71 502.12 208.41"/>
            <polygon class="cls-6" points="502.12 181.61 502.12 192.62 527.82 166.92 527.82 155.91 502.12 181.61"/>
            <path class="cls-6" d="M506.98,230.34c3.46.53,6.95.72,10.46.55l10.38-10.38v-11.01l-20.83,20.83Z"/>
            <polygon class="cls-6" points="502.12 128.03 502.12 139.04 527.82 113.34 527.82 102.33 502.12 128.03"/>
            <polygon class="cls-6" points="502.12 154.82 502.12 165.83 527.82 140.13 527.82 129.12 502.12 154.82"/>
            <path class="cls-8" d="M502.12,94.84c8.53,2.42,17.1,2.4,25.7,0-8.41-1.28-16.98-1.3-25.7,0Z"/>
            <path class="cls-6" d="M517.8,96.56l-15.68,15.68v-11.01l5.22-5.22c3.48.59,6.96.77,10.46.55Z"/>
            <path class="cls-10" d="M516.09,95.26c-.72.18-1.47.19-2.25,0v-13.31c0-.62.5-1.13,1.13-1.13h0c.62,0,1.13.5,1.13,1.13v13.31Z"/>
            <path class="cls-5" d="M514.97,80.82c-.62,0-1.13.5-1.13,1.13v7.71c.75.01,1.5,0,2.25-.05v-7.66c0-.62-.5-1.13-1.13-1.13Z"/>
          </g>
          <g>
            <path class="cls-13" d="M454.36,467.41c0,4.87-6.53,8.82-20.38,8.82s-20.38-3.95-20.38-8.82,6.53-12.3,20.38-12.3,20.38,7.43,20.38,12.3Z"/>
            <circle class="cls-7" cx="433.99" cy="453.51" r="15.8" transform="translate(-78.13 816.49) rotate(-81.59)"/>
          </g>
          <g>
            <path class="cls-13" d="M283.71,457.01c0,4.87-6.53,8.82-20.38,8.82s-20.38-3.95-20.38-8.82,6.53-12.3,20.38-12.3,20.38,7.43,20.38,12.3Z"/>
            <circle class="cls-7" cx="263.33" cy="443.11" r="15.8" transform="translate(-236.2 315.99) rotate(-45)"/>
          </g>
          <g>
            <path class="cls-13" d="M162.25,421.83c0,4.87-6.53,8.82-20.38,8.82s-20.38-3.95-20.38-8.82,6.53-12.3,20.38-12.3,20.38,7.43,20.38,12.3Z"/>
            <circle class="cls-7" cx="141.87" cy="407.93" r="15.8" transform="translate(-287.03 458.73) rotate(-77.58)"/>
          </g>
          <g>
            <path class="cls-13" d="M584.26,457.01c0,4.87,6.53,8.82,20.38,8.82s20.38-3.95,20.38-8.82-6.53-12.3-20.38-12.3-20.38,7.43-20.38,12.3Z"/>
            <circle class="cls-7" cx="604.64" cy="443.11" r="15.8" transform="translate(-136.23 557.33) rotate(-45)"/>
          </g>
          <g>
            <path class="cls-13" d="M705.72,421.83c0,4.87,6.53,8.82,20.38,8.82s20.38-3.95,20.38-8.82-6.53-12.3-20.38-12.3-20.38,7.43-20.38,12.3Z"/>
            <circle class="cls-7" cx="726.1" cy="407.93" r="15.8" transform="translate(-86.69 226.29) rotate(-16.73)"/>
          </g>
        </g>
      </g>
    </g>
  </g>
</svg>