<?xml version="1.0" encoding="UTF-8"?>
<svg xmlns="http://www.w3.org/2000/svg" xmlns:xlink="http://www.w3.org/1999/xlink" viewBox="0 0 4141.71 1037.72">
  <defs>
    <style>
      .cls-1 {
        fill: #c76b3a;
        opacity: .9;
      }

      .cls-1, .cls-2, .cls-3, .cls-4, .cls-5, .cls-6, .cls-7, .cls-8, .cls-9, .cls-10, .cls-11, .cls-12 {
        stroke-width: 0px;
      }

      .cls-1, .cls-2, .cls-5, .cls-7, .cls-8, .cls-9 {
        mix-blend-mode: screen;
      }

      .cls-2 {
        fill: #ffb082;
        opacity: .8;
      }

      .cls-3 {
        fill: #9e6a41;
      }

      .cls-4 {
        opacity: .6;
      }

      .cls-4, .cls-13, .cls-11 {
        mix-blend-mode: multiply;
      }

      .cls-4, .cls-11 {
        fill: #8a4713;
      }

      .cls-5, .cls-8 {
        fill: #e3a458;
      }

      .cls-5, .cls-13 {
        opacity: .3;
      }

      .cls-6 {
        fill: url(#_ÂÁ_Ï_ÌÌ_È_ËÂÌÚ_367);
      }

      .cls-7 {
        fill: #c2773c;
      }

      .cls-7, .cls-11 {
        opacity: .4;
      }

      .cls-8 {
        opacity: .5;
      }

      .cls-14 {
        isolation: isolate;
      }

      .cls-9 {
        fill: #faaf73;
        opacity: .2;
      }

      .cls-10 {
        fill: #f5ba6c;
      }

      .cls-12 {
        fill: #52240b;
      }
    </style>
    <linearGradient id="_ÂÁ_Ï_ÌÌ_È_ËÂÌÚ_367" data-name="¡ÂÁ˚ÏˇÌÌ˚È „‡‰ËÂÌÚ 367" x1="2070.88" y1="18.45" x2="2070.88" y2="1019.27" gradientUnits="userSpaceOnUse">
      <stop offset="0" stop-color="#ae6b2f"/>
      <stop offset="1" stop-color="#8d4e29"/>
    </linearGradient>
  </defs>
  <g class="cls-14">
    <g id="_1" data-name="1">
      <g>
        <path class="cls-12" d="M518.86,1037.72c-37.3,0-74.7-4.04-111.18-12-29.65-6.46-58.62-15.5-86.12-26.87-26.99-11.05-53.34-24.64-78.26-40.38-27.2-16.95-53.35-37-77.64-59.57-26-24.1-49.66-51.14-70.28-80.36-11.89-16.47-22.88-34.07-33.47-53.65-8.98-16.63-17.06-33.96-24.05-51.56-7.59-18.18-14.1-37.39-19.25-56.81-7.99-28.74-13.51-58.68-16.32-88.77-1.54-16.32-2.29-32.33-2.29-48.91,0-4.14,0-8.28.2-12.42.18-10.05.75-20.43,1.72-30.79,1.46-19.8,4.29-40.18,8.37-60.19,7.17-35.08,17.86-69.23,31.81-101.5,13.33-31.28,30.24-61.85,50.24-90.78,17.52-25.23,37.57-49.18,59.61-71.22,32.49-32.49,68.65-60.19,107.48-82.31,24.94-14.43,50.83-26.73,76.84-36.5C394.21,11.16,455.66,0,518.86,0h3103.99c33.76,0,67.85,3.34,101.34,9.92l2.04.37c37.99,7.74,74.58,19.52,108.8,35.02l3.68,1.52c24.86,11.28,48.68,24.57,70.83,39.52,8.36,5.46,17.31,11.85,27.16,19.37,40.86,30.93,76.73,67.66,106.6,109.1,60.68,83.54,94.53,182.4,97.84,285.83.38,5.69.57,11.95.57,18.22,0,14.49-.48,26.53-1.54,37.88-2.22,34.64-8.27,69.4-17.9,102.77-10.37,37.22-24.99,73.31-43.41,107.1-23.95,43.92-53.93,84.01-89.11,119.18-6.37,6.39-12.79,12.59-19.59,18.4-23.35,21.33-49.45,40.88-77.13,57.74-42.51,25.93-88.1,45.43-135.47,57.92l-2.4.61c-42.44,11.46-86.96,17.27-132.32,17.27H518.86Z"/>
        <path class="cls-6" d="M4123.41,518.95c0,11.53-.37,22.88-1.28,34.22,0,.55-.18,1.28-.18,1.83-2.2,34.4-8.24,67.71-17.39,99.37-10.07,36.42-24.16,71.19-41.91,103.4-23.06,42.46-52.16,81.25-85.83,115.11-6.04,6.04-12.26,11.9-18.67,17.39-22.88,20.86-47.95,39.71-74.66,56-40.08,24.34-84,43.55-130.66,55.82h-.18c-41.36,11.35-84.73,17.2-129.75,17.2H518.86c-36.97,0-72.65-4.03-107.24-11.53-28.73-6.22-56.36-14.82-83.08-25.8-26.35-10.98-51.61-23.97-75.4-38.98-26.9-16.65-51.79-36.05-75.03-57.46-25.07-23.42-47.95-49.41-67.71-77.59-11.9-16.47-22.69-33.67-32.39-51.79-8.6-15.92-16.29-32.39-23.06-49.59-7.32-17.57-13.54-35.87-18.67-54.72-7.69-27.63-12.99-56.36-15.74-85.83-1.28-13.54-2.01-27.27-2.01-41.18-.18-1.83-.18-3.84-.18-5.86,0-4.03,0-7.87.18-11.71.18-10.06.73-19.95,1.65-29.83,1.46-19.95,4.21-39.35,8.05-58.19,6.95-34.22,17.39-66.98,30.74-97.9,13.18-31.11,29.46-60.39,48.5-87.66,3.48-4.94,6.95-9.88,10.8-14.82,14.09-19.03,29.83-37.15,46.66-53.98,30.93-30.74,65.51-57.64,103.58-79.24,23.61-13.54,48.31-25.62,74.3-35.32,24.52-9.33,50.14-16.65,76.31-21.78,32.21-6.59,65.51-10.06,99.74-10.06h3104.05c34.04,0,67.34,3.48,99.55,9.88h.18c9.15,1.83,18.3,4.03,27.27,6.4,28,7.14,55.08,16.84,80.89,28.73h.37c23.79,10.98,46.66,23.61,68.08,38.06,8.97,5.86,17.75,12.08,26.35,18.85,39.16,29.65,73.93,65.15,102.85,105.23.18.18.18.37.37.55,56.36,77.59,90.77,172.39,94.06,275.05.37,5.86.55,11.71.55,17.75Z"/>
        <path class="cls-1" d="M518.86,820.64c-26.79,0-53.66-2.91-79.85-8.61-21.21-4.63-41.82-11.05-61.29-19.1-19.57-8.02-38.28-17.67-56.01-28.86-19.97-12.45-38.64-26.78-56.07-42.96-18.62-17.26-35.5-36.56-50.24-57.45-9.04-12.53-16.73-24.88-24.28-38.83-6.2-11.48-11.84-23.58-16.73-35.88l-.83-2.02c-5.14-12.33-9.49-25.16-12.93-38.15-6.13-22.11-10.06-43.42-12.07-64.85-1.1-11.78-1.64-23.27-1.64-35.21,0-10.6.43-20.49,1.27-29.42l.22-2.57c1.03-13.97,3-28.12,5.84-42.06,5.14-25.14,12.78-49.57,22.73-72.58,9.74-22.86,21.84-44.69,36.21-65.48,12.39-17.84,26.78-35.03,42.64-50.89,23.22-23.22,48.9-42.91,76.34-58.54,57.03-33.14,121.26-50.37,186.68-50.37h3103.99c24.7,0,49.72,2.49,74.33,7.42l3.73.75c26.67,5.73,52.2,14.18,75.93,25.15l13.59,6.29c19.6,9.84,38.69,21.85,56.88,35.79,29.86,22.61,55.48,48.81,76.77,78.36,43.66,60.11,67.84,130.74,70.22,204.66l.2,4.12c.2,3.13.29,6.26.29,9.39,0,34.57-4.63,68.26-13.76,100.16-7.68,27.58-18.06,53.24-31.15,77.22-17.22,31.59-38.74,60.39-63.98,85.61-3.78,3.79-7.35,7.36-11.21,10.66l-3.12,2.75c-16.82,15.37-35.33,29.23-54.98,41.2-27.62,16.84-56.89,29.84-87.21,38.72l-10.83,2.95c-30.46,8.4-62.65,12.65-95.69,12.65H518.86Z"/>
        <g class="cls-13">
          <path class="cls-3" d="M1221.39,73.47C580.94,82.28,258.05,170.26,107.45,233.63c17.08-24.61,36.37-47.57,57.49-68.69,30.86-30.86,65.57-57.67,103.59-79.35,283.77-47.2,635.86-50.32,952.87-12.12Z"/>
          <path class="cls-3" d="M3460.3,18.37c-120.3,46.1-276.79,93.49-471.11,128.57-472.58,85.59-1230.94,37.28-1658.7-128.57h206.07c301.95,96.79,923.85,190.46,1347.02,119.38,200.93-33.8,337.76-78.06,430.15-119.38h146.57Z"/>
          <path class="cls-3" d="M2875.69,18.37c-226.46,117.18-541.45,119.93-819.53,0h314.44c34.53,10.84,76.59,20.57,127.28,27.55,88.16,11.94,164.93-4.77,223.34-27.55h154.47Z"/>
          <path class="cls-3" d="M4028.39,225.54c-268.52-19.84-661.94,10.84-1222.86,49.96-725.49,50.51-1152.52-87.24-1799.94-59.69C525.29,236.2,176.51,357.79,28.28,419.13c6.98-34.16,17.27-66.86,30.67-97.9,299.74-122.14,734.49-165.12,1052.23-165.12,344.38,0,762.22,101.02,1340.78,105.61,493.88,3.86,1027.99-146.02,1473.57-141.42,39.3,29.75,74.02,65.2,102.86,105.24Z"/>
          <path class="cls-3" d="M3830.76,63.55c-15.61,1.84-31.04,3.49-46.65,5.33-109.83,12.86-219.3,28.47-328.58,45.37-109.47,16.9-218.57,35.08-327.67,54-109.1,18.18-217.65,40.41-327.3,55.84-109.83,14.69-220.77,19.84-331.34,20.57-110.75.37-221.32-3.3-331.7-12.86-110.38-9-220.22-22.23-329.5-39.67-109.28-17.63-218.01-39.3-324.91-68.14,107.44,26.81,216.73,44.82,325.83,61.35,109.47,15.98,219.3,27.73,329.5,35.27,110.2,8.08,220.58,9.55,330.6,8.63,110.02-1.84,220.58-2.39,329.68-18,54.37-8.45,108.55-18,162.54-30.67l162.55-34.9c108.36-22.96,217.09-44.63,326.01-66.3,90.55-18.18,181.28-35.45,272.56-51.06,0,0,0-.18.18,0,37.84,7.71,74.02,19.47,108.18,35.26Z"/>
          <path class="cls-3" d="M4022.33,385.7c-91.84-197.44-978.03-27.55-1478.53,36.73-500.49,64.28-987.21-41.32-1308.63-110.2C929.18,246.67,348.6,355.95,20.2,477.35c-1.28,13.59-1.84,27.55-1.84,41.51,0,15.98.73,31.59,2.2,47.2,260.62-127.65,645.41-253.46,1113.58-235.46,119.38,4.59,87.06,63.73-197.44,73.47-454.76,15.61-691.14,181.83-858.65,352.09,9.74,18,20.39,35.26,32.33,51.79,161.26-188.26,573.04-384.05,959.48-353.38,463.76,36.73,1258.12,18.37,1519.85,13.78,261.73-4.59,1524.44,114.79,1432.61-82.65ZM2833.08,431.62c18.37-27.55,1072.99-140.14,1111.19-45.92,68.87,169.89-1129.56,73.47-1111.19,45.92Z"/>
          <path class="cls-3" d="M54.92,706.57c-7.35-17.63-13.59-36-18.55-54.73,135.55-109.47,272.2-186.42,312.6-174.3,38.75,11.57-180.18,114.61-294.05,229.03Z"/>
          <path class="cls-3" d="M1216.8,257.14c257.14,9.18,596.92,110.2,927.52,133.16,330.6,22.96,964.25-101.02,1152.51-110.2-266.32-9.18-725.49,82.65-1097.41,55.1-371.93-27.55-688.75-96.42-982.62-78.06Z"/>
          <path class="cls-3" d="M3811.11,404.07c23.48,35.22-146.93,55.1-160.71,13.77-13.78-41.33,151.53-27.55,160.71-13.77Z"/>
          <path class="cls-3" d="M4123.34,518.86c0,47.02-6.43,92.57-18.73,135.55-299.19,77.32-1447.49-119.75-1772.03-103.4-367.34,18.37-1097.42-9.18-1506.08,55.1-293.32,46.1-487.45,234.36-573.41,336.85-26.82-16.71-51.79-36-74.94-57.49,169.16-215.07,392.13-267.79,611.61-320.68,247.95-59.69,1065.27-18.37,1382.1-32.14,303.97-13.22,1510.67,45.92,1726.48,36.73,100.47-4.22,176.14-29.39,224.44-68.14.37,5.88.55,11.75.55,17.63Z"/>
          <path class="cls-3" d="M2608.08,619.88c-50.51-36.73-440.8,9.18-1079.05-13.78-610.33-22.04-1036.07,170.26-1200.45,375.78,26.63,11.02,54.37,19.65,83.02,25.9,51.98-74.02,187.53-201.12,525.11-273.11,226.65-48.3,821.55,51.79,1042.32,45.92,339.78-9.18,679.57-123.98,629.06-160.71ZM2024.94,757.63c-247.95,13.78-665.79-50.51-670.39-78.06-4.59-27.55,1046.91-64.28,1060.68-27.55,16.9,44.81-142.34,91.83-390.3,105.61Z"/>
          <path class="cls-3" d="M4062.73,757.81c-23.14,42.43-52.16,81.18-85.96,114.98-6.06,6.06-12.12,11.94-18.55,17.45-156.85-36-462.11-104.32-665.98-137.2-284.68-45.92-596.92-41.32-1120.37,91.83-523.45,133.16-1079.05,4.59-1248.94,50.51-72,19.47-118.28,71.08-147.85,123.98h-199.28c259.89-326.74,753.41-118.65,1417-192.85,697.94-78.06,615.29-206.63,849.46-183.67,206.63,20.2,935.24,87.06,1220.47,114.98Z"/>
          <path class="cls-3" d="M3883.47,946.26c-40.04,24.43-83.94,43.53-130.59,55.84h-.18c-117.18-52.9-340.7-138.85-625.76-175.59-243.54-31.41-922.93,64.28-1317.82,151.53-68.69,15.24-124.53,29.02-170.08,41.32h-580.21c72.92-18.18,165.49-32.14,277.34-32.14,321.42,0,927.52-123.98,1327-188.26,367.52-59.14,882.89-1.65,1220.29,147.3Z"/>
          <path class="cls-3" d="M3598.79,1019.36h-153.36c-84.12-49.41-230.32-107.08-460.82-114.79-262.09-8.82-570.29,61.9-760.75,114.79h-248.5c856.07-237.3,1378.24-162.91,1623.44,0Z"/>
          <path class="cls-3" d="M3121.62,1019.36h-540.17c221.87-90.73,406.46-74.57,540.17,0Z"/>
        </g>
        <path class="cls-2" d="M3994.77,448.71c0,5.33-.18,10.65-.37,15.79l-.18-4.04c-2.39-74.02-26.45-144.55-70.16-204.6-21.31-29.57-46.84-55.84-76.77-78.43-18.18-13.96-37.28-25.9-56.94-35.82l-13.59-6.24c-23.69-11.02-49.22-19.47-75.86-25.16l-3.67-.74c-24.61-4.96-49.77-7.35-74.39-7.35H518.86c-65.39,0-129.67,17.08-186.61,50.33-27.55,15.61-53.26,35.26-76.41,58.41-15.8,15.98-30.3,33.06-42.61,51.06-14.33,20.75-26.45,42.61-36.18,65.39-10.1,22.96-17.63,47.38-22.77,72.55-2.94,13.96-4.77,28.1-5.88,42.06l-.18,2.57c-.55,5.51-.92,11.39-.92,17.63-.37-4.41-.37-8.82-.37-13.41,0-10.65.37-20.57,1.29-29.39l.18-2.57c1.1-13.96,2.94-28.1,5.88-42.06,5.14-25.16,12.67-49.59,22.77-72.55,9.73-22.96,21.86-44.81,36.18-65.57,12.31-17.82,26.81-35.08,42.61-50.88,23.14-23.14,48.86-42.98,76.41-58.59,56.94-33.06,121.22-50.32,186.61-50.32h3103.99c24.61,0,49.77,2.57,74.39,7.35l3.67.74c26.63,5.88,52.16,14.33,75.86,25.16l13.59,6.43c19.65,9.74,38.75,21.86,56.94,35.63,29.94,22.77,55.47,48.86,76.77,78.43,43.71,60.06,67.77,130.77,70.16,204.61l.18,4.22c.37,3.12.37,6.24.37,9.37Z"/>
        <path class="cls-7" d="M440.8,150.25c-115.26,69.15,777.53,324.48,1665.25,324.48s1646.89-226.52,1634.64-287.75c-12.24-61.22-3238.68-73.47-3299.9-36.73Z"/>
        <path class="cls-9" d="M826.51,200.67c0,67.55,2516.25,101.32,2522.37,11.26,6.12-90.06-2522.37-78.81-2522.37-11.26Z"/>
        <g>
          <polygon class="cls-12" points="1071.42 14.01 1052.63 87.47 1071 253.92 1091.66 85.18 1071.42 14.01"/>
          <polygon class="cls-10" points="1071.42 14.01 1071 253.92 1091.66 85.18 1071.42 14.01"/>
        </g>
        <g>
          <polygon class="cls-12" points="1145.77 25.45 1125.1 86.82 1156.58 196.3 1151.3 88.76 1145.77 25.45"/>
          <polygon class="cls-10" points="1145.77 25.45 1140.57 88.45 1156.58 196.3 1151.3 88.76 1145.77 25.45"/>
        </g>
        <g>
          <polygon class="cls-12" points="4122.54 427.03 3980.2 394.89 3743.72 404.07 3755.2 456.87 3592.2 468.35 3798.82 486.72 3782.75 433.91 3998.56 456.87 4122.54 427.03"/>
          <polygon class="cls-10" points="3592.2 468.35 3778.16 472.95 3770.51 423.97 4122.54 427.03 3998.56 456.87 3782.75 433.91 3798.82 486.72 3592.2 468.35"/>
        </g>
        <g>
          <path class="cls-12" d="M1051.42,726.52c-179.08,55.1-501.97,51.98-600.04,15.24-13.04,17.63-50.69,64.1-50.69,64.1l-47.2,97.89,3.12-116.08,91.83-82.65s275.5,64.28,602.98,21.49Z"/>
          <path class="cls-10" d="M1051.42,726.52c-179.08,55.1-501.97,51.98-600.04,15.24-13.04,17.63-50.69,64.1-50.69,64.1l-47.2,97.89c0-4.59,27.55-103.77,27.55-103.77l68.88-72.73s237.3,74.2,601.51-.73Z"/>
        </g>
        <g>
          <polygon class="cls-12" points="2341.33 708.47 2895.16 736.61 3178.67 674.7 3884.14 694.4 3172.07 649.37 2842.41 705.66 2341.33 708.47"/>
          <polygon class="cls-10" points="2341.33 708.47 2873.18 724.42 3174.27 663.44 3884.14 694.4 3178.67 674.7 2895.16 736.61 2341.33 708.47"/>
        </g>
        <g>
          <polygon class="cls-12" points="237.63 112.37 240.98 219.24 382.31 271.04 279 188.39 237.63 112.37"/>
          <polygon class="cls-10" points="237.63 112.37 256.04 202.17 382.31 271.04 240.98 219.24 237.63 112.37"/>
        </g>
        <path class="cls-5" d="M419.12,28.51c53.07,18.12,132.68,34.22,229.3,48.31h-129.56c-65.33,0-129.56,17.2-186.66,50.32-27.45,15.56-53.07,35.32-76.31,58.56-15.92,15.92-30.38,33.12-42.64,50.87-7.69,10.98-14.64,22.33-21.05,34.04-24.7-14.46-49.59-31.66-73.93-51.79,14.09-19.03,29.83-37.15,46.66-53.98,30.93-30.74,65.51-57.64,103.58-79.24,23.61-13.54,48.31-25.62,74.3-35.32,24.52-9.33,50.14-16.65,76.31-21.78Z"/>
        <path class="cls-5" d="M4028.8,226.15c-27.27,15.92-55.82,28.18-83.45,37.33-6.41-11.35-13.54-22.33-21.23-32.94-21.41-29.46-47.03-55.82-76.86-78.32-18.12-13.91-37.15-25.99-56.91-35.87l-13.54-6.22c-23.79-10.98-49.23-19.4-75.94-25.25l-3.66-.73c-20.13-4.03-40.44-6.41-60.57-7.14,41.54-12.44,79.6-26.35,113.28-42.27,28,7.14,55.08,16.84,80.89,28.73h.37c23.79,10.98,46.66,23.61,68.08,38.06,8.97,5.86,17.75,12.08,26.35,18.85,39.16,29.65,73.93,65.15,102.85,105.23.18.18.18.37.37.55Z"/>
        <path class="cls-8" d="M3749.9,34.73c-33.67,15.92-71.74,29.83-113.28,42.27-4.58-.18-9.15-.18-13.73-.18H648.42c-96.62-14.09-176.23-30.19-229.3-48.31,32.21-6.59,65.51-10.06,99.74-10.06h3104.05c34.04,0,67.34,3.48,99.55,9.88h.18c9.15,1.83,18.3,4.03,27.27,6.4Z"/>
        <path class="cls-11" d="M4122.13,553.17c0,.55-.18,1.28-.18,1.83-2.2,34.4-8.24,67.71-17.39,99.37-10.07,36.42-24.16,71.19-41.91,103.4-23.06,42.46-52.16,81.25-85.83,115.11-6.04,6.04-12.26,11.9-18.67,17.39-14.82,13.54-30.74,26.35-47.4,37.88-8.78,6.41-17.93,12.44-27.27,18.12-40.08,24.34-84,43.55-130.66,55.82h-.18c-41.36,11.35-84.73,17.2-129.75,17.2H518.86c-36.97,0-72.65-4.03-107.24-11.53-28.73-6.22-56.36-14.82-83.08-25.8-26.35-10.98-51.61-23.97-75.4-38.98-9.15-5.67-17.93-11.53-26.53-17.93-17.02-12.08-33.12-25.25-48.49-39.53-25.07-23.42-47.95-49.41-67.71-77.59-11.9-16.47-22.69-33.67-32.39-51.79-8.6-15.92-16.29-32.39-23.06-49.59-7.32-17.57-13.54-35.87-18.67-54.72-7.69-27.63-12.99-56.36-15.74-85.83-1.28-13.54-2.01-27.27-2.01-41.18,51.79,26.17,103.21,40.08,149.14,46.85,1.83,5.12,3.84,10.25,5.86,15.19l.91,2.01c4.76,12.44,10.43,24.52,16.65,36.05,7.5,13.91,15.19,26.17,24.34,38.8,14.64,20.86,31.66,40.08,50.14,57.46,17.57,16.1,36.23,30.38,56.18,42.82,17.75,11.35,36.42,20.86,56,28.91,15.74,6.59,32.21,11.9,49.23,16.29,4.03,1.1,8.05,2.01,12.08,2.93,26.17,5.67,53.07,8.6,79.79,8.6h3104.05c30.74,0,60.76-3.84,89.3-11.16,2.2-.55,4.21-1.1,6.41-1.65l10.8-2.93c30.19-8.78,59.48-21.78,87.11-38.61,19.76-12.08,38.25-25.8,55.08-41.18l3.11-2.74c3.84-3.29,7.32-6.95,11.16-10.8,25.25-25.25,46.85-53.99,64.05-85.64,8.78-16.29,16.47-33.49,22.88-51.42,43,.18,98.64-3.84,149.33-21.41Z"/>
        <path class="cls-4" d="M3910.76,928.14c-8.78,6.41-17.93,12.44-27.27,18.12-40.08,24.34-84,43.55-130.66,55.82h-.18c-41.36,11.35-84.73,17.2-129.75,17.2H518.86c-36.97,0-72.65-4.03-107.24-11.53-28.73-6.22-56.36-14.82-83.08-25.8-26.35-10.98-51.61-23.97-75.4-38.98-9.15-5.67-17.93-11.53-26.53-17.93,108.52-35.87,173.3-89.3,200.39-115.84,4.03,1.1,8.05,2.01,12.08,2.93,26.17,5.67,53.07,8.6,79.79,8.6h3104.05c30.74,0,60.76-3.84,89.3-11.16,44.1,33.49,122.06,87.66,198.56,118.58Z"/>
      </g>
    </g>
  </g>
</svg>