<?xml version="1.0" encoding="UTF-8"?>
<svg xmlns="http://www.w3.org/2000/svg" xmlns:xlink="http://www.w3.org/1999/xlink" viewBox="0 0 112.27 150.47">
  <defs>
    <style>
      .cls-1 {
        fill: #ebf7ff;
      }

      .cls-1, .cls-2, .cls-3, .cls-4, .cls-5, .cls-6, .cls-7, .cls-8, .cls-9, .cls-10, .cls-11, .cls-12, .cls-13, .cls-14, .cls-15, .cls-16, .cls-17, .cls-18, .cls-19, .cls-20, .cls-21, .cls-22, .cls-23, .cls-24, .cls-25, .cls-26, .cls-27, .cls-28, .cls-29, .cls-30, .cls-31, .cls-32, .cls-33, .cls-34, .cls-35, .cls-36, .cls-37, .cls-38, .cls-39, .cls-40, .cls-41, .cls-42, .cls-43, .cls-44, .cls-45, .cls-46, .cls-47, .cls-48, .cls-49, .cls-50, .cls-51, .cls-52, .cls-53, .cls-54, .cls-55 {
        stroke-width: 0px;
      }

      .cls-56 {
        clip-path: url(#clippath);
      }

      .cls-2 {
        fill: none;
      }

      .cls-3 {
        fill: url(#radial-gradient);
      }

      .cls-4 {
        fill: #e2edf5;
      }

      .cls-5 {
        fill: #bee3fa;
      }

      .cls-6 {
        fill: url(#radial-gradient-5);
      }

      .cls-6, .cls-7, .cls-8, .cls-9, .cls-10, .cls-11, .cls-12, .cls-13, .cls-14, .cls-15, .cls-16, .cls-17, .cls-18, .cls-19, .cls-20, .cls-21, .cls-22, .cls-23, .cls-24, .cls-25, .cls-26, .cls-27, .cls-28, .cls-29, .cls-30, .cls-31, .cls-32, .cls-33, .cls-34, .cls-35, .cls-36, .cls-37, .cls-38, .cls-39, .cls-40, .cls-41, .cls-42, .cls-43, .cls-44, .cls-45, .cls-46, .cls-47, .cls-48, .cls-49, .cls-50, .cls-51, .cls-52, .cls-53, .cls-54 {
        mix-blend-mode: multiply;
      }

      .cls-7 {
        fill: url(#radial-gradient-6);
      }

      .cls-8 {
        fill: url(#radial-gradient-3);
      }

      .cls-9 {
        fill: url(#radial-gradient-7);
      }

      .cls-10 {
        fill: url(#radial-gradient-9);
      }

      .cls-11 {
        fill: url(#radial-gradient-8);
      }

      .cls-12 {
        fill: url(#radial-gradient-4);
      }

      .cls-13 {
        fill: url(#radial-gradient-2);
      }

      .cls-57 {
        isolation: isolate;
      }

      .cls-14 {
        fill: url(#radial-gradient-48);
      }

      .cls-15 {
        fill: url(#radial-gradient-47);
      }

      .cls-16 {
        fill: url(#radial-gradient-39);
      }

      .cls-17 {
        fill: url(#radial-gradient-37);
      }

      .cls-18 {
        fill: url(#radial-gradient-27);
      }

      .cls-19 {
        fill: url(#radial-gradient-26);
      }

      .cls-20 {
        fill: url(#radial-gradient-36);
      }

      .cls-21 {
        fill: url(#radial-gradient-30);
      }

      .cls-22 {
        fill: url(#radial-gradient-45);
      }

      .cls-23 {
        fill: url(#radial-gradient-38);
      }

      .cls-24 {
        fill: url(#radial-gradient-31);
      }

      .cls-25 {
        fill: url(#radial-gradient-46);
      }

      .cls-26 {
        fill: url(#radial-gradient-40);
      }

      .cls-27 {
        fill: url(#radial-gradient-32);
      }

      .cls-28 {
        fill: url(#radial-gradient-33);
      }

      .cls-29 {
        fill: url(#radial-gradient-21);
      }

      .cls-30 {
        fill: url(#radial-gradient-20);
      }

      .cls-31 {
        fill: url(#radial-gradient-14);
      }

      .cls-32 {
        fill: url(#radial-gradient-12);
      }

      .cls-33 {
        fill: url(#radial-gradient-13);
      }

      .cls-34 {
        fill: url(#radial-gradient-15);
      }

      .cls-35 {
        fill: url(#radial-gradient-16);
      }

      .cls-36 {
        fill: url(#radial-gradient-11);
      }

      .cls-37 {
        fill: url(#radial-gradient-18);
      }

      .cls-38 {
        fill: url(#radial-gradient-17);
      }

      .cls-39 {
        fill: url(#radial-gradient-19);
      }

      .cls-40 {
        fill: url(#radial-gradient-10);
      }

      .cls-41 {
        fill: url(#radial-gradient-44);
      }

      .cls-42 {
        fill: url(#radial-gradient-50);
      }

      .cls-43 {
        fill: url(#radial-gradient-49);
      }

      .cls-44 {
        fill: url(#radial-gradient-43);
      }

      .cls-45 {
        fill: url(#radial-gradient-41);
      }

      .cls-46 {
        fill: url(#radial-gradient-42);
      }

      .cls-47 {
        fill: url(#radial-gradient-25);
      }

      .cls-48 {
        fill: url(#radial-gradient-22);
      }

      .cls-49 {
        fill: url(#radial-gradient-24);
      }

      .cls-50 {
        fill: url(#radial-gradient-35);
      }

      .cls-51 {
        fill: url(#radial-gradient-34);
      }

      .cls-52 {
        fill: url(#radial-gradient-23);
      }

      .cls-53 {
        fill: url(#radial-gradient-28);
      }

      .cls-54 {
        fill: url(#radial-gradient-29);
      }

      .cls-55 {
        fill: #fff;
      }
    </style>
    <clipPath id="clippath">
      <rect class="cls-2" x="16" width="89.77" height="103"/>
    </clipPath>
    <radialGradient id="radial-gradient" cx="50.92" cy="24.95" fx="50.92" fy="24.95" r="80.57" gradientTransform="scale(1 1.15)" gradientUnits="userSpaceOnUse">
      <stop offset="0" stop-color="#247fc9"/>
      <stop offset=".16" stop-color="#227ac2"/>
      <stop offset=".37" stop-color="#1f6fb1"/>
      <stop offset=".62" stop-color="#1a5d94"/>
      <stop offset=".89" stop-color="#13436c"/>
      <stop offset="1" stop-color="#10385b"/>
    </radialGradient>
    <radialGradient id="radial-gradient-2" cx="1416.88" cy="5615.67" fx="1416.88" fy="5615.67" r="6.97" gradientTransform="translate(2801.8 -5789.5) rotate(-164.42) scale(1.01 -1.14) skewX(-4.08)" gradientUnits="userSpaceOnUse">
      <stop offset=".17" stop-color="#003268"/>
      <stop offset=".22" stop-color="#1e4a79"/>
      <stop offset=".3" stop-color="#527498"/>
      <stop offset=".39" stop-color="#8099b4"/>
      <stop offset=".48" stop-color="#a7b8cb"/>
      <stop offset=".57" stop-color="#c7d2dd"/>
      <stop offset=".67" stop-color="#dfe5ec"/>
      <stop offset=".77" stop-color="#f1f3f6"/>
      <stop offset=".87" stop-color="#fbfcfd"/>
      <stop offset="1" stop-color="#fff"/>
    </radialGradient>
    <radialGradient id="radial-gradient-3" cx="1468.03" cy="5614.93" fx="1468.03" fy="5614.93" r="4.91" xlink:href="#radial-gradient-2"/>
    <radialGradient id="radial-gradient-4" cx="1435.58" cy="5614.46" fx="1435.58" fy="5614.46" r="4.91" xlink:href="#radial-gradient-2"/>
    <radialGradient id="radial-gradient-5" cx="1486.28" cy="5615.67" fx="1486.28" fy="5615.67" r="6.63" xlink:href="#radial-gradient-2"/>
    <radialGradient id="radial-gradient-6" cx="1409.83" cy="5618.09" fx="1409.83" fy="5618.09" r="7.4" xlink:href="#radial-gradient-2"/>
    <radialGradient id="radial-gradient-7" cx="1419.72" cy="5616" fx="1419.72" fy="5616" r="4.71" xlink:href="#radial-gradient-2"/>
    <radialGradient id="radial-gradient-8" cx="1441.63" cy="5615.67" fx="1441.63" fy="5615.67" r="7.42" xlink:href="#radial-gradient-2"/>
    <radialGradient id="radial-gradient-9" cx="1461.29" cy="5616.31" fx="1461.29" fy="5616.31" r="8.67" xlink:href="#radial-gradient-2"/>
    <radialGradient id="radial-gradient-10" cx="1472.53" cy="5617.85" fx="1472.53" fy="5617.85" r="4.5" xlink:href="#radial-gradient-2"/>
    <radialGradient id="radial-gradient-11" cx="1491.98" cy="5619.47" fx="1491.98" fy="5619.47" r="4.5" xlink:href="#radial-gradient-2"/>
    <radialGradient id="radial-gradient-12" cx="1435.14" cy="5619.11" fx="1435.14" fy="5619.11" r="4.5" xlink:href="#radial-gradient-2"/>
    <radialGradient id="radial-gradient-13" cx="1453.87" cy="5615.67" fx="1453.87" fy="5615.67" r="4.5" xlink:href="#radial-gradient-2"/>
    <radialGradient id="radial-gradient-14" cx="1448.39" cy="5614.46" fx="1448.39" fy="5614.46" r="6.97" xlink:href="#radial-gradient-2"/>
    <radialGradient id="radial-gradient-15" cx="1498.38" cy="5620.09" fx="1498.38" fy="5620.09" r="6.97" xlink:href="#radial-gradient-2"/>
    <radialGradient id="radial-gradient-16" cx="1478.83" cy="5617.46" fx="1478.83" fy="5617.46" r="6.97" xlink:href="#radial-gradient-2"/>
    <radialGradient id="radial-gradient-17" cx="1427.69" cy="5614.46" fx="1427.69" fy="5614.46" r="8.78" xlink:href="#radial-gradient-2"/>
    <radialGradient id="radial-gradient-18" cx="924.72" cy="3936.87" fx="924.72" fy="3936.87" r="4.65" gradientTransform="translate(1551.19 -4242.94) rotate(-171.15) scale(1 -1.14) skewX(-2.4)" xlink:href="#radial-gradient-2"/>
    <radialGradient id="radial-gradient-19" cx="942.45" cy="3938.39" fx="942.45" fy="3938.39" r="4.65" gradientTransform="translate(1551.19 -4242.94) rotate(-171.15) scale(1 -1.14) skewX(-2.4)" xlink:href="#radial-gradient-2"/>
    <radialGradient id="radial-gradient-20" cx="947.1" cy="3934.23" fx="947.1" fy="3934.23" r="7.62" gradientTransform="translate(1551.19 -4242.94) rotate(-171.15) scale(1 -1.14) skewX(-2.4)" xlink:href="#radial-gradient-2"/>
    <radialGradient id="radial-gradient-21" cx="974.5" cy="3936.32" fx="974.5" fy="3936.32" r="7.01" gradientTransform="translate(1551.19 -4242.94) rotate(-171.15) scale(1 -1.14) skewX(-2.4)" xlink:href="#radial-gradient-2"/>
    <radialGradient id="radial-gradient-22" cx="960.88" cy="3936.82" fx="960.88" fy="3936.82" r="7.52" gradientTransform="translate(1551.19 -4242.94) rotate(-171.15) scale(1 -1.14) skewX(-2.4)" xlink:href="#radial-gradient-2"/>
    <radialGradient id="radial-gradient-23" cx="930.44" cy="3935.54" fx="930.44" fy="3935.54" r="4.77" gradientTransform="translate(1551.19 -4242.94) rotate(-171.15) scale(1 -1.14) skewX(-2.4)" xlink:href="#radial-gradient-2"/>
    <radialGradient id="radial-gradient-24" cx="954.38" cy="3935.72" fx="954.38" fy="3935.72" r="4.27" gradientTransform="translate(1551.19 -4242.94) rotate(-171.15) scale(1 -1.14) skewX(-2.4)" xlink:href="#radial-gradient-2"/>
    <radialGradient id="radial-gradient-25" cx="1005.45" cy="3937.13" fx="1005.45" fy="3937.13" r="8.22" gradientTransform="translate(1551.19 -4242.94) rotate(-171.15) scale(1 -1.14) skewX(-2.4)" xlink:href="#radial-gradient-2"/>
    <radialGradient id="radial-gradient-26" cx="998.45" cy="3937.5" fx="998.45" fy="3937.5" r="4.27" gradientTransform="translate(1551.19 -4242.94) rotate(-171.15) scale(1 -1.14) skewX(-2.4)" xlink:href="#radial-gradient-2"/>
    <radialGradient id="radial-gradient-27" cx="979.49" cy="3939.97" fx="979.49" fy="3939.97" r="4.27" gradientTransform="translate(1551.19 -4242.94) rotate(-171.15) scale(1 -1.14) skewX(-2.4)" xlink:href="#radial-gradient-2"/>
    <radialGradient id="radial-gradient-28" cx="935.91" cy="3936.87" fx="935.91" fy="3936.87" r="6.61" gradientTransform="translate(1551.19 -4242.94) rotate(-171.15) scale(1 -1.14) skewX(-2.4)" xlink:href="#radial-gradient-2"/>
    <radialGradient id="radial-gradient-29" cx="968.61" cy="3939.06" fx="968.61" fy="3939.06" r="6.61" gradientTransform="translate(1551.19 -4242.94) rotate(-171.15) scale(1 -1.14) skewX(-2.4)" xlink:href="#radial-gradient-2"/>
    <radialGradient id="radial-gradient-30" cx="992.9" cy="3934.19" fx="992.9" fy="3934.19" r="8.32" gradientTransform="translate(1551.19 -4242.94) rotate(-171.15) scale(1 -1.14) skewX(-2.4)" xlink:href="#radial-gradient-2"/>
    <radialGradient id="radial-gradient-31" cx="985.85" cy="3938.39" fx="985.85" fy="3938.39" r="6.61" gradientTransform="translate(1551.19 -4242.94) rotate(-171.15) scale(1 -1.14) skewX(-2.4)" xlink:href="#radial-gradient-2"/>
    <radialGradient id="radial-gradient-32" cx="1576.43" cy="1037.31" fx="1576.43" fy="1037.31" r="5.21" gradientTransform="translate(1775.88 -910.39) rotate(-173.51) scale(1 -1.15) skewX(-1.78)" xlink:href="#radial-gradient-2"/>
    <radialGradient id="radial-gradient-33" cx="1609.89" cy="1036.98" fx="1609.89" fy="1036.98" r="6.58" gradientTransform="translate(1775.88 -910.39) rotate(-173.51) scale(1 -1.15) skewX(-1.78)" xlink:href="#radial-gradient-2"/>
    <radialGradient id="radial-gradient-34" cx="1654.79" cy="1036.38" fx="1654.79" fy="1036.38" r="5.21" gradientTransform="translate(1775.88 -910.39) rotate(-173.51) scale(1 -1.15) skewX(-1.78)" xlink:href="#radial-gradient-2"/>
    <radialGradient id="radial-gradient-35" cx="1602.65" cy="1034.52" fx="1602.65" fy="1034.52" r="7.24" gradientTransform="translate(1775.88 -910.39) rotate(-173.51) scale(1 -1.15) skewX(-1.78)" xlink:href="#radial-gradient-2"/>
    <radialGradient id="radial-gradient-36" cx="1582.83" cy="1035.82" fx="1582.83" fy="1035.82" r="5.35" gradientTransform="translate(1775.88 -910.39) rotate(-173.51) scale(1 -1.15) skewX(-1.78)" xlink:href="#radial-gradient-2"/>
    <radialGradient id="radial-gradient-37" cx="1636.55" cy="1040.89" fx="1636.55" fy="1040.89" r="6.75" gradientTransform="translate(1775.88 -910.39) rotate(-173.51) scale(1 -1.15) skewX(-1.78)" xlink:href="#radial-gradient-2"/>
    <radialGradient id="radial-gradient-38" cx="1629.61" cy="1039" fx="1629.61" fy="1039" r="5.35" gradientTransform="translate(1775.88 -910.39) rotate(-173.51) scale(1 -1.15) skewX(-1.78)" xlink:href="#radial-gradient-2"/>
    <radialGradient id="radial-gradient-39" cx="1665.04" cy="1040.89" fx="1665.04" fy="1040.89" r="5.35" gradientTransform="translate(1775.88 -910.39) rotate(-173.51) scale(1 -1.15) skewX(-1.78)" xlink:href="#radial-gradient-2"/>
    <radialGradient id="radial-gradient-40" cx="1578.48" cy="1034.71" fx="1578.48" fy="1034.71" r="3.68" gradientTransform="translate(1775.88 -910.39) rotate(-173.51) scale(1 -1.15) skewX(-1.78)" xlink:href="#radial-gradient-2"/>
    <radialGradient id="radial-gradient-41" cx="1642.89" cy="1040.21" fx="1642.89" fy="1040.21" r="3.68" gradientTransform="translate(1775.88 -910.39) rotate(-173.51) scale(1 -1.15) skewX(-1.78)" xlink:href="#radial-gradient-2"/>
    <radialGradient id="radial-gradient-42" cx="1594.56" cy="1035.82" fx="1594.56" fy="1035.82" r="4.78" gradientTransform="translate(1775.88 -910.39) rotate(-173.51) scale(1 -1.15) skewX(-1.78)" xlink:href="#radial-gradient-2"/>
    <radialGradient id="radial-gradient-43" cx="1624.81" cy="1039" fx="1624.81" fy="1039" r="9.8" gradientTransform="translate(1775.88 -910.39) rotate(-173.51) scale(1 -1.15) skewX(-1.78)" xlink:href="#radial-gradient-2"/>
    <radialGradient id="radial-gradient-44" cx="1659.44" cy="1040.21" fx="1659.44" fy="1040.21" r="4.78" gradientTransform="translate(1775.88 -910.39) rotate(-173.51) scale(1 -1.15) skewX(-1.78)" xlink:href="#radial-gradient-2"/>
    <radialGradient id="radial-gradient-45" cx="1590.15" cy="1036.54" fx="1590.15" fy="1036.54" r="11.1" gradientTransform="translate(1775.88 -910.39) rotate(-173.51) scale(1 -1.15) skewX(-1.78)" xlink:href="#radial-gradient-2"/>
    <radialGradient id="radial-gradient-46" cx="1617.41" cy="1038.77" fx="1617.41" fy="1038.77" r="7.4" gradientTransform="translate(1775.88 -910.39) rotate(-173.51) scale(1 -1.15) skewX(-1.78)" xlink:href="#radial-gradient-2"/>
    <radialGradient id="radial-gradient-47" cx="1648.63" cy="1040.53" fx="1648.63" fy="1040.53" r="10.13" gradientTransform="translate(1775.88 -910.39) rotate(-173.51) scale(1 -1.15) skewX(-1.78)" xlink:href="#radial-gradient-2"/>
    <radialGradient id="radial-gradient-48" cx="72.87" cy="1139.55" fx="72.87" fy="1139.55" r="15.57" gradientTransform="translate(27.92 -297.99) scale(.58 .31)" gradientUnits="userSpaceOnUse">
      <stop offset="0" stop-color="#b6c9df"/>
      <stop offset=".14" stop-color="#d0dcea"/>
      <stop offset=".29" stop-color="#e5ebf3"/>
      <stop offset=".47" stop-color="#f3f6fa"/>
      <stop offset=".67" stop-color="#fcfdfd"/>
      <stop offset="1" stop-color="#fff"/>
    </radialGradient>
    <radialGradient id="radial-gradient-49" cx="67.62" cy="1099.81" fx="67.62" fy="1099.81" r="10.72" gradientTransform="translate(23.51 -395.47) scale(.66 .39)" xlink:href="#radial-gradient-48"/>
    <radialGradient id="radial-gradient-50" cx="47.9" cy="1123.03" fx="47.9" fy="1123.03" r="12.04" gradientTransform="translate(14.97 -368.91) scale(.75 .37)" xlink:href="#radial-gradient-48"/>
  </defs>
  <g class="cls-57">
    <g id="Layer_1" data-name="Layer 1">
      <g class="cls-56">
        <rect class="cls-3" x="16" width="89.77" height="103"/>
        <g>
          <g>
            <path class="cls-13" d="M91.82,85.71c-.91,4.29,1.39,8.62,5.13,9.66,3.74,1.04,7.51-1.59,8.42-5.88.91-4.29-1.39-8.62-5.13-9.66-3.74-1.04-7.51,1.59-8.42,5.88Z"/>
            <path class="cls-8" d="M44.3,71.58c-.64,3.02.98,6.07,3.61,6.8s5.29-1.12,5.93-4.14c.64-3.02-.98-6.07-3.61-6.8-2.63-.73-5.29,1.12-5.93,4.14Z"/>
            <path class="cls-12" d="M75.95,79.86c-.64,3.02.98,6.07,3.61,6.8,2.63.73,5.29-1.12,5.93-4.14.64-3.02-.98-6.07-3.61-6.8s-5.29,1.12-5.93,4.14Z"/>
            <path class="cls-6" d="M24.71,66.99c-.87,4.08,1.32,8.2,4.88,9.19,3.56.99,7.15-1.51,8.01-5.6.87-4.08-1.32-8.2-4.88-9.19-3.56-.99-7.15,1.51-8.01,5.6Z"/>
            <path class="cls-7" d="M97.69,90.21c-.96,4.55,1.47,9.14,5.44,10.25,3.97,1.11,7.97-1.69,8.93-6.24.96-4.55-1.47-9.14-5.44-10.25-3.97-1.11-7.97,1.69-8.93,6.24Z"/>
            <path class="cls-9" d="M91.19,85.92c-.61,2.9.94,5.82,3.46,6.53,2.53.71,5.07-1.07,5.69-3.97.61-2.9-.94-5.82-3.46-6.53-2.53-.71-5.07,1.07-5.69,3.97Z"/>
            <path class="cls-11" d="M67.34,78.89c-.97,4.57,1.47,9.17,5.46,10.28,3.98,1.11,7.99-1.69,8.96-6.26.97-4.57-1.47-9.17-5.46-10.28s-7.99,1.69-8.96,6.26Z"/>
            <path class="cls-10" d="M46.87,73.93c-1.13,5.34,1.72,10.72,6.38,12.02,4.65,1.3,9.34-1.98,10.47-7.32,1.13-5.34-1.72-10.72-6.38-12.02-4.65-1.3-9.34,1.98-10.47,7.32Z"/>
            <path class="cls-40" d="M39.63,73.73c-.59,2.77.9,5.57,3.31,6.24,2.42.67,4.85-1.03,5.44-3.8.59-2.77-.9-5.57-3.31-6.24-2.42-.67-4.85,1.03-5.44,3.8Z"/>
            <path class="cls-36" d="M20.35,70.27c-.59,2.77.9,5.57,3.31,6.24,2.42.67,4.85-1.03,5.44-3.8.59-2.77-.9-5.57-3.31-6.24-2.42-.67-4.85,1.03-5.44,3.8Z"/>
            <path class="cls-32" d="M75.67,85.27c-.59,2.77.89,5.57,3.31,6.24,2.42.67,4.85-1.03,5.44-3.8.59-2.77-.9-5.57-3.31-6.24-2.42-.67-4.85,1.03-5.44,3.8Z"/>
            <path class="cls-33" d="M58.29,76.36c-.59,2.77.9,5.57,3.31,6.24,2.42.67,4.85-1.03,5.44-3.8.59-2.77-.9-5.57-3.31-6.24-2.42-.67-4.85,1.03-5.44,3.8Z"/>
            <path class="cls-31" d="M61.49,75.83c-.91,4.29,1.39,8.62,5.13,9.66,3.74,1.04,7.51-1.59,8.42-5.88.91-4.29-1.39-8.62-5.13-9.66-3.74-1.04-7.51,1.59-8.42,5.88Z"/>
            <path class="cls-34" d="M11.59,68.55c-.91,4.29,1.39,8.62,5.13,9.66,3.74,1.04,7.51-1.59,8.42-5.88s-1.39-8.62-5.13-9.66-7.51,1.59-8.42,5.88Z"/>
            <path class="cls-35" d="M31.2,70.92c-.91,4.29,1.39,8.62,5.13,9.66,3.74,1.04,7.51-1.59,8.42-5.88.91-4.29-1.39-8.62-5.13-9.66-3.74-1.04-7.51,1.59-8.42,5.88Z"/>
            <path class="cls-38" d="M79.84,80.95c-1.15,5.41,1.75,10.86,6.46,12.17,4.71,1.31,9.46-2,10.61-7.41s-1.75-10.86-6.46-12.17-9.46,2-10.61,7.41Z"/>
          </g>
          <g>
            <g>
              <path class="cls-5" d="M44.51,71.45c-.43,2.01.65,4.05,2.41,4.53s3.53-.75,3.95-2.76c.43-2.01-.65-4.05-2.41-4.53s-3.53.75-3.95,2.76Z"/>
              <path class="cls-5" d="M76.29,79.54c-.43,2.01.65,4.05,2.41,4.53,1.76.49,3.53-.75,3.95-2.76.43-2.01-.65-4.05-2.41-4.53s-3.53.75-3.95,2.76Z"/>
              <path class="cls-5" d="M25.46,67.56c-.58,2.72.88,5.47,3.25,6.13s4.76-1.01,5.34-3.73c.58-2.72-.88-5.47-3.25-6.13-2.37-.66-4.76,1.01-5.34,3.73Z"/>
              <path class="cls-5" d="M98.68,90.85c-.64,3.04.98,6.1,3.63,6.83s5.31-1.12,5.96-4.16-.98-6.1-3.63-6.83-5.31,1.12-5.96,4.16Z"/>
              <path class="cls-5" d="M71.08,78.58c-.37,1.74.56,3.5,2.08,3.92,1.52.42,3.05-.64,3.41-2.39.37-1.74-.56-3.5-2.08-3.92-1.52-.42-3.05.64-3.41,2.39Z"/>
              <path class="cls-5" d="M48.28,74.69c-.75,3.56,1.15,7.15,4.25,8.01s6.23-1.32,6.98-4.88c.75-3.56-1.15-7.15-4.25-8.01-3.1-.87-6.23,1.32-6.98,4.88Z"/>
              <path class="cls-5" d="M39.78,73.67c-.39,1.85.6,3.71,2.21,4.16,1.61.45,3.23-.68,3.63-2.53s-.6-3.71-2.21-4.16-3.23.68-3.63,2.53Z"/>
              <path class="cls-5" d="M20.66,70.29c-.39,1.85.6,3.71,2.21,4.16s3.23-.68,3.63-2.53c.39-1.85-.6-3.71-2.21-4.16-1.61-.45-3.23.68-3.63,2.53Z"/>
              <path class="cls-5" d="M73.49,85.02c-.69,3.27,1.05,6.56,3.9,7.35,2.85.79,5.72-1.21,6.41-4.48.69-3.27-1.05-6.56-3.9-7.35-2.85-.79-5.72,1.21-6.41,4.48Z"/>
              <path class="cls-5" d="M58.48,76.09c-.39,1.85.6,3.71,2.21,4.16s3.23-.68,3.63-2.53c.39-1.85-.6-3.71-2.21-4.16-1.61-.45-3.23.68-3.63,2.53Z"/>
              <path class="cls-5" d="M62.34,76.43c-.61,2.86.92,5.75,3.42,6.44s5.01-1.06,5.61-3.92c.61-2.86-.92-5.75-3.42-6.44-2.49-.7-5.01,1.06-5.61,3.92Z"/>
              <path class="cls-5" d="M12.44,69.15c-.61,2.86.92,5.75,3.42,6.44,2.49.7,5.01-1.06,5.61-3.92.61-2.86-.92-5.75-3.42-6.44s-5.01,1.06-5.61,3.92Z"/>
              <path class="cls-5" d="M32.06,71.52c-.61,2.86.92,5.75,3.42,6.44s5.01-1.06,5.61-3.92c.61-2.86-.92-5.75-3.42-6.44s-5.01,1.06-5.61,3.92Z"/>
              <path class="cls-5" d="M92.02,86.1c-.65,3.07.99,6.17,3.67,6.92s5.38-1.14,6.03-4.21-.99-6.17-3.67-6.92c-2.68-.75-5.38,1.14-6.03,4.21Z"/>
              <path class="cls-5" d="M81.29,81.71c-.76,3.61,1.16,7.24,4.31,8.12,3.14.88,6.31-1.34,7.07-4.94.76-3.61-1.16-7.24-4.31-8.12-3.14-.88-6.31,1.34-7.07,4.94Z"/>
            </g>
            <polygon class="cls-5" points="94.54 148.05 104.5 94.83 94.58 86.16 83.38 83.72 47.69 72.34 39.78 73.67 30.21 68.95 20.59 71.42 12.44 69.15 0 121.68 94.54 148.05"/>
          </g>
        </g>
        <g>
          <ellipse class="cls-37" cx="105.77" cy="90.54" rx="4.65" ry="5.34"/>
          <path class="cls-39" d="M83.39,88.81c-.35,2.92,1.44,5.61,3.98,6,2.54.4,4.89-1.65,5.23-4.57.35-2.92-1.44-5.61-3.98-6-2.54-.4-4.89,1.65-5.23,4.57Z"/>
          <path class="cls-30" d="M76.4,82.92c-.57,4.78,2.36,9.19,6.52,9.83,4.17.65,8.01-2.7,8.57-7.49.57-4.78-2.36-9.19-6.52-9.83-4.17-.65-8.01,2.7-8.57,7.49Z"/>
          <path class="cls-29" d="M49.57,81.16c-.52,4.4,2.17,8.45,6,9.05s7.37-2.49,7.89-6.89c.52-4.4-2.17-8.45-6-9.05-3.84-.6-7.37,2.49-7.89,6.89Z"/>
          <path class="cls-48" d="M62.49,83.75c-.56,4.72,2.33,9.07,6.44,9.71,4.12.64,7.91-2.67,8.47-7.39.56-4.72-2.33-9.07-6.44-9.71-4.12-.64-7.91,2.67-8.47,7.39Z"/>
          <path class="cls-52" d="M95.55,87.41c-.35,3,1.48,5.75,4.09,6.16,2.61.41,5.02-1.69,5.37-4.69.35-3-1.48-5.75-4.09-6.16-2.61-.41-5.02,1.69-5.37,4.69Z"/>
          <path class="cls-49" d="M72.3,84c-.32,2.68,1.32,5.14,3.65,5.51,2.33.36,4.48-1.51,4.8-4.19.32-2.68-1.32-5.14-3.65-5.51-2.33-.36-4.48,1.51-4.8,4.19Z"/>
          <path class="cls-47" d="M17.6,77.12c-.61,5.16,2.54,9.91,7.04,10.61,4.5.7,8.64-2.92,9.25-8.07s-2.54-9.91-7.04-10.61c-4.5-.7-8.64,2.92-9.25,8.07Z"/>
          <path class="cls-19" d="M28.4,79.22c-.32,2.68,1.32,5.14,3.65,5.51,2.33.36,4.48-1.51,4.8-4.19.32-2.68-1.32-5.14-3.65-5.51-2.33-.36-4.48,1.51-4.8,4.19Z"/>
          <path class="cls-18" d="M46.85,84.96c-.32,2.68,1.32,5.14,3.65,5.51,2.33.36,4.48-1.51,4.8-4.19.32-2.68-1.32-5.14-3.65-5.51-2.33-.36-4.48,1.51-4.8,4.19Z"/>
          <path class="cls-53" d="M88.13,87.8c-.49,4.15,2.04,7.97,5.66,8.53,3.62.56,6.94-2.34,7.43-6.49.49-4.15-2.04-7.97-5.66-8.53-3.62-.56-6.94,2.34-7.43,6.49Z"/>
          <path class="cls-54" d="M55.44,85.24c-.49,4.15,2.04,7.97,5.66,8.53,3.62.56,6.94-2.34,7.43-6.49.49-4.15-2.04-7.97-5.66-8.53-3.62-.56-6.94,2.34-7.43,6.49Z"/>
          <path class="cls-21" d="M30.32,75.69c-.62,5.23,2.57,10.04,7.13,10.75,4.55.71,8.75-2.95,9.37-8.18.62-5.23-2.57-10.04-7.13-10.75-4.55-.71-8.75,2.95-9.37,8.18Z"/>
          <path class="cls-24" d="M38.45,81.82c-.49,4.15,2.04,7.97,5.66,8.53,3.62.56,6.94-2.34,7.43-6.49.49-4.15-2.04-7.97-5.66-8.53-3.62-.56-6.94,2.34-7.43,6.49Z"/>
          <g>
            <g>
              <path class="cls-1" d="M101.36,90.31c-.23,1.95.96,3.74,2.66,4,1.7.26,3.26-1.1,3.49-3.05.23-1.95-.96-3.74-2.66-4-1.7-.26-3.26,1.1-3.49,3.05Z"/>
              <path class="cls-1" d="M83.59,89.3c-.23,1.95.96,3.74,2.66,4,1.7.26,3.26-1.1,3.49-3.05s-.96-3.74-2.66-4c-1.7-.26-3.26,1.1-3.49,3.05Z"/>
              <path class="cls-1" d="M77.71,83.05c-.35,2.93,1.44,5.63,4,6.03s4.91-1.66,5.26-4.59c.35-2.93-1.44-5.63-4-6.03s-4.91,1.66-5.26,4.59Z"/>
              <path class="cls-1" d="M50.55,81.77c-.35,2.93,1.44,5.63,4,6.03,2.56.4,4.91-1.66,5.26-4.59.35-2.93-1.44-5.63-4-6.03s-4.91,1.66-5.26,4.59Z"/>
              <path class="cls-1" d="M64.06,84.47c-.35,2.93,1.44,5.63,4,6.03,2.56.4,4.91-1.66,5.26-4.59.35-2.93-1.44-5.63-4-6.03-2.56-.4-4.91,1.66-5.26,4.59Z"/>
              <path class="cls-1" d="M95.79,87.91c-.24,2,.98,3.84,2.72,4.11,1.74.27,3.34-1.13,3.58-3.13.24-2-.98-3.84-2.72-4.11-1.74-.27-3.34,1.13-3.58,3.13Z"/>
              <path class="cls-1" d="M72.4,84.27c-.21,1.79.88,3.43,2.44,3.67s2.99-1.01,3.2-2.79-.88-3.43-2.44-3.67-2.99,1.01-3.2,2.79Z"/>
              <path class="cls-1" d="M18.98,77.79c-.41,3.44,1.69,6.61,4.69,7.07,3,.47,5.76-1.94,6.16-5.38s-1.69-6.61-4.69-7.07c-3-.47-5.76,1.94-6.16,5.38Z"/>
              <path class="cls-1" d="M28.47,79.69c-.21,1.79.88,3.43,2.44,3.67,1.56.24,2.99-1.01,3.2-2.79.21-1.79-.88-3.43-2.44-3.67s-2.99,1.01-3.2,2.79Z"/>
              <path class="cls-1" d="M46.92,85.43c-.21,1.79.88,3.43,2.44,3.67s2.99-1.01,3.2-2.79c.21-1.79-.88-3.43-2.44-3.67s-2.99,1.01-3.2,2.79Z"/>
              <ellipse class="cls-1" cx="93.34" cy="89.07" rx="4.4" ry="5.05"/>
              <path class="cls-1" d="M56.29,85.83c-.33,2.77,1.36,5.31,3.77,5.69s4.63-1.56,4.96-4.33c.33-2.77-1.36-5.31-3.77-5.69-2.41-.38-4.63,1.56-4.96,4.33Z"/>
              <path class="cls-1" d="M31.73,76.37c-.41,3.48,1.72,6.69,4.75,7.16,3.04.47,5.83-1.97,6.24-5.45.41-3.48-1.72-6.69-4.75-7.16-3.04-.47-5.83,1.97-6.24,5.45Z"/>
              <path class="cls-1" d="M39.29,82.41c-.33,2.77,1.36,5.31,3.77,5.69,2.41.38,4.63-1.56,4.96-4.33.33-2.77-1.36-5.31-3.77-5.69s-4.63,1.56-4.96,4.33Z"/>
            </g>
            <path class="cls-1" d="M105,112.4c.95-13.27,1.96-19.93.01-20.8-1.95-.87-7.41-3.4-9.23-3.7-1.82-.3-7.06,2.33-8.09,2.1s-3.71-5.03-5.47-5.24c-1.75-.21-11.84.74-14.1,1.1-2.26.36-7.56.87-10.28.21-2.72-.66-4.58-.81-7.38-.85-2.8-.04-5.56-.07-9.24-2.01-3.68-1.94-5.16-3.48-7.93-3.19-2.78.29-8.79-.84-11.01-.64-2.21.2-3.81,19.56-3.81,19.56l86.52,13.46Z"/>
          </g>
        </g>
        <g>
          <g>
            <path class="cls-27" d="M99.61,94.88c-.28,3.29,1.81,6.21,4.67,6.54s5.41-2.07,5.7-5.36c.28-3.29-1.81-6.21-4.67-6.54-2.86-.33-5.41,2.07-5.7,5.36Z"/>
            <path class="cls-28" d="M64.98,90.56c-.36,4.15,2.28,7.85,5.9,8.26,3.62.41,6.84-2.62,7.2-6.77.36-4.15-2.28-7.85-5.9-8.26-3.62-.41-6.84,2.62-7.2,6.77Z"/>
            <path class="cls-51" d="M21.72,84.95c-.28,3.29,1.81,6.21,4.67,6.54,2.86.33,5.41-2.07,5.7-5.36.28-3.29-1.81-6.21-4.67-6.54s-5.41,2.07-5.7,5.36Z"/>
            <path class="cls-50" d="M71.77,88.49c-.39,4.57,2.51,8.64,6.49,9.09s7.53-2.88,7.92-7.45-2.51-8.64-6.49-9.09c-3.98-.45-7.53,2.88-7.92,7.45Z"/>
            <path class="cls-20" d="M93.25,92.43c-.29,3.37,1.85,6.37,4.79,6.71,2.94.33,5.56-2.13,5.85-5.5.29-3.37-1.85-6.37-4.79-6.71-2.94-.33-5.56,2.13-5.85,5.5Z"/>
            <path class="cls-17" d="M37.89,91.98c-.37,4.26,2.34,8.05,6.05,8.48s7.02-2.69,7.39-6.95-2.34-8.05-6.05-8.48c-3.71-.42-7.02,2.69-7.39,6.95Z"/>
            <path class="cls-23" d="M46.38,90.77c-.29,3.37,1.85,6.37,4.79,6.71,2.94.33,5.56-2.13,5.85-5.5.29-3.37-1.85-6.37-4.79-6.71-2.94-.33-5.56,2.13-5.85,5.5Z"/>
            <path class="cls-16" d="M10.94,88.91c-.29,3.37,1.85,6.37,4.79,6.71,2.94.33,5.56-2.13,5.85-5.5.29-3.37-1.85-6.37-4.79-6.71-2.94-.33-5.56,2.13-5.85,5.5Z"/>
            <path class="cls-26" d="M99.35,91.85c-.2,2.32,1.27,4.38,3.3,4.61,2.02.23,3.82-1.46,4.02-3.78s-1.28-4.38-3.3-4.61c-2.02-.23-3.82,1.46-4.02,3.78Z"/>
            <path class="cls-45" d="M34.72,90.83c-.2,2.32,1.28,4.38,3.3,4.61,2.02.23,3.82-1.46,4.02-3.78s-1.28-4.38-3.3-4.61-3.82,1.46-4.02,3.78Z"/>
            <path class="cls-46" d="M82.14,91.17c-.26,3.01,1.66,5.7,4.28,6,2.63.3,4.97-1.9,5.23-4.92.26-3.01-1.66-5.7-4.28-6-2.63-.3-4.97,1.9-5.23,4.92Z"/>
            <path class="cls-44" d="M46.73,90.81c-.53,6.18,3.4,11.68,8.78,12.29s10.18-3.9,10.71-10.08c.53-6.18-3.4-11.68-8.78-12.29-5.38-.61-10.18,3.9-10.71,10.08Z"/>
            <path class="cls-41" d="M17.15,88.83c-.26,3.01,1.66,5.7,4.28,6,2.63.3,4.97-1.9,5.23-4.92.26-3.01-1.66-5.7-4.28-6-2.63-.3-4.97,1.9-5.23,4.92Z"/>
            <path class="cls-22" d="M80.17,91.78c-.61,7,3.85,13.24,9.95,13.93,6.1.69,11.54-4.42,12.14-11.42.61-7-3.85-13.24-9.95-13.93-6.1-.69-11.54,4.42-12.14,11.42Z"/>
            <path class="cls-25" d="M56.5,91.65c-.4,4.67,2.57,8.83,6.63,9.29,4.07.46,7.69-2.95,8.09-7.61.4-4.67-2.57-8.83-6.63-9.29-4.07-.46-7.69,2.95-8.09,7.61Z"/>
            <path class="cls-15" d="M22.55,89.82c-.55,6.39,3.51,12.08,9.08,12.71,5.57.63,10.53-4.03,11.08-10.42.55-6.39-3.51-12.08-9.08-12.71-5.57-.63-10.53,4.03-11.08,10.42Z"/>
          </g>
          <g>
            <g>
              <path class="cls-55" d="M100.05,93.62c-.19,2.19,1.2,4.14,3.11,4.36,1.91.22,3.61-1.38,3.8-3.57.19-2.19-1.2-4.14-3.11-4.36-1.91-.22-3.61,1.38-3.8,3.57Z"/>
              <path class="cls-55" d="M67,89.86c-.19,2.19,1.2,4.14,3.11,4.36,1.91.22,3.61-1.38,3.8-3.57.19-2.19-1.2-4.14-3.11-4.36-1.91-.22-3.61,1.38-3.8,3.57Z"/>
              <path class="cls-55" d="M22.16,83.69c-.19,2.19,1.2,4.14,3.11,4.36,1.91.22,3.61-1.38,3.8-3.57s-1.2-4.14-3.11-4.36c-1.91-.22-3.61,1.38-3.8,3.57Z"/>
              <ellipse class="cls-55" cx="78.28" cy="90.08" rx="5.23" ry="6.01"/>
              <path class="cls-55" d="M93.73,91.19c-.19,2.25,1.24,4.25,3.19,4.47,1.96.22,3.7-1.42,3.9-3.67.19-2.25-1.24-4.25-3.19-4.47-1.96-.22-3.7,1.42-3.9,3.67Z"/>
              <path class="cls-55" d="M38.84,90.78c-.25,2.84,1.56,5.37,4.04,5.65s4.68-1.79,4.93-4.63c.25-2.84-1.56-5.37-4.04-5.65-2.47-.28-4.68,1.79-4.93,4.63Z"/>
              <path class="cls-55" d="M46.87,89.53c-.19,2.25,1.24,4.25,3.19,4.47,1.96.22,3.7-1.42,3.9-3.67.19-2.25-1.24-4.25-3.19-4.47-1.96-.22-3.7,1.42-3.9,3.67Z"/>
              <path class="cls-55" d="M11.42,87.66c-.19,2.25,1.24,4.25,3.19,4.47,1.96.22,3.7-1.42,3.9-3.67.19-2.25-1.24-4.25-3.19-4.47-1.96-.22-3.7,1.42-3.9,3.67Z"/>
              <path class="cls-55" d="M99.36,89.54c-.13,1.55.85,2.92,2.2,3.08s2.55-.98,2.68-2.52-.85-2.92-2.2-3.08-2.55.98-2.68,2.52Z"/>
              <path class="cls-55" d="M34.65,89.52c-.13,1.55.85,2.92,2.2,3.08s2.55-.98,2.68-2.52-.85-2.92-2.2-3.08-2.55.98-2.68,2.52Z"/>
              <path class="cls-55" d="M82.44,89.9c-.17,2.01,1.1,3.8,2.86,4,1.75.2,3.31-1.27,3.48-3.28.17-2.01-1.1-3.8-2.86-4-1.75-.2-3.31,1.27-3.48,3.28Z"/>
              <path class="cls-55" d="M51.13,87.85c-.24,2.75,1.51,5.19,3.9,5.46,2.39.27,4.52-1.73,4.76-4.48.24-2.75-1.51-5.19-3.9-5.46-2.39-.27-4.52,1.73-4.76,4.48Z"/>
              <path class="cls-55" d="M17.45,87.56c-.17,2.01,1.11,3.8,2.86,4s3.31-1.27,3.48-3.28c.17-2.01-1.1-3.8-2.86-4s-3.31,1.27-3.48,3.28Z"/>
              <path class="cls-55" d="M86.54,89.73c-.27,3.11,1.71,5.88,4.42,6.19,2.71.31,5.13-1.96,5.4-5.07.27-3.11-1.71-5.88-4.42-6.19-2.71-.31-5.13,1.96-5.4,5.07Z"/>
              <path class="cls-55" d="M57.67,90.49c-.27,3.11,1.71,5.88,4.42,6.19,2.71.31,5.13-1.96,5.4-5.07.27-3.11-1.71-5.88-4.42-6.19s-5.13,1.96-5.4,5.07Z"/>
              <path class="cls-55" d="M27.65,87.34c-.27,3.11,1.71,5.88,4.42,6.19s5.13-1.96,5.4-5.07-1.71-5.88-4.42-6.19c-2.71-.31-5.13,1.96-5.4,5.07Z"/>
            </g>
            <path class="cls-55" d="M104.34,138.75c1.99-4.7,5.16-40.4,1.22-43.83-.85-.74-.95-.28-6.36-3-2.47-1.24-3.79-2.02-5.99-2.49-.42-.09-1.82-.37-3.86-.34-4.68.06-5.81,1.67-9.53,2.05-4.41.45-4.17-1.66-8.66-1.27-4.7.41-5.98,2.81-8.92,1.74-2.82-1.02-2.43-3.51-4.83-4.44-4.62-1.8-8.09,6.66-14.08,5.81-1.75-.25-1.03-.91-8.45-5.62-5.64-3.57-7.06-3.83-8.39-3.42-2.64.81-2.64,3.57-5.5,4.31-2.71.7-3.62-1.53-6.22-.8-3.05.86-4.65,4.75-5.15,5.97,0,0-4.12,32.19-3.51,36.86,1.85,14.08,87.99,32.71,98.24,8.49Z"/>
          </g>
        </g>
        <g>
          <ellipse class="cls-14" cx="70.3" cy="50.83" rx="9.05" ry="4.77"/>
          <path class="cls-4" d="M71.21,44.04c-.16,0-.32.02-.47.07.33-.4.53-.92.53-1.48,0-1.27-1.01-2.31-2.26-2.31-.94,0-1.75.59-2.09,1.43-.32-.43-.82-.71-1.39-.71-.96,0-1.74.8-1.74,1.78h0s-.03,0-.04,0c-1.27,0-2.29,1.05-2.29,2.34s1.03,2.34,2.29,2.34h7.47c.94,0,1.7-.78,1.7-1.73s-.76-1.73-1.7-1.73Z"/>
          <path class="cls-55" d="M65.53,41.05c-.96,0-1.74.8-1.74,1.78h0s-.03,0-.04,0c-1.27,0-2.29,1.05-2.29,2.34s1.03,2.34,2.29,2.34h3.17v-5.76c-.32-.43-.82-.7-1.39-.7Z"/>
          <g>
            <path class="cls-4" d="M66.04,41.05c-.61,0-1.1.8-1.1,1.78h0s-.02,0-.02,0c-.8,0-1.44,1.05-1.44,2.34s.65,2.34,1.44,2.34h1.99v-5.76c-.2-.43-.52-.7-.87-.7Z"/>
            <path class="cls-55" d="M69.76,44.04c-.11,0-.21.02-.31.07.22-.4.35-.92.35-1.48,0-1.27-.67-2.31-1.49-2.31-.63,0-1.16.59-1.38,1.43,0,0,0,0,0-.01v5.76h2.85c.62,0,1.12-.78,1.12-1.73s-.5-1.73-1.12-1.73Z"/>
          </g>
        </g>
        <g>
          <ellipse class="cls-43" cx="67.93" cy="30.21" rx="7.04" ry="4.15"/>
          <g>
            <path class="cls-4" d="M70.27,24.44c-.01-.91-.66-1.64-1.46-1.64-.21,0-.4.05-.58.14-.24-.82-.91-1.41-1.71-1.41s-1.54.65-1.74,1.53c-.32-.24-.71-.38-1.12-.38-1.13,0-2.05,1.05-2.05,2.34s.92,2.34,2.05,2.34h6.15c.73,0,1.32-.68,1.32-1.51,0-.65-.36-1.2-.86-1.41Z"/>
            <path class="cls-55" d="M64.78,23.05c-.32-.24-.71-.38-1.12-.38-1.13,0-2.05,1.05-2.05,2.34s.92,2.34,2.05,2.34h2.71v-5.83c-.77.07-1.4.69-1.59,1.52Z"/>
            <path class="cls-4" d="M65.51,23.05c-.17-.24-.38-.38-.6-.38-.61,0-1.11,1.05-1.11,2.34s.5,2.34,1.11,2.34h1.47v-5.83c-.42.07-.76.69-.86,1.52Z"/>
            <path class="cls-55" d="M68.49,24.44c0-.91-.36-1.64-.79-1.64-.11,0-.22.05-.32.14-.13-.82-.5-1.41-.93-1.41-.03,0-.05,0-.08,0v5.83h1.87c.4,0,.72-.68.72-1.51,0-.65-.19-1.2-.47-1.41Z"/>
          </g>
        </g>
        <g>
          <ellipse class="cls-42" cx="50.91" cy="43.9" rx="9.04" ry="4.43"/>
          <g>
            <path class="cls-55" d="M52.35,37.96c-.07,0-.13,0-.19.01.11-.25.16-.53.16-.82,0-1.22-1.04-2.2-2.31-2.2s-2.31.99-2.31,2.2c0,.03,0,.07,0,.1-.38-.27-.85-.42-1.36-.42-1.26,0-2.29.97-2.29,2.17s1.02,2.17,2.29,2.17h6.01c.94,0,1.69-.72,1.69-1.61s-.76-1.61-1.69-1.61Z"/>
            <path class="cls-4" d="M48.05,37.15s0,.07,0,.1c-.28-.27-.63-.42-1-.42-.93,0-1.69.97-1.69,2.17s.75,2.17,1.69,2.17h2v-6.03c-.59.35-1,1.11-1,2Z"/>
            <path class="cls-4" d="M52.35,37.96c-.07,0-.13,0-.19.01.11-.25.16-.53.16-.82,0-1.22-1.04-2.2-2.31-2.2-.34,0-.67.07-.96.2v6.03h3.3c.94,0,1.69-.72,1.69-1.61s-.76-1.61-1.69-1.61Z"/>
            <path class="cls-55" d="M51.24,37.96s-.09,0-.13.01c.07-.25.11-.53.11-.82,0-1.22-.68-2.2-1.53-2.2-.23,0-.44.07-.63.2v6.03h2.18c.62,0,1.12-.72,1.12-1.61s-.5-1.61-1.12-1.61Z"/>
          </g>
        </g>
      </g>
    </g>
  </g>
</svg>