<?xml version="1.0" encoding="utf-8"?>
<!-- Generator: Adobe Illustrator 23.0.5, SVG Export Plug-In . SVG Version: 6.00 Build 0)  -->
<svg version="1.1" id="Layer_1" xmlns="http://www.w3.org/2000/svg" xmlns:xlink="http://www.w3.org/1999/xlink" x="0px" y="0px"
	 viewBox="0 0 600 600" style="enable-background:new 0 0 600 600;" xml:space="preserve">
<style type="text/css">
	.st0{fill:#FFFFFF;stroke:#000000;stroke-width:0.3061;stroke-linecap:round;stroke-linejoin:round;}
	.st1{fill:#01A0C6;}
	.st2{fill:none;stroke:#000000;stroke-width:0.3061;stroke-linecap:round;stroke-linejoin:round;}
	.st3{fill:#01A0C6;stroke:#000000;stroke-width:0.3061;stroke-linecap:round;stroke-linejoin:round;}
	.st4{stroke:#000000;stroke-width:0.2041;stroke-linecap:round;stroke-linejoin:round;}
	.st5{fill:#FFFFFF;}
	.st6{fill:#C00020;}
	.st7{fill:#FE3200;stroke:#000000;stroke-width:0.3061;stroke-linecap:round;stroke-linejoin:round;}
	.st8{fill:#C00020;stroke:#000000;stroke-width:0.3061;stroke-linecap:round;stroke-linejoin:round;}
	.st9{fill:#FFCF07;stroke:#000000;stroke-width:0.3061;stroke-linecap:round;stroke-linejoin:round;}
	.st10{fill:#674C3A;stroke:#000000;stroke-width:0.3061;stroke-linecap:round;stroke-linejoin:round;}
</style>
<g>
	<g>
		<path class="st0" d="M216.54,476.27c-31.26-1.9-52.55,43.81,9.46,50.21c118.95,12.29,104.85-54.02,83.69-50.87
			C267.73,469.23,216.54,476.27,216.54,476.27z"/>
		<g>
			<path class="st1" d="M408.2,360.9c2.28-2.27,34.77-43.85,42.33-58.97c7.56-15.12-18.89-37.04-24.18-32.51
				c-4.95,4.24-29.18,18.39-62.28,60.35c-2.32,2.93-147.89-6.67-147.89-6.67c-9.84-15.12-46.89-75.61-46.89-75.61l-28.73,14.37
				c0,0,30.55,66.6,57.67,96.7c0.09,2.8,0.23,11.78,0.36,14.82c-0.75,5.6,3.18,43.12,13.27,63.81c-1.73,12.21-1.23,33.86,5.07,40.15
				c6.81,6.8,54.21,11.88,92.76-1.73c-2.06-1.55-1.19-7.59,0.28-11.25c13.43-0.93,32.27,2.14,41.53,7.69
				c1.88,1.13,4.4,1.24,7.31,0.21c-19.49-14.16-16.07-39.13-5.52-66.78c11.59-30.37,31.31-43.55,52.52-41.47
				c0.16-1.29,0.32-2.58,0.48-3.88L408.2,360.9z"/>
		</g>
		<path class="st2" d="M211.79,437.69c-1.65,12.29-1.06,33.45,5.13,39.65c6.81,6.8,54.21,11.88,92.76-1.73
			c-3.02-2.27-2.41-11.29-0.15-11.29"/>
		<path class="st2" d="M216.18,323.1c-9.84-15.12-46.89-75.61-46.89-75.61l-28.73,14.37c0,0,29.92,65.23,56.84,95.77"/>
		<path class="st0" d="M177.93,228.44c0,19.41-15.72,35.15-35.15,35.15c-19.41,0-35.13-15.74-35.13-35.15
			c0-19.4,15.72-35.13,35.13-35.13C162.21,193.31,177.93,209.04,177.93,228.44z"/>
		<path class="st3" d="M440.46,199.61c0,42.84-24.48,92.29-61.29,124.52c-15.68,7.9-159.81,7.9-162.48,4.32
			c-35.84-38.05-60.48-94.34-60.58-143.02c-0.04-17.64,8.73-22.41,12.41-38.74c9.08-40.32,64.7-76.68,123.62-76.68
			C370.68,70.01,440.46,125.17,440.46,199.61z"/>
		<path class="st0" d="M352.76,326.4c36.31-26.65,60.59-74.09,61.25-118.72c0.99-69.06-84.68-91.39-137.36-93.91
			c-16.78-0.8-31.14,0.17-43.58,1.29c-55.59,5.02-67.6,36.9-67.6,91.76c0,29.42,2.01,64.86,51.58,121.9
			C227.72,337.57,334.63,339.71,352.76,326.4z"/>
		<path class="st0" d="M286.23,120.48c-8.7,19.49-33.51,19.81-47.77,11.85c-11.96-6.67-9.92-29.27,2.91-44.36
			c12.31-14.47,28.99-19.28,39.32-14.62C292.81,78.83,297.33,95.56,286.23,120.48z"/>
		<path class="st0" d="M352.97,122.16c-5.83,19.35-25.16,32.85-46.33,25.03c-16.43-6.06-21.9-24.98-14.62-44.09
			c7.2-18.89,21.68-31.26,41.15-25.1C349.86,83.28,358.79,102.83,352.97,122.16z"/>
		<path class="st4" d="M287.5,112.11c-2.05,6.26-6.54,11.66-12.04,9.33c-4.99-2.12-5.28-7.89-2.95-13.84
			c2.23-5.69,6.98-9.07,10.76-7.78C287.11,101.14,289.47,106.15,287.5,112.11z"/>
		<path class="st5" d="M283.86,112.99c-0.62,1.9-2.36,3.05-3.89,2.55c-1.53-0.5-2.25-2.45-1.65-4.36c0.62-1.9,2.37-3.04,3.89-2.55
			C283.74,109.13,284.47,111.08,283.86,112.99z"/>
		<path class="st2" d="M266.32,166.85c-8.1,15.67-9.07,41.84-9.07,41.84"/>
		<g>
			<path class="st5" d="M150.89,162.31c-7.68,19.7,2.06,47.58,29.34,48.83l10.98-57.4C176.59,135.1,157.81,144.57,150.89,162.31z"/>
			<path class="st6" d="M384.26,208.43c-1.49-3.35-27.21-0.75-36.78-0.75c-35.86,0-108.89,3.52-165.33,3.52
				c-0.64,0-1.27-0.03-1.9-0.06l-0.11,0.56c31.42,64.06,82.2,115.17,131.3,96.27C365.93,287,386.75,214.02,384.26,208.43z"/>
			<g>
				<path class="st7" d="M256.91,302.65c18.58,10.01,35.27,12.15,54.52,5.33c24.02-8.5,38.5-26.09,51.26-44.4
					C322.61,242.94,266.36,273.59,256.91,302.65z"/>
			</g>
		</g>
		<path class="st2" d="M191.22,153.75c-14.62-18.65-33.4-9.18-40.32,8.57c-7.86,20.15,2.52,48.89,31.25,48.89
			c56.45,0,129.48-3.52,165.33-3.52c9.57,0,33.39-2.05,36.76,0.46c4.87,3.65-21.34,82.33-72.8,99.84
			c-56.14,19.1-102.67-40.45-131.3-96.27"/>
		<path class="st2" d="M236.08,159.8c-25.71-16.64-51.17-26.97-56.22-28.49"/>
		<path class="st2" d="M167.78,163.58c21.66,2.02,52.96,7.85,63.57,11.38"/>
		<path class="st2" d="M163.99,200.62c28.3-5.5,65.48-7.63,65.48-7.63"/>
		<path class="st2" d="M305.68,164.88c33.58-6.25,88.2-16.37,88.2-16.37"/>
		<path class="st2" d="M305.68,180.01c33.27,1.01,89.46-1.27,89.46-1.27"/>
		<path class="st2" d="M303.17,196.39c46.55,8.79,46.5,8.93,87.01,22"/>
		<path class="st2" d="M198.78,350.32c-1.97,24.07,2.44,69.42,16.05,92.85"/>
		<path class="st0" d="M223.74,336.71c-21.88,5.64-25.15,36.67-24.05,49.93c1.94,23.38,20.98,71.87,80.75,69.54
			c53.61-2.1,64.56-36.71,65.78-67.29c0.39-10.05-5.75-45.42-40.08-53.18C282.7,330.41,223.74,336.71,223.74,336.71z"/>
		<path class="st8" d="M207.17,319.38c-4.3,0-4.16,4.37-4.09,6.33c0.19,5.4,0.86,9.07,5.52,10.24c9.07,2.27,41.58,7.56,75.6,5.29
			c34.03-2.27,68.06-4.54,83.93-8.32c15.87-3.78,18.9-16.64,4.53-15.11C358.29,319.32,232.13,329.21,207.17,319.38z"/>
		<path class="st3" d="M408.2,360.9c2.28-2.27,34.77-43.85,42.33-58.97c7.56-15.12-18.89-37.04-24.18-32.51
			c-5.29,4.54-31.77,19.15-68.06,68.3"/>
		<path class="st0" d="M493.28,266.21c0,21.08-17.09,38.16-38.16,38.16c-21.07,0-38.16-17.08-38.16-38.16s17.09-38.16,38.16-38.16
			C476.19,228.04,493.28,245.13,493.28,266.21z"/>
		<path class="st0" d="M209.46,386.37c20.01,6.44,93.08,2.94,117.84,0.99c2.71,16.88-4.12,55.99-51.41,55.95
			C232.05,443.28,212.88,418.04,209.46,386.37z"/>
		<path class="st9" d="M274.03,356.04c-1.57,14.89-14.93,25.7-29.81,24.14c-14.91-1.57-25.72-14.91-24.17-29.81
			c1.57-14.9,14.93-25.72,29.83-24.16C264.78,327.79,275.59,341.14,274.03,356.04z"/>
		<path class="st9" d="M221.77,343.88c-2.37-0.46-3.5,3.7-1.55,5.2c11.19,7.9,43.45,9.31,54.38,2.34c1.81-1.72,1.02-4.9-1.14-4.81
			C263.84,353.18,228.39,351.31,221.77,343.88z"/>
		<path class="st9" d="M239.66,365.74c-0.44,2.65,1.57,12.29,4.07,14.24"/>
		<path class="st10" d="M243.98,364.68c-0.24,2.39-2.45,4.12-4.93,3.86c-2.49-0.26-4.3-2.42-4.05-4.81c0.24-2.4,2.47-4.12,4.95-3.86
			C242.44,360.13,244.23,362.28,243.98,364.68z"/>
		<path class="st8" d="M289.75,145.68c0,11.96-9.71,21.68-21.68,21.68c-11.97,0-21.66-9.71-21.66-21.68
			c0-11.98,9.69-21.68,21.66-21.68C280.05,124.01,289.75,133.71,289.75,145.68z"/>
		<path class="st5" d="M270.96,137.25c0,4.46-3.62,8.06-8.07,8.06c-4.46,0-8.07-3.61-8.07-8.06c0-4.45,3.61-8.06,8.07-8.06
			C267.34,129.19,270.96,132.8,270.96,137.25z"/>
	</g>
	<path class="st2" d="M301.9,465.6c12.57-3.43,38.26-0.36,49.6,6.45"/>
	<path class="st0" d="M443.72,442.42c-15.82,46.31-51.38,54.52-77.72,42.98c-32.76-14.35-30.95-48.85-17.68-84.78
		c13.99-37.93,50.05-55.8,73.97-43.2C444.3,369.02,458.45,399.29,443.72,442.42z"/>
	<path d="M294.96,115.53c0.55-0.76,4.91-9.24,14.03-8.14c5.95,0.5,9.61,6.31,10.39,13.01c0.32,2.77-2.19,3.22-2.41,0.82
		c-0.48-5.05-2.86-10.38-8.38-10.91c-6.96-0.68-10.2,4.62-11.1,6.53C296.39,119.2,294.02,117,294.96,115.53z"/>
</g>
</svg>
