<?xml version="1.0" encoding="UTF-8"?>
<!DOCTYPE svg PUBLIC "-//W3C//DTD SVG 1.0//EN" "http://www.w3.org/TR/2001/REC-SVG-20010904/DTD/svg10.dtd">
<!-- Creator: CorelDRAW 2018 (64-Bit) -->
<svg xmlns="http://www.w3.org/2000/svg" xml:space="preserve" width="8.26772in" height="11.6929in" version="1.0" style="shape-rendering:geometricPrecision; text-rendering:geometricPrecision; image-rendering:optimizeQuality; fill-rule:evenodd; clip-rule:evenodd"
viewBox="0 0 8267.72 11692.91"
 xmlns:xlink="http://www.w3.org/1999/xlink">
 <defs>
  <style type="text/css">
   <![CDATA[
    .fil0 {fill:black;fill-rule:nonzero}
    .fil2 {fill:#423D41;fill-rule:nonzero}
    .fil3 {fill:#EA79A5;fill-rule:nonzero}
    .fil4 {fill:#F395B0;fill-rule:nonzero}
    .fil1 {fill:white;fill-rule:nonzero}
   ]]>
  </style>
 </defs>
 <g id="Слой_x0020_1">
  <metadata id="CorelCorpID_0Corel-Layer"/>
  <g id="_2265470752720">
   <path class="fil0" d="M8028.66 3502.27c-52.22,82.84 -141.71,128.31 -233.06,128.31 -50.03,0 -100.7,-13.67 -146.05,-42.2 -27.49,-17.35 -50.04,-39.33 -68.91,-63.56l-1232.95 1524.77c42.48,133.54 72.96,272.66 89.88,416.63 87.83,750.02 -318.91,1365.6 -1115.95,1699.22l299.9 272.3c33.99,-82.6 115.3,-140.96 210.11,-140.96 125.35,0 227.36,102.03 227.36,227.33 0,125.45 -102.01,227.48 -227.36,227.48 -89.46,0 -166.22,-52.41 -203.35,-127.57l-531.51 0c79.58,150.48 111.89,279.33 123.51,338.09 79.74,-12.39 149.27,0.26 206.6,37.38 65.28,42.1 98.76,106.06 114.8,147.88 330.75,-186.72 524.89,-124.97 630.38,-37.93 80.94,66.85 130.98,172.13 137.22,288.96 37.64,713.3 -371.69,924.6 -389.14,933.33 -198.29,111.39 -380.45,140.84 -539.65,86.12 -190.46,-65.14 -287.75,-229.56 -316.55,-286.5l-272.42 0c-79.46,130.15 -180.05,205.72 -299.11,225 -201.67,32.58 -387.34,-107.48 -431.22,-143.44l-167.04 0c-17.71,31.27 -62.91,63.2 -142.01,101.5 -122.46,59.14 -249.75,79.58 -367.75,58.74 -228.25,-39.98 -296.25,-200.77 -314.65,-266.29l-267.56 0c-150.1,233.33 -319.04,355.55 -502.77,363.09 -6.09,0.28 -12.36,0.4 -18.5,0.4 -285.02,0.14 -494.25,-274.62 -503.24,-286.62 -267.36,-349.54 -275.15,-655.4 -234.66,-850.44 43.29,-208.08 231.13,-355.93 437.75,-344.32 164.54,9.38 285.58,92.09 345.87,143.81 54.59,-122.72 268,-154.52 357.65,-162.46 -27.11,-132.23 18.88,-254.69 83.99,-354.87l-545.44 0c-15.66,110.06 -109.7,195.41 -224.23,195.41 -125.33,0 -227.34,-102.01 -227.34,-227.36 0,-125.45 102.01,-227.43 227.34,-227.43 63.3,0 120.53,26.02 161.79,68l360.9 -267.34c-52.01,-22.03 -102.68,-44.94 -151.41,-69.44 -687.72,-346.8 -1014.58,-922.64 -920.12,-1621.56 27.59,-204.95 80.74,-399.16 155.26,-580.81l-543.25 -75.93c-12.77,-1.69 -23.06,-11.09 -26.44,-23.44l-544.25 -2054.11c-6.3,0.78 -12.29,2.46 -18.69,2.84 -5.42,0.26 -10.82,0.54 -16.18,0.54 -63.44,0 -123.89,-22.55 -171.78,-64.23 -52.11,-45.31 -83.06,-107.96 -87.11,-176.4 -8.38,-140.96 101.34,-262.5 244.62,-271.13 142.49,-8.31 266.65,99.17 275.07,240.13 0,0.15 0,0.15 0,0.15 1.69,27.97 -2.36,55.33 -9.62,81.67l1963.85 790.52c11.57,4.57 19.24,15.5 19.91,27.86l18.76 337.84c361.28,-183.06 780.49,-284.81 1233.74,-284.81 363.22,0 706.48,66.95 1015.89,188.79l269.42 -367.01c6.28,-8.57 15.8,-13.41 27.01,-13.03l2269.7 82.61c5.99,-34.01 18.24,-67.49 37.64,-98.5 0,0 0,0 0.14,0 80.75,-128.34 250.66,-167.02 379.11,-86.09 128.19,80.62 166.88,250.76 86.11,379.09z"/>
   <path class="fil1" d="M3059.06 9043.01l-274.51 0c-10.93,0 -21.08,5.74 -26.96,14.99 -140.44,224.07 -295.33,341.19 -460.52,348.23 -262.67,9.13 -466.4,-258.08 -468.61,-260.95 -252.75,-330.63 -260.83,-616.98 -222.94,-798.98 35.43,-170.81 185,-294.17 352.29,-294.17 6.37,0 12.88,0.11 19.4,0.49 208.86,11.87 343.04,161.97 344.35,163.5 0.26,0.15 0.53,0.15 0.64,0.41 0.41,0.38 0.52,0.79 0.79,1.16l112.57 112.43c6.21,6.25 14.31,9.4 22.54,9.4 8.2,0 16.26,-3.15 22.51,-9.4 12.51,-12.36 12.51,-32.55 0,-45.06l-101.6 -101.63c15.5,-115.42 253.01,-148.9 346.67,-151.9 10.04,-0.26 19.28,-5.2 25.02,-13.44 5.84,-8.05 7.41,-18.46 4.53,-27.86 -43.22,-138.6 15.5,-271.62 91.34,-374.8l37.52 0 216.39 404.76c-76.21,11.98 -139.65,61.49 -170.92,129.39 -0.52,1.01 -1.16,1.94 -1.57,3 -12.36,28.01 -19.55,58.87 -19.55,91.45 0,50.52 17.23,96.92 45.35,134.82 23.33,100.44 65.8,216.65 144.37,303.68 -19.81,49.25 -61.38,182.27 -39.1,360.49zm1908.84 -963.91c1.69,2.32 2.99,4.68 4.04,7.41 17.83,32.43 28.91,69.06 28.91,108.64 0,42.88 -12.63,82.46 -33.33,116.73 -18.39,131.71 -68.94,288.18 -202.08,362.85 29.96,75.28 96.55,268.5 56.93,392.78l261.74 0c12.77,0 24.38,7.68 29.32,19.41 0.9,2.08 88.34,202.58 288.44,270.72 141.07,48.2 305.51,20.45 488.42,-82.34 17.19,-8.85 390.56,-204.54 355.13,-873.5 -5.2,-99.02 -46.77,-187.74 -113.99,-243.12 -133.29,-109.95 -336.9,-88.46 -589.12,62.17l-109.31 109.28c-6.1,6.25 -14.3,9.4 -22.51,9.4 -8.09,0 -16.29,-3.15 -22.54,-9.4 -12.51,-12.36 -12.51,-32.55 0,-45.06l99.39 -99.43c-9.36,-29.7 -35.69,-94.45 -95.5,-132.87 -50.15,-32.17 -114.26,-39.47 -190.35,-22.02 -8.84,2.09 -17.97,0.11 -25.39,-4.94 -7.41,-5.09 -12.24,-13.18 -13.41,-22.02 -0.41,-2.88 -25.13,-174.06 -140.7,-379.77l-66.58 0 -181.59 343.82c82.72,0 154.52,44.94 194.1,111.26zm-272.52 593.16c-3.41,-7.72 -3.67,-16.55 -0.53,-24.38 3.11,-7.94 9.21,-14.34 16.93,-17.61 97.44,-42.72 148,-139.5 174.33,-238.93 -33.37,19.29 -71.57,31.16 -112.72,31.16 -125.3,0 -227.32,-102.01 -227.32,-227.35 0,-60.18 23.82,-114.63 62.13,-155.42l-656.45 -354.87 -667.8 387.98c48.2,41.68 79.32,102.54 79.32,171.18 0,125.31 -102.02,227.32 -227.47,227.32 -34,0 -66.06,-8.05 -95.08,-21.5 25.02,73.63 62.02,147.74 117.74,203.39 9.66,9.63 12.02,24.49 5.99,36.74 -0.75,1.54 -76.21,157.5 -37.9,379.62 0.11,0.26 0,0.39 0,0.66 0,0.25 0.26,0.51 0.26,0.78 1.04,7.94 29.06,197.24 268.51,239.32 104.86,18.36 218.74,0 329.07,-53.42 106.43,-51.58 114.79,-76.46 115.16,-77.39 0,-0.25 0.15,-0.38 0.15,-0.64 0,-0.27 -0.26,-0.4 -0.26,-0.66 47.41,-544.03 -199.72,-581.44 -210.28,-582.75 -8.84,-1.01 -16.93,-5.84 -22.13,-13.15 -5.24,-7.3 -7.15,-16.55 -5.36,-25.13 54.34,-254.58 -46.77,-543.92 -47.82,-546.8 -5.84,-16.66 2.88,-34.9 19.44,-40.74 16.4,-5.99 34.79,2.73 40.78,19.28 4.27,11.95 100.7,287.5 55.72,551.3 79.35,27 266.45,141.78 235.3,608.82l128.19 0c-43.26,-195.69 -30.33,-354.35 40.26,-470.97 51.72,-85.57 121.3,-126.24 162.09,-143.81 -73.48,-227.99 6.25,-567.88 9.77,-582.87 4.16,-17.07 21.35,-27.37 38.57,-23.59 17.04,4.04 27.6,21.23 23.56,38.42 -0.9,3.63 -86.25,367.38 -1.54,575.3 3.48,8.61 3.11,18.39 -1.08,26.59 -4.27,8.35 -11.95,14.35 -21.08,16.4 -3.63,1.05 -94.86,24.64 -156.58,127.97 -64.26,107.48 -72.69,259.24 -25.69,450.87 36.74,29.83 207.02,158.17 380.94,130.02 103.85,-16.94 192.57,-87.56 263.31,-210.01 0.26,-0.4 0.9,-0.65 1.17,-1.04 0.41,-0.66 0.52,-1.43 0.93,-2.09 65.24,-86.89 -15.76,-324.01 -52.5,-408.01zm-2525.75 -2262.29c-38.8,-457.67 274.24,-814.52 930.47,-1060.87l828.83 357.87c7.57,3.15 16.29,3.37 23.96,0.52l945.94 -358.02c84.3,41.46 593.95,307.46 741.31,732.06 68.38,196.69 49.51,401.5 -56.03,608.52 -141.37,277.09 -403.48,481.11 -719.14,559.68 -289.37,72.06 -599.27,108.53 -921.33,108.53 -391.61,0 -775.02,-53.7 -1108.81,-155.04 -366.97,-111.52 -634.32,-430.33 -665.21,-793.26zm1767.39 471.45c-48.35,0 -86.25,49.77 -86.25,113.36 0,63.55 37.9,113.32 86.25,113.32 48.31,0 86.21,-49.77 86.21,-113.32 0,-63.59 -37.9,-113.36 -86.21,-113.36zm838.72 -658.81c17.72,201.29 132.39,353.82 256.01,340.83 123.73,-12.92 209.72,-186.69 192.15,-387.98 -5.36,-60.7 -19.92,-116.73 -40.67,-165.34 89.02,-30.6 120.13,-134.82 120.51,-136.13 2.73,-10.04 -2.32,-20.71 -11.57,-23.85 -9.13,-2.85 -18.91,2.62 -21.76,12.66 -1.31,4.57 -27.37,92.09 -103.17,113.47 -12.65,-23.86 -26.85,-45.2 -42.35,-63.7 101.23,-78.16 147.74,-182.68 150.21,-188.26 4.16,-9.51 0.41,-20.86 -8.2,-25.39 -8.73,-4.57 -19.02,-0.56 -23.18,8.95 -0.52,1.31 -46.66,104.11 -144.63,177.58 -4.53,-4.15 -8.99,-8.72 -13.67,-12.35 -99.28,74.75 -200.66,118.15 -289.75,143.02 -18.61,60.44 -26.59,131.6 -19.93,206.5zm-1037.39 389.51c0,88.76 91.19,160.93 203.2,160.93 112.05,0 203.24,-72.17 203.24,-160.93 0,-88.68 -91.19,-160.88 -203.24,-160.88 -112.02,0 -203.2,72.2 -203.2,160.88zm-1202.09 -779.55c0.37,1.42 35.54,111.9 136.13,144.33 -23.33,51.61 -39.74,110.89 -45.84,175.23 -19.96,213.39 77.26,397.49 217.17,411.31 139.91,13.78 269.53,-148 289.6,-361.27 7.41,-79.47 -1.43,-154.78 -22.66,-218.86 -100.7,-26.48 -215.37,-72.31 -327.69,-151.67 -5.2,3.93 -10.15,8.72 -15.35,13.18 -110.85,-78.04 -162.87,-186.83 -163.5,-188.26 -4.68,-10.04 -16.4,-14.35 -26.29,-9.52 -9.78,4.83 -13.97,16.81 -9.25,26.85 2.73,5.99 55.46,116.69 169.87,199.57 -17.6,19.66 -33.63,42.2 -47.82,67.48 -85.87,-22.66 -115.31,-115.42 -116.73,-120.25 -3.26,-10.67 -14.35,-16.4 -24.6,-13.3 -10.45,3.26 -16.3,14.49 -13.04,25.17z"/>
   <path class="fil2" d="M4880.33 7311.76c-294.28,73.22 -609.41,110.32 -936.68,110.32 -397.75,0 -787.69,-54.61 -1127.31,-157.89 -74.37,-22.53 -144.85,-53.29 -210.65,-90.65l-408.06 302.21c12.67,23.22 21.28,48.6 25.18,75.83l680.41 0c11.77,0 22.55,6.52 28.18,16.81l241.54 451.95c17.45,2.84 34.49,7.14 50.41,13.92l711.83 -413.63c9.52,-5.61 21.39,-5.71 31.12,-0.52l697.39 377.17c9.66,-5.48 19.43,-10.31 29.85,-14.35l214.43 -405.8c5.47,-10.41 16.3,-16.92 28.12,-16.92l671.73 0c-1.82,-11.87 -3.63,-23.72 -3.63,-36.11 0,-4.94 1.17,-9.62 1.55,-14.46l-378.7 -343.93c-105.16,65.26 -222.04,115.04 -346.72,146.06zm-2456.27 -269.82c-8.21,-4.04 -17.19,-7.57 -25.39,-11.58 -468.09,-236.09 -1001.7,-697.53 -885.77,-1556.06 158.41,-1174.09 1157.91,-1994.04 2430.74,-1994.04 1273.11,0 2295.24,838.46 2430.47,1993.51 110.89,946.47 -566.2,1411.96 -1043.53,1619.77 129.24,-100.96 235.67,-228.15 310.31,-374.57 113.89,-223.17 133.8,-444.75 59.54,-658.67 -169.34,-486.73 -761.61,-763.04 -786.74,-774.53 -7.67,-3.63 -16.66,-3.89 -24.65,-0.9l-946.71 358.39 -828.68 -357.87c-7.57,-3.25 -16.04,-3.35 -23.72,-0.63 -694.64,257.65 -1025.7,638.1 -983.87,1130.53 20.45,241.15 138.24,463.82 317.99,626.66zm5550.55 -3573.82c62.01,-98.34 32.43,-229.01 -66.18,-291.02 -98.38,-62.01 -229.05,-32.32 -291.06,66.18l0 0c-62.01,98.5 -32.32,229.05 66.18,291.18 98.48,61.86 229.03,32.15 291.06,-66.33zm-2954.36 162.35c614.16,260.01 1086.66,740.63 1303.06,1347.84l1221.64 -1510.94c-13.3,-30.26 -20.72,-62.8 -22.67,-95.75l-2251.76 -82.09 -250.27 340.95zm-4416.13 -1024.51c34.75,-38.43 52.2,-87.83 49.17,-138.87 -6.11,-101.89 -92.61,-180.69 -195.52,-180.69 -4.01,0 -8.02,0.11 -12.06,0.36 -108.15,6.37 -190.99,97.86 -184.71,203.63 3.04,51.08 26.21,98.12 65.31,132.11 39.2,34.11 89.58,51.2 142.23,48.06 52.51,-3.11 100.67,-26.07 135.57,-64.59zm2024.49 781.15l19.12 346.91c-453.32,245.96 -809.54,623.13 -1017.19,1090.05l-538.95 -75.44 -538.71 -2033.13c37.23,-14.56 71.2,-36.47 98.57,-66.81 12.48,-13.82 23,-28.8 32.03,-44.56l1945.13 782.98z"/>
   <path class="fil3" d="M3802.17 6612.12c0,-52.62 63.85,-97.03 139.39,-97.03 75.57,0 139.39,44.41 139.39,97.03 0,52.65 -63.81,97.07 -139.39,97.07 -75.54,0 -139.39,-44.41 -139.39,-97.07zm-1639.95 971.37c0,-90.3 -73.33,-163.62 -163.62,-163.62 -90.14,0 -163.5,73.33 -163.5,163.62 0,90.18 73.36,163.5 163.5,163.5 90.29,0 163.62,-73.33 163.62,-163.5zm3505.8 -59.4c0,90.14 73.48,163.66 163.61,163.66 90.18,0 163.51,-73.52 163.51,-163.66 0,-90.14 -73.33,-163.5 -163.51,-163.5 -90.14,0 -163.61,73.36 -163.61,163.5zm-2695.73 719.93c0,90.14 73.36,163.51 163.5,163.51 90.29,0 163.62,-73.37 163.62,-163.51 0,-90.29 -73.33,-163.65 -163.62,-163.65 -90.14,0 -163.5,73.36 -163.5,163.65zm1637.63 -48.87c0,90.18 73.33,163.5 163.47,163.5 90.18,0 163.66,-73.33 163.66,-163.5 0,-90.25 -73.48,-163.62 -163.66,-163.62 -90.14,0 -163.47,73.37 -163.47,163.62z"/>
   <path class="fil4" d="M3937.03 6945.27c-7.72,0 -22.43,19.29 -22.43,49.51 0,30.22 14.72,49.51 22.43,49.51 7.68,0 22.39,-19.29 22.39,-49.51 0,-30.22 -14.72,-49.51 -22.39,-49.51zm-193.35 -1688.94l0 162.98 101.6 0 0 -155.3c34.15,1.69 69.2,2.48 104.89,2.74l0 152.57 50.78 0 0 -152.57c26.48,-0.26 52.65,-0.78 78.31,-1.69l0 154.25 101.49 0 0 -160.09c279.45,-24.49 482.43,-115.04 482.43,-386.14 0,-334.17 -307.83,-605.04 -687.61,-605.04 -379.74,0 -687.61,270.87 -687.61,605.04 0,262.37 190.35,355.24 455.72,383.26zm520.58 -507.44c49.92,-12.25 109.84,57.6 133.81,155.67 24.08,98.23 3.15,187.74 -46.77,199.98 -49.77,12.25 -109.69,-57.56 -133.81,-155.68 -23.97,-98.23 -3,-187.74 46.78,-199.98zm-757.31 155.67c23.97,-98.07 83.89,-167.92 133.81,-155.67 49.89,12.24 70.75,101.75 46.78,199.98 -24.11,98.11 -83.92,167.93 -133.81,155.68 -49.92,-12.25 -70.85,-101.75 -46.78,-199.98z"/>
  </g>
 </g>
</svg>
