<?xml version="1.0" encoding="UTF-8"?>
<!DOCTYPE svg PUBLIC "-//W3C//DTD SVG 1.0//EN" "http://www.w3.org/TR/2001/REC-SVG-20010904/DTD/svg10.dtd">
<!-- Creator: CorelDRAW 2018 (64-Bit) -->
<svg xmlns="http://www.w3.org/2000/svg" xml:space="preserve" width="8.26772in" height="11.6929in" version="1.0" style="shape-rendering:geometricPrecision; text-rendering:geometricPrecision; image-rendering:optimizeQuality; fill-rule:evenodd; clip-rule:evenodd"
viewBox="0 0 8267.72 11692.91"
 xmlns:xlink="http://www.w3.org/1999/xlink">
 <defs>
  <style type="text/css">
   <![CDATA[
    .fil0 {fill:black;fill-rule:nonzero}
    .fil2 {fill:#423D41;fill-rule:nonzero}
    .fil3 {fill:#EA79A5;fill-rule:nonzero}
    .fil4 {fill:#F395B0;fill-rule:nonzero}
    .fil1 {fill:white;fill-rule:nonzero}
   ]]>
  </style>
 </defs>
 <g id="Слой_x0020_1">
  <metadata id="CorelCorpID_0Corel-Layer"/>
  <g id="_2229483299104">
   <path class="fil0" d="M8070.87 2192.2c0,170.73 -138.86,309.59 -309.55,309.59 -5.22,0 -10.07,-1.3 -15.21,-1.55l-318.21 2683.82c-1.41,11.9 -9.96,21.76 -21.56,24.81l-651.08 173.63c140.38,268.92 234.45,565.27 271.59,882.16 103.44,883.99 -390.25,1606.63 -1354.53,1982.67 -15.17,5.91 -31.2,10.99 -46.54,16.7l500.14 454.35c46.05,-66.47 122.63,-110.24 209.45,-110.24 140.48,0 254.71,114.25 254.71,254.74 0,140.48 -114.23,254.71 -254.71,254.71 -140.53,0 -254.76,-114.23 -254.76,-254.71 0,-15.15 1.92,-29.78 4.48,-44.22l-838.64 0 -234 442.96c2.54,-0.07 4.88,-0.77 7.42,-0.77 140.52,0 254.75,114.27 254.75,254.75 0,140.49 -114.23,254.76 -254.75,254.76 -140.48,0 -254.71,-114.27 -254.71,-254.76 0,-85.3 42.47,-160.47 107.02,-206.7l-778.89 -421.19 -785.33 456.22c68.17,45.76 113.1,123.48 113.1,211.56 0,140.46 -114.27,254.77 -254.74,254.77 -140.48,0 -254.75,-114.31 -254.75,-254.77 0,-128.48 95.88,-233.93 219.71,-251.21l-264.86 -495.58 -924.8 0c0.02,1.47 0.43,2.84 0.43,4.37 0,140.44 -114.27,254.71 -254.74,254.71 -140.48,0 -254.75,-114.27 -254.75,-254.71 0,-140.53 114.27,-254.78 254.75,-254.78 96.31,0 179.26,54.35 222.56,133.36l638.22 -472.67c-69.82,-28.78 -137.43,-59.51 -202.3,-92.24 -790.24,-398.43 -1165.75,-1059.92 -1057.35,-1862.58 34.09,-252.79 101.47,-491.44 197.37,-713.09l-624.44 -166.53c-11.57,-3.09 -20.12,-12.91 -21.54,-24.83l-318.19 -2683.84c-5.16,0.28 -10,1.54 -15.21,1.54 -170.71,0 -309.58,-138.86 -309.58,-309.55 0,-170.67 138.87,-309.55 309.58,-309.55 170.69,0 309.53,138.87 309.53,309.55 0,62.8 -19.03,121.14 -51.34,169.99l2254.49 1072.94c10.2,4.86 16.7,15.15 16.7,26.47l0 467.31c342.53,-127.92 720.49,-197.69 1121.8,-197.69 381.29,0 743.4,64.1 1074.31,181.74l0 -627.02c0,-11.31 6.5,-21.59 16.7,-26.47l2254.49 -1072.9c-32.3,-48.85 -51.37,-107.19 -51.37,-170.03 0,-170.67 138.87,-309.55 309.59,-309.55 170.69,0 309.55,138.87 309.55,309.55z"/>
   <path class="fil1" d="M2886.67 8277.49c383.28,115.23 822.79,176.14 1270.93,176.14 368.09,0 722.72,-41.3 1054.01,-122.76 369.19,-90.8 675.75,-325.76 841.1,-644.55 125.64,-242.35 149.14,-482.12 69.95,-712.61 -171.54,-499.16 -774.22,-809.63 -862.79,-852.96l-1094.28 414.2c-7.07,2.61 -15.01,2.47 -21.95,-0.55l-958.74 -413.92c-748.17,280.1 -1112.59,684.82 -1083.11,1203.11 24.91,436.91 340.33,820.25 784.87,953.9zm2272.31 -1379.5c112.44,-28.72 240.32,-78.71 365.58,-165.05 5.91,4.26 11.47,9.48 17.18,14.29 123.72,-84.79 181.81,-203.28 182.5,-204.8 5.22,-10.93 18.28,-15.6 29.27,-10.38 10.93,5.19 15.6,18.28 10.41,29.2 -3.09,6.56 -61.88,127.05 -189.61,217.17 19.61,21.41 37.48,46 53.39,73.52 95.75,-24.63 128.66,-125.67 130.28,-130.93 3.65,-11.55 15.94,-17.87 27.48,-14.46 11.58,3.61 18.07,15.84 14.5,27.42 -0.45,1.54 -39.41,122.31 -151.72,157.56 25.94,56 44.22,120.31 50.95,190.27 22.3,232.18 -86.2,432.51 -242.35,447.52 -156.15,14.98 -300.79,-161.06 -323.08,-393.21 -8.31,-86.44 1.58,-168.41 25.22,-238.12zm-1003.72 565.81c117.81,0 213.66,75.38 213.66,168.07 0,92.66 -95.85,168.04 -213.66,168.04 -117.84,0 -213.62,-75.38 -213.62,-168.04 0,-92.69 95.78,-168.07 213.62,-168.07zm-323.32 384.72c13.26,-9.24 31.5,-5.94 40.71,7.39 1.17,1.65 116.19,164.6 282.68,173.09 106.88,5.49 214.35,-53.6 318.83,-175.46 10.51,-12.27 29.03,-13.68 41.26,-3.2 12.26,10.55 13.71,29 3.16,41.27 -111.69,130.31 -229.16,196.27 -349.44,196.27 -5.7,0 -11.48,-0.17 -17.21,-0.44 -195.42,-10.2 -322.12,-190.57 -327.45,-198.23 -9.17,-13.3 -5.8,-31.5 7.46,-40.68zm-1320.23 -1141.96c11.54,-3.4 23.87,2.92 27.48,14.46 1.62,5.26 34.53,106.3 130.31,130.93 15.88,-27.52 33.74,-52.11 53.36,-73.52 -127.7,-90.11 -186.48,-210.6 -189.61,-217.17 -5.19,-10.93 -0.48,-24.02 10.41,-29.2 11,-5.22 24.05,-0.55 29.27,10.38 0.69,1.51 58.78,120.01 182.5,204.8 5.74,-4.81 11.3,-10.03 17.21,-14.29 125.23,86.34 253.14,136.32 365.55,165.05 23.67,69.71 33.53,151.68 25.22,238.12 -22.3,232.15 -166.94,408.19 -323.08,393.21 -156.15,-15.01 -264.61,-215.34 -242.35,-447.52 6.74,-69.95 25.01,-134.27 50.98,-190.27 -112.34,-35.25 -151.3,-156.01 -151.75,-157.56 -3.57,-11.58 2.92,-23.81 14.5,-27.42z"/>
   <path class="fil2" d="M5225.59 8387.71c-335.87,82.59 -695.15,124.47 -1067.99,124.47 -453.81,0 -899.11,-61.78 -1287.8,-178.59 -85.07,-25.59 -165.46,-60.11 -240.53,-101.87l-696.75 516.03c0.22,0.79 0.55,1.58 0.75,2.41l950.71 0c10.79,0 20.73,5.95 25.81,15.45l287.63 538.26c15.8,1.96 31.02,5.29 45.78,10.04l834.85 -485.04c8.79,-5.16 19.65,-5.33 28.61,-0.47l828.61 448.03c1.24,-0.45 2.5,-0.75 3.75,-1.17l263.91 -499.54c5.03,-9.58 14.98,-15.61 25.89,-15.61l856.02 0 -541.84 -492.14c-99.04,51.49 -205.35,92.17 -317.42,119.73zm-2766.78 -271.48c-29.35,-13.57 -58.28,-27.43 -86.62,-41.75 -766.26,-386.34 -1130.53,-1026.44 -1025.72,-1802.49 183.19,-1358.09 1339.19,-2306.56 2811.14,-2306.56 1472.3,0 2654.53,969.83 2811.08,2306.05 99.83,853.06 -350.74,1526.6 -1269.35,1901.68 170.43,-119.84 310.23,-276.47 405.33,-459.91 133.34,-257.18 158,-512.49 73.27,-758.82 -192.7,-560.27 -875.56,-878.81 -904.51,-892.12 -7.08,-3.26 -15.27,-3.46 -22.56,-0.75l-1094.93 414.44 -958.63 -413.95c-6.91,-2.99 -14.7,-3.2 -21.78,-0.57 -782.52,290.22 -1163.47,715.99 -1132.15,1265.41 17.62,309.76 173.56,593.44 415.43,789.33zm5302.51 -5673.01c138.42,0 251,-112.6 251,-251.02 0,-138.39 -112.58,-250.96 -251,-250.96 -138.39,0 -251,112.58 -251,250.96 0,138.42 112.61,251.02 251,251.02zm-2470.85 1667.3c623.76,236.43 1131.13,665.71 1436.8,1218.87l644.83 -171.95 316.01 -2665.37c-56.69,-13.85 -107.5,-42.68 -147.18,-82.98l-2250.46 1070.98 0 630.45zm-5035.07 -1742.66c0,138.39 112.61,250.98 251.04,250.98 138.39,0 251,-112.59 251,-250.98 0,-138.39 -112.61,-251 -251,-251 -138.42,0 -251.04,112.61 -251.04,251zm2721.87 1287.87l0 470.75c-659.36,262.11 -1179.59,745.02 -1467.11,1370.46l-614.5 -163.84 -316.02 -2665.37c56.7,-13.89 107.49,-42.72 147.18,-83l2250.46 1071z"/>
   <path class="fil3" d="M4000.19 7631.87c0,-60.37 69.57,-109.53 155.08,-109.53 85.52,0 155.12,49.16 155.12,109.53 0,60.36 -69.6,109.52 -155.12,109.52 -85.51,0 -155.08,-49.16 -155.08,-109.52zm-2312.86 984.99c-108.19,0 -196.2,88.02 -196.2,196.2 0,108.15 88.02,196.17 196.2,196.17 108.16,0 196.19,-88.02 196.19,-196.17 0,-108.19 -88.03,-196.2 -196.19,-196.2zm1479 742.43c-108.19,0 -196.21,88.02 -196.21,196.21 0,108.15 88.02,196.17 196.21,196.17 108.19,0 196.21,-88.02 196.21,-196.17 0,-108.19 -88.02,-196.21 -196.21,-196.21zm2049.75 156.32c0,-108.19 -88.02,-196.2 -196.21,-196.2 -108.15,0 -196.17,88.02 -196.17,196.2 0,108.19 88.02,196.21 196.17,196.21 108.19,0 196.21,-88.02 196.21,-196.21zm923.08 -652.73c0,108.16 88.02,196.18 196.21,196.18 108.15,0 196.17,-88.02 196.17,-196.18 0,-108.19 -88.02,-196.2 -196.17,-196.2 -108.19,0 -196.21,88.02 -196.21,196.2z"/>
   <path class="fil4" d="M3927.08 6021.53l0 188 117.08 0 0 -179.03c39.34,1.86 79.84,2.75 121.07,3.06l0 175.98 58.51 0 0 -175.98c30.61,-0.2 60.71,-0.89 90.32,-1.92l0 177.9 117.09 0 0 -184.67c322.43,-28.21 556.43,-132.58 556.43,-445.43 0,-385.37 -355.07,-697.78 -793.11,-697.78 -438,0 -793.07,312.4 -793.07,697.78 0,302.68 219.47,409.87 525.69,442.09zm600.48 -585.25c57.51,-14.09 126.6,66.34 154.32,179.65 27.73,113.24 3.54,216.51 -53.97,230.57 -57.51,14.08 -126.6,-66.34 -154.33,-179.62 -27.72,-113.3 -3.54,-216.55 53.98,-230.59zm-873.64 179.65c27.72,-113.31 96.81,-193.73 154.33,-179.65 57.55,14.05 81.7,117.29 53.97,230.59 -27.73,113.28 -96.81,193.7 -154.33,179.62 -57.51,-14.06 -81.7,-117.33 -53.97,-230.57z"/>
  </g>
 </g>
</svg>
