<?xml version="1.0" encoding="UTF-8"?>
<!DOCTYPE svg PUBLIC "-//W3C//DTD SVG 1.0//EN" "http://www.w3.org/TR/2001/REC-SVG-20010904/DTD/svg10.dtd">
<!-- Creator: CorelDRAW 2018 (64-Bit) -->
<svg xmlns="http://www.w3.org/2000/svg" xml:space="preserve" width="8.26772in" height="11.6929in" version="1.0" style="shape-rendering:geometricPrecision; text-rendering:geometricPrecision; image-rendering:optimizeQuality; fill-rule:evenodd; clip-rule:evenodd"
viewBox="0 0 8267.72 11692.91"
 xmlns:xlink="http://www.w3.org/1999/xlink">
 <defs>
  <style type="text/css">
   <![CDATA[
    .fil4 {fill:white}
    .fil0 {fill:black;fill-rule:nonzero}
    .fil1 {fill:#423D41;fill-rule:nonzero}
    .fil2 {fill:#EA79A5;fill-rule:nonzero}
    .fil3 {fill:#F395B0;fill-rule:nonzero}
   ]]>
  </style>
 </defs>
 <g id="Слой_x0020_1">
  <metadata id="CorelCorpID_0Corel-Layer"/>
  <g id="_2265423281680">
   <path class="fil0" d="M8070.7 2725.14c-2.99,-81.98 -37.75,-157.92 -98.68,-213.8 -60.93,-55.77 -138.67,-84.82 -223.15,-82.13 -171.95,5.76 -306.87,147.94 -301.27,316.98 0,0.04 0,0.04 0,0.04 2.24,63.69 24.67,122 59.81,169.92l-2290.89 1166.91c-11.02,5.6 -17.79,17.07 -17.41,29.46l16.67 491.44c-326.91,-112.28 -683.74,-173.24 -1058.88,-173.24 -412.98,0 -801.51,72.55 -1152.09,205.51l0 -495.68c0,-12.3 -7.14,-23.47 -18.21,-28.78l-2222.25 -1058.36c30.92,-48.19 49.52,-105.19 49.52,-166.61 0,-170.21 -138.48,-308.7 -308.56,-308.7 -169.96,0 -308.44,138.5 -308.44,308.7 0,170.19 138.48,308.69 308.44,308.69 4.3,0 8.34,-1.09 12.59,-1.31l313.66 2648.01c1.57,12.97 10.79,23.67 23.39,27.02l630.04 168.13c-101.83,226.45 -172.84,471.32 -208.32,730.94 -97.68,714.03 196.35,1314.74 829.74,1716.35 -1.41,0.89 -2.99,1.64 -4.42,2.58 -155,100.4 -242.24,267.22 -227.81,435.39 28.32,328.67 393.59,341.28 448.47,341.28 4.15,0 6.65,-0.08 6.77,-0.08 158.26,0 267.85,-36.45 325.71,-108.37 13.54,-16.7 22.92,-33.78 29.43,-50.15 13.11,7.29 28.6,12.59 46.28,15.81 60.59,11.02 122.49,-3.73 173.47,-41.91 54.73,-41 90.24,-103.83 97.38,-172.35 1.7,-16.56 0.93,-32.74 0.78,-49.03 356.44,91.43 749.15,140.77 1154.44,140.77 382.28,0 752.79,-45.04 1093.56,-129.89 0.26,12.71 -0.63,25.27 0.68,38.16 7.14,68.59 42.64,131.39 97.37,172.4 50.98,38.16 112.62,53.07 173.47,41.86 17.69,-3.21 33.16,-8.52 46.32,-15.81 6.35,16.38 15.84,33.45 29.23,50.15 58.01,71.88 167.48,108.34 324.25,108.34 0,0 0,0 0,0 0.75,0.03 2.99,0.11 7.48,0.11 56.43,0 420.89,-12.91 449.3,-341.28 14.2,-163.65 -68.77,-325.5 -216.05,-426.61 644.78,-402.61 959.52,-1011.44 874.67,-1727.14 -34.77,-294.24 -119.62,-570.97 -245.96,-823.91l638.44 -190.56c12.71,-3.7 21.67,-14.72 22.79,-27.77l232.88 -2693.83c23.92,5.68 48.22,9.56 73.26,9.56 3.73,0 7.48,-0.07 10.84,-0.18 82.99,-2.81 160.36,-37.26 217.17,-96.99 56.82,-59.93 86.72,-138.04 84.11,-220.02z"/>
   <path class="fil1" d="M2220.07 8425.68c-16.94,6.95 -33.72,14.72 -50.46,23.13 -630.93,-387.91 -925.22,-974.01 -829.9,-1671.84 183.5,-1343.97 1341.94,-2282.56 2817.18,-2282.56 1475.35,0 2660.12,959.74 2817.12,2282 103.53,874.52 -387.24,1390.42 -871.3,1682.24 -39.25,-21.29 -78.88,-38.27 -119.62,-51.17 201.47,-270.55 283.34,-539.08 241.48,-801.66 -103.18,-650.33 -913.24,-1024.08 -947.72,-1039.67 -7.52,-3.52 -16.22,-3.7 -24.15,-0.83l-1097.48 410.24 -960.72 -409.72c-7.4,-3.21 -15.86,-3.33 -23.41,-0.6 -599.96,219.71 -967.18,521.18 -1091.5,895.94 -94.38,284.46 -45.23,614.93 140.48,964.5zm5547.5 -5447.14c66.15,-2.27 127.83,-29.72 172.69,-77.26 45.22,-47.44 69.14,-109.23 66.53,-173.96 -1.87,-64.79 -29.9,-124.78 -78.12,-169.07 -48.22,-44.44 -112.13,-67.84 -177.93,-65.37 -136.43,4.59 -243.7,117.26 -239.22,251.15 4.5,133.97 121.11,239.9 256.06,234.52zm-2487.31 1649.06c649.76,239.76 1174.93,685.19 1480.7,1259.94l629.83 -187.95 232.5 -2689.09c-25.42,-12.29 -48.96,-27.57 -70.28,-46.05l-2289.53 1166.15 16.78 497zm-4530.12 -1740.79c0,-135.09 -109.75,-245.02 -244.84,-245.02 -134.97,0 -244.72,109.93 -244.72,245.02 0,135.1 109.75,244.98 244.72,244.98 135.09,0 244.84,-109.88 244.84,-244.98zm2190.93 1273.85l0 500.65c-636.9,258.49 -1141.56,720.93 -1428.14,1317.55l-620.64 -165.6 -311.45 -2628.26c54.73,-13.91 104.15,-41.54 142.8,-80.37l2217.43 1056.04z"/>
   <path class="fil2" d="M4186.01 7975.11c87.66,0 158.75,50.09 158.75,111.65 0,61.56 -71.09,111.65 -158.75,111.65 -87.5,0 -158.75,-50.08 -158.75,-111.65 0,-61.56 71.25,-111.65 158.75,-111.65z"/>
   <path class="fil3" d="M3896.29 6551.57l0 189.62 118.08 0 0 -180.58c39.66,1.91 80.51,2.76 122.08,3.1l0 177.48 59.06 0 0 -177.48c30.8,-0.22 61.23,-0.9 91.02,-1.98l0 179.46 118.2 0 0 -186.26c325.08,-28.45 561.24,-133.74 561.24,-449.26 0,-388.7 -358.24,-703.77 -799.98,-703.77 -441.82,0 -799.95,315.07 -799.95,703.77 0,305.28 221.32,413.41 530.26,445.9zm605.58 -590.29c57.97,-14.2 127.69,66.91 155.64,181.17 27.96,114.23 3.67,218.37 -54.35,232.57 -58.01,14.2 -127.69,-66.91 -155.64,-181.18 -27.96,-114.27 -3.67,-218.41 54.35,-232.57zm-881.1 181.17c27.96,-114.26 97.63,-195.38 155.65,-181.17 58.02,14.17 82.42,118.3 54.46,232.57 -27.92,114.27 -97.63,195.38 -155.65,181.18 -58.12,-14.2 -82.42,-118.34 -54.46,-232.57zm759.65 2429.53c-57.6,33.49 -132.88,36.74 -201.55,8.78 -50.35,-20.52 -112.89,-57.68 -168.39,-124.89 44.96,22.24 100.1,40.07 163.31,42.28 107.43,3.51 212.73,-37.94 314.81,-123.95 -2.73,60.1 -22.73,148.17 -108.18,197.77z"/>
   <path class="fil4" d="M5380.91 8643.15c-53.61,80.18 -75.84,166.67 -66.46,257.06 5.31,50.94 31.73,97.63 72.29,128.01 36.67,27.44 80.63,38.09 123.81,30.2 30.01,-5.48 40.97,-17.35 44.59,-31.06 0.52,-12.66 2.21,-20.74 2.47,-21.72 3.39,-15.87 17.83,-26.83 34.46,-24.93 16.26,1.77 28.48,15.41 28.48,31.67 0,8.03 -0.67,15.69 -1.95,22.95 0,18.76 4.41,50.72 29.39,81.07 44.85,54.73 140.17,83.7 275.29,83.7 15.71,0.44 366.7,10.42 391.74,-282.96 12.71,-144.66 -63.54,-288.95 -198.86,-376.48 -124.47,-80.63 -259.41,-112.59 -400.98,-94.92 -140.43,17.5 -262.24,89.41 -334.27,197.41zm-2442.58 257.06c9.38,-90.39 -12.85,-176.88 -66.42,-257.11 -72.08,-107.9 -193.89,-179.87 -334.37,-197.36 -25.19,-3.13 -50.15,-4.71 -75.02,-4.71 -114.26,0 -223.64,33.35 -325.97,99.63 -135.14,87.53 -211.31,231.82 -198.94,376.48 25.19,293.2 375.77,283.08 390.61,283 137.18,-0.03 232.76,-29.31 277.36,-84.7 24.3,-30.07 28.48,-62 28.48,-80.47 -1.2,-7.14 -1.83,-14.69 -1.83,-22.57 0,-16.26 12.22,-29.95 28.49,-31.67 16.24,-1.9 31.06,9.06 34.46,24.93 0.26,0.97 1.94,9.06 2.46,21.72 3.52,13.71 14.57,25.58 44.6,31.06 43.17,7.86 87.27,-2.76 123.79,-30.24 40.56,-30.38 66.84,-77.03 72.29,-127.98zm271.78 -1307.05c-23.02,240.02 -172.53,422.06 -334.06,406.54 -161.36,-15.52 -273.59,-222.67 -250.58,-462.72 7.03,-72.29 25.91,-138.79 52.67,-196.7 -116.1,-36.49 -156.28,-161.31 -156.8,-162.89 -3.67,-11.96 2.99,-24.64 14.95,-28.37 11.96,-3.52 24.7,3.04 28.48,14.95 1.67,5.45 35.74,109.89 134.71,135.35 16.38,-28.41 34.83,-53.85 55.14,-75.99 -131.99,-93.15 -192.84,-217.73 -195.98,-224.5 -5.45,-11.33 -0.63,-24.82 10.66,-30.19 11.48,-5.42 24.85,-0.6 30.3,10.73 0.8,1.52 60.87,124.05 188.7,211.71 5.97,-4.93 11.7,-10.35 17.79,-14.77 129.52,89.27 261.77,140.96 377.86,170.68 24.61,72.03 34.74,156.8 26.17,246.17zm2189.91 449.89c-161.38,15.52 -311.07,-166.48 -334.07,-406.52 -8.59,-89.33 1.69,-174.12 26.13,-246.19 116.26,-29.72 248.51,-81.41 377.87,-170.68 6.13,4.41 11.96,9.83 17.83,14.8 127.94,-87.68 188.02,-210.17 188.68,-211.74 5.47,-11.33 18.84,-16.15 30.29,-10.73 11.33,5.39 16.15,18.88 10.79,30.2 -3.24,6.77 -63.95,131.35 -196.08,224.5 20.3,22.17 38.76,47.62 55.13,76.02 99.09,-25.5 133.14,-129.89 134.86,-135.35 3.64,-11.96 16.38,-18.47 28.34,-14.95 11.96,3.74 18.73,16.36 14.95,28.32 -0.37,1.57 -40.7,126.47 -156.83,162.91 26.8,57.9 45.67,124.39 52.67,196.68 23.01,240.05 -89.04,447.2 -250.55,462.72zm-1436.48 43.71c0,-96.67 99.87,-175.35 222.47,-175.35 122.75,0 222.49,78.69 222.49,175.35 0,96.69 -99.74,175.34 -222.49,175.34 -122.61,0 -222.47,-78.65 -222.47,-175.34zm191.28 552.98c-87.52,-35.72 -207.28,-114.98 -281.29,-289.88 -5.94,-14.38 -0.74,-31.05 12.48,-39.39 13.31,-8.23 30.58,-5.76 40.97,6.02 0.94,1.15 100.94,113.18 249.8,118.04 105.98,3.22 213.25,-47.78 317.55,-152.14 8.33,-8.41 20.82,-11.48 32.14,-7.84 11.3,3.51 19.62,13.04 21.83,24.67 1.69,9.23 38.61,226.46 -135.9,327.81 -41.35,24.07 -89.57,36.26 -138.87,36.26 -39.67,0 -80.11,-7.81 -118.71,-23.55zm-1157.93 151.43c356.67,93.59 751.85,143.64 1160.01,143.64 384.26,0 756.26,-45.87 1097.09,-132.59 9.11,-67.59 32.77,-132.83 73.85,-194.44 82.46,-123.39 220.69,-205.51 379.44,-225.25 71.4,-8.81 141.25,-5.8 208.92,7.89 202.59,-263.52 285.58,-523.04 245.57,-774.63 -91.57,-575.91 -799.33,-937.65 -899.44,-986.07l-1096.7 409.97c-7.55,2.86 -16,2.69 -23.67,-0.55l-960.83 -409.76c-573.69,212.31 -923.89,498.86 -1041.04,851.87 -107.38,323.59 -0.93,659.33 140.7,923.11 85.18,-25.37 173.58,-33.08 264.75,-21.83 158.78,19.78 296.97,101.86 379.44,225.21 38.72,58.27 61.74,119.8 71.92,183.42z"/>
  </g>
 </g>
</svg>
