<?xml version="1.0" encoding="utf-8"?>
<!-- Generator: Adobe Illustrator 24.0.0, SVG Export Plug-In . SVG Version: 6.00 Build 0)  -->
<svg version="1.1" id="Layer_1" xmlns="http://www.w3.org/2000/svg" xmlns:xlink="http://www.w3.org/1999/xlink" x="0px" y="0px"
	 viewBox="0 0 1296 1728" style="enable-background:new 0 0 1296 1728;" xml:space="preserve">
<style type="text/css">
	.st0{fill:#FEFEFE;}
	.st1{fill:#CA1674;}
	.st2{fill:#151417;}
	.st3{fill:#F094A9;}
</style>
<path class="st0" d="M587.52,1049.3c4.23,0.49,7.41-0.18,9.93-4.36c2.23-3.7,5.28-7.46,8.89-9.65c6.56-3.98,7.88-9.68,8.11-16.5
	c0.2-6.03,0.83-12.06,1.5-18.07c2.14-19.09,19.42-29.48,37.82-18.82c8.6-7.09,14.51-6.97,18.81,0.98
	c3.99,7.37,4.87,15.86-0.17,22.48c-4.12,5.4-3.8,10.32-3.21,15.97c0.24,2.29-0.22,4.77,0.49,6.87c0.9,2.67,2.15,5.61,4.15,7.44
	c5.09,4.66,10.57,8.94,16.15,13.02c2.33,1.7,5.4,3.69,8,3.52c16-1.03,31.98-2.39,47.92-4.11c43.11-4.66,85.09-14.27,125.71-29.58
	c2.79-1.05,5.78-2.22,7.98-4.13c14.39-12.52,27.41-26.27,36.36-43.36c22.04-42.08,23.03-85.85,9.2-130.3
	c-4.4-14.15-10.02-28.35-17.7-40.93c-10.02-16.39-21.09-32.52-37.28-43.97c-7.7-5.45-15.08-11.45-23.2-16.19
	c-7.75-4.52-16.28-7.72-24.46-11.5c-15.08-4.45-29.29-3-43.75,3.79c-37.49,17.61-75.35,34.44-113.17,51.32
	c-2.62,1.17-6.53,1.19-9.24,0.16c-38.07-14.4-75.96-29.28-114.07-43.56c-9.12-3.42-18.89-5.09-28.36-7.56l-8.37,0
	c-20.67,4.19-39.22,13.31-56.96,24.35c-0.9,0.56-2.01,0.79-3.02,1.18c-7.37,5.49-15.51,10.21-21.97,16.62
	c-15.31,15.18-28.7,31.81-38.67,51.33c-9.84,19.25-15.66,39.43-17.41,60.63c-1.81,21.92,1.72,43.44,9.87,63.97
	c12.18,30.67,29.61,54.93,63.66,66.26C488.93,1032.53,537.55,1043.53,587.52,1049.3z M799.5,831.2
	c31.49-9.83,59.03-25.73,79.88-52.05c1.48-1.87,6.26-3.34,8.01-2.35c3.94,2.23,2.32,5.94-0.31,8.78
	c-5.83,6.3-11.48,12.81-17.72,18.7c-3,2.83-4.65,4.53-1.38,8.32c2.19,2.54,3.26,6.04,5.44,10.28c4.37-5.05,8.11-9.45,11.94-13.78
	c2.31-2.62,4.62-5.86,8.66-2.77c4.51,3.45,1.35,6.5-0.87,9.4c-1.69,2.21-3.26,4.75-5.48,6.29c-10.34,7.17-10.1,16.19-7.56,27.52
	c4.42,19.64,2.6,39.26-6.95,57.48c-10.11,19.29-29.36,23.68-46.63,10.46c-15.05-11.53-22.88-27.96-27.4-45.69
	c-2.79-10.92-3.09-22.46-4.56-33.72C794.07,834.17,795.64,832.4,799.5,831.2z M639.16,918.31c7.61-5.86,16.41-8.39,26.97-8.42
	c9.2,0.39,18.72,2.71,26.62,9.64c9.47,8.3,9.95,21.06,1.14,30.05c-13.34,13.62-42.12,14.16-56.15,1.07
	C627.1,940.71,627.62,927.19,639.16,918.31z M430.49,819.2c-1.93-1.53-3.73-3.78-4.5-6.07c-0.66-1.96,0.24-4.44,0.45-6.7
	c2.45,0.25,5.81-0.43,7.17,0.91c4.59,4.54,8.47,9.81,13.33,15.64c2.79-4.82,5.42-8.63,7.16-12.81c0.54-1.3-0.93-3.99-2.2-5.39
	c-5.92-6.51-12.2-12.7-18.12-19.2c-2.43-2.67-4.5-6.48-0.33-8.79c1.71-0.95,6.34,0.55,7.81,2.39
	c20.73,25.95,47.83,42.09,79.06,51.88c4.51,1.41,6.16,3.31,5.96,8.27c-0.89,21.37-4.92,41.79-16.35,60.25
	c-5.58,9-12.33,16.75-21.99,21.66c-14.15,7.19-28.2,3.92-37.2-9.3c-11.29-16.59-13.09-35.32-11.57-54.69
	c0.16-2.08,0.07-4.36,0.89-6.18C446.13,837.59,441.14,827.65,430.49,819.2z M918.26,1205.06c-6.01,4.53-11.39,9.03-17.27,12.74
	c-1.55,0.98-5.6,0.34-6.77-1.04c-1.26-1.48-0.72-4.71-0.5-7.13c0.08-0.91,1.41-1.79,2.31-2.51c20.62-16.61,26.13-63.42,0.65-88.99
	c-1.84-1.84-5.08-3.01-7.75-3.18c-15.54-1-31.12-1.28-46.64-2.47c-10.78-0.83-21.49-2.72-30.52-3.91
	c-6.32,21-12.5,41.51-18.89,62.73c9.65,3.85,19.09,10.67,23.52,22.6c4.38,11.79,3.42,23.3-3.15,34.02
	c-10.57,17.25-33.73,22.91-51.32,12.8c-20.25-11.64-23.7-33.1-10.16-57.99c-24.16-14.73-48.22-29.47-72.42-43.98
	c-1.53-0.92-4.26-0.52-6.19,0.07c-6.37,1.96-12.72,4.08-18.9,6.58c-2.75,1.11-5.95,2.71-7.46,5.04
	c-8.61,13.31-19.53,24.17-32.78,32.76c-39.58,25.68-93.74,26.77-129.08-2.25c-6.7-5.5-12.51-12.08-18.9-18.33
	c-0.48,0.89-0.89,1.42-1.07,2.03c-10.99,36.95-13.11,74.46-6.08,112.32c3.5,18.83,10,36.62,22.64,51.6c2.28,2.7,3.66,6.36-0.13,8.27
	c-2.17,1.09-5.83,0.06-8.46-0.94c-1.16-0.44-1.46-3.18-2.15-4.87c-0.68,0.7-1.35,1.39-2.03,2.09v33.56
	c1.99-0.33,2.93-0.33,3.76-0.64c4.58-1.71,9.22-2.29,10.72,3.56c1.52,5.94-3.78,6.32-7.69,7.61c-6.13,2.03-12.48,3.66-18.28,6.42
	c-32.82,15.6-37.59,67.37-4.54,85.12c5.3,2.85,10.49,6.16,16.14,8.06c48.27,16.29,95,12.15,140.39-10.76
	c12.92-6.52,20.37-16.65,22.68-30.57c1.02-6.14,0.57-12.52,1.15-18.75c1.56-16.59,2.88-33.22,5.24-49.7
	c0.75-5.22,3.81-10.51,7.02-14.87c4.08-5.54,9.87-5.56,14.15-0.19c2.93,3.68,5.68,8.34,6.31,12.86c2.43,17.4,5.75,34.95,5.45,52.38
	c-0.46,26.84,11.56,44,35.08,54.59c22.15,9.97,45.65,14.07,69.65,15.41c23.67,1.32,46.97-0.91,68.86-10.94
	c14.1-6.46,24.72-16.56,29.24-31.84c8.79-29.68-8.85-57.91-40.68-65.51c-3.81-0.91-8.32-1.48-7.22-7.17
	c1.04-5.36,4.77-5.53,9.11-4.19c0.83,0.26,1.81,0.04,3.99,0.04c0.59-11.76,1.17-23.38,1.77-35.46c-1.84,0.38-2.49,0.57-3.15,0.64
	c-2.69,0.27-5.38,0.5-8.07,0.74c-0.06-2.97-0.81-6.14-0.01-8.86c1.09-3.72,3.64-6.98,5.09-10.63
	c18.93-47.87,18.22-96.72,6.24-145.81c-2.99-12.25-8.83-23.82-13.52-35.64c-1.3-3.28-2.38-6.28,1.44-8.42
	c3.92-2.2,6.62-0.33,8.64,3.06c0.71,1.19,1.25,2.48,1.87,3.73c12.84,26.22,19.14,54.15,20.42,83.1c0.87,19.66,0.17,39.4,0.17,60.13
	c5.08,0,11.6,0.61,17.97-0.11c20.56-2.33,37.47-10.74,46.53-30.6C931.34,1228.86,927.22,1211.68,918.26,1205.06z M608,1119.04
	c-3.48,2.76-6.64,1.75-8.87-1.67c-3.84-5.92-7.41-12.02-10.36-16.85c-18.28,10.25-36.25,21.89-55.51,30.69
	c-19.12,8.74-39.54,14.63-59.41,21.78c7.82,10.96,17.9,20.4,30.26,27.27c44.75,24.85,111.02,5.37,135.6-39.61
	c1.35-2.47,4.44-5.51,6.87-5.65c22.18-1.23,34.59-14.14,41.14-33.85c8.42-25.31-1.34-48.93-23.42-57.5
	c-3.62-1.41-7.89-1.26-11.34-2.92c-2.41-1.16-3.92-4.17-5.84-6.35c2.23-1.49,4.36-3.19,6.74-4.37c1.11-0.55,2.72-0.09,6.56-0.09
	c-2.72-11.19-4.6-21.62-7.89-31.58c-2.29-6.94-9.78-10.73-15.42-9.42c-7.07,1.64-9.27,7.18-9.98,13.5
	c-1.1,9.69-1.7,19.44-3.04,29.09c-0.35,2.55-2.06,5.64-4.13,7.1c-25.69,18.17-30.74,46.94-12.35,72.04
	C609.67,1113.45,611.61,1116.17,608,1119.04z"/>
<path class="st1" d="M406.52,1123.76c-15.96-0.22-29.59,13.39-29.72,29.69c-0.13,16.4,13.09,29.97,29.28,30.05
	c16.35,0.08,29.74-13.55,29.86-30.4C436.05,1137.4,422.59,1123.98,406.52,1123.76z M780.68,1177.99
	c-15.87-0.19-29.13,13.46-29.17,30.03c-0.04,15.88,13.32,29.45,29.08,29.53c15.63,0.08,30.05-13.57,30.28-28.67
	C811.13,1192.16,797.49,1178.19,780.68,1177.99z M974.81,1075.09c-14.94,0.24-29.17,15.06-29.05,30.27
	c0.12,15.46,14.06,29.22,29.65,29.29c16.12,0.07,29.79-13.41,29.95-29.53C1005.52,1089.19,990.91,1074.84,974.81,1075.09z
	 M351.94,1018.79c-15.96-0.05-29.28,13.71-29.2,30.15c0.07,15.03,14.08,29.12,29.02,29.19c15.86,0.07,29.73-13.44,29.73-28.96
	C381.48,1032.02,368.66,1018.84,351.94,1018.79z"/>
<path d="M1230.48,149.57c-1.07-12.67-7.8-24.05-17.37-32.28c-13.09-11.25-31.5-16.61-48.05-11.29
	c-28.65,9.22-43.16,47.71-27.74,73.55c-89.41,47.64-178.83,95.28-268.24,142.92c-16.22,8.64-32.99,17.74-43.98,32.48
	c-10.99,14.73-14.43,36.82-2.88,51.12c-95.98-18.91-196.36-15.08-290.62,11.09c-11.38,3.16-28.28,5.09-32.44-9.28
	c-3.55-12.26,3.81-25.3,1.21-37.8c-2.95-14.23-17.66-22.3-30.82-28.49C368.4,294.01,267.25,246.46,166.09,198.9
	c14.78-25.89-0.2-63.72-28.7-72.47c-28.5-8.76-62.13,14.13-64.44,43.86c-2.31,29.72,27.38,57.53,56.89,53.29
	c13.99,122.72,27.99,245.44,41.98,368.16c0.76,6.69,1.75,13.89,6.4,18.77c4.41,4.62,11.09,6.09,17.36,7.32l72.31,14.3
	c-39.02,70.92-44.49,159.4-14.5,234.58c29.99,75.18,94.86,135.61,171.98,160.19c-1.74,11.4-17.92,14.22-28.2,9
	c-10.28-5.22-17.61-15.05-27.8-20.44c-26.01-13.77-62.08,15.7-53.76,43.93c8.32,28.23,54.6,33.45,68.99,7.78
	c22.19,14.4,49.71,20.36,75.87,16.43c4.95,14.96-11.57,28.72-27.05,31.7c-15.47,2.98-32.37,0.7-46.23,8.2
	c-19.58,10.59-24.21,41.08-8.65,57c15.55,15.92,46.15,12.01,57.19-7.31c4.92-8.61,10.06-21.41,19.69-19.05
	c-22.22,56.49-6.83,119.71,2.1,179.75c1.62,10.87,2.88,22.59-2.24,32.31c-5.3,10.07-16.22,15.7-23.99,24.01
	c-23.63,25.3-10.47,70.12,18.16,89.58c28.63,19.47,66,19.75,100.39,15.75c41.44-4.82,90.48-23.15,96.52-64.43
	c3.47-23.67-7.41-53.14,10.95-68.47c-1.77,39.54-1.08,85.07,29.14,110.64c16.72,14.14,39.26,18.92,60.91,22.15
	c37.92,5.66,79.9,7.12,111.06-15.22c31.17-22.34,39.68-76.88,7.06-97.03c59.9,18.57,130.41-4.95,167.17-55.76
	c0.93-1.39,27.17,19.56,30.78,16.49c2.59-2.2,1.93-14.42,2.24-17.8c0.64-6.87,1.19-13.74,1.64-20.63
	c1.74-26.55,2.07-53.18,0.99-79.77c-38.91-0.38-77.86,3.19-116.06,10.65c25.81,15.19,13.24,56.79-10.06,75.6
	c-14.98,12.09-34.51,20.55-53.35,16.58c-18.84-3.97-34.64-23.99-28.93-42.38c32.93-1.46,72.67-15.06,77.45-47.67
	c1.49-10.14-0.9-20.4-3.27-30.37c-7.56-31.76-15.13-63.52-22.69-95.28c8.69-0.96,17.39-1.93,26.08-2.89
	c3.11,23.06,30.96,39.02,52.43,30.05c21.47-8.97,29.68-40.01,15.45-58.42c-14.22-18.41-46.33-18.31-60.43,0.2
	c-20.35-15.31-39.1-32.74-55.85-51.93c78.21-29.14,142.47-93.6,171.39-171.89s21.98-169.04-18.5-242.03
	c32.65-9.1,69.1-21.28,83.56-51.93c5.39-11.43,6.98-24.22,8.5-36.76c13.09-107.91,26.18-215.82,39.27-323.73
	C1203.1,207.78,1233.02,179.55,1230.48,149.57z M351.75,1078.13c-14.94-0.07-28.94-14.15-29.02-29.19
	c-0.08-16.44,13.24-30.2,29.2-30.15c16.72,0.05,29.54,13.23,29.54,30.38C381.48,1064.69,367.62,1078.2,351.75,1078.13z
	 M406.07,1183.5c-16.18-0.08-29.41-13.65-29.28-30.05c0.13-16.29,13.76-29.9,29.72-29.69c16.08,0.22,29.53,13.64,29.41,29.34
	C435.81,1169.95,422.41,1183.58,406.07,1183.5z M974.81,1075.09c16.11-0.26,30.71,14.1,30.55,30.03
	c-0.16,16.13-13.83,29.6-29.95,29.53c-15.6-0.07-29.53-13.83-29.65-29.29C945.64,1090.16,959.87,1075.33,974.81,1075.09z
	 M122.53,211.55c-18.47-0.77-37.01-15.09-36.97-36.22c0.04-22.57,18.38-38.06,38.65-38.82c19.88-0.74,37.7,19.97,36.45,37.27
	C160.6,192.95,141.48,212.34,122.53,211.55z M195.6,599.62c-3.77-0.8-5.44-2.59-5.87-7.01c-1.88-19.28-4.4-38.51-6.73-57.75
	c-2.7-22.21-5.56-44.41-8.15-66.64c-2.09-17.89-3.77-35.82-5.84-53.71c-2.04-17.65-4.42-35.25-6.52-52.89
	c-1.64-13.75-3.04-27.53-4.62-41.3c-1.61-13.98-3.41-27.94-4.95-41.93c-1.7-15.37-3.68-30.74-4.65-46.16
	c-0.71-11.31,6.72-17.27,17.33-13.45c13.26,4.78,26.05,10.95,38.87,16.88c46.55,21.55,93.05,43.22,139.54,64.92
	c17.89,8.35,35.68,16.9,53.52,25.34c25.82,12.21,51.6,24.5,77.51,36.53c8.8,4.09,6.78,12.85,6.78,20.98
	c0,9.88,0.01,19.77,0.01,29.65c0,7.48,1.41,15.41-6.95,18.67c-31.51,12.28-60.54,29.18-87.17,49.9
	c-23.3,18.13-43.86,39.2-62.93,61.82c-17.85,21.17-33.15,43.98-47.21,67.74c-1.32,2.23-6.02,4.14-8.66,3.63
	C244.39,610.09,220.01,604.78,195.6,599.62z M896.67,1118.12c25.48,25.57,19.98,72.39-0.65,88.99c-0.9,0.72-2.22,1.61-2.31,2.51
	c-0.22,2.42-0.76,5.66,0.5,7.13c1.17,1.37,5.22,2.02,6.77,1.04c5.88-3.71,11.27-8.21,17.27-12.74c8.96,6.63,13.08,23.81,6.42,38.39
	c-9.06,19.86-25.96,28.27-46.53,30.6c-6.37,0.72-12.89,0.11-17.97,0.11c0-20.73,0.7-40.47-0.17-60.13
	c-1.28-28.95-7.58-56.89-20.42-83.1c-0.61-1.25-1.16-2.54-1.87-3.73c-2.02-3.39-4.72-5.26-8.64-3.06c-3.82,2.14-2.74,5.15-1.44,8.42
	c4.69,11.82,10.53,23.39,13.52,35.64c11.98,49.09,12.69,97.95-6.24,145.81c-1.44,3.65-3.99,6.91-5.09,10.63
	c-0.8,2.72-0.05,5.89,0.01,8.86c2.69-0.24,5.38-0.47,8.07-0.74c0.66-0.07,1.3-0.26,3.15-0.64c-0.6,12.07-1.18,23.7-1.77,35.46
	c-2.18,0-3.16,0.22-3.99-0.04c-4.34-1.34-8.07-1.17-9.11,4.19c-1.1,5.69,3.41,6.26,7.22,7.17c31.83,7.6,49.47,35.83,40.68,65.51
	c-4.53,15.28-15.14,25.38-29.24,31.84c-21.88,10.03-45.19,12.26-68.86,10.94c-24-1.34-47.51-5.45-69.65-15.41
	c-23.52-10.59-35.54-27.75-35.08-54.59c0.3-17.44-3.01-34.99-5.45-52.38c-0.63-4.53-3.38-9.18-6.31-12.86
	c-4.28-5.37-10.06-5.34-14.15,0.19c-3.22,4.36-6.27,9.65-7.02,14.87c-2.36,16.48-3.69,33.11-5.24,49.7
	c-0.59,6.23-0.13,12.61-1.15,18.75c-2.31,13.92-9.76,24.05-22.68,30.57c-45.38,22.91-92.12,27.05-140.39,10.76
	c-5.64-1.91-10.84-5.21-16.14-8.06c-33.05-17.75-28.28-69.52,4.54-85.12c5.8-2.76,12.14-4.38,18.28-6.42
	c3.9-1.29,9.2-1.67,7.69-7.61c-1.49-5.85-6.14-5.27-10.72-3.56c-0.83,0.31-1.78,0.32-3.76,0.64v-33.56c0.68-0.7,1.35-1.39,2.03-2.09
	c0.69,1.69,0.98,4.43,2.15,4.87c2.64,1,6.29,2.04,8.46,0.94c3.8-1.91,2.42-5.57,0.13-8.27c-12.65-14.97-19.14-32.76-22.64-51.6
	c-7.03-37.86-4.91-75.37,6.08-112.32c0.18-0.6,0.59-1.14,1.07-2.03c6.39,6.25,12.21,12.83,18.9,18.33
	c35.34,29.02,89.5,27.93,129.08,2.25c13.24-8.59,24.17-19.45,32.78-32.76c1.51-2.34,4.71-3.93,7.46-5.04
	c6.18-2.5,12.52-4.62,18.9-6.58c1.93-0.59,4.66-0.99,6.19-0.07c24.2,14.51,48.26,29.25,72.42,43.98
	c-13.53,24.89-10.08,46.35,10.16,57.99c17.59,10.11,40.75,4.45,51.32-12.8c6.57-10.72,7.52-22.23,3.15-34.02
	c-4.43-11.93-13.87-18.75-23.52-22.6c6.39-21.22,12.56-41.73,18.89-62.73c9.03,1.19,19.73,3.08,30.52,3.91
	c15.52,1.19,31.11,1.47,46.64,2.47C891.59,1115.11,894.83,1116.27,896.67,1118.12z M607.62,1110.64
	c-18.39-25.1-13.34-53.87,12.35-72.04c2.07-1.46,3.78-4.56,4.13-7.1c1.34-9.65,1.94-19.4,3.04-29.09c0.72-6.32,2.91-11.86,9.98-13.5
	c5.64-1.31,13.13,2.48,15.42,9.42c3.29,9.96,5.17,20.38,7.89,31.58c-3.84,0-5.45-0.46-6.56,0.09c-2.38,1.18-4.51,2.88-6.74,4.37
	c1.91,2.18,3.43,5.19,5.84,6.35c3.45,1.66,7.72,1.52,11.34,2.92c22.08,8.57,31.84,32.19,23.42,57.5
	c-6.55,19.7-18.97,32.62-41.14,33.85c-2.43,0.13-5.51,3.17-6.87,5.65c-24.58,44.97-90.85,64.45-135.6,39.61
	c-12.36-6.86-22.44-16.31-30.26-27.27c19.86-7.15,40.29-13.04,59.41-21.78c19.26-8.8,37.23-20.44,55.51-30.69
	c2.95,4.83,6.51,10.93,10.36,16.85c2.22,3.42,5.39,4.43,8.87,1.67C611.61,1116.17,609.67,1113.45,607.62,1110.64z M780.68,1177.99
	c16.81,0.21,30.45,14.17,30.19,30.89c-0.24,15.1-14.65,28.74-30.28,28.67c-15.76-0.08-29.13-13.65-29.08-29.53
	C751.55,1191.45,764.81,1177.79,780.68,1177.99z M879.6,1014.36c-2.2,1.91-5.18,3.08-7.98,4.13
	c-40.62,15.31-82.6,24.92-125.71,29.58c-15.94,1.72-31.93,3.08-47.92,4.11c-2.6,0.17-5.67-1.82-8-3.52
	c-5.58-4.08-11.05-8.36-16.15-13.02c-2-1.83-3.25-4.77-4.15-7.44c-0.71-2.11-0.25-4.58-0.49-6.87c-0.58-5.65-0.9-10.57,3.21-15.97
	c5.04-6.62,4.16-15.11,0.17-22.48c-4.3-7.95-10.21-8.08-18.81-0.98c-18.41-10.66-35.69-0.27-37.82,18.82
	c-0.67,6.01-1.3,12.04-1.5,18.07c-0.23,6.82-1.55,12.52-8.11,16.5c-3.62,2.2-6.66,5.95-8.89,9.65c-2.52,4.18-5.7,4.84-9.93,4.36
	c-49.97-5.77-98.58-16.78-146.46-32.71c-34.05-11.33-51.48-35.59-63.66-66.26c-8.15-20.53-11.68-42.05-9.87-63.97
	c1.75-21.2,7.57-41.38,17.41-60.63c9.98-19.51,23.36-36.14,38.67-51.33c6.46-6.41,14.59-11.13,21.97-16.62
	c1.01-0.39,2.12-0.62,3.02-1.18c17.74-11.03,36.3-20.16,56.96-24.35l8.37,0c9.47,2.47,19.24,4.15,28.36,7.56
	c38.11,14.28,76,29.15,114.07,43.56c2.71,1.03,6.62,1.01,9.24-0.16c37.82-16.89,75.68-33.72,113.17-51.32
	c14.46-6.79,28.67-8.24,43.75-3.79c8.18,3.78,16.71,6.98,24.46,11.5c8.12,4.74,15.5,10.74,23.2,16.19
	c16.19,11.45,27.26,27.58,37.28,43.97c7.68,12.58,13.3,26.78,17.7,40.93c13.83,44.45,12.84,88.22-9.2,130.3
	C907.01,988.1,893.99,1001.84,879.6,1014.36z M1050.04,678.85c6.27,21.85,9.78,44.09,11.44,66.82c3.46,47.19-4.46,91.89-25.68,134.3
	c-19.4,38.77-47.31,70.08-82.13,95.45c-8.89,6.48-18.22,12.35-28.47,17.85c22.65-41.34,31.21-84.69,22.94-130.93
	c-1.55-4.33-3.21-8.62-4.78-12.94c1.57,4.32,3.23,8.61,4.78,12.94c-6.47-36-20.3-68.51-44.12-96.74
	c-18.44-21.85-40.06-38.96-66.48-50.09c-19.09-8.04-38.17-10.84-57.76-2.08c-17.99,8.04-35.99,16.05-53.96,24.14
	c-20.08,9.04-40.09,18.26-60.25,27.13c-2.53,1.11-6.12,1.48-8.67,0.6c-10.51-3.61-20.79-7.89-31.19-11.82
	c-30.55-11.56-61.02-23.34-91.73-34.47c-13.56-4.92-28.25-5.94-41.67-1.04c-16.66,6.07-32.91,13.79-48.33,22.57
	c-11.5,6.56-21.4,15.94-32.01,24.06c2.29-1.5,4.61-2.98,6.92-4.45c-2.31,1.48-4.62,2.95-6.92,4.45c-0.46,0.46-0.92,0.92-1.39,1.38
	c0,0,0,0,0,0c-6.99,7.24-14.49,14.06-20.89,21.79c-21.63,26.11-33.21,56.57-37.71,89.93c-3.1,18.57-1.21,36.99,2.95,55.07
	c2.47,10.75,6.76,21.09,10.34,31.58c1.61,4.71,3.46,9.34,5.21,14c-0.56,0.45-1.12,0.89-1.68,1.34c-7.2-5.11-14.64-9.92-21.55-15.39
	c-25.67-20.32-47.73-43.97-64.07-72.5c-15.24-26.6-26.02-54.87-28.9-85.64c-1.43-15.31-3.25-30.76-2.58-46.05
	c1.33-30.37,7.24-59.97,17.55-88.78c10.23-28.58,23.56-55.48,40.61-80.46c9.37-13.74,19.14-27.43,30.34-39.67
	c32.42-35.44,68.6-66.32,111.27-89.26c40.2-21.62,82.63-36.4,127.63-43.46c16.16-2.54,32.63-3.62,49-4.2
	c19.75-0.7,39.55-0.04,59.33-0.19c28.39-0.22,56.18,3.79,83.85,9.99c35.14,7.87,68.24,20.9,99.97,37.56
	c24.09,12.65,46.11,28.42,66.7,46.23c25.04,21.66,47.36,45.8,65.93,73.17C1024.34,611.18,1039.97,643.74,1050.04,678.85z
	 M1156.02,213.59c-1.18,17.01-3.87,33.92-5.98,50.86c-2.08,16.71-4.2,33.41-6.38,50.11c-2.51,19.21-5.14,38.41-7.64,57.63
	c-2.17,16.7-4.19,33.42-6.32,50.12c-2.02,15.79-4.11,31.57-6.16,47.36c-2.14,16.47-4.27,32.94-6.4,49.41
	c-1.9,14.64-3.52,29.33-5.96,43.89c-0.46,2.76-3.7,5.98-6.46,7.29c-19.93,9.39-40.08,18.33-60.14,27.46
	c-4.27,1.94-7.12,1.85-10.14-2.88c-16.36-25.62-35.01-49.46-55.91-71.61c-28.19-29.87-59.85-55.23-95.63-75.33
	c-14.14-7.94-28.9-14.76-43.19-22.45c-2.09-1.12-4.29-4.14-4.43-6.4c-0.52-8.58-0.21-17.2-0.21-25.81c0-8.37-0.44-16.78,0.24-25.1
	c0.25-3.07,2.42-7.29,4.98-8.68c34.41-18.77,69.11-37.01,103.61-55.64c32.46-17.52,64.73-35.39,97.13-53.01
	c31.13-16.92,62.26-33.84,93.52-50.51C1146.2,194.07,1156.93,200.43,1156.02,213.59z M1181.36,190.72
	c-19.93,0-38.57-18.09-37.51-37.93c1.27-23.83,16.76-36.56,36.95-36.66c23.75-0.11,37.56,15.38,37.62,37.19
	C1218.48,176.23,1201.15,189.87,1181.36,190.72z M692.75,919.52c-7.91-6.93-17.43-9.25-26.62-9.64
	c-10.56,0.04-19.36,2.56-26.97,8.42c-11.54,8.88-12.06,22.41-1.42,32.33c14.04,13.09,42.81,12.55,56.15-1.07
	C702.7,940.58,702.22,927.82,692.75,919.52z M688.54,943.25c-6.51,6.84-15.01,8.63-23.43,8.75c-9.28-0.08-17.15-2.24-23.13-8.92
	c-5.3-5.92-4.97-11.47,0.72-17.06c10.89-10.72,35.31-10.38,45.87,0.64C693.63,931.95,693.77,937.76,688.54,943.25z M520.31,831.06
	c-31.23-9.79-58.33-25.92-79.06-51.88c-1.47-1.84-6.1-3.34-7.81-2.39c-4.17,2.31-2.11,6.12,0.33,8.79
	c5.93,6.51,12.2,12.69,18.12,19.2c1.27,1.4,2.74,4.09,2.2,5.39c-1.74,4.18-4.37,7.99-7.16,12.81c-4.85-5.83-8.73-11.09-13.33-15.64
	c-1.36-1.35-4.72-0.67-7.17-0.91c-0.21,2.25-1.11,4.74-0.45,6.7c0.77,2.29,2.57,4.53,4.5,6.07c10.66,8.45,15.65,18.39,9.56,31.87
	c-0.82,1.82-0.73,4.1-0.89,6.18c-1.53,19.37,0.28,38.1,11.57,54.69c9,13.23,23.05,16.5,37.2,9.3c9.67-4.91,16.42-12.66,21.99-21.66
	c11.44-18.46,15.46-38.88,16.35-60.25C526.47,834.37,524.82,832.47,520.31,831.06z M894.02,806.33c-4.04-3.09-6.35,0.15-8.66,2.77
	c-3.82,4.33-7.57,8.73-11.94,13.78c-2.17-4.24-3.25-7.74-5.44-10.28c-3.27-3.8-1.62-5.49,1.38-8.32
	c6.23-5.89,11.88-12.39,17.72-18.7c2.63-2.84,4.25-6.55,0.31-8.78c-1.74-0.99-6.53,0.48-8.01,2.35
	c-20.85,26.32-48.4,42.22-79.88,52.05c-3.86,1.21-5.43,2.98-4.92,6.87c1.47,11.26,1.77,22.8,4.56,33.72
	c4.53,17.73,12.35,34.16,27.4,45.69c17.27,13.23,36.52,8.83,46.63-10.46c9.55-18.22,11.37-37.84,6.95-57.48
	c-2.55-11.33-2.79-20.35,7.56-27.52c2.22-1.54,3.79-4.07,5.48-6.29C895.36,812.82,898.52,809.78,894.02,806.33z"/>
<path class="st2" d="M595.83,625.77c-14.9,6.28-23.42,30.64-15.66,44.81c4.6,8.4,13.08,10.82,21.16,5.71
	c10.96-6.94,15.11-17.68,16.45-32.66c-0.92-2.71-1.94-8.03-4.43-12.53C609.71,624.53,602.76,622.85,595.83,625.77z M277.54,611.22
	c14.06-23.77,29.36-46.57,47.21-67.74c19.07-22.62,39.63-43.69,62.93-61.82c26.62-20.71,55.65-37.62,87.17-49.9
	c5.35-2.08,7.05-5.3,6.98-10.48c-0.11-8.14-0.03-16.29-0.02-24.43c0.01-7.68-0.34-15.38,0.12-23.03c0.34-5.73-1.75-8.97-6.92-11.37
	c-25.9-12.03-51.69-24.32-77.51-36.53c-17.84-8.44-35.63-16.99-53.52-25.34c-46.49-21.7-92.98-43.37-139.54-64.92
	c-12.82-5.94-25.61-12.11-38.87-16.88c-10.6-3.82-18.04,2.14-17.33,13.45c0.97,15.42,2.95,30.79,4.65,46.16
	c1.55,13.99,3.34,27.95,4.95,41.93c1.58,13.76,2.99,27.54,4.62,41.3c2.1,17.64,4.48,35.25,6.52,52.89
	c2.07,17.89,3.76,35.82,5.84,53.71c2.59,22.23,5.45,44.42,8.15,66.64c2.34,19.24,4.86,38.46,6.73,57.75
	c0.43,4.42,2.11,6.21,5.87,7.01c24.41,5.16,48.79,10.47,73.28,15.22C271.52,615.35,276.22,613.44,277.54,611.22z M160.66,173.78
	c1.25-17.3-16.57-38.01-36.45-37.27c-20.27,0.75-38.62,16.25-38.65,38.82c-0.04,21.13,18.5,35.44,36.97,36.22
	C141.48,212.34,160.6,192.95,160.66,173.78z M1134.54,200.29c-31.26,16.67-62.39,33.59-93.52,50.51
	c-32.41,17.62-64.67,35.49-97.13,53.01c-34.49,18.62-69.19,36.87-103.61,55.64c-2.55,1.39-4.72,5.61-4.98,8.68
	c-0.68,8.32-0.23,16.73-0.24,25.1c0,8.61-0.31,17.23,0.21,25.81c0.14,2.26,2.34,5.28,4.43,6.4c14.29,7.68,29.05,14.51,43.19,22.45
	c35.78,20.09,67.44,45.46,95.63,75.33c20.9,22.15,39.55,45.99,55.91,71.61c3.02,4.73,5.87,4.82,10.14,2.88
	c20.06-9.12,40.2-18.06,60.14-27.46c2.76-1.3,6-4.52,6.46-7.29c2.44-14.55,4.06-29.24,5.96-43.89c2.14-16.47,4.26-32.94,6.4-49.41
	c2.05-15.79,4.14-31.57,6.16-47.36c2.14-16.7,4.16-33.42,6.32-50.12c2.49-19.22,5.13-38.41,7.64-57.63
	c2.18-16.7,4.3-33.4,6.38-50.11c2.11-16.94,4.79-33.85,5.98-50.86C1156.93,200.43,1146.2,194.07,1134.54,200.29z M1180.8,116.13
	c-20.2,0.09-35.68,12.82-36.95,36.66c-1.06,19.85,17.58,37.93,37.51,37.93c19.79-0.84,37.13-14.48,37.06-37.4
	C1218.36,131.51,1204.54,116.01,1180.8,116.13z M1050.04,678.85c-10.07-35.11-25.7-67.67-46.16-97.81
	c-18.58-27.37-40.9-51.52-65.93-73.17c-20.59-17.81-42.6-33.58-66.7-46.23c-31.73-16.65-64.83-29.69-99.97-37.56
	c-27.67-6.2-55.47-10.21-83.85-9.99c-19.78,0.15-39.58-0.51-59.33,0.19c-16.37,0.58-32.84,1.66-49,4.2
	c-44.99,7.07-87.42,21.84-127.63,43.46c-42.66,22.94-78.84,53.82-111.27,89.26c-11.2,12.24-20.97,25.93-30.34,39.67
	c-17.04,24.98-30.38,51.88-40.61,80.46c-10.31,28.81-16.23,58.41-17.55,88.78c-0.67,15.29,1.15,30.74,2.58,46.05
	c2.88,30.77,13.66,59.04,28.9,85.64c16.34,28.52,38.4,52.18,64.07,72.5c6.91,5.47,14.35,10.28,21.55,15.39
	c0.56-0.45,1.12-0.89,1.68-1.34c-1.74-4.66-3.6-9.29-5.21-14c-3.58-10.49-7.87-20.83-10.34-31.58c-4.15-18.09-6.04-36.5-2.95-55.07
	c4.5-33.36,16.08-63.83,37.71-89.93c6.4-7.73,13.9-14.55,20.89-21.79c0.46-0.46,0.92-0.92,1.39-1.38
	c10.61-8.12,20.51-17.51,32.01-24.06c15.41-8.79,31.67-16.5,48.33-22.57c13.42-4.89,28.1-3.87,41.67,1.04
	c30.71,11.13,61.18,22.91,91.73,34.47c10.4,3.93,20.68,8.21,31.19,11.82c2.55,0.88,6.14,0.51,8.67-0.6
	c20.16-8.87,40.17-18.08,60.25-27.13c17.97-8.09,35.97-16.1,53.96-24.14c19.59-8.76,38.67-5.96,57.76,2.08
	c26.42,11.13,48.04,28.24,66.48,50.09c23.82,28.23,37.65,60.74,44.12,96.74c8.27,46.24-0.29,89.59-22.94,130.93
	c10.26-5.49,19.59-11.37,28.47-17.85c34.82-25.38,62.74-56.69,82.13-95.45c21.22-42.41,29.13-87.11,25.68-134.3
	C1059.82,722.94,1056.31,700.7,1050.04,678.85z M749.96,685.94c-8.82,11.8-19.98,20.58-34.63,24.45c-1.78,0.47-3.89,3.59-4.05,5.62
	c-0.51,6.68-0.19,13.42-0.19,20.85h-28.2v-24.39c-6.27-1.72-9.48-0.85-8.84,6.19c0.54,5.94,0.11,11.96,0.11,18.19H658.6v-23.61
	h-10.59v23.57h-23.43v-22.79c-7.8-1.14-15.22-1.55-22.28-3.37c-30.49-7.86-48.29-31.77-52.34-64.74
	c-6.45-52.45,29.62-94.45,79.42-105.87c37.27-8.54,71.9-2.26,102.48,21.84C770.34,592.21,778.55,647.69,749.96,685.94z
	 M726.16,628.3c-9.86-7.45-20.55-4.2-24.38,7.47c-4.59,13.97-0.24,26.18,9.27,36.52c4.41,4.79,10.24,8.31,17.41,6.05
	c7.4-2.33,9.9-8.56,11.37-15.38c0.34-1.57,0.26-3.24,0.4-5.32C739.71,646.18,735.94,635.69,726.16,628.3z"/>
<path class="st3" d="M731.85,561.88c-30.58-24.1-65.21-30.39-102.48-21.84c-49.8,11.41-85.87,53.42-79.42,105.87
	c4.06,32.97,21.85,56.88,52.34,64.74c7.06,1.82,14.48,2.23,22.28,3.37v22.79h23.43v-23.57h10.59v23.61h15.55
	c0-6.22,0.43-12.25-0.11-18.19c-0.64-7.04,2.57-7.91,8.84-6.19v24.39h28.2c0-7.43-0.32-14.17,0.19-20.85
	c0.16-2.03,2.27-5.15,4.05-5.62c14.66-3.87,25.82-12.65,34.63-24.45C778.55,647.69,770.34,592.21,731.85,561.88z M601.33,676.29
	c-8.08,5.11-16.56,2.7-21.16-5.71c-7.75-14.17,0.76-38.53,15.66-44.81c6.93-2.92,13.88-1.24,17.52,5.32
	c2.49,4.5,3.51,9.82,4.43,12.53C616.44,658.61,612.29,669.35,601.33,676.29z M739.84,662.96c-1.47,6.82-3.98,13.05-11.37,15.38
	c-7.17,2.26-13.01-1.26-17.41-6.05c-9.5-10.34-13.86-22.55-9.27-36.52c3.83-11.67,14.52-14.91,24.38-7.47
	c9.78,7.39,13.54,17.88,14.08,29.34C740.1,659.72,740.18,661.38,739.84,662.96z M642.69,926.02c-5.69,5.6-6.02,11.14-0.72,17.06
	c5.98,6.68,13.86,8.84,23.13,8.92c8.43-0.12,16.92-1.91,23.43-8.75c5.23-5.49,5.09-11.3,0.02-16.59
	C678,915.64,653.58,915.31,642.69,926.02z"/>
</svg>
