<?xml version="1.0" encoding="UTF-8"?>
<!DOCTYPE svg PUBLIC "-//W3C//DTD SVG 1.0//EN" "http://www.w3.org/TR/2001/REC-SVG-20010904/DTD/svg10.dtd">
<!-- Creator: CorelDRAW 2018 (64-Bit) -->
<svg xmlns="http://www.w3.org/2000/svg" xml:space="preserve" width="8.26772in" height="11.6929in" version="1.0" style="shape-rendering:geometricPrecision; text-rendering:geometricPrecision; image-rendering:optimizeQuality; fill-rule:evenodd; clip-rule:evenodd"
viewBox="0 0 8267.72 11692.91"
 xmlns:xlink="http://www.w3.org/1999/xlink">
 <defs>
  <style type="text/css">
   <![CDATA[
    .fil0 {fill:black;fill-rule:nonzero}
    .fil2 {fill:#423D41;fill-rule:nonzero}
    .fil4 {fill:#EA79A5;fill-rule:nonzero}
    .fil3 {fill:#F395B0;fill-rule:nonzero}
    .fil1 {fill:white;fill-rule:nonzero}
   ]]>
  </style>
 </defs>
 <g id="Слой_x0020_1">
  <metadata id="CorelCorpID_0Corel-Layer"/>
  <g id="_2229239933072">
   <path class="fil0" d="M7104.64 8691.16c5.39,10.48 4.67,22.99 -1.63,32.8l-456.89 714.67c-6.45,10.1 -19.21,15.87 -29.73,15.19 -11.94,-0.8 -22.57,-8.07 -27.83,-18.83l-141.41 -299.17c-60.11,73.7 -203.74,212.3 -468.89,282.37 89.55,90.35 179.51,167.54 246.87,194.57 10.9,3.09 332.68,102.31 425.43,357.92 52.85,145.61 19.91,310.35 -98.01,489.45 -2.98,4.57 -78.93,121.82 -211.24,234.49 -129.09,109.73 -288.41,167.54 -453.69,167.54 -55.22,0 -111.3,-6.46 -166.96,-19.63 -218.11,-51.64 -392.5,-197.53 -478.69,-400.56 -2.28,-5.66 -272.66,-353.09 -469.93,-553.31 -112.56,16.4 -724.49,77.04 -1361.82,-422.74 -105.71,-1.07 -845.63,-20.58 -1184.32,-343.82 -107.57,7 -724.49,15.2 -796.53,-593.37 -4.46,-26.35 -111.1,-683.86 178.13,-900.89 77.57,-58.36 175.74,-77.99 292.43,-61.03 95.47,-128.28 200.49,-224.17 303.5,-295.96 -367.5,-213.54 -675.51,-499.64 -896.18,-837.41 -13.18,3.36 -27.02,5.51 -41.98,5.51 -27.67,0 -57.93,-5.64 -90.05,-17.24 -72.09,-25.66 -146.56,-78.1 -210.04,-147.75 -137.98,-151.67 -177.88,-332.37 -91.03,-411.73 44.37,-40.3 112.39,-47.04 191.45,-18.81 0.55,0.26 1.11,0.53 1.62,0.8 -81.31,-307.35 -86.15,-615.69 -12.36,-918.09 97.63,-398.53 323.24,-738.72 633.73,-999.72l-717.62 -504.75c-8.49,-5.92 -13.71,-15.61 -14.02,-25.99l-56.15 -1930.83c-164.86,-11.67 -295.96,-148.15 -295.96,-315.97 0,-175.32 142.78,-318.11 318.09,-318.11 175.49,0 318.16,142.78 318.16,318.11 0,48.16 -11.41,93.3 -30.66,134.2l1650.23 1314.07c7.8,6.19 12.36,15.74 12.36,25.71l0 773.1c385.64,-65.85 802.33,-54.95 1221.87,47.77 203.02,49.59 400.15,119.24 586.49,207.17 1.08,-0.91 2.17,-1.84 3.36,-2.65 0.16,0 0.16,-0.17 0.27,-0.28l1653.76 -1162.02c-10.52,-30.39 -17.37,-62.38 -17.37,-96.29 0,-163.87 133.27,-297.14 297.06,-297.14 163.76,0 297.14,133.27 297.14,297.14 0,163.77 -133.38,297.04 -297.14,297.04 -0.28,0 -0.55,0 -0.82,0l-190.56 2010.74c-1.04,10.74 -7.38,20.29 -16.76,25.66l-415.4 231.7c169.85,395.31 208.72,812.25 112.02,1207.59 -24.74,101.64 -59.83,202.5 -103.23,300.78 37.11,-1.08 75.67,0.93 116.03,6.19 210.81,27.83 382.26,176.67 426.63,370.7 24.47,107.19 10.21,215.13 -42.48,320.81 -73.17,147.24 -214.75,249.96 -378.52,274.97 -77.74,11.98 -149.28,9.83 -213.12,-6.3 -35.92,76.64 -161.65,297.58 -523.2,600.11 93.04,88.86 356.18,397.83 251.85,955.73 166.21,19.63 399.9,13.71 687.76,-81.76l-66.98 -232.22c-2.94,-10.35 -0.8,-21.24 5.95,-29.71 6.57,-8.33 16.93,-13.57 27.52,-12.23l782.05 43.84c11.54,0.66 22.06,7.52 27.43,17.88zm-6430.04 1083.76c108.65,70.58 231.95,124.65 361.06,176.13 -139.04,2.43 -279.8,-25.4 -410.8,-86.17 -130.84,-59.19 -250.34,-159.75 -325.8,-289.09 -76.37,-128.96 -106.76,-279.41 -101.64,-422.22 5.09,-143.2 40.34,-283.43 108.91,-405.12 -16.42,137.67 -20.18,272 -6.57,401.49 13.95,129.22 49.98,252.26 112.67,358.89 30.66,53.93 70.05,102.19 114.02,146.56 20.96,23.37 46.13,42.62 69.92,63.73 26.2,17.89 50.56,39 78.23,55.8zm397.62 -356.45c-53.93,-47.61 -100.73,-102.06 -139.3,-161.63 -80.55,-117.11 -128.03,-255.75 -151.02,-401.23 -21.77,-145.89 -22.02,-298.09 -4.67,-453.15 -70.09,140.8 -101.11,300.94 -97.37,462.28 3.11,161.5 51.37,326.49 143.75,465.38 92.91,138.64 227.88,245.26 375.26,309.8 147.11,66.56 304.69,99.09 461.35,100.44 -146.45,-55.13 -287.23,-114.02 -413.34,-191.34 -62.82,-38.73 -122.22,-81.21 -174.67,-130.55zm6947.98 -3881.86c-56.1,-139.04 -156.94,-254.56 -273.39,-337.5 -116.85,-83 -249.54,-140.39 -387.76,-159.87 119.12,70.74 228.04,149.23 322.54,238.94 94.12,89.79 169.83,193.19 216.38,307.75 24.19,57.01 38.46,117.8 46.93,179.65 5.9,30.81 5.9,62.52 8.18,94.12 -1.88,31.72 0.27,63.87 -3.36,96.13 -9.93,129.25 -42.09,259.93 -79.72,393.71 86.44,-108.93 150.03,-237.59 181.39,-378.48 32.65,-139.84 25.55,-295.85 -31.19,-434.45zm-796.15 -130.18c-125.75,-101.11 -271.76,-173.85 -426.1,-203.81 133.65,80.51 254.25,173.28 356.84,279.26 101.37,106.76 182.59,228.7 226.56,363.81 23.81,66.98 38.59,137.18 43.57,208.96 7.41,71.55 4.98,144.56 -2.56,218.11 -15.34,147.11 -54.2,294.61 -99.38,444.38 94.12,-125.05 164.04,-269.99 200.76,-427.18 38.35,-156.35 35.9,-328.35 -17.62,-486.47 -54.16,-157.7 -155.86,-296.34 -282.08,-397.07zm-4964.43 2335.71c67.91,77.85 149.67,203.98 159.33,368.16 53.54,2.81 162.3,15.89 258.3,74.1 -20.43,-115.65 -48.65,-327.69 -31.99,-535.3 -130.68,30.5 -262.18,62.4 -385.64,93.04z"/>
   <path class="fil1" d="M1597.26 5878.4c108.38,122.06 296.22,109.15 419.68,-28.8 45.84,-51.37 76.37,-112.78 90.87,-176.02 -69.61,-99.88 -141.04,-224.8 -193.87,-372.02 -6.57,-1.5 -13.3,-2.01 -20.02,-2.98 -35.91,-113.75 -27.06,-204.5 -26.9,-205.7 1.08,-9.43 -5.37,-20.18 -14.38,-23.97 -9.01,-3.74 -17.08,0.81 -18.17,10.24 -0.54,5.26 -9.67,98.02 26.74,216.87 -25.93,-0.39 -52.14,3.09 -78.11,10.36 -59.41,-85 -37.22,-175.75 -36.02,-180.31 2.66,-10.2 -3.48,-23.27 -13.57,-29.3 -10.24,-5.95 -20.6,-2.55 -23.27,7.65 -0.43,1.47 -26.74,109.31 39.77,213.39 -45.03,18.4 -88.32,48 -125.57,89.67 -123.3,138.1 -135.4,348.79 -27.17,470.89zm732.95 498.45c23.15,37.49 60.91,68.69 106.64,87.66 30.38,12.76 62.11,19.21 92.5,19.21 15.46,0 30.53,-1.63 44.91,-4.99 46.11,-10.74 81.63,-38.57 97.36,-76.33 32,-76.53 -21.1,-169.07 -120.75,-210.73 -45.72,-19.09 -94.5,-24.2 -137.41,-14.22 -46.11,10.74 -81.63,38.57 -97.36,76.49 -15.85,37.8 -10.63,82.56 14.11,122.91zm1471 470.74c183.56,15.31 365.61,-138.22 406.77,-342.88 12.37,-61.72 9.93,-120.63 -3.79,-173.58 139.03,-10.24 218.5,-107.45 219.43,-108.81 7.42,-9.27 3.52,-21.1 -8.7,-26.2 -12.25,-5.11 -28.25,-1.89 -35.79,7.54 -3.37,4.18 -70.19,85.5 -187.15,89.56 -11.06,-28.64 -25.7,-54.73 -43.6,-78 131.65,-47.46 209.65,-118.19 214.09,-122.22 7.77,-7.26 6.3,-17.78 -3.09,-23.27 -9.55,-5.53 -23.43,-4.17 -31.35,3.21 -0.93,0.97 -77.03,70.19 -203.96,114.72 -5.41,-5.37 -10.36,-11.01 -16.16,-16 -168.59,52.02 -329.7,72.05 -466.98,76.49 -47.16,55.97 -82.02,125.04 -97.33,201.3 -41.13,204.66 74.21,382.96 257.61,398.15zm-1206.78 542.28c-566.2,-233.15 -1030.76,-625.92 -1309.24,-1118.57 -176.8,-312.92 -163.76,-693.95 33.24,-970.81 177.45,-249.42 464.4,-407 852.89,-468.3l482.57 938.65c6.18,11.94 18.82,18.83 32.39,17.74l1345.27 -128.83c90.37,60.91 811.49,571.04 830.16,1341.67 6.07,246.6 -163.88,470.58 -404.06,532.85 -451.65,116.96 -942.94,116.96 -1420.83,0.11 -31.19,-7.53 -61.69,-16.38 -92.38,-24.85 87.7,-17.08 165,-73.28 201.03,-156.27 44.52,-102.31 59.18,-248.87 42.36,-441.02l-8.46 -31.46c-0.66,-2.17 -1.89,-3.9 -2.82,-5.8 -0.66,-1.47 -1.08,-2.94 -2.01,-4.18 -7,-10.2 -19.37,-16.12 -32.28,-13.95 -0.27,0 -0.43,0 -0.54,0.11l-0.15 0c-0.12,0 -0.27,0 -0.54,0 -241.34,39.39 -465.48,7.26 -577.76,-15.31 -60.91,-12.41 -116.46,-31.46 -165.24,-56.74 -0.15,0 -0.27,0 -0.42,0 -164.15,-110.66 -162.57,-160.71 -160.56,-169.56 4.98,-22.07 49.9,-35.52 69.53,-38.34 18.02,-2.55 30.54,-19.21 28.1,-37.22 -2.55,-17.9 -18.94,-30.38 -37.11,-27.98 -11.02,1.47 -108.11,16.66 -124.65,88.63 -14.92,64.4 41.7,138.06 176.29,230.87 0.15,5.91 0.27,12.76 0.81,21.37 5.1,95.47 39.27,365.99 244.43,537.18zm-1503.78 -1463.19c-15.89,-8.47 -31.62,-15.62 -47.19,-21.26 -24.78,-8.73 -47.62,-13.18 -67.64,-13.18 -23.81,0 -43.56,6.3 -57.28,18.7 -50.29,45.96 -23.54,188.08 95.31,318.65 56.35,61.72 121.41,107.99 183.56,130.18 26.47,9.55 51.09,13.68 72.04,12.91 -13.95,-22.88 -28.37,-45.61 -41.55,-68.99 -54.96,-97.21 -92.22,-200.76 -113.06,-305.77 -6.72,-19.37 -14.26,-38.42 -20.6,-58.09 -1.31,-4.29 -2.28,-8.7 -3.59,-13.14zm4507.35 3876.2c-164.42,141.72 -169.95,364.78 -170.07,374.2 -0.31,18.15 14.22,33.2 32.39,33.47 0.12,0 0.27,0 0.54,0 17.86,0 32.55,-14.39 32.93,-32.4 0,-2.02 4.83,-202.77 147.11,-325.4 93.73,-80.8 226.69,-110.52 395.83,-88.06 17.47,2.41 34.59,-10.22 36.99,-28.37 2.43,-18.01 -10.36,-34.56 -28.37,-36.98 -188.39,-24.88 -338.97,9.95 -447.35,103.54zm122.22 833.78c-6.57,17.07 1.89,36.04 18.86,42.64 4.02,1.46 7.93,2.14 11.79,2.14 13.18,0 25.7,-7.94 30.81,-20.97 2.17,-5.64 220.78,-559.22 679.85,-559.22 18.13,0 32.93,-14.66 32.93,-32.95 0,-18.15 -14.8,-32.81 -32.93,-32.81 -504.64,0 -731.87,576.71 -741.3,601.17zm234.66 -4103.04c0.93,-0.15 1.74,-0.93 2.67,-1.08 47.62,-5.64 98.83,-4.98 153.56,2.17 183.67,24.2 332.79,152.75 370.98,320 20.98,91.99 8.46,185.14 -37.11,276.86 -63.74,128.01 -186.92,217.42 -329.58,239.21 -79.46,12.22 -150.58,8.04 -211.62,-12.25 -17.08,-5.92 -35.52,3.36 -41.55,20.44 -0.81,2.4 -93.19,254.13 -544.72,624.3 -7.65,6.46 -12.1,16 -11.94,25.94 0.12,10.09 4.68,19.52 12.64,25.7 4.02,2.94 393.93,314.09 248.72,967.43 -2.13,9.41 0,19.22 5.95,27.03 16.66,21.93 411.56,537.97 630.48,625.37 3.09,0.93 304.11,94.26 385.36,318.68 45.3,125.05 14.65,269.85 -91.45,430.8 -0.66,1.21 -74.21,114.16 -198.71,220.25 -156.15,132.85 -361.2,181.53 -562.88,133.92 -197.4,-46.65 -355.25,-178.7 -433.09,-362.1l-30.23 12.91 0 0 26.59 -21.79c-1.08,-2.83 -2.67,-5.51 -4.56,-7.93 -2.82,-3.78 -286.68,-368.43 -487.67,-569.31 -7.69,-7.67 -18.83,-11.16 -29.34,-9.01 -6.46,1.21 -665.97,116.19 -1335.18,-413.86 -5.8,-4.71 -13.06,-7.13 -20.45,-7.13l0 0c-0.15,0 -0.15,0 -0.15,0 -10.59,0 -828.38,-3.5 -1160.09,-335.21 -6.99,-6.99 -16.81,-10.63 -26.78,-9.41 -27.29,2.69 -669.06,64.14 -740.18,-536.22 -0.96,-5.65 -83.37,-518.07 83.87,-764.01 -25.67,38.3 -40.74,84.3 -40.74,133.77 0,132.73 107.99,240.69 240.69,240.69 132.61,0 240.56,-107.95 240.56,-240.69 0,-29.03 -5.91,-56.47 -15.34,-82.29 57.28,-14.65 118.89,-30.38 183.56,-46.5 65.21,68.57 166.86,203.81 166.86,382.26 0,9 3.63,17.47 10.09,23.65 6.45,6.18 14.65,9.28 23.93,9.28 1.47,-0.12 194.57,-4.29 311.57,108.53l124.62 270.52c5.68,12.11 17.51,19.23 29.99,19.23 4.56,0 9.28,-0.95 13.72,-3.09 16.54,-7.54 23.81,-27.16 16.16,-43.71l-126 -273.36c-7.38,-34.02 -71.66,-339.09 -45.3,-620.24 73.4,-16.81 145.99,-33.08 216.07,-48.28l984.76 812.69c-29.84,40.05 -48.12,89.26 -48.12,143.05 0,132.72 107.84,240.54 240.57,240.54 132.69,0 240.64,-107.83 240.64,-240.54 0,-106.37 -69.77,-195.77 -165.51,-227.51l323.94 -667.05c95.04,-26.51 188.77,-69.65 278.6,-130.18l766.54 -516.85c8.19,-5.64 13.45,-14.53 14.38,-24.46 0,-0.15 0.27,-2.01 0.43,-3.91 0.12,-0.65 0.27,-1.78 0.39,-2.55 0.27,-2.71 0.81,-6.07 1.47,-10.36 0,-0.65 0.15,-1.35 0.27,-2.16 12.64,-79.31 81.24,-383.89 387.68,-422.19zm-4374.94 1219.69c19.21,-27.83 40.85,-53.14 67.1,-72.89 55.77,-41.79 126.12,-59.3 209.88,-53 -6.34,9.59 -12.49,19.68 -18.83,29.49 -19.21,-4.98 -39,-8.5 -59.71,-8.5 -82.41,0 -155.03,41.7 -198.44,104.9z"/>
   <path class="fil2" d="M2807.28 2638.81l0 769.01c-403.26,78.93 -769.24,242.96 -1065.04,475.85l-719.94 -506.38 -55.64 -1914.56c85.26,-12 159.48,-57.17 209.22,-122.91l1631.41 1299zm3617.37 6415.93c6.34,-10.48 19.39,-16.13 29.88,-16.13 12.22,0.53 23.12,7.8 28.38,18.81l139.82 295.56 394.53 -617.04 -679.46 -38.18 62.8 217.81c4.84,16.95 -4.33,34.57 -20.84,40.34 -297.83,103.67 -541.07,116.31 -718.68,99.38 51.75,65.21 153.56,190.39 263.38,307.22 363.19,-84.57 498.45,-304.81 500.19,-307.77zm-4453.01 -1307.62c206.24,-53.11 538.1,-136.63 848.66,-205.75 -194.41,-61.17 -379.17,-140.1 -551.94,-234.76 -125.47,82.56 -256.15,201.95 -368.55,375.96 28.11,16.55 52.57,38.31 71.82,64.56zm2134.41 553.04c2.67,0 5.22,0.66 7.93,0.8l317.45 -654.02 -80 -21.39c-193.5,40.74 -392.74,62.4 -594.43,62.4 -232.1,0 -466.83,-27.83 -699.05,-81.76l902.2 744.5c40.63,-31.19 90.9,-50.55 145.91,-50.55zm640.96 -838.79c-25.55,17.24 -51.37,32.54 -77.44,46.8 162.71,-112.94 263.02,-300.94 258.03,-508.26 -20.71,-853.67 -861.5,-1396.53 -869.98,-1401.73 -6.19,-4.04 -13.3,-5.54 -20.67,-5.11l-1334.68 127.75 -483.11 -939.89c-6.44,-12.53 -20.01,-18.94 -34.17,-17.48 -418.67,61.47 -728.34,229.25 -920.21,498.84 -92,129.07 -146.56,279.14 -163.66,435.1 -48.43,-253.44 -43.02,-506.65 17.75,-755.53 275.12,-1123.13 1603.3,-1766.41 2960.41,-1434.28 204.76,50.29 403.13,121.56 590.43,211.11l-23.81 825.71c-0.53,18.17 13.84,33.33 32.01,33.91 18.94,0.49 33.35,-13.88 33.85,-32.05l24.34 -847.37 0 -0.11 0.28 -6.34 1630.75 -1145.99c41.29,65.87 107.14,114.42 184.98,132.32l-189.04 1995.22 -730.35 407.31c-16.02,8.86 -21.69,28.91 -12.8,44.76 6.06,10.9 17.2,16.93 28.8,16.93 5.37,0 10.85,-1.35 16,-4.16l271.34 -151.41c161.76,380.25 199.52,780.15 107.03,1159.19 -26.92,109.7 -65.37,218.62 -114.57,324.17 -343.54,54.62 -415.35,402.6 -427.33,482.07l-754.18 508.5zm-3824.08 -6060.22c139.2,0 252.29,-113.09 252.29,-252.28 0,-139.15 -113.09,-252.24 -252.29,-252.24 -138.99,0 -252.24,113.09 -252.24,252.24 0,139.19 113.25,252.28 252.24,252.28zm5695.53 1219.8c127.43,0 231.24,-103.81 231.24,-231.3 0,-127.43 -103.81,-231.24 -231.24,-231.24 -127.48,0 -231.15,103.81 -231.15,231.24 0,127.48 103.67,231.3 231.15,231.3z"/>
   <path class="fil3" d="M2848.68 6950.98c81.09,0 173.08,-7.43 274.85,-24.35 14.38,173.85 1.47,308.59 -38.46,400.43 0,0 0,0 -0.11,0 -41.56,95.85 -156.78,145.21 -262.33,112.67 -334.57,-103.78 -394.79,-440.2 -405.42,-570.23 70.85,32.39 213.01,81.48 431.47,81.48zm623.26 -1735.23c-52.99,0 -96.01,-84.57 -96.01,-189.04 0,-104.32 43.02,-188.89 96.01,-188.89 52.95,0 96.01,84.57 96.01,188.89 0,104.47 -43.06,189.04 -96.01,189.04zm-627.28 -318.91c-48.28,92.49 -125.46,147.77 -172.39,123.3 -47.04,-24.46 -46.11,-119.44 2.17,-211.93 48.16,-92.65 125.31,-147.76 172.39,-123.3 46.92,24.46 45.95,119.28 -2.17,211.93zm455.7 -611.81c-380.69,-93.15 -755.68,102.85 -837.7,437.8 -64.28,263.03 103.55,402.87 362.9,496.02l-39.93 163.38 101.77 24.89 38.07 -155.57c33.74,9.93 68.72,19.36 104.47,28.37l-37.37 152.87 50.82 12.49 37.5 -152.87c26.63,6.34 52.83,12.09 78.81,17.46l-37.76 154.65 101.77 24.85 39.27 -160.41c286.26,43.98 511.75,2.98 578.31,-268.9 82.02,-334.95 -160.14,-682.01 -540.93,-775.04z"/>
   <path class="fil4" d="M1778.38 8063.91c96.28,0 174.82,-78.39 174.82,-174.82 0,-96.39 -78.54,-174.78 -174.82,-174.78 -96.4,0 -174.78,78.39 -174.78,174.78 0,96.43 78.38,174.82 174.78,174.82zm2502.46 476.93c0,-96.41 -78.38,-174.82 -174.78,-174.82 -96.28,0 -174.67,78.41 -174.67,174.82 0,96.27 78.39,174.8 174.67,174.8 96.4,0 174.78,-78.53 174.78,-174.8zm-1894.55 -2198.43c-7.92,-13.07 -19.75,-38.46 -9.43,-63.2 10.25,-24.62 36.72,-34.17 51.52,-37.53 9.28,-2.13 19.37,-3.36 29.72,-3.36 21.76,0 45.19,4.87 67.37,14.14 63.46,26.48 102.58,83.49 85.38,124.5 -10.24,24.74 -36.72,34.17 -51.52,37.65 -29.18,6.73 -64.51,2.82 -97.09,-10.9 -32.51,-13.56 -60.22,-35.91 -75.95,-61.3z"/>
  </g>
 </g>
</svg>
