<?xml version="1.0" encoding="UTF-8"?>
<!DOCTYPE svg PUBLIC "-//W3C//DTD SVG 1.0//EN" "http://www.w3.org/TR/2001/REC-SVG-20010904/DTD/svg10.dtd">
<!-- Creator: CorelDRAW 2018 (64-Bit) -->
<svg xmlns="http://www.w3.org/2000/svg" xml:space="preserve" width="8.26772in" height="11.6929in" version="1.0" style="shape-rendering:geometricPrecision; text-rendering:geometricPrecision; image-rendering:optimizeQuality; fill-rule:evenodd; clip-rule:evenodd"
viewBox="0 0 8267.72 11692.91"
 xmlns:xlink="http://www.w3.org/1999/xlink">
 <defs>
  <style type="text/css">
   <![CDATA[
    .fil0 {fill:black;fill-rule:nonzero}
    .fil2 {fill:#423D41;fill-rule:nonzero}
    .fil3 {fill:#EA79A5;fill-rule:nonzero}
    .fil4 {fill:#EC79FD;fill-rule:nonzero}
    .fil5 {fill:#F395B0;fill-rule:nonzero}
    .fil1 {fill:white;fill-rule:nonzero}
   ]]>
  </style>
 </defs>
 <g id="Слой_x0020_1">
  <metadata id="CorelCorpID_0Corel-Layer"/>
  <g id="_2265468933952">
   <path class="fil0" d="M6909.52 8735.4c143.3,453.94 -319.87,935.7 -339.78,955.99 -200.8,200.78 -416.54,167.33 -562.31,103.93 -77.11,-33.6 -148.29,-88.78 -217.92,-168.67 -176.56,-202.44 -462.54,-190.78 -543.98,-182.78l0 317.81c98.22,31.12 191.79,65.28 232.51,104.42 108.8,103.74 115.33,278.71 15.54,398.29 -156.05,187.32 -470.62,215.2 -644.07,215.2 -68.39,0 -115.02,-4.29 -121.23,-4.91l-0.32 0c-515.7,0 -638.8,-241.54 -666.16,-385.52 -12.11,-63.51 -3.41,-132.11 26.74,-209.64 52.55,-135.13 21.14,-467.77 13.38,-539.63 -37.94,-20.5 -70.57,-44.3 -98.87,-70.29 -106.62,43.82 -240.29,80.26 -391.98,80.29 -230.33,0 -501.41,-83.99 -778.69,-353.54l-225.36 191.99c-7.47,6.46 -18.03,8.11 -27.36,4.28 -9.02,-3.8 -15.55,-12.4 -16.18,-22.31l-71.19 -878.97c-0.93,-8.55 2.8,-16.95 9.33,-22.48 6.53,-5.5 15.55,-7.52 23.63,-5.28l807.6 212.72c9.33,2.41 16.46,9.6 18.96,18.81 2.48,9.19 -0.3,19.01 -7.15,25.67l-207.95 204.36c53.15,79.01 290.94,386.64 722.41,305.4 -36.06,-126.59 -31.09,-258.25 -18.66,-351.97 9.95,-74.51 34.51,-147.09 73.36,-216.76 -65.28,-96.3 -92.32,-195.32 -79.89,-295.94 14,-113.46 75.86,-214.14 152.32,-298.7 -37.3,6.81 -73.36,12.87 -106.62,18.18 0,0.04 0,0.1 0,0.14 0,105.22 -85.49,190.86 -190.86,190.86 -105.38,0 -190.87,-85.64 -190.87,-190.86 0,-105.22 85.49,-190.85 190.87,-190.85 51.6,0 98.24,20.76 132.73,54.13l244.02 -189.72c-836.49,-64.07 -1376.44,-459.78 -1604,-1179.22 -46.32,-146.69 -69.93,-296.09 -73.66,-445.74l-723.36 -24.57c-9.95,-0.29 -18.66,-6.04 -23.01,-14.86l-995.98 -2051.76c-23.62,18.28 -49.73,33.92 -79.57,44.11 -29.54,10.02 -60,15.01 -90.16,15.01 -42.27,0 -84.22,-9.67 -123.09,-28.81 -66.83,-32.91 -116.88,-89.86 -140.82,-160.43 -23.93,-70.53 -19.28,-146.23 13.98,-213.11 32.64,-66.86 89.54,-116.91 160.1,-140.91 70.56,-24.02 146.41,-19.08 213.25,13.74 66.83,32.94 116.88,89.89 140.81,160.45 13.36,38.65 16.78,78.1 13.06,116.32l2237.83 120.46c10.86,0.59 20.19,7.69 23.61,17.91l175.01 514.58c287.23,-246.93 640.05,-447.31 1041.68,-574.11 290.64,-91.76 586.27,-138.74 875.36,-142.22l-161.95 -283c-5.28,-8.87 -4.65,-19.87 1.25,-28.27l1062.49 -1531.19c-41.96,-22.48 -78.96,-55.83 -106,-99.13 -39.79,-63.88 -52.54,-139.42 -35.44,-212.78 16.78,-73.36 61.55,-135.72 125.26,-175.58 132.13,-82.15 306.2,-41.9 388.57,89.94 82.06,131.89 41.97,306.06 -89.84,388.37l678.91 1845.16c3.1,8.5 1.85,17.98 -3.73,25.18l-345.06 454.82c277.9,217.4 478.09,498.24 580.67,823.84 180.93,573.46 72.13,1180.23 -298.09,1664.65l0 -0.04c-70.88,92.71 -150.15,179.12 -236.88,259.79 -4.05,3.88 -8.08,8 -12.13,11.84 -2.18,1.92 -4.35,3.64 -6.53,5.57 -37.6,34.22 -76.46,67.49 -116.88,99.4 -1.55,1.03 -2.8,2.02 -4.03,3.06 -37.92,29.69 -77.09,58.19 -116.88,85.82 -7.47,4.98 -14.3,10 -21.76,14.9 -39.17,26.45 -79.59,52 -120.93,76.5 -11.81,7 -23.94,13.65 -36.06,20.48 -31.7,17.98 -63.71,35.32 -96.35,52.14 -0.63,0.27 -1.25,0.56 -1.57,0.81l207.67 68.6c31.07,-62.92 95.42,-106.66 170.33,-106.66 105.07,0 190.86,85.61 190.86,190.83 0,105.26 -85.79,190.87 -190.86,190.87 -60.3,0 -113.46,-28.56 -148.27,-72.23 -149.52,46.78 -352.51,63.85 -454.46,69.6 74.61,83.72 132.73,175.23 175.31,253.31 28.91,-17.56 62.48,-28.26 98.54,-28.26 105.37,0 190.86,85.61 190.86,190.83 0,105.26 -85.49,190.9 -190.86,190.9 -105.07,0 -190.87,-85.64 -190.87,-190.9 0,-3.69 0.93,-7.15 1.25,-10.81 -4.67,-2.13 -9.02,-3.98 -13.37,-6.07 15.85,240.54 -32.64,440.61 -52.53,510.52 161.95,49.43 307.12,130.9 373.02,170.84 15.23,-81.63 73.98,-132.45 172.53,-147.95 188.69,-29.94 376.13,92.29 436.75,283.81zm516.94 -213.09l-150.15 106.54c-4.65,3.29 -9.93,4.87 -15.23,4.87 -8.38,0 -16.48,-3.9 -21.76,-11.17 -8.38,-11.89 -5.58,-28.44 6.53,-36.93l149.84 -106.52c11.81,-8.5 28.59,-5.7 36.99,6.24 8.38,11.94 5.58,28.48 -6.22,36.96zm-150.45 -255.03c-12.13,-8.08 -28.29,-5.09 -36.69,7l-188.37 276.91c-8.09,12.09 -4.98,28.57 7.13,36.81 4.37,3.1 9.65,4.6 14.93,4.6 8.4,0 16.78,-4.08 21.76,-11.62l188.06 -276.89c8.4,-12.08 5.28,-28.56 -6.83,-36.81z"/>
   <path class="fil1" d="M3899.83 6296.19c0.62,1.34 52.54,106.53 160.4,123.47 -16.17,54.78 -24.25,116.14 -20.83,181.07 11.19,215.45 138.02,384 282.87,376.41 144.86,-7.56 253.35,-188.38 241.85,-403.86 -4.04,-80.2 -24.25,-153.87 -55.33,-214.43 -106.93,-10.97 -230.65,-39.26 -357.17,-101.18 -4.66,4.69 -9.02,10.26 -13.68,15.42 -124.65,-60.71 -193.97,-161.21 -194.91,-162.52 -6.22,-9.29 -18.96,-11.78 -28.29,-5.5 -9.32,6.28 -11.81,18.87 -5.59,28.17 3.73,5.56 73.98,107.8 203.3,172.83 -15.23,22.26 -28.29,47.22 -38.86,74.57 -91.08,-9.51 -134.91,-97.42 -137.09,-102.06 -4.97,-10.07 -17.09,-14.14 -27.04,-9.48 -10.26,4.88 -14.61,16.97 -9.64,27.07zm1309.63 610.67c1.56,0.93 56.57,21.11 137.09,31.52 -0.62,3.45 -0.93,7.06 -0.31,10.57 0,0 1.86,8.33 6.22,22.32 16.48,51.6 69.94,173.02 208.89,186.14 6.84,0.69 13.68,1.03 20.52,1.03 68.39,0 130.25,-33.48 158.22,-87.04 17.41,-32.98 36.06,-99.28 -33.88,-172.96 -3.73,-3.92 -8.08,-8.17 -13.06,-12.71 56.57,-29.65 110.35,-73.43 156.98,-136.71 8.39,-11.66 5.91,-28.6 -5.91,-37.09 -11.5,-8.48 -28.6,-5.84 -36.99,5.81 -47.25,64.63 -102.89,107.03 -160.4,134.04 -45.69,21.32 -92.63,32.83 -138.02,38.2 -12.43,1.4 -25.18,2.55 -38.24,3.14 -5.28,0.25 -10.88,0.59 -16.16,0.69 -16.17,0.31 -32.64,-0.16 -49.74,-1.06 -4.35,-0.25 -8.7,-0.37 -12.74,-0.71 -90.77,-7.4 -156.98,-32.3 -163.2,-34.41 -13.68,-5.31 -29.22,1.56 -34.5,15.35 -5.28,13.78 1.56,28.6 15.23,33.89zm251.79 -297.43c19.27,35.87 54.71,59.69 100.72,66.93 9.32,1.52 18.96,2.27 28.91,2.27 34.5,0 70.56,-9.2 103.83,-26.83 42.59,-22.72 76.47,-56.92 94.81,-96.3 19.58,-41.93 20.21,-84.8 0.93,-120.7 -37.92,-71.43 -142.37,-90.49 -233.45,-42.37 -42.59,22.69 -76.47,56.89 -94.81,96.27 -19.59,41.93 -19.89,84.83 -0.93,120.74zm557.36 -725.84c0.93,71.43 18.65,149.61 54.4,225.89 96.36,204.94 285.98,318.66 423.69,253.97 138.02,-64.69 171.59,-283.25 75.54,-488.2 -28.91,-61.77 -66.83,-114.58 -108.8,-157.29 91.39,-68.89 87.66,-191.98 87.35,-193.57 -0.62,-11.75 -10.57,-20.83 -22.07,-20.33 -11.81,0.69 -20.83,10.47 -20.52,22.23 0.31,5.31 3.11,108.39 -76.16,162.17 -23.62,-19.93 -48.18,-36.59 -73.05,-49.77 87.35,-124.06 101.65,-253.37 102.58,-260.4 1.24,-11.69 -7.46,-22.1 -18.96,-23.31 -11.81,-1.19 -22.38,7.33 -23.63,19.05 0,1.62 -14.3,128.88 -99.78,246.79 -6.84,-2.52 -13.68,-5.5 -20.52,-7.46 -86.41,119.8 -186.82,207.24 -280.08,270.23zm-1835.28 -107.75l1195.54 55.12c7.46,0.46 14.92,-2.55 20.2,-7.9l628.24 -638.83c109.42,21.95 852.98,195.37 905.83,842.57 22.38,275.63 -92.01,550.31 -314.27,753.6 -313.96,286.98 -717.45,488.04 -1199.9,597.52 -345.35,78.37 -666.16,123.97 -954,135.59 -269.82,10.6 -521.3,-91.8 -687.61,-281.79 -323.28,-370.04 -186.82,-859.82 405.98,-1455.89zm925.41 2951.62c-4.66,8.83 -13.99,13.86 -23.31,13.86 -4.35,0 -8.7,-1.06 -12.74,-3.2l-139.57 -75.85c-72.12,20.98 -106,61.17 -103.2,123.13 2.49,51.98 32.33,101.09 79.58,131.4 144.55,92.48 283.19,101.74 411.88,27.39 98.54,-56.92 166.31,-157.6 181.85,-269.39 37.93,-277.25 -282.56,-356.61 -296.24,-359.87 -10.26,-2.45 -18.34,-11 -19.89,-21.6 -1.55,-10.6 3.42,-21.2 12.43,-26.76 296.87,-180.64 405.04,-355.71 321.42,-520.62 -319.56,-88.28 -523.48,-74.05 -573.83,-68.33 -106.31,193.23 -214.8,348.06 -322.98,460.59 37.61,300.35 318.63,468.8 324.84,472.37l149.21 80.98c12.74,7 17.72,23.04 10.57,35.91zm166 -445.8c104.14,40.25 314.89,153.25 281.01,400.35 -17.72,127.89 -95.43,243.03 -207.96,308.06 -52.54,30.28 -121.55,56.3 -203.92,56.3 -76.78,0 -165.37,-22.48 -262.98,-84.96 -61.55,-39.54 -100.41,-104.39 -103.82,-173.46 -2.18,-44.61 9.64,-119 100.09,-161.58 -83,-60.56 -254.59,-210.54 -299.35,-442.66 -19.27,17.78 -37.3,33.26 -54.09,46.6 20.21,30.34 32.33,66.8 32.33,106.04 0,105.22 -85.8,190.83 -190.86,190.83 -105.38,0 -190.87,-85.61 -190.87,-190.83 0,-99.32 76.47,-180.2 173.46,-189.13l24.56 -381.92c-32.95,14.33 -72.12,27.64 -114.7,40.04 -21.13,184.11 -92.94,391.8 -253.03,612.04 -61.86,84.86 -99.16,175.07 -111.6,268.11 -13.68,103.57 -15.54,223.56 16.48,333.95 70.87,-17.84 146.72,-45.79 227.85,-87.01 1.56,-0.84 3.42,-1.52 5.28,-2.02 17.72,-4.63 108.18,-25.77 148.9,19.8 21.45,24.03 23.62,58.69 6.52,103.08 -15.54,39.6 -44.14,74.85 -83.31,101.87 -35.13,24.5 -89.21,58.38 -158.53,91.02 24.24,19.65 51.6,37.52 82.37,53.15 0.31,0.09 0.31,0.28 0.31,0.37 0.31,0.09 0.62,0.09 0.93,0.22l156.05 88.4c12.74,7.19 17.41,23.35 10.26,36.09 -4.97,8.61 -13.99,13.46 -23.31,13.46 -4.35,0 -8.7,-1.12 -13.06,-3.45l-111.59 -63.13c11.19,115.92 30.77,396.68 -20.21,527.39 -26.43,68.02 -34.19,127.04 -24.25,180.54 29.84,156.3 161.02,342.56 617.05,342.56 7.77,0.75 522.54,48.28 722.42,-191.36 81.76,-98.3 76.78,-241.54 -11.5,-326.06 -33.88,-32.33 -131.49,-66.33 -195.83,-87.1l0 71.99c0,14.64 -12.12,26.49 -26.73,26.49 -14.61,0 -26.43,-11.85 -26.43,-26.49l0 -427.57c-108.8,44.89 -240.29,53.81 -326.08,53.81 -50.36,0 -84.56,-2.98 -88.59,-3.36 -14.61,-1.34 -25.18,-14.24 -23.93,-28.81 1.24,-14.52 13.68,-25.27 28.91,-23.94 2.48,0.31 262.98,22.91 423.69,-62.39 0.93,-0.4 1.87,-0.37 2.49,-0.71 1.87,-0.74 3.73,-1.68 5.59,-1.99 15.85,-2.64 388.88,-61.7 614.56,197.52 64.35,73.86 129.63,124.5 199.26,154.9 130.87,56.85 324.22,86.94 503.58,-92.57 4.35,-4.51 460.68,-479.21 326.7,-902.78 -52.54,-166.74 -215.42,-273.18 -378,-247.47 -88.59,13.99 -131.8,60.15 -131.8,141.07 0,9.76 -5.28,18.74 -13.68,23.31 -8.7,4.66 -18.96,4.17 -27.35,-1.25 -1.87,-1.33 -202.68,-133.73 -421.2,-194.9 -6.84,-1.99 -12.75,-6.78 -16.17,-13.24 -3.42,-6.46 -4.04,-14.08 -1.56,-20.95 1.56,-4.57 82.07,-246.04 55.95,-544.77 -123.09,-54.68 -236.56,-96.58 -338.83,-127.79 42.9,129.07 5.91,309.24 -311.47,516.3zm-1195.85 -432.46c41.65,-8.68 83.61,-18.28 123.41,-28.6 -23.62,170.78 -92.94,362.43 -240.6,565.63 -6.22,8.3 -10.88,16.91 -16.48,25.3 -48.18,-78.89 -68.39,-158.81 -58.75,-239.11 15.54,-124.9 98.54,-235.47 192.42,-323.22z"/>
   <path class="fil2" d="M6915.1 3584.17l-336.03 443.23c-147.02,-108.6 -313.95,-200.43 -498.91,-272.12 -284.75,-110.25 -594.35,-166.76 -912.98,-169.74l-168.5 -294.45 1060.02 -1527.18c27.04,8.26 55.02,13.06 83.31,13.06 33.89,0 68.08,-6.75 100.72,-19.43l672.37 1826.64zm-652.48 -1894.84c107.25,-66.81 139.89,-208.3 73.06,-315.37 -66.83,-107.15 -208.27,-139.89 -315.2,-73.06 -51.92,32.37 -88.29,83.01 -101.97,142.57 -13.68,59.55 -3.73,120.94 28.59,172.8 67.15,107.11 208.59,139.79 315.52,73.06zm-5519.81 2012.49c-11.2,38 -30.78,72.85 -56.9,102.98l996.29 2052.39 704.07 23.9c2.8,-557.76 285.38,-1114.33 760.35,-1540.77l-176.56 -518.63 -2227.26 -119.87zm-52.85 -151.8c-19.59,-57.17 -60,-103.33 -114.08,-130 -31.71,-15.5 -65.6,-23.31 -99.79,-23.31 -24.24,0 -49.12,4.05 -73.06,12.16 -57.19,19.45 -103.2,60.02 -129.94,114.2 -26.74,54.17 -30.77,115.46 -11.18,172.63 19.58,57.17 59.98,103.35 114.4,129.95 54.08,26.69 115.31,30.68 172.51,11.23 117.82,-40.2 181.23,-168.88 141.14,-286.86zm4043.57 4370.44c0.62,-0.81 1.25,-1.56 1.87,-2.33 11.18,-15.77 22.69,-32.64 34.19,-49.86 2.8,-3.98 5.28,-7.81 8.08,-11.84 9.95,-15.18 20.2,-31.34 30.46,-47.65 4.35,-6.6 8.39,-12.97 12.74,-19.72 9.02,-14.83 18.35,-30.68 27.98,-46.44 4.98,-8.77 10.26,-17.22 15.54,-26.18 9.33,-16.28 18.98,-33.69 28.61,-50.98 4.65,-8.42 9.33,-16.48 13.98,-25.01 4.05,-7.09 10.88,-12.05 18.65,-13.43 0.93,-0.13 3.43,-0.54 6.83,-1.03 1.25,-0.17 1.87,-0.26 3.42,-0.44 2.18,-0.3 4.98,-0.62 8.08,-0.99 84.56,-10.04 464.41,-32.61 1059.69,246.48 8.7,-23.85 21.76,-45.39 38.24,-63.8 -48.18,-90.33 -118.13,-200.65 -210.75,-293.19 -7.47,-7.47 -9.65,-18.62 -5.92,-28.48 4.05,-9.83 13.38,-16.41 23.95,-16.73 142.37,-4.47 345.66,-25.7 485.85,-65.94 -9.01,-22.22 -14.3,-46.47 -14.3,-71.96 0,-11.65 1.25,-22.94 3.42,-34.04l-258 -85.24c-31.71,15.08 -63.73,29.72 -96.37,43.74 -16.78,7.3 -34.19,14.3 -51.3,21.3 -34.81,14.2 -70.26,27.85 -106.3,40.87 -12.13,4.47 -24.26,9.3 -36.69,13.65 -47.25,16.41 -95.74,31.46 -144.54,45.85 -13.98,4.1 -27.98,8.11 -42.29,12.03 -51.91,14.49 -104.43,28.29 -158.22,40.48 -47.85,10.88 -95.12,20.97 -142.05,30.61 -14.3,2.89 -28.29,5.5 -42.29,8.3 -32.94,6.5 -65.58,12.8 -97.9,18.71 -15.86,2.9 -31.71,5.57 -47.27,8.3 -31.07,5.35 -61.54,10.44 -92,15.23 -14.93,2.34 -29.86,4.64 -44.77,6.85 -32.64,4.84 -64.65,9.3 -96.67,13.46 -11.5,1.52 -23.31,3.14 -35.14,4.57 -40.09,4.96 -79.89,9.38 -119.06,13.26 -3.1,0.29 -6.21,0.69 -9.33,0.98 -81.14,7.83 -160.08,13.48 -236.86,16.56 -4.98,0.22 -9.63,0.19 -14.61,0.3 -46.64,1.72 -92.32,2.73 -137.09,2.73 -53.47,0 -105.37,-1.2 -156.37,-3.63 -5.28,-0.22 -9.93,-0.81 -14.91,-1.06l-290.66 226.09c7.47,13.15 13.68,27.17 18.04,42 170.35,-27.17 412.19,-74.1 516.94,-134.63 4.05,-2.39 8.72,-3.59 13.06,-3.59 4.98,0 9.95,1.35 14,3.98 8.39,5.16 13.06,14.46 12.74,24.22l-27.67 426.21c32.64,6.22 61.87,21.2 86.42,41.78 63.73,-49.57 147.97,-132.25 246.51,-270.38zm-640.05 -412.48c-826.56,-56.61 -1359.05,-440.63 -1581.31,-1144.12 -322.67,-1021.62 455.71,-2181.36 1734.87,-2585.28 296.87,-93.75 599.01,-140.5 894.02,-140.5 321.1,0 633.52,55.61 919.8,166.59 547.43,211.96 934.43,600.69 1090.48,1094.51 164.44,521.65 82.06,1071.7 -224.75,1525.98 49.42,-128.76 70.57,-265.47 59.07,-402.64 -60,-735.89 -953.71,-891.6 -962.72,-893.09 -8.4,-1.5 -17.11,1.4 -23.31,7.56l-630.11 640.5 -1195.23 -55.07c-7.13,-0.19 -14.91,2.43 -19.89,7.71 -776.2,776.04 -655.28,1263.87 -416.85,1536.49 95.73,109.63 218.53,190.86 355.92,241.37zm91.07 1603.68c30.46,-21.02 52.55,-47.82 64.05,-77.54 9.01,-23.21 10.26,-40.94 3.41,-48.52 -13.36,-15.08 -61.85,-12.5 -93.25,-4.64 -711.23,360.44 -1074.93,-240.17 -1078.67,-246.29 -6.2,-10.44 -4.35,-23.77 4.37,-32.29l189.92 -186.7 -726.46 -191.33 64.03 790.09 204.54 -174.2c4.98,-4.2 11.2,-6.31 17.11,-6.31 6.83,0 13.68,2.65 18.65,7.78 599.63,599.29 1171.3,281.56 1332.3,169.95z"/>
   <path class="fil3" d="M5510.36 6511.15c-12.43,26.48 -13.37,52.57 -2.17,73.46 0,0 0,0 0,0.03 10.88,20.83 32.95,34.82 61.86,39.42 32.02,5.1 67.14,-1.77 99.78,-19.06 32.64,-17.31 58.13,-42.9 71.81,-71.93 12.43,-26.48 13.06,-52.59 2.17,-73.42 -14.61,-27.04 -45.69,-41.25 -82.37,-41.25 -25.18,0 -53.16,6.77 -79.58,20.85 -32.64,17.32 -58.13,42.87 -71.5,71.9zm-1821.6 1236.48c-75.85,0 -137.71,61.83 -137.71,137.87 0,76.03 61.86,137.86 137.71,137.86 76.16,0 138.02,-61.83 138.02,-137.86 0,-76.04 -61.86,-137.87 -138.02,-137.87zm2684.84 -416.67c0,76.04 61.86,137.9 138.02,137.9 75.85,0 137.7,-61.86 137.7,-137.9 0,-76.03 -61.86,-137.86 -137.7,-137.86 -76.16,0 -138.02,61.83 -138.02,137.86zm-52.85 604.11c0,-76 -61.86,-137.86 -138.02,-137.86 -75.85,0 -137.7,61.86 -137.7,137.86 0,76.07 61.86,137.89 137.7,137.89 76.16,0 138.02,-61.83 138.02,-137.89zm-1817.87 401.28c0,76 -61.86,137.86 -137.71,137.86 -76.16,0 -138.02,-61.86 -138.02,-137.86 0,-76.07 61.86,-137.9 138.02,-137.9 75.85,0 137.71,61.83 137.71,137.9z"/>
   <polygon class="fil4" points="8070.86,8120.25 7765.91,8171.82 7635.35,8452.21 7492.05,8178.16 7185.24,8140.83 7401.59,7919.91 7342.22,7616.42 7619.19,7753.94 7889.63,7603.7 7844.25,7909.61 "/>
   <path class="fil5" d="M5603.93 6925.39c13.37,-3.76 26.42,-7.46 39.17,-12.25l8.08 5.78c5.91,5.16 11.5,10.72 16.48,15.89 36.68,38.54 44.76,75.13 25.49,111.94 0,0.06 0,0.06 0,0.12 -20.52,39.32 -72.74,62.61 -126.83,57.82 -103.51,-9.82 -147.03,-97.95 -163.2,-149.24 -0.93,-2.08 -1.56,-4.01 -1.87,-5.81l2.8 -3.42c60.3,3.05 116.26,-1.65 168.17,-12.93 48.49,29.25 40.72,106.84 40.41,110.57 -0.62,7.28 4.66,13.83 11.81,14.61 0.62,0.06 0.93,0.06 1.56,0.06 6.53,0 12.12,-5.01 13.06,-11.81 3.42,-32.27 -1.87,-87.32 -35.13,-121.33zm-816.3 -1900.93c44.76,-9.3 96.36,55.02 114.7,143.74 18.34,88.66 -3.42,168.11 -48.49,177.41 -45.07,9.32 -96.37,-55.05 -114.71,-143.71 -18.34,-88.72 3.42,-168.14 48.5,-177.43zm612.38 -206.91c43.21,-20.95 111.6,31.06 152.94,116.14 41.35,85.08 39.79,171.06 -3.42,192.01 -43.21,20.95 -111.6,-31.06 -152.94,-116.14 -41.34,-85.08 -39.79,-171.03 3.42,-192.01zm-327.64 615.37l49.74 144.67 91.7 -31.49 -47.87 -139.39c23.31,-7.15 47.25,-14.7 71.19,-22.76l47.56 137.83 45.69 -15.73 -47.25 -137.86c32.02,-11.31 63.72,-22.91 93.87,-34.97l48.18 140.26 91.7 -31.48 -50.36 -147.29c231.28,-107.58 374.27,-250.64 292.83,-487.79 -103.52,-301.96 -465.97,-451.23 -809.15,-333.42 -343.19,117.81 -537.15,458.1 -433.64,760.07 84.24,245.11 295.62,263.98 555.8,199.35z"/>
  </g>
 </g>
</svg>
