<?xml version="1.0" encoding="UTF-8"?>
<!DOCTYPE svg PUBLIC "-//W3C//DTD SVG 1.0//EN" "http://www.w3.org/TR/2001/REC-SVG-20010904/DTD/svg10.dtd">
<!-- Creator: CorelDRAW 2018 (64-Bit) -->
<svg xmlns="http://www.w3.org/2000/svg" xml:space="preserve" width="8.26772in" height="11.6929in" version="1.0" style="shape-rendering:geometricPrecision; text-rendering:geometricPrecision; image-rendering:optimizeQuality; fill-rule:evenodd; clip-rule:evenodd"
viewBox="0 0 8267.72 11692.91"
 xmlns:xlink="http://www.w3.org/1999/xlink">
 <defs>
  <style type="text/css">
   <![CDATA[
    .fil0 {fill:black;fill-rule:nonzero}
    .fil1 {fill:#423D41;fill-rule:nonzero}
    .fil5 {fill:#B651FA;fill-rule:nonzero}
    .fil6 {fill:#E4A1ED;fill-rule:nonzero}
    .fil3 {fill:#EA79A5;fill-rule:nonzero}
    .fil7 {fill:#EC7AF1;fill-rule:nonzero}
    .fil2 {fill:#F395B0;fill-rule:nonzero}
    .fil4 {fill:white;fill-rule:nonzero}
   ]]>
  </style>
 </defs>
 <g id="Слой_x0020_1">
  <metadata id="CorelCorpID_0Corel-Layer"/>
  <g id="_2265427027408">
   <path class="fil0" d="M8066.4 8057.53c-6.44,11.81 -18.74,19.29 -32.24,19.29l-203.15 0c5.9,107.52 -0.72,402.1 -212.94,666.2 -152.22,189.61 -377.54,320.6 -670.11,393.71 -106.61,333.78 -385.41,512.93 -449.37,550.46 59.7,257.51 -53.91,548.81 -274.47,676.07 -110.48,63.84 -214.61,88.06 -308.94,88.06 -293.37,0 -492.23,-233.87 -494.84,-237 -45.74,-45.62 -86.01,-91.22 -121.78,-136.53l-433.78 -8.53c-18.31,107.2 -113.74,168.37 -179.85,192.31 -84.98,376.83 -310.53,508.43 -486.57,552.38 -44.95,11.07 -90.82,16.6 -136.69,16.6 -147.44,0 -295,-56.52 -413.09,-161.95 -381.35,-340.49 -575.14,-657.67 -576.04,-943.12 -0.6,-231.49 129.51,-351.56 135.1,-356.66 248.72,-248.82 552.76,-92.42 684.37,-2.98 3.92,-46.53 16.08,-103.94 33.88,-167.94 -79.44,-15.55 -143.06,-49.79 -188.88,-104.37 -160.81,-191.28 -63.09,-570.49 25.62,-813.94 -158.14,18.55 -309.97,16.15 -435.39,6.13 -12.18,131.59 -121.83,235.23 -256.37,235.23 -142.68,0 -258.69,-116.04 -258.69,-258.71 0,-142.67 116.01,-258.71 258.69,-258.71 76.89,0 145.33,34.39 192.78,87.79 123.46,-58.78 221.42,-140.12 295.4,-218.48 -48.92,-8.67 -96.94,-18.85 -143.95,-30.5 -21.85,-5.39 -42.86,-13.01 -64.31,-19.6 -162.23,-45 -313.89,-106.48 -451.49,-186.47 -236.93,-138.16 -437.15,-326.88 -595.13,-561.36 -316.54,-468.95 -413.26,-1038.99 -319.68,-1597.37l-329.62 0c-13.88,0 -26.57,-7.91 -32.79,-20.2l-1004.41 -1999.43c-27.94,7.6 -56.82,12.97 -87.16,12.97 -183.98,0 -333.65,-149.67 -333.65,-333.61 0,-184.07 149.67,-333.78 333.65,-333.78 177.29,0 321.28,139.4 331.65,314.05l1784.35 327.21c10.45,1.92 19.51,8.38 24.93,17.49l235.73 399.09c82.53,-71.15 169.45,-138.6 261.74,-200.97 723.97,-487.64 1475.99,-689.96 2177.14,-586.8l0 -324.93c0,-11.21 5.17,-21.83 14.03,-28.89l1784.2 -1397.73c-30.08,-46.51 -48.01,-101.65 -48.01,-161.01 0,-164.64 133.93,-298.63 298.48,-298.63 164.51,0 298.46,133.99 298.46,298.63 0,158.78 -125.1,287.83 -281.74,296.69l117.7 845.91 221.72 1592.45c1.8,12.67 -3.14,25.22 -12.99,33.32l-354.46 291.17 -216.65 178.23c270.12,719.87 144.1,1677.51 -446.32,2390.83 193.44,13.01 360.31,16.89 469.93,17.64 31.12,-108.11 129.72,-187.83 247.6,-187.83 142.66,0 258.76,116.04 258.76,258.71 0,142.67 -116.1,258.85 -258.76,258.85 -102.53,0 -190.61,-60.57 -232.43,-147.29 -232.18,162.39 -569.13,310.89 -770.86,392.68 66.57,49.5 144.51,120.83 206.03,214.59 15.95,-2.99 32.32,-4.93 49.12,-4.93 142.63,0 258.78,116.04 258.78,258.7 0,131.43 -98.91,239.11 -225.97,255.41 -1.69,6.43 -4.26,12.99 -6.19,19.58 158.4,230.46 247.33,450.11 266.85,657.67 40.74,-23.31 81.84,-53.53 120.09,-93.16 136.66,-141.9 200.44,-359.18 189.79,-646.14l-236.3 0c-15.17,0 -28.74,-9.42 -34.17,-23.63 -5.46,-14.21 -1.59,-30.21 9.71,-40.37l603.23 -542.39c7.82,-7.17 18.78,-10.45 29.23,-9.11 10.58,1.48 20.11,7.46 25.88,16.46l374.09 575.1c7.35,11.23 7.97,25.58 1.51,37.4z"/>
   <path class="fil1" d="M2616.89 3499.04l234.14 396.4c-451.06,409.7 -744.51,943.88 -853.35,1494.01l-320.2 0 -991.48 -1973.59c90.08,-48.01 155.48,-135.02 172.68,-239.25l1758.22 322.43zm-2086.39 -101.42c143.56,0 260.39,-116.79 260.39,-260.36 0,-143.54 -116.84,-260.48 -260.39,-260.48 -143.57,0 -260.38,116.95 -260.38,260.48 0,143.57 116.81,260.36 260.38,260.36zm7029.74 5300.37c240.26,-298.19 195.04,-649.28 194.53,-652.73 -1.42,-10.61 1.76,-21.09 8.67,-29.16 6.93,-8.09 17.02,-12.57 27.6,-12.57l175.64 0 -313.93 -482.7 -500.3 449.97 175.69 0c19.47,0 35.49,15.09 36.53,34.53 18.53,326.01 -51.94,573.94 -209.39,736.62 -53.73,55.63 -111.8,94.21 -167.85,122.48 0.44,64.89 -4.64,128.74 -18.11,191.11 257.06,-70.59 455.74,-189.63 590.92,-357.55zm-2265.72 -817.37c5.41,-6.44 12.9,-10.63 21.16,-12.12 30.47,-5.54 642.71,-114.7 1118.95,-52.5 3.18,-23.48 8.51,-46.18 17.59,-67.12 -97.5,-101.4 -201.78,-225.83 -234.28,-323.76 -6.19,-18.83 3.67,-39.32 22.26,-46.06 6.97,-2.39 611.09,-223.56 942.9,-463.12 -1.72,-11.81 -3.52,-23.48 -3.61,-35.73 -121.43,-0.91 -306.61,-5.56 -518.23,-21.39 -181.5,203.67 -402.78,385.2 -665.85,532.35 -84.34,47.54 -172.33,90.77 -261.45,129.06 -3.48,1.49 -6.84,3.3 -10.33,4.79 -0.76,0.45 -1.54,0.6 -2.3,1.04 -0.22,0 -0.4,0.16 -0.6,0.16 -374.08,160.14 -739.7,270.52 -1086.56,330.78 -210.15,36.78 -413.66,55.47 -607.64,55.47 -131.07,0 -257.11,-9.56 -378.63,-26.62 -80.24,93.02 -193.51,194.85 -343.19,267.38 8.56,18.24 15.57,37.22 19.69,57.56 141.81,11.5 319.22,13.92 499.89,-14.33 30.18,-4.66 59.67,-10.18 88.46,-16.46 6.84,-1.34 13.63,-2.83 20.41,-4.34 32.24,-7.5 63.71,-15.71 94.11,-24.99 4.52,-1.34 8.94,-2.99 13.44,-4.32 26.09,-8.38 51.37,-17.37 76.05,-26.93 7.22,-2.83 14.48,-5.68 21.61,-8.65 27.65,-11.52 54.56,-23.65 80.22,-36.8 0.63,-0.31 1.32,-0.6 1.98,-0.91 5.37,-2.69 11.18,-4.17 16.89,-4.17 0.76,0 1.51,0.45 2.27,0.45 1,0.15 1.81,0.29 2.8,0.46 5.55,0.89 10.76,2.83 15.52,6.13 0.53,0.27 1.22,0.27 1.78,0.58 0.16,0.15 0.2,0.45 0.42,0.6 0.31,0.29 0.65,0.29 0.91,0.6 1.94,1.63 2.41,4.19 3.92,5.99 2.7,3.43 5.62,6.72 6.95,10.76 0.91,2.83 0.34,5.83 0.56,8.82 0.25,3.45 1.41,6.73 0.65,10.33l-58.63 263.19c40.1,-16.75 79.61,-29.02 117.95,-36.64 103.16,-20.94 211.87,3.43 298.67,65.78 0.34,0.31 0.63,0.62 0.94,0.76 254.21,-165.98 519.14,-359.49 662.37,-526.07zm817.8 -646.61c23.9,-28.54 46.98,-58.01 68.21,-89.26 403.04,-592.78 522.28,-1136.21 354.46,-1615.63 -294.87,-842.48 -1358.61,-1180.43 -1403.74,-1194.31 -12.03,-3.79 -25.41,-0.94 -34.98,7.44l-1206.53 1058.13 -1053.67 -273.52c-14.31,-3.57 -29.41,1.51 -38.43,13.32 -518.67,682.67 -592.46,1396.84 -213.38,2065.43 56.27,99.3 125.52,188.84 203.15,269.47 -163.3,-119.35 -305.11,-266.93 -422.51,-440.98 -689.09,-1021.04 -302.15,-2538.1 845.02,-3313 588.6,-396.46 1194.79,-600.42 1774.88,-600.42 121.91,0 242.45,10.02 361.65,28.11l0 187.67c0,20.34 16.37,36.64 36.62,36.64 20.25,0 36.62,-16.3 36.62,-36.64l0 -569.86 1771.92 -1388.31c39.94,37.36 89.59,64.27 145.24,75.18l80.39 577.39 258 1854.88 -244.15 200.84 -537.67 441.71c-15.7,12.85 -17.87,36.02 -5.06,51.59 7.3,8.8 17.71,13.44 28.31,13.44 8.22,0 16.42,-2.7 23.26,-8.38l166.4 -136.64c317.63,881.08 29.93,2115.95 -994,2785.72zm1057.24 -6073.01c0,124.1 101.02,225.19 225.19,225.19 124.15,0 225.17,-101.09 225.17,-225.19 0,-124.28 -101.02,-225.39 -225.17,-225.39 -124.17,0 -225.19,101.11 -225.19,225.39z"/>
   <path class="fil2" d="M3867.3 6691.94c109.53,-31.27 308.89,-121.74 596.9,-376.4 61.04,-50.85 121.35,-106.91 178.6,-168.08 30.78,-30.82 62.8,-64.43 95.22,-98.69 208.31,306.57 623.2,1012.97 299.05,1367.97 -68.87,75.68 -173.41,103.79 -266.17,71.63 -95.56,-32.74 -187.76,-105.26 -274.33,-216.22 -11.44,-14.2 -276.57,-340.79 -629.27,-580.2zm370.97 -2058.09c-47.98,30.52 -135.41,-21.54 -195.28,-116.06 -59.84,-94.48 -69.51,-195.72 -21.54,-226.06 48.02,-30.39 135.45,21.49 195.33,116.02 59.88,94.53 69.51,195.76 21.5,226.11zm-836.38 281.73c-56.61,4.77 -110.17,-81.63 -119.63,-193.22 -9.5,-111.38 28.71,-205.6 85.33,-210.55 56.57,-4.77 110.17,81.68 119.63,193.22 9.46,111.42 -28.72,205.77 -85.33,210.55zm147.02 -1026.16c-398.18,134.16 -625.36,526.83 -507.37,877.21 92.64,275.15 324.93,305.37 613.2,240.89l57.56 170.91 106.43 -35.85 -54.81 -162.7c36.37,-10.32 73.46,-22.01 110.99,-34.26l53.86 159.87 53.22 -17.8 -53.86 -159.99c27.77,-9.59 54.89,-19.43 81.5,-29.49l54.46 161.8 106.44 -35.85 -56.48 -167.78c284.43,-124.44 465.23,-290.89 369.46,-575.32 -117.95,-350.33 -536.37,-525.59 -934.59,-391.65z"/>
   <path class="fil3" d="M3256.34 8262.24c0,-102.29 -83.22,-185.43 -185.48,-185.43 -102.27,0 -185.44,83.13 -185.44,185.43 0,102.29 83.18,185.43 185.44,185.43 102.26,0 185.48,-83.14 185.48,-185.43zm3619.06 -411.52c0,-102.29 -83.22,-185.43 -185.53,-185.43 -102.3,0 -185.48,83.14 -185.48,185.43 0,102.28 83.18,185.43 185.48,185.43 102.31,0 185.53,-83.15 185.53,-185.43zm377.11 -972.61c0,102.3 83.22,185.58 185.48,185.58 102.31,0 185.48,-83.28 185.48,-185.58 0,-102.28 -83.17,-185.42 -185.48,-185.42 -102.26,0 -185.48,83.15 -185.48,185.42zm-3368.32 -970.5c38.43,-22.14 80.09,-33.19 115.29,-33.19 34.95,0 63.57,10.92 76.3,32.88 25.32,44.15 -19.52,121.57 -96.07,165.84 -76.77,43.97 -166.01,44.28 -191.5,0.17 -25.36,-43.97 19.47,-121.43 95.98,-165.71z"/>
   <path class="fil4" d="M6409.52 9642.46l0 0c-229.84,-621.92 -631.8,-708.21 -837.32,-708.21 -73.03,0 -121.26,10.76 -128.18,12.56 -151.48,27.22 -271.84,145.8 -301.85,295.19 -44.92,224.45 -23.81,567.04 332.24,923.1 14.7,17.35 313.02,365.77 713.04,134.74 207.8,-119.94 309.5,-420.96 222.07,-657.38zm-3025.98 -3580.67c-149.16,-306.58 -285.6,-446.97 -417.6,-428.74 -102.44,14.06 -173.7,123.37 -220.39,235.09l-106.95 -106.91c-14.27,-14.35 -37.44,-14.35 -51.75,0 -14.31,14.19 -14.31,37.35 0,51.71l130.63 130.72c-7.05,21.19 -13.15,41.4 -18.44,60.39l-95.52 -95.56c-14.35,-14.19 -37.53,-14.19 -51.8,0 -14.31,14.36 -14.31,37.53 0,51.89l126.68 126.68c-2.93,13.76 -4.99,24.2 -5.94,29.57 -3.61,19.9 9.59,39.03 29.45,42.64 2.23,0.3 4.47,0.6 6.66,0.6 17.32,0 32.76,-12.43 35.98,-30.05 18.96,-104.54 102.31,-406.6 231.35,-424.27 52.96,-7.31 168.98,33.23 341.82,388.2 8.81,18.23 31.04,25.75 48.92,16.9 18.18,-8.81 25.75,-30.78 16.89,-48.87zm194.85 583.64c20.68,43.37 70.37,64.74 148.73,64.74 9.97,0 20.81,-0.76 31.77,-1.5 10.92,6.43 21.58,12.71 32.97,20.79 360.91,235.23 644.83,585.14 647.24,588.13 95.17,122.02 198.81,202.77 307.99,240.02 33.27,11.65 67.65,17.19 101.87,17.19 89.63,0 178.13,-38.29 242.22,-108.72 365.89,-400.76 -91.34,-1166.07 -306.66,-1478.92 -3.91,-4.81 -7.26,-9.58 -10.1,-14.53 -0.99,-1.63 -2.58,-2.83 -3.78,-4.34 -1.12,-1.33 -1.72,-2.84 -3.01,-4.17 -0.43,-0.3 -0.94,-0.43 -1.33,-0.73 -1.98,-1.67 -4.26,-2.83 -6.49,-4.04 -2.02,-1.08 -3.87,-2.24 -5.97,-3.01 -0.43,-0.13 -0.78,-0.43 -1.25,-0.6 -21.8,-6.11 -45.22,1.8 -58.93,19.6 -31.21,40.84 -64.57,79.57 -99.04,116.62 -64.35,64.61 -124.87,121.13 -181.78,171.26 -238.15,197.52 -484.37,315.51 -561.87,350.35 -32.93,9.88 -61.73,17.05 -86.23,21.68 -77.46,6 -113.44,-7.17 -120.23,-21.37 -12.81,-26.76 32.97,-97.94 69.59,-136.84 13.8,-14.79 13.15,-37.96 -1.55,-51.89 -14.74,-13.88 -37.96,-13.15 -51.8,1.68 -20.67,21.96 -121.99,135.6 -82.36,218.6zm146.45 -535.5c26.61,46.21 78.96,70.11 140.35,70.11 47.5,0 100.5,-14.31 151.13,-43.63 116.11,-66.85 170.14,-183.64 122.9,-265.57 0,-0.17 -0.04,-0.17 -0.04,-0.17 -47.29,-81.97 -175.3,-93.62 -291.62,-26.48 -116.15,67.01 -170.01,183.76 -122.72,265.74zm854.77 -405.7c-1.42,20.2 13.76,37.7 33.92,39.16 0.86,0 1.8,0.17 2.71,0.17 18.96,0 35.07,-14.83 36.5,-34.09 0.3,-4.04 32.67,-413.78 240.85,-510.24 99.81,-46.04 228.98,-12.55 384.08,100.5 60.18,43.8 124.61,100.02 191.63,167.04 14.36,14.19 37.53,14.19 51.8,0 14.36,-14.36 14.36,-37.57 0,-51.93 -25.88,-25.83 -51.37,-49.61 -76.52,-72.52l121.91 -139.79c13.28,-15.26 11.73,-38.43 -3.57,-51.76 -15.3,-13.33 -38.43,-11.82 -51.67,3.57l-122 140c-14.27,-11.82 -28.37,-23.17 -42.3,-33.79l78.24 -137.17c10.01,-17.63 3.87,-39.89 -13.67,-49.91 -17.37,-9.88 -39.93,-4.04 -49.99,13.59l-74.54 130.55c-163.86,-110.22 -306.62,-139.49 -424.35,-84.77 -247.17,114.69 -281.69,552.8 -283.02,571.37zm-1146.94 2066.91c-327.89,-81.2 -613.93,-300.43 -784.75,-601.6 -365.07,-644.03 -299.95,-1305.15 193.44,-1965.54l1048.72 272.19c11.87,3.01 24.16,0 33.4,-7.95l1205.32 -1057.24c145.81,49.94 1075.33,394.65 1337.07,1142.35 159.7,456.25 43.29,977.84 -345.86,1550.25 -108.63,159.7 -255.59,282.03 -427.92,355.16 -832.12,356.19 -1634.49,467 -2259.42,312.38zm681.97 1225.61c19.47,-6.73 39.98,3.44 46.68,22.44 18.57,52.93 40.84,84.63 52.1,98.53 69.42,5.55 391,16.01 487.03,-257.64 18.83,-53.83 24.76,-115.3 17.11,-177.8 -11.04,-87.33 -58.03,-165.68 -129.13,-216.83 -70.46,-50.69 -158.88,-70.14 -241.45,-53.53 -51.62,10.31 -106.09,30.64 -161.76,59.66 -18.44,22.43 -89.28,115.74 -107.85,242.55 -2.75,18.08 -18.4,31.25 -36.19,31.25 -1.81,0 -3.61,-0.15 -5.46,-0.44 -19.94,-3 -33.83,-21.54 -30.91,-41.57 21.45,-145.65 100.37,-249.89 123.89,-278.3l56.7 -254.2c-101.57,44.11 -215.62,76.55 -340.23,96.75 -71.91,188.85 -202.12,600.24 -52.1,778.78 64.31,76.42 177.87,103.18 337.87,80.31 -12.59,-21.09 -26.3,-48.01 -38.69,-83.15 -6.71,-19.14 3.35,-40.08 22.39,-46.8zm1906.72 -1124.52c-205.17,137.72 -344.49,340.19 -346.17,342.59 -6.15,9.12 -15.99,14.96 -26.82,16 -11.44,0.59 -21.67,-2.83 -29.41,-10.63 -88.03,-87.92 -189.82,-113.65 -278.72,-113.65 -35.25,0 -68.52,4.05 -98.05,9.88 -76.64,15.09 -144.95,52.79 -192.28,106.17 -158.7,178.84 -39.03,402.41 46.47,519.8 32.2,44.11 67.53,76.27 105.01,95.41 266.86,135.78 542.61,-217.89 545.32,-221.46 10.23,-13.31 28.5,-17.95 43.72,-11.22 415.85,181.98 696.85,-191.86 708.58,-207.86 71.48,-100.49 120.15,-197.99 147.35,-292.2 -108.84,-18.69 -194.04,-104.98 -211.19,-214.29 -131.28,-17.78 -274.42,-22.13 -413.82,-18.53zm547.68 -248.83c-67.09,-96 -152.43,-165.83 -216.22,-208.6 -20.07,7.77 -38.3,14.79 -51.97,19.88 36.8,76.87 114.9,169.87 191.8,250.63 21.24,-25.27 46.98,-46.2 76.38,-61.91zm-1330.54 419.45c111.98,-20.19 265.83,-16.89 400.8,96.75 40.92,-54.27 130.51,-163.15 252.33,-262.28 -267.15,15.09 -495.32,51.73 -550.3,61 -30,34.11 -64.78,69.09 -102.82,104.53zm548.37 640.04c-32.93,38.57 -108.06,119.03 -206.85,180.34 227.78,4.78 657.77,106.02 897.28,751.57 76.47,-48.76 346.77,-239.86 419.89,-570.63 56.27,-254.52 -14.87,-534.6 -210.29,-834.13 -30.82,75.36 -72.99,151.93 -128.53,229.99 -3.35,4.63 -315.13,421.7 -771.51,242.85zm-618.74 220.11c35.12,17.94 69.98,28.56 104.33,34.39 -102,64.44 -177.66,168.08 -202.08,290.1 -39.37,196.64 -32.41,476.27 173.11,775.94l-411.5 -8.06c-9.76,0.29 -19.39,3.58 -26.31,10.46 -7.09,6.88 -11,16.3 -11,26.17 0,123.67 -144.39,163.88 -150.54,165.53 -13.28,3.59 -23.59,14.51 -26.39,27.96 -59.02,285.77 -206.03,459.68 -437.08,517.26 -165.67,41.28 -346.51,-6.88 -483.29,-128.91 -453.41,-404.63 -550.21,-705.22 -551.55,-886.16 -1.46,-198.87 106.43,-300.26 112.24,-305.8 84.89,-84.93 177.31,-114.69 265.18,-114.69 199.59,0 375.44,153.57 385.88,163 12.73,11.22 31.34,12.26 45.18,2.69 13.97,-9.57 19.47,-27.5 13.41,-43.2 -14.23,-36.79 -0.47,-117.69 30.78,-223.86 10.06,0.46 19.04,2.23 29.49,2.23 51.45,0 107.89,-5.98 169.28,-18.08 55.37,4.78 455.26,27.96 572.31,-305.65 22.57,-64.31 29.75,-137.28 20.46,-213.1 -10.1,-79.86 -45.78,-154.61 -100.46,-213.54 77.33,-50.85 155.35,-104.22 230.79,-158.66 -69.04,194.4 51.84,397.17 116.79,486.44 39.07,53.68 83.14,93.16 130.98,117.54z"/>
   <g>
    <polygon class="fil5" points="1932.34,7643.59 969.11,8409.37 632.44,7850.71 1785.8,7436.49 "/>
    <polygon class="fil6" points="1735.94,6878.11 1735.94,7156.41 744.67,7328.97 744.67,6764.17 "/>
    <polygon class="fil7" points="2166.09,7942.68 2380.3,8040.02 2025.83,8994.67 1527.07,8745.39 "/>
   </g>
  </g>
 </g>
</svg>
