<?xml version="1.0" encoding="UTF-8"?>
<!DOCTYPE svg PUBLIC "-//W3C//DTD SVG 1.0//EN" "http://www.w3.org/TR/2001/REC-SVG-20010904/DTD/svg10.dtd">
<!-- Creator: CorelDRAW 2018 (64-Bit) -->
<svg xmlns="http://www.w3.org/2000/svg" xml:space="preserve" width="8.26772in" height="11.6929in" version="1.0" style="shape-rendering:geometricPrecision; text-rendering:geometricPrecision; image-rendering:optimizeQuality; fill-rule:evenodd; clip-rule:evenodd"
viewBox="0 0 8267.72 11692.91"
 xmlns:xlink="http://www.w3.org/1999/xlink">
 <defs>
  <style type="text/css">
   <![CDATA[
    .fil0 {fill:black;fill-rule:nonzero}
    .fil1 {fill:#423D41;fill-rule:nonzero}
    .fil2 {fill:#EA79A5;fill-rule:nonzero}
    .fil4 {fill:#EB238B;fill-rule:nonzero}
    .fil6 {fill:#F395B0;fill-rule:nonzero}
    .fil5 {fill:#F3B0CF;fill-rule:nonzero}
    .fil3 {fill:white;fill-rule:nonzero}
   ]]>
  </style>
 </defs>
 <g id="Слой_x0020_1">
  <metadata id="CorelCorpID_0Corel-Layer"/>
  <g id="_2265463102896">
   <path class="fil0" d="M7540.65 8997.14c-7.13,8.01 -18.34,11.45 -28.51,8.59l-199.6 -52.18c-29.53,125.4 -171.42,585.59 -660.91,585.73 -16.64,0 -33.61,-0.61 -50.93,-1.65 -5.09,-0.39 -340.81,-28.11 -531.92,-299.24 -98.11,48.5 -205.02,74.38 -310.94,74.38 -38.7,0 -77.07,-3.43 -115.08,-10.15 -14.6,-2.58 -27.83,-5.67 -40.72,-8.85 -310.27,209.37 -498.4,439.76 -532.52,483.34 -5.57,401.61 -342.95,475.55 -346.48,476.35 -88.33,21.96 -168.87,31.17 -241.85,31.17 -201.23,0 -345.06,-70.6 -438.21,-140.73 -152.1,-114.68 -248.8,-298.08 -258.63,-490.79 -6.15,-117.96 26.44,-212.43 96.71,-280.94 116.91,-114.19 301.03,-119.37 358.88,-117.86l161.63 -249.63c-68.35,-139.57 -108.86,-268.16 -129.52,-385.92 -43.21,23.52 -92.69,36.74 -146.21,36.74l-4.95 0c-127.87,-1.78 -243.83,-77.95 -295.67,-193.91 -59.39,-133.44 -60.34,-242.9 -6.13,-320l-159.91 -21.27c0.23,4.37 1.31,8.62 1.31,13.14 0,124.09 -100.85,225.06 -224.95,225.06 -124.15,0 -224.96,-100.96 -224.96,-225.06 0,-124.01 100.82,-225 224.96,-225 41.21,0 79.46,11.94 112.76,31.43l171.21 -129.42c-4.96,-20.45 -8.24,-41.32 -9.91,-62.57 -6.48,0 -13.23,0.35 -19.81,0.35 -19.87,0 -39.58,-0.35 -59.17,-0.97l-1.09 0c-563.15,-19.57 -989.33,-325.69 -1302.63,-936.07 -91.42,-178.55 -147.83,-367.24 -171.93,-559.87l-385.69 36.98c-0.95,0 -1.9,0.1 -2.7,0.1 -8.96,0 -17.5,-4.25 -23.03,-11.35l-1123.95 -1468.64c-45.03,41.07 -104.28,66.84 -169.93,66.84 -139.34,0 -252.83,-113.48 -252.83,-252.83 0,-139.48 113.48,-252.9 252.83,-252.9 95.28,0 177.46,53.6 220.57,131.67l1863.2 -72.57 1.18 0c12.77,0 24.1,8.34 27.74,20.68l75.12 251.88c220.57,-274.79 508.83,-514.61 854.28,-691.78 255.29,-130.82 520.13,-216.17 783,-259.61l-166.26 -178.39c-9.31,-10 -10.4,-25.14 -2.48,-36.31l1149.07 -1635.59c-88.05,-46.54 -147.55,-130 -147.55,-226 0,-146.26 136.69,-265.24 304.72,-265.24 167.7,0 304.49,118.98 304.49,265.24 0,91.39 -53.3,172.14 -134.42,219.87l789.22 1710.19c4.76,10.29 3.06,22.48 -4.74,31.06l-416.52 480.13c205.03,153.7 375.43,349.5 495.94,584.53 255.6,498.22 264.77,983.94 35.98,1431.24 125.27,84.9 312.31,267.74 176.87,546.87 0,0.37 -87.59,214.71 -319.78,227.34 -5.07,16.15 -13.23,42.39 -24.1,74.98l100.15 33.2c40.39,-60.48 108.95,-100.52 187.04,-100.52 123.9,0 225.06,100.96 225.06,225.09 0,123.97 -101.15,224.96 -225.06,224.96 -87.92,0 -163.29,-50.93 -200.28,-124.34l-197.22 46.87c-58.38,149.74 -130.69,317.3 -210.12,458.31 26.82,42.39 116.79,177.59 281.41,354.35 116.1,125.06 191.44,281.44 211.82,440.37 20.03,158.35 -4.41,364.43 -188.74,541.79 9.85,14.49 20.03,28.83 31.23,42.51 58.73,72.87 145.97,114.77 238.3,115.24l1.35 0c94.04,0 182.96,-42.49 244.41,-116.77 63.13,-76.89 105.23,-177.38 125.59,-299.28l-188.39 -46.39c-11.21,-2.81 -19.69,-12.02 -21.73,-23.49 -1.69,-11.44 3.39,-22.93 13.25,-29.16l546.52 -341.86c7.46,-4.62 16.3,-5.57 24.43,-2.86 8.49,2.72 14.95,9.1 17.99,17.25l214.2 572.62c3.74,10.15 1.7,21.48 -5.76,29.53zm-521.74 -2832.26l177.53 -173.56c11.21,-11 29.88,-10.86 40.74,0.47 11.21,11.44 10.85,29.74 -0.33,40.97l-177.2 173.46c-5.76,5.57 -13.24,8.29 -20.36,8.29 -7.47,0 -14.95,-2.85 -20.71,-8.76 -11.21,-11.33 -10.86,-29.64 0.33,-40.86zm-177.87 46.2c4.41,2.34 9.17,3.43 13.58,3.43 10.52,0 20.36,-5.57 25.46,-15.37l184.67 -347.06c7.46,-14.05 2.37,-31.64 -11.89,-39.07 -13.91,-7.47 -31.57,-2.25 -39.03,11.91l-184.65 347.06c-7.48,14.05 -2.04,31.64 11.87,39.1z"/>
   <path class="fil1" d="M6311.15 3610.81l-408.04 470.05c-423.96,-296.96 -983.94,-420.42 -1559.04,-341.52l-177.24 -190.17 1142.91 -1626.97c32.25,10.09 66.19,16.57 102.52,16.57 41.76,0 81.46,-7.43 117.79,-20.75l781.09 1692.8zm-5617.85 947.45c5.43,20.61 9.3,41.85 9.3,64.19 0,52.54 -16.29,101.42 -43.8,141.93l1121.02 1464.77 369.49 -35.45c-45.11,-491.22 117.02,-1003.61 444.49,-1436.38l-80.51 -269.98 -1819.98 70.92zm5911.14 4921.63c556.02,34.48 653.45,-541.91 657.17,-566.49 1.37,-8.04 6.11,-15.11 12.91,-19.62 6.78,-4.48 15.27,-5.76 23.08,-3.76l175.15 45.59 -182.28 -487.12 -458.61 286.73 148 36.51c14.26,3.53 23.42,17.34 21.73,31.97 -20.02,144.21 -67.89,263.35 -142.57,353.91 -72.31,87.66 -177.53,137.83 -288.87,137.83 -0.69,0 -1.02,0 -1.7,0 -109.97,-0.49 -213.16,-50.31 -283.09,-136.74 -10.52,-13 -20.03,-26.47 -29.53,-40.05 -39.04,32.48 -84.87,63.54 -137.15,93.04 172.11,241.86 468.11,266.88 485.77,268.22zm-227.09 -2342.41c0,-25.28 5.07,-49.24 12.89,-71.92l-93.69 -31.06c-17.66,52.54 -40.41,116.09 -66.55,185.07l152.08 -36.15c-3.06,-14.86 -4.74,-30.25 -4.74,-45.94zm-2730.1 922.84l222.72 29.63c2.39,-1.63 4.04,-3.65 6.39,-5.29 -36.36,-39.58 -100.75,-118.58 -138.39,-215.76l-141.96 107.33c23.05,23.52 40.28,52.35 51.24,84.08zm825.46 -458.52c24.77,102.61 8.85,233.47 -48.31,391.35 19.15,-5.32 38.96,-9.1 59.75,-9.1 54.91,0 104.65,20.54 143.82,53.41l324.64 -472.49c8.98,-13 26.46,-16.28 39.56,-7.91l202.17 130.59c40.74,-56.8 106.93,-94.25 181.96,-94.25 17.64,0 34.28,2.48 50.57,6.29 21.38,-133.92 64.49,-342.33 143.59,-538.94 -141.56,92.19 -295.34,181.36 -462.69,266.83 -225.89,115.63 -436.95,206.57 -635.07,274.22zm1961.66 -1499.46c-77.07,-40.41 -162.6,-58.46 -246.1,-50.79 -6.46,0.58 -11.89,2.48 -18,3.28 -16.97,-164.11 -72.29,-308.07 -166.33,-430.41 -382.23,-496.8 -1252.54,-463.97 -1289.5,-462.3 -8.15,0.33 -15.83,4.23 -21.03,10.49l-605.54 738.54 -801.48 28.91c-8.15,0.35 -15.81,4.15 -21.01,10.4 -275.4,327.22 -389.83,644.42 -340.2,942.59 58.8,353.3 336.54,615.94 592.79,787.73 -484.63,-54.18 -858.26,-348.11 -1139.53,-895.91 -478.5,-934.31 32.81,-2156.28 1139.64,-2723.95 1107.44,-567.21 2397.96,-268.97 2876.59,664.87 249.51,486.26 261.38,947.03 39.72,1376.55zm-1022.1 -4221.44c136.11,0 246.79,-93.06 246.79,-207.38 0,-114.33 -110.67,-207.4 -246.79,-207.4 -136.13,0 -246.89,93.07 -246.89,207.4 0,114.33 110.76,207.38 246.89,207.38zm-4767.51 2741.56c0,-107.55 -87.52,-195.05 -195.08,-195.05 -107.48,0 -195,87.5 -195,195.05 0,107.46 87.52,194.94 195,194.94 107.56,0 195.08,-87.48 195.08,-194.94z"/>
   <path class="fil2" d="M4651.35 8209c0,-92.09 -74.98,-167.08 -167.22,-167.08 -32.93,0 -63.65,9.91 -89.51,26.44 -3.43,8.01 -6.11,15.68 -9.67,23.86 11.1,33.64 41.82,137.21 42.87,252.21 0,7.09 -0.58,13.95 -1.06,21.01 18.06,6.62 37.17,10.76 57.37,10.76 92.23,0 167.22,-74.99 167.22,-167.22zm-1215.82 -242.68c-92.23,0 -167.22,74.98 -167.22,167.11 0,92.23 74.99,167.21 167.22,167.21 92.23,0 167.21,-74.98 167.21,-167.21 0,-92.13 -74.98,-167.11 -167.21,-167.11zm2999.51 -828.84c0,92.23 75.02,167.08 167.35,167.08 91.99,0 167.01,-74.85 167.01,-167.08 0,-92.22 -75.02,-167.21 -167.01,-167.21 -92.33,0 -167.35,74.99 -167.35,167.21zm-1058.75 513.8c-92,0 -167.01,74.98 -167.01,167.21 0,92.23 75.02,167.08 167.01,167.08 92.33,0 167.35,-74.85 167.35,-167.08 0,-92.23 -75.02,-167.21 -167.35,-167.21zm-994.4 -997.86c25.73,-14.77 53.23,-22.67 78.99,-22.67 4,0 7.91,0.24 11.91,0.61 25.29,2.58 44.64,13.1 54.35,29.97 9.67,16.77 9.2,38.73 -1.33,62.02 -11.91,26.44 -34.83,50.41 -64.46,67.65 -57.27,32.96 -123.77,29.4 -145.25,-7.91 -21.49,-37.21 8.62,-96.61 65.78,-129.67z"/>
   <path class="fil3" d="M4343.84 8462.78c17.72,-36.73 26.48,-76.41 26.11,-117.86 -1.19,-127.06 -42.84,-243.02 -43.22,-244.2 -2.61,-6.96 -2.37,-14.77 0.72,-21.63 102.72,-230.83 126.24,-405.61 70.03,-519.57 -34.35,-69.69 -99.43,-116.43 -193.32,-139 -28.82,-6.83 -58.11,-10.29 -87.03,-10.29 -114.3,0 -224.96,51.97 -292.37,142.09 -180.08,240.17 105.43,505.99 117.72,517.22 6.96,6.38 10.39,15.92 9.1,25.39 -1.29,9.3 -7.2,17.58 -15.72,21.82 -109.1,54.59 -128.48,162.6 -57.74,321.19 43.21,96.98 136.63,158.12 243.63,159.78 1.29,0 2.61,0 4,0 96,0 177.36,-50.31 218.1,-134.96zm1257.5 -644.28c0,122.34 -98.1,221.76 -219.96,224.48 49.56,45.59 138.16,149.16 169.05,328.42 21.05,-34.49 51.26,-68.26 94.03,-91.07 86.9,-46.06 200.28,-33.98 337.07,35.91 14.26,7.33 20.03,24.68 12.56,38.83 -7.13,14.29 -24.78,19.86 -38.7,12.66 -118.81,-60.73 -214.2,-72.98 -283.44,-36.49 -93.35,49.36 -110.32,175.46 -110.32,176.79 -2.04,14.5 -14.26,25.26 -28.85,25.26 -0.68,0 -1.02,0 -1.7,0 -15.27,-0.95 -27.15,-13.58 -27.15,-28.82 0,-287.55 -154.11,-415.56 -183.64,-437.63 -196.58,-34.01 -345.13,-0.85 -440.54,99.67 -218.57,230.25 -102.76,739.8 -101.57,744.89 33.3,160.6 101.7,263.59 203.6,306.56 202.04,85.48 475.98,-86.32 478.7,-88.08 4.76,-2.95 10.19,-4.52 15.62,-4.52 4.75,0 9.84,1.19 13.92,3.56 9.5,5.09 15.27,14.76 15.27,25.39 0,53.6 80.11,79.23 147.67,91.38 133.4,24.1 276.31,1.06 402.59,-64.7 284.12,-147.63 410.06,-361.48 375.1,-635.56 -19.01,-147.12 -88.94,-292.13 -196.89,-408.33 -204.01,-219.19 -293.96,-372.35 -297.7,-378.83 -5.09,-8.86 -5.09,-19.96 0,-28.96 195.52,-340.1 352.69,-856.24 354.39,-861.33 3.39,-12.15 14.6,-20.54 27.5,-20.54 208.08,0 285.14,-185.51 288.2,-193.42 112.02,-231.1 -24.1,-386.74 -158.19,-476.86 -77.05,-52.07 -167.69,-76.04 -254.25,-67.99 -89.28,8.25 -156.83,43.69 -200.96,105.09 -108.29,150.55 -48.54,410.94 -47.86,413.52 3.06,12.29 -2.38,24.92 -13.24,31.4 -292.27,177.64 -409.72,716.11 -449.09,962.07 70.26,38.16 118.81,111.72 118.81,197.22zm-531.82 -715.74c-1.43,-234.29 -205.02,-448.96 -213.65,-458.06 -0.34,-0.24 -0.81,-0.24 -1.05,-0.48 -2.24,-2.24 -4.72,-4.24 -7.81,-5.67 -1.63,-0.81 -3.39,-0.81 -5.06,-1.29 -1.19,-0.24 -2.14,-0.61 -3.33,-0.71 -5.19,-0.71 -10.39,0 -15.21,2.1 -0.24,0.14 -0.61,-0.1 -0.95,0.14l-19.01 9.1c-8.52,4.11 -14.39,12.05 -15.95,21.35 -3.3,19.48 -8.39,38.63 -14.87,57.54 -126.48,247.4 -228.62,307.72 -294.03,312.2 -78.89,6.38 -128.82,-70.5 -129.43,-71.32 -8.49,-13.34 -26.2,-17.48 -39.78,-8.86 -13.48,8.52 -17.62,26.24 -9,39.81 2.61,4.11 63.31,98.61 169.69,98.61 3.77,0 7.81,-0.24 11.81,-0.47 14.39,-0.95 28.92,-4.04 43.45,-8.52 2.04,6.52 5.43,12.39 11.1,16.19 132.72,87 246.11,140.64 336.81,159.07 11.44,2.48 23.01,3.53 34.49,3.53 37.31,0 73.32,-12.39 102.38,-36.15 38.02,-31.03 59.61,-77.8 59.4,-128.11zm-803.48 -290.74c22.68,39.2 66.02,59.78 115.72,59.78 34.83,0 72.64,-10.05 108.39,-30.72 40.16,-23.15 71.59,-56.59 88.46,-93.89 18.3,-40.74 17.82,-81.47 -1.39,-114.77 -19.28,-33.4 -54.35,-54.21 -98.75,-58.56 -41.11,-4.28 -85.48,6.38 -125.53,29.5 -87.24,50.31 -125.39,142.06 -86.9,208.66zm710.41 -1059.94c11.24,55.94 36.15,114.77 74.41,169.32 102.72,146.68 262.97,207.37 358.02,135.58 95.05,-71.69 88.6,-248.69 -13.92,-395.36 -31.22,-44.27 -67.55,-80.18 -105.57,-107.47 58.72,-67.99 38.36,-164.02 38.02,-165.21 -2.04,-9.1 -10.86,-14.73 -19.69,-12.63 -8.83,2.37 -14.26,11.47 -12.22,20.57 1.02,4.11 16.97,84.19 -35.3,138.5 -20.37,-11.81 -41.07,-21.01 -61.44,-27.5 48.2,-110.76 40.06,-214.7 39.72,-220.24 -0.68,-9.47 -8.82,-16.3 -17.65,-15.48 -9.16,0.81 -15.95,9.09 -15.27,18.54 0.34,1.32 7.81,103.56 -39.55,209.13 -5.57,-0.95 -11.1,-2.24 -16.53,-2.71 -47.96,107.23 -111.48,191.31 -173.02,254.96zm-1251.97 1013.3c-20.06,-63.54 -51.73,-119.02 -89.28,-162.02 -87.95,10.28 -193.28,9.57 -307.61,-17.59 -2.72,4.48 -5.09,9.57 -7.57,14.29 -112.63,-26.58 -189.62,-94.13 -190.57,-95.05 -7,-6.38 -17.62,-6.15 -23.76,0.58 -6.15,6.72 -5.54,17.24 1.43,23.59 4.14,3.8 82.08,72.88 199.09,102.04 -7.44,20.67 -12.63,42.97 -15.69,66.97 -74.88,8.59 -128.48,-54.07 -131.2,-57.41 -6.04,-7.2 -16.67,-8.25 -23.76,-2.71 -7.06,5.67 -8.01,16.06 -2,23.39 0.85,0.95 64.49,75.94 154.35,70.37 -1.43,46.78 4.96,97.42 21.25,148.82 53.97,170.74 190.7,283.27 305.4,251.4 114.64,-31.77 163.89,-195.93 109.92,-366.68zm2233.64 -1105.53c88.26,114.53 139.52,250.11 154.79,405.37 -70.26,19.96 -126.28,58.59 -167.01,115.38 -105.91,147.49 -74.34,371.5 -61.44,440.24 -115.41,76.65 -203.67,202.18 -270.88,342.1 -159.2,108.76 -336.74,213.38 -532.13,313.18 -223.33,114.19 -431.75,203.94 -627.17,270.54 -1.77,-4.14 -2.95,-8.62 -4.85,-12.63 -42.37,-85.98 -120.3,-143.01 -231.78,-169.73 -164.26,-39.55 -340.95,22.1 -439.19,153.3 -42.97,57.27 -63.27,115.72 -68.6,172.41 -23.86,0.34 -47.45,0.24 -70.88,-0.38 -266.74,-161.75 -594.55,-431.85 -656.77,-806.06 -46.2,-277.84 61.27,-575.92 319.19,-886.11l801.69 -29.06c8.15,-0.34 15.96,-4.14 21.29,-10.52l605.41 -738.38c109.24,-2.04 888.89,-1.32 1228.35,440.34zm-715.23 2338.73c-174.44,-14.05 -310.7,28.69 -405.17,128.11 -240.09,253.06 -121.05,775.75 -115.99,797.1 37.2,179.74 117.18,296.65 237.72,347.53 185.75,78.31 411.08,-25.26 496.96,-72.17 12.56,28.95 39.04,52.44 78.07,70.88 -328.93,230.52 -514.34,476.25 -517.15,479.89 -3.67,5.09 -5.67,11.13 -5.67,17.28 0,362.17 -288.03,427 -301.37,429.82 -249.77,62.12 -462.54,28.69 -632.47,-99.29 -138.63,-104.52 -226.72,-271.73 -235.81,-447.57 -5.09,-100.51 21.59,-180.08 79.23,-236.4 94.23,-92.13 248.11,-101.7 307.51,-101.7 14.87,0 23.83,0.72 24.3,0.72 0.37,0 0.61,-0.24 0.95,-0.24 0.48,0.13 0.82,0.24 1.19,0.24l139.21 0c15.95,0 28.95,-12.87 28.95,-28.79 0,-16.09 -13,-28.96 -28.95,-28.96l-85.95 0 131.91 -203.7 85 79.7c5.57,5.33 12.63,7.91 19.72,7.91 7.67,0 15.48,-3.05 21.04,-9.2 10.97,-11.57 10.35,-29.87 -1.32,-40.83l-106.05 -99.56c-74.04,-148.55 -116.3,-283.89 -135.54,-405.75 29.63,-25.87 54.55,-57.88 72.74,-95.66 10.02,-20.91 17.48,-42.5 22.78,-64.73 20.77,6.38 42.5,10.89 65.41,10.89 124.11,0 225.09,-100.99 225.09,-225.09 0,-47.69 -15.24,-91.85 -40.73,-128.35l315.86 -459.86 182.35 117.99c-9.47,24.78 -15.24,51.46 -15.24,79.7 0,73.9 36.43,139.11 91.41,180.08z"/>
   <polygon class="fil4" points="6852.57,5420.36 7053.87,5145.44 6941.17,4824.01 7264.67,4930.29 7535.89,4724.11 7534.87,5064.69 7814.58,5258.58 7490.41,5362.72 7392.3,5688.91 7193.04,5412.69 "/>
   <polygon class="fil5" points="8070.87,6006.9 7889.6,6003.14 7783.69,6150.49 7731.07,5976.9 7558.29,5921.77 7706.97,5818.07 7706.3,5636.7 7850.56,5746.27 8023.01,5689.35 7963.26,5860.7 "/>
   <path class="fil6" d="M4100.25 4943.16c-73.46,-60.8 -158.02,-79.84 -188.84,-42.64 -30.92,37.34 3.57,116.8 76.99,177.6 73.36,60.83 157.88,79.97 188.74,42.63 30.93,-37.2 -3.56,-116.77 -76.89,-177.6zm-512.98 432.9c-37.1,-87.85 -103.23,-143.72 -147.83,-124.92 -44.54,18.78 -50.69,105.2 -13.72,193.09 37.07,87.85 103.19,143.69 147.87,124.92 44.5,-18.77 50.65,-105.23 13.68,-193.08zm547.67 -42.4l89.99 121.19 -76.75 57.03 -86.66 -116.67c-19.01,15.11 -38.39,30.21 -58.35,45.35l85.74 115.38 -38.39 28.55 -85.71 -115.48c-27.3,19.96 -54.21,39.11 -81.03,57.03l87.28 117.38 -76.75 57.16 -91.65 -123.39c-216.67,128.11 -412.84,164.7 -560.33,-33.91 -187.85,-252.82 -107.1,-630.81 180.22,-844.32 287.41,-213.45 672.62,-181.51 860.51,71.32 152.45,205.23 49.7,387.82 -148.11,563.39zm689.3 1418.61c5.81,-11.48 11.57,-23.63 17.48,-35.54 53.97,65.52 168.98,223.9 169.93,386.37 0.24,32.72 -13.72,62.96 -38.15,82.93 -24.31,19.96 -56.45,27.5 -88.67,20.78 -79.7,-16.19 -180.56,-63.31 -297.84,-138.53l0.58 -0.48c71.46,-61.51 186.6,-177.36 236.67,-315.52z"/>
  </g>
 </g>
</svg>
