<?xml version="1.0" encoding="UTF-8"?>
<!DOCTYPE svg PUBLIC "-//W3C//DTD SVG 1.0//EN" "http://www.w3.org/TR/2001/REC-SVG-20010904/DTD/svg10.dtd">
<!-- Creator: CorelDRAW 2018 (64-Bit) -->
<svg xmlns="http://www.w3.org/2000/svg" xml:space="preserve" width="8.26772in" height="11.6929in" version="1.0" style="shape-rendering:geometricPrecision; text-rendering:geometricPrecision; image-rendering:optimizeQuality; fill-rule:evenodd; clip-rule:evenodd"
viewBox="0 0 8267.72 11692.91"
 xmlns:xlink="http://www.w3.org/1999/xlink">
 <defs>
  <style type="text/css">
   <![CDATA[
    .fil0 {fill:black;fill-rule:nonzero}
    .fil2 {fill:#423D41;fill-rule:nonzero}
    .fil3 {fill:#EA79A5;fill-rule:nonzero}
    .fil4 {fill:#F395B0;fill-rule:nonzero}
    .fil1 {fill:white;fill-rule:nonzero}
   ]]>
  </style>
 </defs>
 <g id="Слой_x0020_1">
  <metadata id="CorelCorpID_0Corel-Layer"/>
  <g id="_2265459355840">
   <path class="fil0" d="M7813.33 7982.85c-89.2,0 -164.98,56.91 -194.36,136.09l-1041.69 -342.85c408.04,-141.86 755.97,-370.43 1016.54,-675.78 368.14,-431.31 531.78,-982.09 460.85,-1550.49 -60.88,-487.85 -307.4,-915.53 -674.54,-1242.46l195.82 -249.91c6.89,-9.05 7.78,-21.23 2.05,-31.07l-864.77 -1479.22c63.02,-58.72 102.68,-142.16 102.68,-234.87 0,-177.31 -144.22,-321.52 -321.5,-321.52 -177.32,0 -321.65,144.2 -321.65,321.52 0,92.13 39.18,175.08 101.41,233.76l-746.6 1088.33c-138.91,-0.9 -280.19,6.89 -422.93,24.74 -588.63,73.5 -1128.33,301.07 -1553.27,649.37l-288.22 -657.93c-4.06,-9.29 -12.89,-15.63 -22.92,-16.5l-2426.02 -211.43c0,-0.87 0.12,-1.72 0.12,-2.59 0,-170.24 -138.48,-308.7 -308.73,-308.7 -170.28,0 -308.76,138.46 -308.76,308.7 0,170.2 138.48,308.76 308.76,308.76 42.59,0 83.17,-8.67 120.15,-24.39l1399.14 2057.77c5.25,7.66 13.89,12.07 22.89,12.07 2.43,0 4.87,-0.35 7.3,-1.01l682.12 -186.37c-43.56,206.57 -53.63,418.2 -27.2,630.09 116.65,934.63 865.41,1425.99 1754.07,1622.82l-574.39 284.37c-42,-43.6 -100.73,-71.03 -165.88,-71.03 -127.16,0 -230.62,103.46 -230.62,230.5 0,127.28 103.46,230.71 230.62,230.71 116.19,0 211.62,-86.61 227.43,-198.51l461.89 -5.2c-1.22,78.6 2.05,169.5 14.8,266.96l-122.96 123c-35.59,-22.36 -77.13,-35.81 -122.09,-35.81 -127.16,0 -230.63,103.46 -230.63,230.62 0,127.16 103.48,230.59 230.63,230.59 127.06,0 230.62,-103.43 230.62,-230.59 0,-6.55 -1.5,-12.76 -2.04,-19.22l76.8 -25.38c37.61,117.09 92.27,235.12 171.19,344.99 197.09,274.31 505.48,440.79 914.33,494.54 1.69,0.34 58.96,11.86 144.53,11.86 158.58,0 414.14,-39.97 590.67,-266.07 68.98,61.32 281.97,230.25 545.78,224.74 212.44,-3.14 400.93,-147.84 469.02,-360.02 35.22,-109.79 50.03,-249.8 -1.5,-407.48 16.62,4.29 33.57,7.25 51.4,7.25 114.75,0 208.15,-93.4 208.15,-208.15 0,-114.74 -93.4,-208 -208.15,-208 -35.68,0 -68.89,9.8 -98.24,25.75l-271.72 -312.5 606.68 37.82c20.42,93.4 103.55,163.65 202.92,163.65 114.77,0 208.17,-93.4 208.17,-208.13 0,-114.75 -93.4,-208.15 -208.17,-208.15z"/>
   <path class="fil1" d="M7144.56 8677.64c7.89,10.48 15.58,20.87 22.69,31.26 4.97,61.68 36.36,115.67 83.46,150.57 68.98,165.89 56.45,312.46 20.45,424.39 -60.87,189.49 -228.57,318.79 -417.19,321.61 -243.61,4.55 -445.98,-155.72 -508.67,-211.27 51.52,-51.3 183.19,-188.84 250.98,-315.45 30.03,-56.13 71.94,-98.14 121.15,-121.61 50.71,-24.41 91.94,-19.54 126.15,14.67 10.85,10.72 28.34,10.72 39.19,0 10.71,-10.84 10.71,-28.34 0,-39.18 -32.3,-32.2 -70.02,-47.66 -111.58,-46.1 -24.83,-80.41 -136.41,-353.69 -498.15,-291.49 -114.05,19.68 -227.89,72.3 -329.18,152.26l-161.28 127.39c-75.9,59.96 -135.5,95.22 -199.55,118.13 -59.96,21.46 -112.49,29.25 -156.19,23.05 -41.46,-5.88 -77.36,-30.84 -98.37,-68.56 -22.27,-39.77 -24.87,-88.2 -6.91,-129.63 50.61,-116.35 184.23,-304.93 509.68,-258.5 59.76,8.44 115.76,36.36 157.77,78.37 10.84,10.84 28.34,10.84 39.19,0 10.74,-10.84 10.74,-28.34 0,-39.09 -50.48,-50.48 -117.55,-83.92 -189.17,-94.08 -362.07,-51.48 -511.24,160.37 -568.15,291.26 -24.87,57.14 -21.36,124.01 9.25,178.68 29.58,52.85 80.19,87.94 138.91,96.32 12.17,1.69 24.83,2.6 37.92,2.6 43.5,0 92.07,-9.48 144.69,-28.34 70.02,-25.09 134.4,-62.91 215.14,-126.7l161.28 -127.42c94.18,-74.31 199.43,-123.07 304.35,-141.15 315.77,-54.99 412.09,174.04 434.69,247.89 -7.79,2.82 -15.58,5.87 -23.5,9.7 -59.96,28.57 -110.44,78.82 -146.15,145.47 -79.24,148.07 -259.51,320.38 -261.3,322.07 -0.68,0.68 -1,1.59 -1.59,2.37 -0.58,0.58 -1.36,0.91 -1.79,1.59 -247.46,347.72 -693.09,258.37 -699.65,257.05 -395.15,-51.94 -690.69,-210.76 -878.49,-472.05 -75.12,-104.37 -127.29,-217.64 -162.97,-330.44l1549.9 -511.04 1052.98 355.41zm-2664.89 -151.8l218.41 -218.51 -227.99 2.59c-0.91,64.47 1.46,137.68 9.58,215.92zm-271.94 -1266.66c-361.48,-327.17 -549.51,-748.19 -529.55,-1188.62 -0.42,-9.48 -35.78,-956.21 1364.15,-1363.2l960.92 481.89c7.6,3.7 16.49,3.83 24.06,0.33l834.83 -386.44c108.3,85.02 861.9,705.82 861.9,1509.35 0,340.25 -144.69,658.26 -418.32,919.59 -408.03,389.85 -1046.1,603.89 -1707.32,574.28 -533.96,-24.38 -1027.79,-218.74 -1390.67,-547.17zm2385.48 -1666.87c222.15,442.8 527.53,318.89 527.53,318.89 142.06,-45.7 204.42,-229.58 139.24,-410.72 -20.32,-56.45 -50.94,-105.57 -87.3,-145.57 68.79,-46.29 79.28,-123.78 79.28,-124.79 1.01,-8.57 -6.1,-15.72 -15.81,-15.91 -9.61,-0.23 -18.18,6.3 -19.19,14.77 -0.32,3.51 -8.47,67.43 -65.96,104.01 -22.24,-20.78 -45.97,-38.27 -70.9,-52.04 67.39,-75.35 89.21,-150.79 90.44,-155.3 2.27,-8.02 -3.38,-15.81 -12.43,-17.27 -9.13,-1.46 -18.28,3.96 -20.55,11.98 -0.33,1.01 -21.69,74.64 -87.07,146.35 -6.43,-2.82 -12.89,-5.87 -19.41,-8.11 -99.73,96.22 -339.02,286.49 -437.87,333.72zm-627 421.89c0,82.91 97.04,147.84 220.82,147.84 123.65,0 220.65,-64.93 220.65,-147.84 0,-82.78 -97,-147.58 -220.65,-147.58 -123.78,0 -220.82,64.8 -220.82,147.58zm-473.41 402.29c-1.33,3.6 -2.14,7.43 -1.91,11.39 1.36,20 37.04,493.19 346.8,748.28 52.63,43.15 119.5,66.42 188.06,66.42 14.44,0 28.8,-1.01 43.24,-3.05 78.82,-11.3 148.52,-53.63 191.18,-115.99 87.56,-126.93 156.08,-319.15 204.42,-576.65l0 -0.55c0,-7.2 -3.28,-13.67 -8.11,-18.73 9.8,-3.83 20.32,-6.56 29.7,-10.97 88.2,-41.33 148.49,-106.61 179.1,-194 5.09,-14.35 -2.5,-30.16 -16.95,-35.26 -14.57,-5.19 -30.26,2.6 -35.22,16.94 -25.87,73.86 -75.12,126.93 -150.33,162.19 -37.37,17.5 -79.15,29.48 -123.75,37.14 -59.08,5.19 -140.83,9.61 -232.63,7.69 -199.55,-14.9 -403.07,-72.62 -507.17,-105.93 -10.29,-5.2 -20.68,-10.3 -30.61,-15.94 -6.91,-4.19 -15.39,-4.84 -22.95,-2.24l-0.55 0.23c-10.39,-3.64 -16.39,-5.88 -16.95,-6.11 -14.22,-5.42 -30.15,1.92 -35.55,16.27 -2.4,6.33 -1.94,12.98 0.2,18.86zm-436.7 -831.19c-117,-33.34 -415.14,-197.73 -542.63,-284.93 -6.69,3.74 -13.11,8.47 -19.67,12.76 -104.01,-75.9 -149.76,-169.85 -150.31,-171.08 -4.41,-9.38 -16.62,-14.02 -27.33,-10.19 -10.61,3.73 -15.58,14.35 -11.17,23.73 2.59,5.43 48.98,101.42 156.5,181.6 -23.28,19.54 -44.73,42.56 -63.92,68.89 -71.71,-29.48 -93.72,-100.41 -94.86,-104.37 -2.69,-9.35 -13.54,-15 -24.15,-12.85 -10.52,2.24 -16.94,11.62 -14.25,21 0.36,1.13 27.69,86.84 113.72,125.02 -31.62,51.26 -55.09,111.48 -66.07,177.87 -35.22,213.31 68.89,405.08 232.67,428.26 0,0 356.97,78.04 511.46,-455.69z"/>
   <path class="fil2" d="M2764.89 6210.15c-72.17,-578.43 131.46,-1156.54 573.49,-1627.82 443.39,-472.5 1073.09,-780.94 1773.16,-868.33 133.04,-16.62 264.71,-24.63 394.37,-24.63 1277.95,0 2358.37,781.4 2493.91,1867.35 68.98,552.79 -90.12,1088.22 -448.13,1507.63 -78.95,92.63 -166.35,177.91 -261.11,255.91 18.09,-15.9 36.14,-31.71 53.4,-48.11 284.71,-272.04 435.28,-603.95 435.28,-959.68 0,-889.6 -888.14,-1557.02 -897.04,-1563.71 -8.15,-5.96 -18.86,-6.97 -28.14,-2.91l-837.85 387.93 -958.78 -480.79c-6.23,-3.14 -13.34,-3.69 -20.12,-1.78 -1454.78,418.06 -1414.92,1412.56 -1414.37,1419.7 -20.79,454.33 173.71,890.93 547.62,1229.27 372.32,337.1 878.63,536.41 1425.31,561.38 41.91,2.05 83.81,2.96 125.5,2.96 178.88,0 354.93,-18.08 524.77,-51.63 -187.44,41.67 -384.85,66.85 -590.5,73.73 -1291.62,43.5 -2728.26,-374.14 -2890.77,-1676.48zm2892.56 1731.83c-60.06,1.91 -120.48,2.94 -181.02,2.94 -310,0.11 -624.4,-27.13 -925.04,-86.64l-628.47 311.14c15.81,27.32 25.85,58.04 29.26,91.02l813.25 -9.16c0,0 0.09,0 0.23,0 11.15,0 21.2,6.69 25.52,16.96 4.38,10.38 2,22.36 -5.89,30.25l-436.96 436.96c23.41,24.16 40.92,53.63 51.98,86.15l1682.67 -554.82c5.78,-1.81 11.89,-1.81 17.54,0.12l1075.78 363.04c10.61,-33.64 29.04,-63.66 53.89,-87.5l-311.58 -358.33c-7.34,-8.47 -8.81,-20.45 -3.85,-30.51 4.84,-9.94 14.77,-16.04 26.43,-15.23l665.27 41.42c0.13,-2.14 0.46,-4.29 0.69,-6.52l-1117.59 -367.85c-257.15,79.83 -536.42,126.48 -832.09,136.55zm836.98 -5368.88c143.74,0 260.87,-117.02 260.87,-260.83 0,-143.81 -117.13,-260.84 -260.87,-260.84 -143.89,0 -260.88,117.03 -260.88,260.84 0,143.81 117,260.83 260.88,260.83zm175.04 8.55c-50.48,32.89 -110.57,52.2 -175.04,52.2 -65.29,0 -126.06,-19.7 -176.87,-53.26l-723.91 1055.37c677.71,18.86 1295.69,253.51 1744.82,634.93l182.28 -232.77 -851.3 -1456.46zm-6417.28 838.37c0,139.72 113.72,253.43 253.44,253.43 139.76,0 253.42,-113.71 253.42,-253.43 0,-139.72 -113.65,-253.37 -253.42,-253.37 -139.72,0 -253.44,113.65 -253.44,253.37zm2966.93 267.78l288.22 657.81c-73.41,62.83 -143.52,128.85 -209.25,198.87 -276.15,294.32 -460.89,629.63 -546.95,981.19l-691.54 189.06 -1384.85 -2036.67c68.59,-45.15 118.15,-116.86 134,-200.33l2410.38 210.06z"/>
   <path class="fil3" d="M6187.02 5921.81c89.53,0 165.3,42.36 165.3,92.39 0,50.16 -75.77,92.49 -165.3,92.49 -89.7,0 -165.47,-42.33 -165.47,-92.49 0,-50.03 75.77,-92.39 165.47,-92.39zm1779.13 2269.2c0,-84.28 -68.53,-152.81 -152.8,-152.81 -84.15,0 -152.68,68.53 -152.68,152.81 0,84.24 68.54,152.77 152.68,152.77 84.27,0 152.8,-68.53 152.8,-152.77zm-592.46 654.2c84.28,0 152.81,-68.53 152.81,-152.8 0,-84.25 -68.53,-152.68 -152.81,-152.68 -84.24,0 -152.77,68.43 -152.77,152.68 0,84.28 68.53,152.8 152.77,152.8zm-3190.8 -125.11c-96.68,0 -175.4,78.59 -175.4,175.27 0,96.68 78.72,175.37 175.4,175.37 96.55,0 175.27,-78.69 175.27,-175.37 0,-96.67 -78.72,-175.27 -175.27,-175.27zm-283.7 -436.5c0,-96.55 -78.72,-175.14 -175.37,-175.14 -96.67,0 -175.27,78.59 -175.27,175.14 0,96.68 78.59,175.4 175.27,175.4 96.65,0 175.37,-78.72 175.37,-175.4z"/>
   <path class="fil4" d="M5802.58 4714.82l0 149.27 94.73 0 -0.1 -143.88c24.06,0.91 48.34,1.36 73.08,1.59l0 142.29 47.43 0 -0.13 -142.29c33.44,-0.23 66.19,-1 97.91,-2.46l0.13 144.75 94.63 0 0 -152.12c247.66,-26.07 425.2,-112.81 425.07,-357.65 0,-311.59 -287.17,-564.31 -641.44,-564.22 -354.28,0 -641.48,252.76 -641.48,564.44 0.13,253.08 189.39,337.46 450.17,360.28zm-73.21 -298.37c-11.17,87.62 -56.32,154.13 -100.96,148.49 -44.47,-5.65 -71.48,-81.42 -60.28,-169.07 11.17,-87.75 56.23,-154.26 100.83,-148.49 44.51,5.65 71.62,81.29 60.41,169.07zm570.78 -166.15c46.52,-5.65 93.3,64.15 104.47,155.76 11.17,91.68 -17.5,170.5 -64.05,176.15 -46.52,5.78 -93.4,-64.02 -104.44,-155.63 -11.2,-91.67 17.5,-170.5 64.02,-176.27zm-751.69 2196.9c9.06,3.05 19.67,6.56 31.29,10.39 156.64,77.91 348.95,103.79 512.83,108.53 20.78,1.59 41.55,2.95 62.33,3.6 63.69,2.17 126.38,-1.13 185.33,-10.62 11.98,-1 23.05,-2.01 33.21,-3.02 9.02,-1.26 17.59,-2.4 25.84,-3.63l7.37 5.52c-46.2,236.72 -110.8,416.41 -192.12,534.19 -34.44,50.48 -88.98,83.33 -153.36,92.62 -67.88,9.8 -136.64,-9.06 -188.38,-51.29 -253.96,-209.26 -313.15,-589.5 -324.34,-686.28z"/>
  </g>
 </g>
</svg>
