<?xml version="1.0" encoding="UTF-8"?>
<!DOCTYPE svg PUBLIC "-//W3C//DTD SVG 1.0//EN" "http://www.w3.org/TR/2001/REC-SVG-20010904/DTD/svg10.dtd">
<!-- Creator: CorelDRAW 2018 (64-Bit) -->
<svg xmlns="http://www.w3.org/2000/svg" xml:space="preserve" width="8.26772in" height="11.6929in" version="1.0" style="shape-rendering:geometricPrecision; text-rendering:geometricPrecision; image-rendering:optimizeQuality; fill-rule:evenodd; clip-rule:evenodd"
viewBox="0 0 8267.72 11692.91"
 xmlns:xlink="http://www.w3.org/1999/xlink">
 <defs>
  <style type="text/css">
   <![CDATA[
    .fil0 {fill:black;fill-rule:nonzero}
    .fil2 {fill:#423D41;fill-rule:nonzero}
    .fil3 {fill:#EA79A5;fill-rule:nonzero}
    .fil4 {fill:#F1DAE5;fill-rule:nonzero}
    .fil6 {fill:#F395B0;fill-rule:nonzero}
    .fil5 {fill:#F468A5;fill-rule:nonzero}
    .fil1 {fill:white;fill-rule:nonzero}
   ]]>
  </style>
 </defs>
 <g id="Слой_x0020_1">
  <metadata id="CorelCorpID_0Corel-Layer"/>
  <g id="_2265470708176">
   <path class="fil0" d="M6022.57 6088.9c-0.29,0.61 -0.5,1.34 -0.81,1.95 -89.86,237.59 -232.65,449.35 -424.74,629.37 -104.85,98.48 -222.07,184.56 -349.68,258.5 61.78,47.98 133.99,90.57 211.36,109.64 18.35,-80.22 96.02,-133.66 178.09,-120.08 41.37,6.87 77.57,29.51 101.91,63.58 24.35,34.08 33.98,75.65 27.09,116.92 -6.91,41.37 -29.42,77.59 -63.61,101.93 -26.84,19.27 -58.39,29.33 -90.86,29.33 -8.6,0 -17.32,-0.73 -26.07,-2.17 -40.66,-6.75 -76.15,-28.88 -100.48,-62.06 -69.17,28.09 -165.41,55.68 -291.47,69.17 21.31,22.91 39.86,48.69 53.56,77.98 41.08,87.75 40.15,188.13 -2.62,275.35 -79.83,162.58 -218.55,177.88 -266.34,178.09 95.94,540.34 -253.42,849.74 -328.17,908.98 41.08,181.85 4.05,276.66 -23.32,318.54 43,25.57 77.66,59.62 103.31,101.52 41.81,68.48 51.95,149.91 28.43,229.31 -24.54,83.26 -83.29,152.2 -161.07,189.44 -379.39,181.32 -734.33,66.23 -813.12,36.41 -204.36,195.85 -482.15,244.09 -706.28,244.09 -84.98,0 -162.26,-6.87 -224.94,-15.39 -193.2,-26.06 -344.5,-173.92 -368.14,-359.5 -34.57,-272.11 237.33,-368.55 284.67,-383.28 170.69,-174.04 130.22,-338.31 90.5,-421.17 -17.67,-36.93 -29.94,-75.55 -36.83,-114.71 -28.62,2.54 -56.78,4.37 -84.2,4.37 -514.15,0 -808.88,-430.72 -867.69,-525.93l-139.22 50.07c-8.13,2.87 -17.15,1.35 -23.86,-3.84 -6.78,-5.27 -10.26,-13.79 -9.33,-22.22l63.38 -572.38c1.02,-8.83 6.59,-16.41 14.73,-19.97 8.09,-3.64 17.54,-2.54 24.72,2.63l469.23 344.1c6.91,4.96 10.76,13.18 10.18,21.69 -0.61,8.54 -5.48,16.13 -13,20.2l-151.83 81.72c315.63,401.02 593.81,416.41 721.59,395.33 51.01,-216.52 177.97,-408.3 310.32,-559.72 -39.64,5.27 -80.63,9.23 -123.22,11.78 1.02,12.68 1.02,25.44 -1.11,38.42 -12.77,76.67 -79.51,131.04 -154.78,131.04 -8.5,0 -17.11,-0.61 -25.85,-2.13 -85.27,-14.19 -143.19,-95.13 -129,-180.52 6.91,-41.27 29.54,-77.48 63.61,-101.82 34.05,-24.43 75.65,-34.17 117.02,-27.16 31.75,5.24 59.52,19.87 81.41,40.45 83.3,-67.25 187.96,-166.14 219.09,-250.51 -121.31,17.06 -503.74,62.36 -711.24,-7.7 -11.25,23.83 -27.79,44.74 -49.8,60.44 -26.96,19.27 -58.5,29.3 -90.86,29.3 -8.72,0 -17.44,-0.7 -26.17,-2.13 -41.25,-6.89 -77.47,-29.51 -101.81,-63.58 -24.34,-34.09 -33.96,-75.65 -27.19,-116.93 6.9,-41.37 29.52,-77.57 63.6,-101.93 34.18,-24.43 75.74,-33.96 117.02,-27.08 41.28,6.92 77.49,29.42 101.84,63.5 8.52,11.95 14.6,24.95 19.35,38.33l414.7 -101.13c-728.57,-182.93 -1147.21,-615.06 -1243.04,-1287.14 -21.6,-152.53 -18.57,-308.31 8.72,-463.39l-222.62 -2.53c-9.24,-0.09 -17.66,-5.36 -21.8,-13.58l-861.71 -1701.22c-15.55,9.04 -31.95,16.96 -49.71,22.91 -27.88,9.33 -56.18,13.72 -83.76,13.72 -100.19,0 -191.46,-58.18 -222.72,-151.68 -19.48,-58.16 -13.09,-120.95 17.95,-176.81 30.64,-55.13 81.75,-96.96 143.93,-117.72 62.16,-20.84 128.16,-18.14 185.79,7.5 58.39,25.94 101.21,72.26 120.66,130.4 11.05,33 12.8,66.81 7.73,99.64l1934.46 56.81c10.46,0.32 19.59,7.09 22.84,16.94l147.36 440.66c261.23,-132.06 545.2,-220.44 844.46,-262.89 182.67,-25.91 364.41,-33.64 542.18,-24.02l-105.28 -409.39c-2.53,-9.77 1.12,-20.09 9.24,-26.08l1424.78 -1062.03c-32.85,-30.32 -58.3,-68.4 -71.6,-112.68 -19.19,-63.5 -11.57,-130.63 21.31,-188.96 35.27,-62.65 97.46,-109.38 170.57,-128.27 146.13,-37.65 298.05,42.36 339.01,178.32 19.07,63.52 11.46,130.63 -21.28,189.03 -35.39,62.62 -97.57,109.35 -170.61,128.22 -0.07,0.03 -0.2,0.03 -0.28,0.06l128.29 1782.78c0.7,8.84 -3.46,17.32 -10.76,22.3l-282.22 192.81c277.97,255.15 453.32,575.09 503.41,929.15 38.73,275.13 8.63,554.74 -87.31,808.67z"/>
   <path class="fil1" d="M4069.32 7252.75c0.7,7.29 -1.92,14.69 -7.2,19.97l-260.85 260.86c-2.01,2.01 -4.46,3.73 -7.2,4.95l-290.04 132.97c33.46,68.85 167.83,277.68 538.62,194.42 130.72,-29.42 242.28,-97.57 313.77,-191.88 62.79,-82.65 94.51,-176.17 94.51,-277.8 0,-9.91 6,-18.86 15.13,-22.8 8.02,-3.56 197.57,-88.25 195.52,-322.92 -0.93,-113.99 -79.2,-214.48 -190.37,-244.21 -11.57,-3.15 -23.81,-6.07 -36.7,-8.72 -83.38,-17.03 -171.19,1.22 -240.77,50.41 -67.95,48.07 -111.65,119.17 -123.02,200.31 -8.4,59.91 -8.93,128.68 -1.4,204.44zm641.94 -202.64c0.93,107.8 -34.98,188.03 -78.39,245.93 0.12,107.92 17.46,245.64 91.48,344.11 55.77,74.02 137.13,116.52 242.08,126.15 6.79,0.81 152.03,15.42 233.16,-149.87 36.18,-73.64 37.02,-158.33 2.22,-232.35 -32.86,-70.29 -94.31,-120.98 -168.53,-139.06l-6.5 -1.51c-10.85,-2.63 -18.66,-12.07 -19.15,-23.2 -0.44,-11.08 6.47,-21.2 17.11,-24.67 2.85,-0.91 73.52,-25.54 110.66,-111.16 40.14,-92.76 24.31,-200.48 -41.4,-281.12 -64.4,-78.89 -160.22,-113.98 -256.78,-93.9 -73.72,15.51 -145.82,59.33 -215.2,129.61 54.75,55.15 88.65,130.02 89.24,211.04zm-1658.31 -1322.94c0.38,1.11 40.64,94.8 137.8,116.4 -18.54,45.94 -30.2,98.07 -31.63,153.96 -4.87,185.59 98.98,338.52 231.94,341.67 132.93,3.03 244.7,-144.92 249.57,-330.5 1.72,-69.06 -11.57,-133.67 -35.72,-187.62 -96.84,-16.44 -207.97,-48.89 -319.13,-110.34 -4.78,3.64 -9.13,8.1 -13.7,12.27 -109.73,-60.35 -166.02,-151.13 -166.72,-152.24 -5.07,-8.39 -16.32,-11.34 -25.36,-6.59 -8.92,4.78 -12.07,15.42 -7,23.73 2.94,5.07 59.94,97.46 173.43,161.77 -15.3,18.05 -28.89,38.63 -40.67,61.37 -82.44,-14.22 -116.44,-92.5 -118.15,-96.55 -3.76,-9.04 -14.49,-13.3 -24.14,-9.94 -9.53,3.56 -14.28,13.58 -10.52,22.62zm1197.91 656.46c2.83,3.85 71.6,94.02 216.81,119.46 25.37,4.46 50.61,6.59 75.77,6.59 109.73,0 214.59,-41.57 290.45,-117.54 44.31,-44.31 76.26,-96.56 94.83,-155.27 4.26,-13.09 -3.03,-26.97 -16.12,-31.13 -13.29,-4.17 -27.08,3.03 -31.13,16.12 -16.24,51.1 -44.02,96.55 -82.65,135.18 -81.86,81.86 -202.14,118.16 -322.6,97.08 -124.86,-21.8 -185,-99.5 -185.59,-100.22 -8.33,-10.93 -23.85,-13.18 -34.69,-4.96 -11.07,8.22 -13.29,23.73 -5.07,34.69zm214.89 -271c16.15,48.39 66.73,76.58 127.19,76.58 21.8,0 44.92,-3.64 68.04,-11.37 87.52,-29.3 138.83,-103.84 116.93,-169.55 -22.1,-65.82 -107.89,-94.42 -195.32,-65.12 -87.43,29.21 -138.74,103.66 -116.84,169.46zm566.11 -611.21c-0.11,57.2 12.77,120.08 39.94,181.74 73.03,165.5 221.09,259.23 330.62,209.32 109.64,-49.88 139.26,-224.54 66.12,-390.04 -22.01,-49.91 -51.02,-92.82 -83.46,-127.6 72.82,-53.93 71.51,-152.61 71.39,-153.83 -0.2,-9.42 -7.9,-16.85 -17.23,-16.65 -9.21,0.44 -16.53,8.13 -16.33,17.55 0.09,4.26 0.91,86.93 -62.47,128.91 -18.25,-16.33 -37.23,-30.03 -56.7,-40.87 70.49,-98.19 83.67,-201.62 84.28,-207.19 1.13,-9.44 -5.48,-17.87 -14.69,-18.98 -9.24,-1.11 -17.55,5.6 -18.66,14.93 -0.12,1.31 -13.3,103.02 -82.15,196.34 -5.39,-2.13 -10.64,-4.57 -16.04,-6.3 -69.67,94.83 -150.19,163.49 -224.62,212.67zm-1013.22 1742.3c-202.14,7.31 -393.21,4.57 -568.04,-9.22 -262.37,-20.9 -499.27,-129.81 -667.01,-306.89 -157.19,-166.02 -229.2,-350.09 -214.1,-546.93 25.98,-335.28 302.31,-709.8 821.66,-1113.45l1103.39 296.34c8.95,2.44 18.45,-0.38 24.67,-7.2l587.39 -637.27c120.17,18.04 980.98,181.94 868.51,1154.7 -87.11,230.22 -225.76,435.48 -412.04,610.22 -107.02,100.49 -227.07,187.92 -358.32,262.14 -6.38,-62.15 -30.43,-122.91 -72.21,-174.13 -76.35,-93.58 -190.37,-135.27 -305.46,-111.13 -84.37,17.64 -165.7,66.94 -242.78,145.82 -29.71,-21.49 -63.17,-38.54 -100.11,-48.48 -12.48,-3.32 -25.74,-6.47 -39.74,-9.33 -97.17,-19.88 -198.79,1.52 -279.4,58.54 -79.32,55.98 -130.22,139.15 -143.52,233.95 -8.4,60.15 -9.33,128.19 -2.92,202.32zm481.81 167.86c17.95,-9.74 49.99,-29.62 83.67,-61.17 5.98,105.07 30.43,226.17 100.49,319.46 58.13,77.37 139.87,124.63 242.4,141.27 112.35,575.94 -299.78,870.23 -319.25,883.81 -8.51,5.89 -12.48,16.35 -10.06,26.3 49.59,203.14 -3.35,285.46 -20.17,305.46l-120.69 0c-13.79,0 -24.84,11.05 -24.84,24.84 0,13.7 11.05,24.84 24.84,24.84l124.74 0c45.04,22.33 80.72,54.17 105.8,95.04 34.37,56.3 42.68,123.52 23.2,189.23 -20.7,69.8 -69.88,127.6 -134.98,158.74 -347.56,166.2 -682.55,67.11 -767,37.11 11.75,-42.51 32.65,-137.83 17.14,-233.78 -8.51,-53.35 3.24,-104.16 33.26,-143.2 68.94,-89.44 202.11,-247.36 319.25,-298.67 12.57,-5.56 18.25,-20.17 12.77,-32.74 -5.48,-12.59 -20.18,-18.16 -32.74,-12.8 -120.9,52.94 -250.92,199.99 -338.64,314 -38.45,49.88 -53.64,114.28 -42.88,181.3 15.92,99.29 -12.59,202.02 -20.2,227.1 -266.8,262.67 -676.13,252.2 -897.11,222.37 -170.89,-23.12 -304.76,-153.22 -325.54,-316.6 -32.16,-252.72 243.07,-327.79 254.85,-330.94 0.12,0 0.2,-0.09 0.32,-0.17 0.3,-0.12 0.61,0 0.91,-0.12 62.97,-19.88 164.59,-34.9 193.4,-6.09 9.65,9.65 25.37,9.65 35.1,0 9.74,-9.74 9.74,-25.45 0,-35.19 -36.62,-36.61 -109.65,-33.67 -166.52,-24.22 135.39,-175.24 93.7,-337.12 52.74,-422.92 -31.25,-65.1 -43.85,-135.79 -36.32,-204.44 29.41,-269.25 196.75,-509.7 360.65,-685.67 84.07,-15.22 161.12,-35.59 231.2,-59.82 34.61,67.54 149.79,240.74 422.19,240.74 51.34,0 108.13,-6.09 171.09,-20.29 142.3,-31.92 263.89,-106.67 342.57,-210.33 66.24,-87.31 101.33,-185.58 104.37,-292.46z"/>
   <path class="fil2" d="M5848.94 4125.29l-280.91 191.83c-87.72,-76.11 -184.48,-146.41 -290.54,-209.25 -309.34,-183.19 -669.67,-291.12 -1049.87,-319.17l-105.36 -409.36 1423.26 -1060.84c44.72,27.71 97.46,43.93 152.61,43.93 7.82,0 15.82,-0.86 23.73,-1.5l127.08 1764.37zm-89.94 -1820.31c60.15,-15.47 111.06,-53.55 139.73,-104.47 26.19,-46.48 32.16,-99.86 17.06,-150.31 -27.7,-92.01 -118.77,-152.29 -217.83,-152.29 -20.32,0 -40.79,2.53 -61.17,7.77 -60.15,15.52 -111.16,53.58 -139.76,104.52 -26.15,46.47 -32.24,99.81 -17.05,150.31 33.26,110.74 158.52,175.61 279.01,144.47zm-3700.23 5633.31c-4.47,-5.85 -6.1,-13.26 -4.56,-20.38 1.48,-7.07 6.07,-13.17 12.44,-16.61l143 -76.99 -402.93 -295.4 -54.37 490.02 121.11 -43.61c2.74,-0.9 5.59,-1.43 8.41,-1.43 8.83,0 17.35,4.78 21.81,13 13.91,25.33 319.46,569.73 914.06,514.77 -1.19,-22.62 -1.19,-45.13 1.22,-67.63 2.13,-18.85 4.86,-37.54 8.11,-56.09 -150.89,18.78 -445.23,-15.91 -768.31,-439.65zm951.76 -715.66l-510.81 124.63c0.2,8.22 -0.61,16.52 -1.72,24.74 187.1,63.99 571.28,24.63 726.13,-0.32 1.31,-0.2 2.63,-0.29 3.94,-0.29 6.37,0 12.59,2.42 17.25,6.91 5.57,5.44 8.31,13.17 7.41,20.87 -13.78,113.37 -153.66,242.69 -246.75,317.24 2.33,4.25 4.74,8.43 6.68,12.88 169.48,-9.45 315.6,-40.88 438.82,-84.2 2.54,-3.55 5.58,-6.67 9.83,-8.59l248.5 -114.02c38.43,-23.61 72.51,-47.46 103.12,-70.88l156.19 -156.19c-52.74,1.43 -104.78,2.33 -155.79,2.33 -112.97,0 -220.78,-4.13 -324.32,-11.34 -11.34,-0.81 -23.33,-1.11 -34.57,-2.04 -2.55,-0.2 -5.28,-0.2 -7.7,-0.41 -4.38,-0.41 -8.54,-1.19 -12.8,-1.6 -105.97,-8.63 -207.5,-20.79 -303.33,-37.15 -46.57,-7.77 -84.98,-14.98 -120.09,-22.59zm2083.89 -9.24c16.52,7.2 32.48,16.04 47.37,26.07 141.69,-10.56 247.16,-39.65 320.36,-69.06 -3.23,-10.23 -5.49,-20.67 -6.59,-31.34 -93.69,-20.79 -179.69,-72.51 -250.59,-129.5 -3.15,32.24 -10.76,64.08 -23.93,94.7 -23.23,53.56 -57.6,88.01 -86.61,109.12zm-2253.95 -2986.43l-35.8 -107.11c258.22,-131.39 539.02,-219.6 835.48,-261.67 581.78,-82.65 1154.28,21.28 1611.99,292.43 455.94,270.07 743.06,673.77 808.56,1136.63 28.2,199.78 18.87,401.9 -26.55,594.1 -17.26,-891.55 -924.23,-1012.04 -934.04,-1013.26 -7.81,-1.02 -15.83,2.01 -21.21,7.81l-585.99 635.75 -1100.73 -295.63c-7.53,-2.01 -15.52,-0.38 -21.72,4.38 -537.08,415.5 -823.27,804.52 -850.44,1156.44 -16.35,211.45 60.24,408.29 227.57,584.86 86.2,91.08 189.96,164.68 305.37,218.93 -15.13,-2.91 -29.72,-5.97 -43.63,-9 -765.05,-163.69 -1201.96,-590.43 -1298.6,-1268.39 -21.19,-149.99 -17.15,-303.24 10.63,-455.78l375.87 4.26c0.09,0 0.2,0 0.29,0 13.58,0 24.63,-10.96 24.83,-24.54 0.13,-13.68 -10.83,-24.93 -24.54,-25.14l-397.31 -4.46 0 0 -237.13 -2.75 -858.58 -1694.89c29.51,-26.09 51.6,-58.15 65.5,-93.18l1929.44 56.71 98.56 294.96 95.11 284.29c4.38,13.03 18.37,20.09 31.46,15.69 12.98,-4.35 19.97,-18.43 15.61,-31.46zm-2211.24 -753.37c-15.02,-44.78 -48.28,-80.54 -93.82,-100.78 -25.53,-11.37 -53.23,-17.09 -81.34,-17.09 -22.82,0 -45.94,3.8 -68.44,11.31 -50.41,16.86 -91.68,50.47 -116.32,94.72 -24.13,43.56 -29.2,92.19 -14.31,136.93 31.25,93.31 140.69,141.04 243.72,106.61 103.13,-34.53 161.65,-138.45 130.52,-231.71z"/>
   <path class="fil3" d="M4512.91 6096.91c12.68,38.04 73.31,53.55 132.35,33.79 59,-19.8 98.27,-68.68 85.47,-106.7 -12.76,-37.93 -73.2,-53.56 -132.44,-33.67 -59.04,19.68 -98.16,68.45 -85.39,106.58zm-2064.32 1272.07c9.74,-58.33 -29.8,-113.61 -88.13,-123.32 -5.98,-1.05 -11.87,-1.54 -17.84,-1.54 -22.1,0 -43.7,6.91 -62.07,20.09 -23.32,16.65 -38.74,41.37 -43.41,69.59 -4.75,28.28 1.84,56.58 18.45,79.91 16.65,23.32 41.4,38.74 69.68,43.5 58.42,9.45 113.69,-29.91 123.31,-88.21zm437.81 316.3c-5.89,-0.93 -11.87,-1.43 -17.63,-1.43 -51.43,0 -96.96,37.23 -105.68,89.64 -9.74,58.33 29.82,113.7 88.13,123.35 58.51,9.62 113.58,-29.82 123.31,-88.13 9.74,-58.33 -29.83,-113.7 -88.13,-123.43zm2618.85 -579.9c9.74,-58.3 65.3,-97.46 123.41,-88.01 58.33,9.62 97.86,64.98 88.13,123.31 -9.74,58.31 -65.01,97.87 -123.4,88.13 -58.33,-9.65 -97.87,-65.01 -88.13,-123.43z"/>
   <path class="fil4" d="M5751.48 5985.26c104.04,-39.85 172.82,-112.76 153.66,-162.96 -19.18,-50.11 -119.09,-58.51 -223.13,-18.78 -104.16,39.85 -172.9,112.79 -153.75,162.87 19.18,50.2 119.09,58.63 223.22,18.86zm-2680.89 633.04c-111.45,0 -201.82,-43.61 -201.82,-97.28 0,-53.73 90.37,-97.25 201.82,-97.25 111.45,0 201.7,43.52 201.7,97.25 0,53.67 -90.26,97.28 -201.7,97.28z"/>
   <path class="fil5" d="M6529.85 5775.85c-42.79,0 -77.37,34.67 -77.37,77.37 0,42.8 34.57,77.48 77.37,77.48 42.8,0 77.37,-34.69 77.37,-77.48 0,-42.71 -34.57,-77.37 -77.37,-77.37zm226.46 -422.62c-67.43,0 -122.09,54.66 -122.09,122 0,67.46 54.66,122.12 122.09,122.12 67.35,0 122,-54.66 122,-122.12 0,-67.34 -54.66,-122 -122,-122zm1161.2 -110.14c-79.41,59.12 -192.9,104.69 -354.15,106.29 -70.9,0.73 -141.56,-9.21 -210.74,-24.43l-384.35 -84.69 -135.82 -501.69c-33.84,-125.15 -35.97,-258.32 4.17,-381.64 25.57,-78.39 69.27,-159.17 143.2,-221 130.84,-109.23 323.42,-118.45 464.37,-22.57 106.7,72.62 202.84,212.15 158.21,479.68 0,0 228.41,-78.42 380,99.06 140.89,164.92 109.23,421.61 -64.89,550.98z"/>
   <path class="fil6" d="M3941.22 4749.31c40.17,-3.15 77.69,58.51 83.87,137.63 6.09,79.2 -21.52,145.85 -61.66,148.96 -40.26,3.15 -77.78,-58.5 -83.87,-137.59 -6.18,-79.21 21.39,-145.94 61.66,-149zm555.65 -112.27c39.88,-13.47 93.7,39.35 120.19,117.95 26.44,78.51 15.6,153.14 -24.34,166.52 -39.85,13.5 -93.72,-39.24 -120.2,-117.84 -26.47,-78.59 -15.6,-153.22 24.34,-166.63zm-353.13 498.97l27.2 131.33 83.35 -17.23 -26.26 -126.58c21.19,-3.56 42.7,-7.52 64.51,-11.87l25.95 125.15 41.69 -8.63 -25.97 -125.15c29.21,-6.3 57.92,-12.89 85.59,-20.09l26.38 127.39 83.35 -17.23 -27.78 -133.78c213.07,-67.96 353.45,-176.58 308.81,-391.87 -56.79,-274.09 -355.37,-443.93 -666.89,-379.39 -311.55,64.52 -518.04,339.02 -461.25,613.14 46.06,222.52 227.89,262.26 461.33,234.79z"/>
  </g>
 </g>
</svg>
