<?xml version="1.0" encoding="UTF-8"?>
<!DOCTYPE svg PUBLIC "-//W3C//DTD SVG 1.0//EN" "http://www.w3.org/TR/2001/REC-SVG-20010904/DTD/svg10.dtd">
<!-- Creator: CorelDRAW 2018 (64-Bit) -->
<svg xmlns="http://www.w3.org/2000/svg" xml:space="preserve" width="8.26772in" height="11.6929in" version="1.0" style="shape-rendering:geometricPrecision; text-rendering:geometricPrecision; image-rendering:optimizeQuality; fill-rule:evenodd; clip-rule:evenodd"
viewBox="0 0 8267.72 11692.91"
 xmlns:xlink="http://www.w3.org/1999/xlink">
 <defs>
  <style type="text/css">
   <![CDATA[
    .fil3 {fill:white}
    .fil0 {fill:black;fill-rule:nonzero}
    .fil1 {fill:#423D41;fill-rule:nonzero}
    .fil2 {fill:#EA79A5;fill-rule:nonzero}
    .fil4 {fill:#F395B0;fill-rule:nonzero}
   ]]>
  </style>
 </defs>
 <g id="Слой_x0020_1">
  <metadata id="CorelCorpID_0Corel-Layer"/>
  <g id="_2265423290416">
   <path class="fil0" d="M7755.78 2091.25c-173.67,0 -315.09,141.32 -315.09,315.09 0,61.5 18.6,118.52 49.2,167.01l-2245.35 1068.63c-12.41,5.76 -20.26,18.25 -20.26,31.76l0 632.68c-322.95,-110.2 -674.85,-170.17 -1044.94,-170.17 -406.48,0 -788.96,71.04 -1135.9,201.21l0 -488.35c0,-13.52 -7.85,-25.89 -20.26,-31.8l-2244.93 -1068.59c30.18,-48.49 48.8,-105.53 48.8,-167.01 0,-173.76 -141.43,-315.11 -315.11,-315.11 -173.67,0 -315.09,141.34 -315.09,315.11 0,173.75 141.41,315.09 315.09,315.09 3.32,0 6.62,-0.91 9.94,-1l317.16 2673.91c1.66,14.35 11.98,26.18 26.06,29.91l633.08 168.91c-102.14,229.98 -173.67,478.83 -209.24,742.66 -109.17,809.72 269.61,1476.92 1066.43,1878.69 38.86,19.73 80.22,37.42 121.15,55.67l-475.53 408.83c-49.62,-58.96 -124.06,-97.67 -208.83,-97.67 -148.44,0 -269.18,116.82 -269.18,260.34 0,143.57 120.74,260.39 269.18,260.39 148.46,0 269.61,-116.81 269.61,-260.39 0,-0.7 -0.41,-1.41 -0.41,-2.11l540.86 0c-4.96,24.84 -7.85,50.2 -7.85,75.93 0,281.68 283.26,510.81 631.83,510.81 334.12,0 606.21,-206.55 629.36,-473.96 130.26,-70.81 215.85,-189.6 233.64,-320.64 16.96,130.75 99.23,249.26 224.54,320.17 22.33,267.7 284.07,474.43 606.62,474.43 335.35,0 608.67,-229.13 608.67,-510.81 0,-25.72 -2.89,-51.08 -7.44,-75.93l517.3 0c0,0.7 -0.41,1.41 -0.41,2.11 0,143.57 117.02,260.39 260.52,260.39 143.48,0 260.5,-116.81 260.5,-260.39 0,-143.52 -117.02,-260.34 -260.5,-260.34 -81.47,0 -153.01,38.24 -200.96,96.67l-386.23 -345.23c967.2,-379.94 1462.17,-1107.08 1357.96,-1996.22 -38.86,-332.15 -139.76,-642 -290.28,-921.37l623.58 -166.27c14.05,-3.76 23.97,-15.56 26.04,-29.94l316.75 -2673.91c3.32,0.09 6.62,0.96 9.93,0.96 173.68,0 315.09,-141.34 315.09,-315.06 0,-173.76 -141.41,-315.09 -315.09,-315.09z"/>
   <path class="fil1" d="M3109.19 8944.43l0 -304.96c-200.96,-37.72 -394.08,-88.33 -574.78,-150.78l-494.97 425.5c4.55,9.63 7.03,20.01 10.34,30.23l1059.41 0zm2475.67 -455.32c-173.27,62.03 -358.11,112.52 -550.8,150.06l0 305.26 1015.98 0c2.89,-10.38 5.8,-20.72 9.93,-30.52l-475.12 -424.81zm-2999.59 -71.73c-68.24,-28.38 -134.8,-58.27 -198.48,-90.53 -542.94,-273.85 -1162.37,-809.56 -1027.98,-1806.15 183.59,-1362.55 1343.48,-2314.11 2820.53,-2314.11 1477.47,0 2663.4,972.98 2820.54,2313.41 137.28,1173.66 -768.72,1710.22 -1321.15,1925.7 -8.69,3.3 -17.78,6.15 -26.06,9.35l-26.06 -23.15c206.35,-126.16 374.64,-303.98 483.8,-518.17 131.09,-256.63 153.83,-511.5 68.65,-757.5 -194.76,-559.85 -876.64,-877.92 -905.58,-891.15 -8.28,-3.89 -18.19,-4.17 -26.88,-0.87l-1090.83 412.86 -955.2 -412.27c-8.28,-3.6 -17.78,-3.89 -26.06,-0.71 -799.3,296.45 -1180.56,734.07 -1132.19,1300.54 29.78,350.15 237.77,666.2 542.94,852.78zm5170.5 -6255.68c-134.81,0 -244.39,109.76 -244.39,244.64 0,134.89 109.58,244.63 244.39,244.63 134.8,0 244.8,-109.74 244.8,-244.63 0,-134.88 -110,-244.64 -244.8,-244.64zm-2461.21 2170.02c624.4,230.03 1134.67,651.06 1449.35,1195.4l617.78 -164.87 314.68 -2652.28c-54.17,-14.27 -103.37,-41.61 -141.82,-79.85l-2239.99 1065.94 0 635.65zm-5027.41 -1750.01c0,134.89 109.99,244.63 244.78,244.63 134.81,0 244.8,-109.74 244.8,-244.63 0,-134.85 -109.99,-244.64 -244.8,-244.64 -134.8,0 -244.78,109.79 -244.78,244.64zm2706 1289.69l0 493.26c-643.84,260.81 -1154.52,731.21 -1444.39,1339.11l-622.74 -166.02 -314.27 -2652.4c54.17,-14.27 102.96,-41.61 141.84,-79.85l2239.56 1065.9z"/>
   <path class="fil2" d="M4041.65 7837.63c0,-55.95 68.23,-103.29 148.86,-103.29 81.05,0 149.28,47.34 149.28,103.29 0,56.11 -68.23,103.42 -149.28,103.42 -80.63,0 -148.86,-47.3 -148.86,-103.42zm-2249.48 989.57c-109.58,0 -198.9,85.14 -198.9,189.84 0,104.74 89.32,189.93 198.9,189.93 109.58,0 198.9,-85.19 198.9,-189.93 0,-104.7 -89.31,-189.84 -198.9,-189.84zm4316.61 189.84c0,104.74 85.6,189.93 190.21,189.93 104.62,0 189.8,-85.19 189.8,-189.93 0,-104.7 -85.18,-189.84 -189.8,-189.84 -104.61,0 -190.21,85.14 -190.21,189.84z"/>
   <path class="fil3" d="M4156.19 8756.99c0,129.87 79.4,251.45 207.58,317.32 11.17,5.76 18.62,17.24 19.03,29.94 9.1,239.5 245.2,426.95 537.54,426.95 296.91,0 538.4,-197.54 538.4,-440.34 0,-25.9 -3.3,-51.2 -8.69,-75.93l-451.13 0c-0.84,0 -1.23,-0.46 -2.07,-0.46 -95.52,134.81 -214.61,172.36 -221.63,174.34 -3.31,1.03 -6.62,1.46 -9.93,1.46 -15.3,0 -29.36,-9.93 -33.91,-25.18 -5.37,-18.69 4.96,-38.26 23.99,-43.72 6.62,-2.19 125.29,-41.02 208.4,-186l0 -306.12c-60.78,-143.39 -216.68,-239.5 -390.35,-239.5 -229.91,0 -417.23,164.7 -417.23,367.24zm-569.4 -367.24c-181.11,0 -344.04,96.22 -407.31,239.79l0 303.35c86.84,147.05 211.31,186.16 218.33,188.48 19.44,5.46 30.6,25.02 24.81,43.72 -4.55,15.25 -19.01,25.18 -35.15,25.18 -3.3,0 -6.6,-0.43 -10.33,-1.46 -7.44,-1.98 -131.09,-39.52 -230.74,-174.34 -0.82,0 -1.23,0.46 -2.07,0.46l-470.57 0c-5.78,24.72 -8.67,50.03 -8.67,75.93 0,242.8 251.4,440.34 561.12,440.34 304.76,0 551.2,-187.44 560.3,-426.95 0.43,-12.95 7.86,-24.49 19.44,-30.23 133.57,-65.86 216.27,-187.28 216.27,-317.03 0,-202.53 -195.19,-367.24 -435.42,-367.24zm-422.61 -1047.12c-22.33,231.89 -166.63,407.67 -322.52,392.74 -155.9,-15.09 -264.24,-215.07 -241.91,-446.96 6.62,-70.06 25.24,-134.35 51.28,-190.46 -112.06,-35.24 -151.33,-155.2 -151.76,-156.77 -3.71,-11.54 2.91,-23.77 14.48,-27.37 11.57,-3.43 23.56,2.91 27.29,14.39 1.66,5.33 34.74,106.15 130.25,130.75 15.73,-27.45 33.49,-52.06 53.34,-73.35 -127.77,-90.05 -186.48,-210.31 -189.39,-216.93 -5.37,-10.91 -0.41,-23.86 10.34,-29.02 11.17,-5.33 23.99,-0.59 29.36,10.33 0.43,1.44 58.73,119.83 181.95,204.4 5.78,-4.7 11.57,-10.06 17.35,-14.23 124.9,86.18 252.67,136.08 364.72,164.87 23.99,69.47 33.91,151.31 25.22,237.61zm2290.01 392.74c-155.89,14.93 -300.21,-160.85 -322.54,-392.74 -8.26,-86.3 1.66,-168.15 25.24,-237.61 112.06,-28.78 239.83,-78.69 365.11,-164.87 5.8,4.18 11.59,9.53 16.96,14.23 123.63,-84.57 181.52,-202.96 182.34,-204.4 4.98,-10.92 18.21,-15.66 29.37,-10.33 10.75,5.15 15.3,18.1 10.34,29.02 -3.31,6.62 -62.03,126.88 -189.39,216.93 19.44,21.3 37.63,45.91 53.34,73.35 95.5,-24.59 128.18,-125.41 129.84,-130.75 3.71,-11.48 16.12,-17.81 27.7,-14.39 11.57,3.6 18.19,15.83 14.48,27.37 -0.43,1.57 -39.7,121.53 -151.77,156.77 26.06,56.11 44.25,120.41 50.86,190.46 22.33,231.89 -86,431.87 -241.89,446.96zm-1341.41 565.31c-101.73,-56.82 -162.92,-139.24 -176.99,-238.22 -2.48,-15.8 6.62,-31.05 21.1,-37.38 14.46,-6.05 31.83,-1.75 41.34,10.91 6.62,8.22 155.07,187.32 492.9,-8.94 10.34,-6.03 23.58,-6.3 33.91,-0.69 10.75,5.74 17.78,16.41 19.03,28.48 5.37,70.81 -23.58,219.08 -172.02,273.16 -30.61,11.25 -63.28,16.71 -96.35,16.71 -54.18,0 -110.41,-14.84 -162.92,-44.03zm-141.43 -463.05c0,-95.81 98.41,-173.77 219.15,-173.77 121.17,0 219.58,77.96 219.58,173.77 0,95.97 -98.41,173.93 -219.58,173.93 -120.74,0 -219.15,-77.96 -219.15,-173.93zm-1858.71 -279.08c35.56,418.6 343.63,786.28 767.06,914.89 86.43,26.34 175.73,49.33 267.13,69.91 88.48,-136.08 255.95,-224.11 439.97,-224.11 236.94,0 435.42,141.41 490.41,331.55 7.72,0.16 15.46,0.28 23.17,0.46 52.94,-190.3 244.8,-332.02 473.06,-332.02 188.98,0 360.17,100.11 439.96,251.87 2.5,-0.41 4.57,-0.98 7.05,-1.41 49.2,-9.63 98,-20.01 145.96,-31.39 29.35,-6.72 57.89,-14.09 86.43,-21.58 348.58,-96.63 637.2,-325.69 795.17,-634.94 121.58,-238.81 143.5,-475.12 64.51,-702.14 -170.36,-490.37 -759.61,-797.36 -855.13,-844.25l-1090.43 412.56c-8.28,3.3 -17.78,3.01 -26.46,-0.54l-954.79 -412.33c-757.13,283.84 -1118.12,695.52 -1073.05,1223.46z"/>
   <path class="fil4" d="M3926.69 6229.83l0 187.74 117.02 0 0 -178.84c39.28,1.9 79.81,2.73 121.16,3.18l0 175.66 58.3 0 0 -175.66c30.6,-0.29 60.37,-0.99 90.15,-2.02l0 177.69 117.02 0 0 -184.43c321.71,-28.2 555.34,-132.36 555.34,-444.77 0,-384.81 -354.37,-696.68 -791.87,-696.68 -437.08,0 -791.87,311.87 -791.87,696.68 0,302.19 219.16,409.2 524.74,441.46zm599.59 -584.33c57.48,-14.1 126.53,66.16 154.24,179.26 27.71,113.18 3.72,216.18 -53.76,230.28 -57.48,14.1 -126.54,-66.33 -154.24,-179.38 -27.7,-113.05 -3.72,-216.22 53.76,-230.16zm-872.09 179.26c27.7,-113.09 96.76,-193.35 153.82,-179.26 57.48,13.94 81.87,117.11 54.17,230.16 -27.7,113.06 -96.76,193.48 -154.24,179.38 -57.48,-14.1 -81.46,-117.11 -53.76,-230.28zm693.45 2437.09c-61.61,22.45 -134.39,14.1 -200.56,-22.74 -42.59,-23.86 -76.09,-51.94 -99.65,-84.28 85.6,38.96 224.94,60.83 420.54,-35.52 -10.34,48.3 -39.7,113.18 -120.33,142.54z"/>
  </g>
 </g>
</svg>
