<?xml version="1.0" encoding="UTF-8"?>
<!DOCTYPE svg PUBLIC "-//W3C//DTD SVG 1.0//EN" "http://www.w3.org/TR/2001/REC-SVG-20010904/DTD/svg10.dtd">
<!-- Creator: CorelDRAW 2018 (64-Bit) -->
<svg xmlns="http://www.w3.org/2000/svg" xml:space="preserve" width="8.26772in" height="11.6929in" version="1.0" style="shape-rendering:geometricPrecision; text-rendering:geometricPrecision; image-rendering:optimizeQuality; fill-rule:evenodd; clip-rule:evenodd"
viewBox="0 0 8267.72 11692.91"
 xmlns:xlink="http://www.w3.org/1999/xlink">
 <defs>
  <style type="text/css">
   <![CDATA[
    .fil0 {fill:black;fill-rule:nonzero}
    .fil2 {fill:#423D41;fill-rule:nonzero}
    .fil6 {fill:#B260E4;fill-rule:nonzero}
    .fil3 {fill:#EA79A5;fill-rule:nonzero}
    .fil5 {fill:#F076FF;fill-rule:nonzero}
    .fil4 {fill:#F395B0;fill-rule:nonzero}
    .fil1 {fill:white;fill-rule:nonzero}
   ]]>
  </style>
 </defs>
 <g id="Слой_x0020_1">
  <metadata id="CorelCorpID_0Corel-Layer"/>
  <g id="_2265465452464">
   <path class="fil0" d="M8070.71 1946.72c-5.03,-150.77 -129.18,-270.07 -278.86,-270.07 -3.11,0 -6.15,0.04 -9.28,0.18 -153.78,4.97 -274.87,134.17 -269.86,287.98 1.28,40.24 11.63,77.94 28.15,112.02l-2038.92 896.72c-10.39,4.59 -17.01,15.04 -16.64,26.45l9.21 285.28c-332.43,-142.9 -706.06,-222.22 -1103.55,-222.22 -359.48,0 -697.79,63.55 -1003.43,180.04l0 -420.04c0,-10.79 -6.17,-20.58 -15.96,-25.24l-2018.76 -960.8c28.44,-43.72 45.36,-95.64 45.36,-151.58 0,-153.87 -125.2,-279.07 -279.12,-279.07 -153.9,0 -279.11,125.2 -279.11,279.07 0,153.9 125.2,279.11 279.11,279.11 7.48,0 14.5,-1.63 21.79,-2.2l387.24 2294.2c1.58,9.41 7.87,17.33 16.62,21.04l502.89 213.81c-88.68,200.26 -150.49,416.7 -181.41,646.15 -62.46,460.69 52.48,863.17 332.69,1186.98 -13.43,6.98 -25.99,15.06 -36.12,25.75 -53.81,56.34 -49.38,149.49 13.57,284.43 -37.3,58.5 -168.98,286.8 -71.02,459.1 62,108.95 202.7,169.74 417.75,182.62 -39.79,41.35 -64.68,97.28 -64.68,159.09 0,126.8 103.18,229.98 229.98,229.98 72.41,0 136.26,-34.25 178.44,-86.69 96.68,121.98 261.3,240.14 541.57,279.84 -21.53,122.37 -75.59,586.82 259.28,939.74 -46.98,60.78 -152.99,251.25 2.53,601.62 -78.81,52.9 -337.3,255.04 -210.72,559.61 63.71,153.46 204.1,264.54 375.35,297.14 85.27,16.26 190.96,29.77 306.34,29.77 289.26,0 638.84,-85.18 876.91,-426.87 79.22,-113.74 92.23,-257.54 33.87,-375.22 -25.31,-51.11 -60.67,-90.9 -105.11,-118.49l0 -155.45c55.06,6.13 197.93,41.57 392.78,233.62 3.17,51.55 25.43,258.33 177.73,383.13 103.43,84.66 243.09,112.32 415.49,82.15 53.69,6.41 515.11,49.91 1047.44,-289.37 123.87,-78.89 178.93,-231.76 131.26,-363.48 -53.02,-146.43 -211.16,-320.67 -661.99,-324.54 -34.99,-53.25 -172.39,-245.08 -375.33,-305.36 0.88,-20.84 0.88,-54.37 -2.62,-96.98 356.85,188.09 719.3,107.05 814.52,80.3l109.89 228.05c4.59,9.44 14.06,15.54 24.54,15.8l0.67 0c10.16,0 19.63,-5.61 24.5,-14.62l363.6 -670.21c4.34,-7.93 4.57,-17.5 0.6,-25.63 -4.01,-8.14 -11.76,-13.83 -20.65,-15.24l-713.04 -114.09c-9.93,-1.63 -19.96,2.23 -26.26,10.09 -6.26,7.84 -7.86,18.45 -4.19,27.77l90.74 228.4c-248.46,128.47 -516.26,82.27 -715.43,8.98 -68.89,-203.16 -223.59,-453.99 -566.91,-647.79 51.43,-8.91 146.96,-3.41 300.55,82.46 12.09,76.29 86.75,418.93 441.83,395.43 147.67,-9.77 276.47,-77.72 353.67,-186.4 68.96,-97.31 93.71,-212.57 73.43,-342.65 -20.07,-129.19 -105.71,-235.45 -223.5,-277.31 -118.68,-42.07 -242.5,-32.18 -358.91,28.65 -27.36,-6.89 -55.06,-14.17 -82.57,-21.7 87.26,-29 150.78,-110.44 150.78,-207.26 0,-120.97 -98.44,-219.37 -219.41,-219.37 -113.57,0 -206.11,87.07 -217.19,197.74 -80.04,-20.48 -176.27,-52 -280,-99.79 116.75,-31.11 228.02,-67 330.97,-107.61 849.09,-331.06 1283.83,-967.3 1192.73,-1745.61 -17.67,-150.23 -49.6,-295.33 -94.75,-434.22l664.13 -200.42c10.95,-3.27 18.82,-12.85 19.84,-24.19l206.84 -2257.13c25.17,7.52 51.42,12.78 78.89,12.78 3.08,0 6.15,-0.07 9.24,-0.18 153.8,-4.97 274.87,-134.17 269.97,-287.98z"/>
   <path class="fil1" d="M2634.2 5279.94c0.36,1.38 35.36,109.57 135.91,141.19 -23.14,50.18 -39.56,107.8 -45.59,170.49 -19.96,208.06 77.19,387.63 217.19,401.07 139.89,13.44 269.54,-144.34 289.47,-352.39 7.54,-77.45 -1.35,-150.93 -22.55,-213.37 -100.81,-25.76 -215.39,-70.56 -327.58,-147.94 -5.38,3.8 -10.39,8.52 -15.5,12.81 -110.84,-76.01 -162.92,-182.2 -163.52,-183.54 -4.65,-9.8 -16.42,-14 -26.22,-9.31 -9.8,4.69 -14.03,16.39 -9.34,26.19 2.85,5.9 55.52,113.86 169.87,194.61 -17.53,19.17 -33.53,41.23 -47.75,65.87 -85.87,-22.09 -115.27,-112.61 -116.74,-117.33 -3.31,-10.33 -14.39,-16 -24.64,-12.95 -10.36,3.21 -16.19,14.19 -13.01,24.58zm988.06 1087.59c22.35,157.68 134.54,250.86 224.87,301.23 66.11,36.91 137.39,55.78 206.25,55.78 41.59,0 82.33,-6.88 120.61,-20.88 232.04,-84.72 215.26,-339.61 215.16,-342.13 -0.78,-9.57 -6.39,-18.13 -14.84,-22.61 -8.52,-4.46 -18.69,-4.23 -27.01,0.56 -462.45,268.46 -666.76,18.02 -675.32,7.05 -7.74,-10 -21.3,-13.44 -32.94,-8.62 -11.64,4.92 -18.59,17.08 -16.78,29.63zm155.09 -219.79c19.01,40.87 54.04,76.3 98.26,99.8 35.14,18.62 72.3,27.56 107.18,27.56 58.41,0 110.25,-25.14 134.9,-71.61 39.33,-74.2 -5.15,-175.15 -99.31,-225.07 -44.24,-23.46 -93.14,-32.48 -137.72,-25.46 -47.46,7.54 -84.5,32.22 -104.22,69.52 -19.86,37.26 -19.5,81.77 0.92,125.26zm1144.13 -392.11c19.96,208.05 149.58,365.83 289.5,352.39 139.88,-13.43 237.16,-193.01 217.2,-401.06 -6.06,-62.7 -22.45,-120.35 -45.72,-170.53 100.69,-31.6 135.55,-139.79 136.01,-141.16 3.18,-10.39 -2.62,-21.37 -13.01,-24.58 -10.35,-3.05 -21.3,2.62 -24.61,12.94 -1.48,4.76 -31.01,95.25 -116.74,117.34 -14.26,-24.65 -30.22,-46.7 -47.89,-65.88 114.45,-80.76 167.15,-188.72 169.97,-194.61 4.69,-9.8 0.49,-21.5 -9.34,-26.15 -9.9,-4.69 -21.54,-0.53 -26.22,9.28 -0.69,1.34 -52.67,107.54 -163.61,183.54 -5.15,-4.29 -10.03,-9.01 -15.37,-12.81 -112.19,77.38 -226.8,122.15 -327.59,147.94 -21.2,62.44 -30.09,135.92 -22.58,213.37zm-2101.09 971.08c-126.64,-64.01 -229.26,-168.26 -296.68,-301.53 -189.15,-373.96 -229.39,-704.1 -119.37,-981.24 114.02,-287.37 392.35,-513.84 827.43,-673.22l760.93 395.95c6.72,3.47 14.58,4.06 21.8,1.7l951.91 -320.07c87.11,36.9 758.77,336.56 908.02,864.1 78.1,275.93 1.47,571.33 -227.69,878.04 -184.26,246.47 -472.94,408.54 -792.07,444.69 -151.55,17.17 -307.53,25.86 -463.73,25.86 -586.47,0 -1143.57,-118.31 -1570.56,-334.27zm-257.91 296.31c5.01,3.7 10.85,5.48 16.55,5.48 8.52,0 17.07,-3.93 22.58,-11.34 9.11,-12.42 6.49,-29.89 -5.93,-39.04 -167.38,-123.46 -157.12,-160.23 -156.89,-160.56 9.02,-20.06 117.53,-22.87 243.88,3.57 15.17,3.11 29.99,-6.49 33.07,-21.6 3.18,-15.11 -6.49,-29.89 -21.57,-33.07 -80.82,-16.91 -272.26,-48.02 -306.34,28.25 -23.5,52.41 28.71,120.68 174.66,228.31zm-359.38 -634.16c8.65,-9.04 20.19,-15.8 33.66,-20.94 101.57,108.98 222.67,208.54 363.11,297.69 61.26,39.13 127.59,76.83 197.37,111.99 103.87,52.5 215.82,99.01 333.75,139.91 -91.44,125.23 -193.64,256.59 -283.11,352.92 -22.12,-21.44 -48.7,-38.12 -78,-49.3 -2.17,-1.05 -4.46,-1.67 -6.85,-2.13 -23.47,-8.16 -48.34,-13.5 -74.66,-13.5 -31.36,0 -61.35,6.42 -88.59,17.86 -234.86,-2.03 -387.89,-55.36 -445.8,-157.09 -93.61,-164.27 75.58,-410.89 77.28,-413.39 5.74,-8.29 6.63,-19.07 2.2,-28.15 -39.37,-80.89 -76.63,-187.41 -30.35,-235.88zm2741.87 1003.23c103.54,-0.78 478.51,-9.93 744.96,-96.42 112.78,41.23 246.73,77.65 348.2,102.78 6.98,1.7 14.03,0.75 20.19,-2.63 106.39,-58.37 215.17,-68.59 323.13,-30.18 98.39,34.97 170.1,124.35 186.98,233.22 17.9,115.27 -3.54,216.8 -63.84,301.79 -67.29,94.95 -180.95,154.33 -311.72,162.99 -343.74,21.86 -383.07,-344.23 -384.58,-359.87 0,-0.49 -0.46,-0.88 -0.46,-1.37 -0.1,-0.69 0.13,-1.31 -0.1,-2 -19.17,-86.52 4.46,-136.87 4.89,-137.69 6.85,-13.67 1.37,-30.35 -12.19,-37.37 -13.67,-7.04 -30.54,-1.57 -37.63,12.09 -1.15,2.16 -21.89,45.2 -17.33,118.38 -263.25,-134.11 -371.01,-43.33 -375.66,-39.13 -6.85,6.13 -10.26,15.2 -9.15,24.35 1.15,9.11 6.62,17.08 14.85,21.31 707.11,366.61 644.64,956.95 641.66,981.89 -1.7,14.09 7.41,27.2 21.11,30.55 221.52,53.52 370.42,297.04 371.93,299.46 5.02,8.39 14.13,13.54 23.93,13.54 340.56,0 556.64,99.5 624.91,287.76 38.91,107.34 -6.95,232.41 -108.75,297.33 -536.22,341.7 -1009.62,281.24 -1014.31,280.58 -2.95,-0.43 -5.93,-0.33 -8.78,0.17 -157.32,28.28 -283.21,4.98 -374.19,-69.35 -151.42,-123.76 -158.01,-350.65 -158.14,-352.92 -0.09,-7.21 -3.08,-14.09 -8.19,-19.17 -257.35,-257.31 -435.54,-260.2 -466.32,-258.59 -99.44,-16.06 -198.42,-34.31 -198.52,-34.31 -15.27,-2.92 -29.76,7.24 -32.48,22.35 -2.88,15.24 7.18,29.8 22.32,32.55 0,0 86.56,15.93 179.25,31.2l0 176.66c0,10.29 5.57,19.7 14.72,24.58 41.03,22.09 73.41,56.6 96.22,102.62 49.23,99.41 37.95,221.49 -29.66,318.5 -314.9,452.22 -841.19,428.53 -1126.93,374.15 -152.79,-29.07 -277.73,-127.65 -334.3,-263.7 -109.9,-264.59 110.25,-438.76 184.85,-488.51 23.47,38.15 68.96,99.31 120.38,99.31 15.37,0 27.83,-12.49 27.83,-27.93 0,-15.44 -12.46,-27.93 -27.83,-27.93 -21.3,0 -62.04,-49.94 -85.51,-94.98 -147.32,-316.05 -71.15,-489.33 -28.38,-552.35 82.07,114.29 282.61,205.3 292.09,209.53 3.67,1.64 7.54,2.43 11.31,2.43 10.72,0 20.85,-6.13 25.53,-16.52 6.39,-14.06 0,-30.58 -14.03,-36.9 -65.45,-29.27 -244.33,-125.56 -286.06,-218.44 -0.82,-1.67 -2.07,-2.82 -3.08,-4.26 -0.92,-1.34 -1.48,-2.85 -2.75,-4.03 -386.51,-386.55 -258,-930.64 -256.66,-936.11 0.23,-1.02 0,-2.06 0.13,-3.11 0.1,-1.21 0.69,-2.3 0.69,-3.57 0,-109.2 34.78,-248.46 35.13,-249.87 3.74,-14.98 -5.37,-30.12 -20.32,-33.93 -14.91,-3.7 -30.19,5.34 -33.86,20.29 -1.37,5.44 -30.54,122.83 -35.92,231.48 -275.24,-39.36 -430.4,-155.55 -517.41,-272.06 7.54,-16.29 13.34,-33.43 16.88,-51.49 230.9,6.56 594.37,-9.67 894.81,-142.77 82.2,63.26 506.33,382.06 894.78,538.43 -9.02,24.65 -14.69,50.96 -14.69,78.72 0,126.8 103.17,229.98 229.95,229.98 126.8,0 229.98,-103.18 229.98,-229.98 0,-125.56 -101.24,-227.62 -226.31,-229.62l22.45 -331.91z"/>
   <path class="fil2" d="M3331.64 2840.68l0 424.34c-562.67,229.42 -1008.25,642.48 -1260.22,1175.82l-490.81 -208.65 -384.8 -2279.71c46.28,-13.37 88.14,-37.29 121.2,-70.59l2014.63 958.79zm-2435.84 -1155.24c0,123.13 100.16,223.27 223.25,223.27 123.11,0 223.27,-100.14 223.27,-223.27 0,-123.09 -100.16,-223.22 -223.27,-223.22 -123.09,0 -223.25,100.12 -223.25,223.22zm4655.52 1624.73c590.14,270.5 1042.2,746.19 1251.89,1340.92l648.65 -195.7 206.72 -2255.79c-34.22,-18.77 -64.2,-43.99 -87.91,-74.85l-2028.92 892.32 9.58 293.09zm2247.58 -1131.23c123.04,-4.04 219.95,-107.38 215.96,-230.42 -4.09,-123.02 -108.42,-219.19 -230.44,-215.91 -123,4.03 -219.82,107.37 -215.81,230.41 3.99,123.06 108.31,218.58 230.3,215.93zm-907.33 6371.06c3.08,-1.07 6.26,-1.6 9.33,-1.6 10.49,0 20.42,5.93 25.11,15.8l96.68 200.43 318.77 -587.56 -625.61 -100.13 81.74 205.85c5.15,12.97 -0.09,27.79 -12.29,34.64 -256.2,143.78 -532.35,108.38 -744.41,37.4 10.49,38.96 17.66,75.31 22.78,108.49 395.66,232.46 805.68,94.48 827.89,86.68zm-2048.62 -1457.58c-32.41,3.5 -64.8,6.84 -97.4,9.6 -3.41,0.3 -6.96,0.46 -10.37,0.72 -35.59,2.92 -71.25,5.52 -107.17,7.47 -3.87,0.23 -7.86,0.33 -11.76,0.53 -35.24,1.86 -70.56,3.44 -106.03,4.43 -39.67,1.11 -79.44,1.67 -119.26,1.67 -429.85,0 -843.82,-63.74 -1204.12,-181.11 -92.35,127.45 -203.53,271.83 -303.96,378.21 19.96,31.9 31.93,68.93 34.19,108.69 230.31,5.94 594.5,-10.74 883.87,-143.89 3.78,-1.69 7.73,-2.55 11.63,-2.55 6.17,0 12.3,2 17.35,5.96 5.34,4.2 480.67,374.78 898.65,542.57 31.83,-46.87 80.72,-80.89 137.49,-94.34l24.87 -368.02c1.02,-14.78 11.51,-27.59 28.15,-26.06 5.94,0.23 494.71,2.23 787.19,-104.61 -15.76,-24.24 -26.59,-51.69 -31.72,-81.2 -101.48,-24.57 -230.18,-66.13 -368.4,-137.26 -143.97,34.13 -292.44,60.02 -444.64,77.28 -0.23,0.05 -0.33,0.11 -0.56,0.14 -6.03,0.65 -12.09,1.11 -18,1.78zm-2369.04 -642.02c19.03,37.68 40.83,73.08 64.99,106.28 -355.38,-254.22 -714.77,-693.99 -617.39,-1411.6 160.98,-1192.99 1176.42,-2026.16 2469.45,-2026.16 1293.74,0 2332.54,851.92 2470.06,2025.67 120.39,1028.35 -673.48,1498.44 -1157.51,1687.09 -0.09,0 -0.09,0.04 -0.09,0.04 -119.6,47.15 -250.27,88.33 -388.49,122.28 -8.42,2.02 -16.83,3.73 -25.29,5.7 157.8,-81.28 296.43,-194.78 401.81,-335.82 240.21,-321.41 319.91,-633.27 236.66,-926.86 -166.56,-588.21 -918.51,-891.83 -950.43,-904.45 -6.17,-2.46 -12.88,-2.6 -19.14,-0.53l-950.56 319.65 -761.3 -396.15c-6.94,-3.6 -15.04,-4.13 -22.44,-1.49 -457.31,165.27 -750.56,403.9 -871.78,709.3 -116.19,292.65 -75.34,638.19 121.44,1027.07z"/>
   <path class="fil3" d="M5726.56 7112.7c0,90.16 73.31,163.48 163.48,163.48 90.2,0 163.52,-73.32 163.52,-163.48 0,-90.17 -73.32,-163.51 -163.52,-163.51 -90.16,0 -163.48,73.35 -163.48,163.51zm-981.8 840.93c0,96.03 78.1,174.13 174.1,174.13 96,0 174.1,-78.11 174.1,-174.13 0,-96.03 -78.1,-174.1 -174.1,-174.1 -96,0 -174.1,78.07 -174.1,174.1zm-1882.19 -518.1c0,-96.03 -78.07,-174.16 -174.2,-174.16 -96,0 -174.1,78.13 -174.1,174.16 0,96.03 78.1,174.13 174.1,174.13 96.13,0 174.2,-78.1 174.2,-174.13zm965.28 -1311.44c-12.65,-27.2 -13.47,-54.02 -2.06,-75.42 11.31,-21.43 33.99,-35.82 63.62,-40.54 7.08,-1.11 14.26,-1.67 21.56,-1.67 26.68,0 54.83,7.31 81.28,21.33 65.68,34.84 100.55,103.34 76.07,149.52 -24.98,47.03 -99.67,56.41 -166.5,20.88 -33.72,-17.86 -59.94,-44.15 -73.97,-74.1z"/>
   <path class="fil4" d="M3701.96 6444.17c101.47,66.17 308.31,138.34 629.73,-32.15 -7.31,67.19 -39.92,189.18 -176.85,239.19 -86.33,31.5 -188.58,20.12 -280.48,-31.2 -61.13,-34.09 -133.62,-90.07 -172.39,-175.83zm-20.98 -2140.65c24.06,-94.79 82.56,-161.78 130.67,-149.59 48.11,12.16 67.71,98.88 43.66,193.67 -23.93,94.82 -82.43,161.81 -130.54,149.62 -48.11,-12.19 -67.71,-98.88 -43.79,-193.7zm794.23 -68.24c47.56,0 86.1,75.91 86.1,169.51 0,93.64 -38.54,169.54 -86.1,169.54 -47.52,0 -86.07,-75.91 -86.07,-169.54 0,-93.6 38.55,-169.51 86.07,-169.51zm-630.94 415.72l-20.42 159.71 99.54 12.69 19.37 -152.07c33.3,5.83 67.62,10.98 102.52,15.7l-19.04 149.52 49.72 6.33 19.14 -149.48c25.99,3.11 51.65,5.83 76.95,8.13l-19.37 151.16 99.54 12.69 20.06 -156.86c276.95,10.95 487.1,-52.37 521.06,-318.17 41.72,-327.42 -226.08,-631.37 -598.24,-678.9 -372.15,-47.49 -707.7,179.44 -749.52,506.93 -32.84,257.15 142.05,372.06 398.7,432.66z"/>
   <path class="fil5" d="M1729.88 5942.28c-19.04,-1.7 -35.89,12.36 -37.59,31.4 -1.7,19.04 12.35,35.89 31.43,37.59 19.01,1.7 35.89,-12.36 37.59,-31.4 1.7,-19.04 -12.43,-35.89 -31.43,-37.59zm-99.96 17.11c-23.83,-2.13 -44.84,15.44 -47,39.26 -2.13,23.83 15.44,44.87 39.26,47 23.83,2.13 44.87,-15.43 47,-39.26 2.13,-23.83 -15.44,-44.87 -39.26,-47zm-413.13 967.51c-18.98,-2.46 -36.35,10.98 -38.77,29.93 -2.46,18.97 10.94,36.35 29.93,38.8 18.94,2.43 36.31,-10.94 38.74,-29.93 2.46,-18.98 -10.94,-36.35 -29.89,-38.8zm16.71 -61.75c3.05,-23.73 -13.7,-45.43 -37.43,-48.51 -23.73,-3.05 -45.43,13.7 -48.48,37.4 -3.05,23.73 13.67,45.46 37.4,48.51 23.73,3.05 45.43,-13.7 48.5,-37.4zm-1004.81 -497.81c-19.07,1.54 -33.26,18.25 -31.72,37.33 1.51,19.04 18.22,33.27 37.3,31.72 19.04,-1.54 33.26,-18.25 31.72,-37.3 -1.54,-19.07 -18.22,-33.27 -37.3,-31.76zm94.26 -51.04c-23.86,1.94 -41.62,22.81 -39.69,46.64 1.9,23.86 22.78,41.62 46.64,39.69 23.83,-1.93 41.63,-22.78 39.69,-46.64 -1.93,-23.83 -22.81,-41.59 -46.64,-39.69zm435.97 -863.81c19.14,0 34.64,-15.5 34.64,-34.61 0,-19.14 -15.5,-34.64 -34.64,-34.64 -19.11,0 -34.61,15.5 -34.61,34.64 0,19.11 15.5,34.61 34.61,34.61zm-8.65 63.42c0,23.93 19.37,43.3 43.3,43.3 23.93,0 43.3,-19.37 43.3,-43.3 0,-23.93 -19.37,-43.33 -43.3,-43.33 -23.93,0 -43.3,19.4 -43.3,43.33zm794.63 514.95c0,0 -370.42,270.95 -370.42,755.82 0,0 -206.78,-458.98 -762.93,-458.98 0,0 456.32,-132.83 406.41,-738.87 0,0 266.78,497.49 726.94,442.03z"/>
   <path class="fil6" d="M7819.78 6688.83c-12.09,-1.08 -22.81,7.87 -23.96,20.02 -1.02,12.13 7.87,22.84 20.06,23.93 12.09,1.08 22.81,-7.87 23.96,-20.02 1.02,-12.09 -7.87,-22.84 -20.06,-23.93zm-63.65 10.91c-15.14,-1.38 -28.61,9.83 -29.96,25.01 -1.37,15.17 9.9,28.58 25.07,29.92 15.18,1.35 28.52,-9.83 29.89,-25 1.34,-15.18 -9.83,-28.58 -25.01,-29.93zm-263.11 616.3c-12.09,-1.57 -23.17,6.95 -24.78,19.04 -1.57,12.09 6.98,23.14 19.07,24.72 12.06,1.54 23.14,-6.98 24.71,-19.07 1.61,-12.06 -6.95,-23.14 -19.01,-24.68zm10.58 -39.36c1.93,-15.11 -8.65,-28.94 -23.82,-30.91 -15.05,-1.94 -28.98,8.75 -30.91,23.86 -1.93,15.11 8.78,28.94 23.83,30.87 15.18,1.96 28.97,-8.72 30.91,-23.83zm-660.28 -293.33c1.05,12.16 11.63,21.2 23.86,20.22 12.06,-0.99 21.17,-11.6 20.16,-23.76 -1.02,-12.13 -11.6,-21.17 -23.7,-20.22 -12.19,0.98 -21.2,11.63 -20.32,23.76zm54.96 -26.55c1.28,15.18 14.62,26.52 29.76,25.27 15.17,-1.21 26.45,-14.52 25.3,-29.69 -1.25,-15.21 -14.59,-26.52 -29.76,-25.27 -15.14,1.21 -26.45,14.52 -25.3,29.69zm303.07 -624.06c-12.22,0 -22.12,9.87 -22.12,22.06 0,12.19 9.9,22.06 22.12,22.06 12.19,0 21.99,-9.86 21.99,-22.06 0,-12.19 -9.8,-22.06 -21.99,-22.06zm-5.6 84.53c0,15.24 12.45,27.56 27.59,27.56 15.27,0 27.59,-12.32 27.59,-27.56 0,-15.24 -12.32,-27.59 -27.59,-27.59 -15.14,0 -27.59,12.35 -27.59,27.59zm506.24 328.01c0,0 -236.02,172.59 -236.02,481.43 0,0 -131.69,-292.35 -485.95,-292.35 0,0 290.65,-84.59 258.95,-470.65 0,0 169.87,316.9 463.01,281.57z"/>
  </g>
 </g>
</svg>
