<?xml version="1.0" encoding="UTF-8"?>
<!DOCTYPE svg PUBLIC "-//W3C//DTD SVG 1.0//EN" "http://www.w3.org/TR/2001/REC-SVG-20010904/DTD/svg10.dtd">
<!-- Creator: CorelDRAW 2018 (64-Bit) -->
<svg xmlns="http://www.w3.org/2000/svg" xml:space="preserve" width="8.26772in" height="11.6929in" version="1.0" style="shape-rendering:geometricPrecision; text-rendering:geometricPrecision; image-rendering:optimizeQuality; fill-rule:evenodd; clip-rule:evenodd"
viewBox="0 0 8267.72 11692.91"
 xmlns:xlink="http://www.w3.org/1999/xlink">
 <defs>
  <style type="text/css">
   <![CDATA[
    .fil0 {fill:black;fill-rule:nonzero}
    .fil2 {fill:#423D41;fill-rule:nonzero}
    .fil3 {fill:#EA79A5;fill-rule:nonzero}
    .fil4 {fill:#F395B0;fill-rule:nonzero}
    .fil1 {fill:white;fill-rule:nonzero}
   ]]>
  </style>
 </defs>
 <g id="Слой_x0020_1">
  <metadata id="CorelCorpID_0Corel-Layer"/>
  <g id="_2265470710352">
   <path class="fil0" d="M8070.19 1341.26c-5.52,-89.79 -44.16,-172.24 -109.11,-232.01 -64.96,-60.29 -149.44,-90.68 -235.63,-85.24 -179.17,10.94 -315.44,171.04 -303.98,356.83 3.4,55.11 20.81,106.77 47.56,152.84l-2127.45 1148.52c-12.31,6.6 -19.51,19.91 -18.67,33.94l30.56 498.9c-363.83,-142.51 -766.74,-220.8 -1192.99,-220.8 -407.99,0 -792.21,70.31 -1140.76,199.25l0 -468.64c0,-13.74 -7.66,-26.44 -19.97,-32.51l-2177.52 -1066.59c11.87,-33.98 19.95,-70.02 19.95,-107.98 0,-177.96 -144.78,-322.71 -322.67,-322.71 -177.89,0 -322.65,144.74 -322.65,322.71 0,177.81 144.76,322.57 322.65,322.57 0.86,0 1.28,-0.17 1.7,-0.17l313.76 2646.2c1.7,14.49 11.89,26.63 25.91,30.56l563.37 160.28c-98.49,227.43 -168.11,472.61 -202.94,732.09 -111.22,823.38 273.84,1501.9 1084.31,1910.41 43.74,22.17 90.43,42.4 136.29,62.79l-496.74 367.9c-48.81,-51.7 -117.18,-84.48 -193.6,-84.48 -146.88,0 -266.62,119.62 -266.62,266.72 0,146.96 119.74,266.58 266.62,266.58 142.67,0 258.56,-112.98 265.36,-254.04l335.38 0c-0.42,1.49 -1.7,2.67 -2.54,4.16 -82.36,158.76 -90.02,341.89 -22.93,544.83 -76.42,36.77 -176.19,127.76 -156.66,289.32 22.51,187.43 187.64,329.37 384.22,330.09 67.93,-0.59 137.13,-8.11 201.66,-25.1 5.09,68.82 19.11,186.4 59.87,242.35l5.94 425.65c-69.62,34.86 -270.02,157.31 -263.22,409.57 5.96,211.2 159.63,395.81 374.04,448.84 110.38,27.47 261.52,54.64 424.12,54.64 224.16,0 470.41,-51.7 664.85,-225.96 77.7,-69.57 119.3,-169.87 113.78,-274.87 -2.54,-51.24 -8.06,-95.41 -16.13,-131.44 -16.99,-75.48 -13.15,-146.65 12.31,-206.05 42.46,-100.42 69.62,-105.89 69.62,-105.89 0.42,0 29.3,8.57 62.85,140.76 13.57,53.91 15.27,109.89 5.94,161.87 -25.91,138.69 -42.04,383.85 139.67,467.74 29.3,13.59 721.32,330.09 1202.77,9.45 201.66,-134.55 266.62,-400.08 145.2,-592.08 -40.34,-63.82 -93.83,-107.84 -159.22,-131.17 19.95,-99.39 59.43,-338.06 2.98,-443.95 21.65,-31 51.79,-92.46 57.73,-197.17 113.78,2.22 449.61,-13.29 526.02,-275.59 1.28,-4.28 28.87,-106.49 -32.26,-187.28 -35.66,-47.1 -92.55,-75.91 -169.83,-85.66 53.07,-91.87 141.39,-286.97 75.16,-479.71 -19.53,-57.88 -52.65,-109.87 -97.23,-157.13l80.66 0c11.89,136.17 125.26,243.83 264.5,243.83 146.91,0 266.62,-119.62 266.62,-266.58 0,-147.09 -119.72,-266.72 -266.62,-266.72 -85.33,0 -160.47,41.06 -209.31,103.53l-367.67 -333.93c976.05,-387.56 1475.75,-1124.71 1370.46,-2025.62 -39.06,-330.38 -137.97,-639.08 -286.15,-918.51l621.56 -214.58c13.15,-4.58 22.93,-16.38 24.21,-30.43l264.9 -2549.92c7.65,0.59 14.87,2.08 22.93,2.08 6.37,0 12.75,-0.15 19.11,-0.59 87.03,-5.31 166.85,-45.46 224.16,-113.26 56.89,-67.2 85.33,-153.78 79.82,-243.41z"/>
   <path class="fil1" d="M2742.47 9016.4c-59.87,15.65 -122.7,23.04 -187.66,24.81 -160.48,-0.57 -294.64,-115.04 -312.89,-266.42 -15.28,-128.8 66.23,-189.06 111.66,-212.54l69.2 160.1c5.52,13.58 19.11,21.85 33.12,21.85 4.67,0 9.34,-0.88 14.43,-2.95 18.26,-7.97 26.75,-29.24 18.68,-47.56l-82.36 -191.25c-72.18,-196.14 -69.63,-370.87 7.22,-519.3 6.79,-13.13 14.44,-25.69 22.08,-37.96l400.78 0 222.04 415.47c-109.54,9.75 -199.11,84.93 -230.11,186.68 25.05,-207.67 64.1,-372.78 64.95,-375.73 4.67,-19.5 -7.22,-39.13 -26.75,-43.72 -19.95,-4.58 -39.06,7.38 -43.73,26.73 -5.09,21.56 -116.32,494.33 -80.66,861.78zm2602.93 -391.54c0,146.95 -119.3,266.59 -266.62,266.59 -146.89,0 -266.61,-119.64 -266.61,-266.59 0,-66.9 25.47,-127.3 66.23,-174.11l-783.72 -423.89 -786.7 457.11c25.47,41.06 41.18,89.05 41.18,140.89 0,146.95 -119.72,266.59 -266.61,266.59 -140.11,0 -253.46,-108.41 -264.93,-245.31 -11.04,122.44 -14.86,252.25 -2.97,368.93 6.8,6.65 11.46,14.93 11.46,24.36 2.55,85.97 19.95,221.1 51.37,252.56 0.85,1.03 1.27,2.37 2.12,3.41 0.85,1.02 2.12,1.62 2.54,2.65l118.45 184.76c11.04,16.85 5.94,39.14 -10.61,49.92 -6.37,3.85 -12.74,5.77 -19.53,5.77 -11.89,0 -23.35,-5.9 -30.57,-16.69l-50.1 -78.13 4.25 299.52 73.02 0c19.95,0 36.09,16.25 36.09,36.19 0,20.08 -16.14,36.19 -36.09,36.19l-101.47 0c-37.36,16.1 -241.15,114.46 -234.35,348.55 5.09,178.71 135.86,335.26 318.84,380.6 248.79,61.59 712.4,123.61 1023.17,-154.93 61.56,-55.09 94.25,-134.4 90,-217.55 -2.12,-46.97 -7.21,-86.99 -14.43,-119.04 -20.8,-90.24 -14.86,-176.94 16.13,-250.34 45,-106.19 89.58,-153.3 141.8,-149.76 55.19,4.28 94.25,64.54 127.37,195.4 16.13,63.65 18.68,130.4 6.79,192.59 -17.41,95.11 -43.3,323.14 99.35,388.87 6.79,3.24 684.8,313.11 1131.86,15.07 169.4,-112.99 225.02,-334.24 124.39,-493.3 -36.94,-58.04 -87.04,-94.82 -149.02,-109.44 -2.55,-0.6 -4.24,-2.07 -6.37,-3.1 -1.28,-0.44 -2.55,-0.15 -3.4,-0.74l-112.08 -64.69c-16.98,-10.04 -23.35,-32.05 -13.16,-49.47 9.76,-17.28 31.84,-23.34 49.67,-13.16l68.35 39.59c23.78,-124.65 38.63,-280.75 16.98,-355.05l-78.12 77.98c-6.79,7.1 -16.13,10.63 -25.47,10.63 -9.34,0 -18.68,-3.53 -25.48,-10.63 -14.44,-14.18 -14.44,-37.07 0,-51.09l112.08 -112.11c0,-0.28 0.42,-0.43 0.85,-0.73 0.42,-0.3 0.42,-0.6 0.85,-0.9 0,-0.15 55.61,-54.5 55.61,-205.88 0,-1.03 0.85,-1.92 0.85,-2.95 0,-1.17 -0.43,-2.22 0,-3.4 65.8,-366.87 -176.62,-1043.73 -178.74,-1050.54 -6.79,-18.76 2.97,-39.59 21.65,-46.37 18.68,-6.5 39.48,3.11 46.28,21.71 9.77,27.61 233.93,656.2 186.8,1046.84 103.17,1.18 390.17,-14.63 450.88,-223.01 0,-0.3 19.1,-72.37 -20.38,-124.06 -28.87,-37.66 -83.63,-57.17 -161.33,-59.52l-67.93 67.93c-7.22,7.09 -16.56,10.65 -25.9,10.65 -8.92,0 -18.26,-3.55 -25.48,-10.65 -14.01,-14.04 -14.01,-36.92 0,-51.1l77.27 -77.1c13.59,-19.34 171.94,-251.07 98.07,-465.67 -23.78,-68.54 -69.63,-128.5 -135.01,-180.33l-577.82 0 -213.55 404.39c5.09,-0.3 10.19,-1.63 15.28,-1.63 147.32,0 266.62,119.62 266.62,266.72zm-3191.37 -1740.54c-117.18,-306.06 -120.57,-585.04 -10.19,-829.15 145.62,-321.22 489.08,-585.33 1021.9,-785.13l977.75 422.09c8.91,3.69 18.68,3.99 27.17,0.59l1116.15 -422.26c100.19,49.33 734.05,379.55 888.59,905.96 75.57,256.68 25.9,524.15 -147.31,794.72 -169.4,264.96 -439.41,455.93 -760.38,537.76 -347.28,88.33 -719.62,133.22 -1107.24,133.22 -522.2,0 -1025.29,-79.9 -1454.09,-230.85 -257.7,-90.68 -458.94,-282.82 -552.34,-526.94zm3004.14 -582.83c22.93,237.37 170.67,417.25 330.31,401.88 159.63,-15.37 270.44,-220.05 247.51,-457.42 -6.8,-71.79 -25.48,-137.64 -52.22,-194.95 114.63,-36.17 154.96,-159.04 155.39,-160.53 3.82,-11.97 -2.97,-24.37 -14.86,-28.06 -11.89,-3.52 -24.2,2.97 -28.02,14.78 -1.7,5.31 -35.24,108.56 -133.31,133.82 -16.13,-28.06 -34.39,-53.32 -54.34,-75.19 130.34,-92 190.63,-215.2 193.59,-222 5.52,-11.04 0.43,-24.49 -10.61,-29.8 -11.04,-5.35 -24.62,-0.59 -29.72,10.61 -0.85,1.48 -60.29,122.61 -186.8,209.26 -5.94,-4.84 -11.46,-10.15 -17.41,-14.61 -128.21,88.31 -258.98,139.43 -373.6,168.8 -24.2,71.2 -34.39,155.09 -25.9,243.4zm-1146.29 432.92c0,98.2 100.62,177.97 224.59,177.97 123.97,0 224.59,-79.77 224.59,-177.97 0,-98.24 -100.62,-178.14 -224.59,-178.14 -123.97,0 -224.59,79.9 -224.59,178.14zm-118.87 240c121.85,208.96 263.22,287.25 360.44,316.05 26.75,7.98 53.92,11.96 80.67,11.96 53.49,0 104.01,-15.95 143.93,-46.37 149.87,-114.75 99.34,-330.13 97.22,-339.26 -3.4,-14.35 -15.29,-25.14 -30.15,-27.17 -14.86,-1.91 -28.87,5.01 -36.51,17.7 -50.52,88.35 -115.9,139.89 -194.87,153.48 -173.64,30.57 -363.84,-130.3 -365.96,-132.04 -13.16,-11.55 -32.69,-11.68 -46.7,-0.3 -13.16,11.21 -16.98,30.69 -8.06,45.94zm-1317.81 -1083.93c0.42,1.49 40.33,124.35 155.39,160.53 -26.74,57.31 -45.85,123.16 -52.64,194.95 -22.93,237.37 88.31,442.05 247.94,457.42 159.63,15.37 307.38,-164.52 330.3,-401.88 8.49,-88.31 -1.7,-172.2 -25.9,-243.4 -115.06,-29.38 -245.81,-80.5 -373.61,-168.8 -5.94,4.46 -11.89,9.77 -17.83,14.61 -126.52,-86.65 -185.53,-207.78 -186.38,-209.26 -5.52,-11.21 -18.68,-15.96 -29.72,-10.61 -11.46,5.31 -16.13,18.76 -10.62,29.8 2.97,6.8 62.84,130 193.6,222 -19.96,21.87 -38.21,47.13 -54.34,75.19 -98.07,-25.26 -131.61,-128.51 -133.31,-133.82 -3.82,-11.8 -16.13,-18.3 -28.02,-14.78 -11.89,3.69 -18.68,16.09 -14.86,28.06z"/>
   <path class="fil2" d="M5285.55 7578.89c-352.8,89.96 -731.5,135.45 -1125.07,135.45 -530.26,0 -1041.44,-81.23 -1478.29,-234.83 -53.93,-19.05 -105.29,-43.56 -154.54,-70.6l-540.88 400.7c10.61,19.93 19.09,40.76 24.19,63.21l847.41 0c13.15,0 25.47,7.39 31.85,19.2l253.44 473.94c44.16,10.48 84.08,32.19 116.76,61.87l815.57 -473.79c10.61,-6.34 24.19,-6.49 35.24,-0.44l825.75 446.32c10.61,-6.65 21.23,-12.7 32.68,-17.87l253.47 -479.85c6.36,-11.81 18.67,-19.2 32.26,-19.2l789.25 0c3.4,-17.28 8.06,-33.96 14.43,-49.92l-430.49 -391.38c-106.15,59.52 -220.76,106.18 -343.04,137.19zm-3199.44 -668.71c46.71,121.67 118.87,230.52 209.31,322.96 -541.3,-284.76 -1135.67,-827.08 -1002.37,-1814.07 186.82,-1385.07 1365.8,-2352.45 2867.44,-2352.45 1501.65,0 2707.38,989.07 2867.02,2351.85 131.17,1118.31 -670.37,1667.72 -1233.75,1912.47 115.48,-89.96 216.09,-197.19 295.48,-320.78 185.1,-289.2 237.31,-576.63 155.8,-854.43 -176.61,-600.95 -910.22,-943.31 -941.65,-957.49 -8.5,-4.11 -18.67,-4.41 -27.61,-1.01l-1117 422.69 -977.75 -422.13c-8.48,-3.65 -18.25,-3.82 -26.75,-0.73 -559.13,207.52 -921.28,486.07 -1076.24,828.27 -118.88,262.46 -115.9,560.2 8.06,884.85zm5407.55 -5533.76c4.24,71.02 34.8,136.02 85.76,183.1 50.51,46.83 115.9,70.19 182.56,66.2 67.07,-4.16 128.63,-35.34 173.21,-87.89 44.58,-52.86 67.09,-121.24 62.83,-192.28 -4.24,-70.91 -34.8,-136.02 -85.76,-183.16 -47.12,-43.3 -106.15,-66.61 -167.69,-66.61 -4.68,0 -9.78,0.13 -14.85,0.42 -139.26,8.42 -244.97,134.28 -236.06,280.21zm-2065.88 1869.34c580.8,245.62 1054.17,658.11 1350.93,1181.06l610.92 -210.91 263.22 -2533.05c-44.57,-14.19 -86.59,-36.94 -122.26,-70.14 -6.8,-6.2 -11.89,-13.59 -18.27,-20.08l-2115.97 1142.21 31.43 510.91zm-4908.27 -1477.7c137.99,0 250.07,-112.39 250.07,-250.31 0,-138.1 -112.08,-250.35 -250.07,-250.35 -137.97,0 -250.43,112.25 -250.43,250.35 0,137.93 112.46,250.31 250.43,250.31zm2428.03 979.37l0 473.37c-669.09,267 -1198.09,756.3 -1493.16,1389.76l-550.21 -156.7 -311.2 -2622.72c82.78,-19.49 153.26,-70.61 197.84,-140.31l2156.73 1056.59z"/>
   <path class="fil3" d="M4084.06 6734.42c0,-57.31 69.63,-105.76 152.41,-105.76 82.36,0 152.42,48.44 152.42,105.76 0,57.27 -70.06,105.59 -152.42,105.59 -82.79,0 -152.41,-48.31 -152.41,-105.59zm-2138.05 1198.21c0,-107.22 -87.46,-194.35 -194.44,-194.35 -106.99,0 -194.45,87.13 -194.45,194.35 0,107.08 87.46,194.22 194.45,194.22 106.98,0 194.44,-87.13 194.44,-194.22zm942.08 692.24c0,107.09 87.04,194.22 194.45,194.22 106.98,0 194.02,-87.13 194.02,-194.22 0,-107.07 -87.04,-194.37 -194.02,-194.37 -107.41,0 -194.45,87.3 -194.45,194.37zm1996.68 0c0,107.09 87.04,194.22 194.02,194.22 107.42,0 194.45,-87.13 194.45,-194.22 0,-107.07 -87.03,-194.37 -194.45,-194.37 -106.98,0 -194.02,87.3 -194.02,194.37zm1226.96 -692.24c0,107.08 87.46,194.22 194.44,194.22 106.99,0 194.44,-87.13 194.44,-194.22 0,-107.22 -87.46,-194.35 -194.44,-194.35 -106.99,0 -194.44,87.13 -194.44,194.35z"/>
   <path class="fil4" d="M3924.43 5162.21l0 192.15 120.15 0 0 -182.98c39.91,1.91 81.51,2.81 123.54,3.1l0 179.88 59.87 0 0 -179.88c30.99,-0.3 61.98,-0.89 92.13,-2.08l0 181.96 119.72 0 0 -188.76c329.88,-28.96 568.9,-135.6 568.9,-455.33 0,-394.03 -362.99,-713.38 -810.9,-713.38 -447.48,0 -810.47,319.35 -810.47,713.38 0,309.41 224.17,418.99 537.06,451.93zm613.91 -598.28c59.01,-14.48 129.49,67.76 157.93,183.57 28.44,115.78 3.4,221.37 -55.19,235.71 -58.59,14.48 -129.49,-67.8 -157.93,-183.57 -28.02,-115.82 -3.4,-221.41 55.19,-235.71zm-892.83 183.57c28.44,-115.81 98.92,-198.05 157.93,-183.57 58.59,14.31 83.21,119.89 54.77,235.71 -28.02,115.78 -98.92,198.05 -157.51,183.57 -59.02,-14.35 -83.64,-119.94 -55.19,-235.71zm788.82 2451.08c-41.18,31.63 -101.47,40.2 -160.48,22.46 -56.89,-16.81 -131.61,-53.75 -208.03,-133.52 75.15,34.43 167.28,60.29 259.83,44.62 71.75,-12.27 134.16,-47.72 186.8,-105.88 -2.55,56.85 -19.11,127.15 -78.12,172.33z"/>
  </g>
 </g>
</svg>
