<?xml version="1.0" encoding="iso-8859-1"?>
<!-- Generator: Adobe Illustrator 23.1.0, SVG Export Plug-In . SVG Version: 6.00 Build 0)  -->
<svg version="1.1" id="Flat" xmlns="http://www.w3.org/2000/svg" xmlns:xlink="http://www.w3.org/1999/xlink" x="0px" y="0px"
	 viewBox="0 0 80.02 125" style="enable-background:new 0 0 80.02 125;" xml:space="preserve">
<g>
	<g id="XMLID_1_">
		<g>
			<g>
				<path style="fill:#C43B58;" d="M40.01,0c-0.552,0-1,0.448-1,1v4.89c0,0.552,0.448,1,1,1s1-0.448,1-1V1
					C41.01,0.448,40.562,0,40.01,0z"/>
				<path style="fill:#B72E4F;" d="M51.27,30.18c0-0.552-0.448-1-1-1h-5.23c-0.552,0-1,0.448-1,1s0.448,1,1,1h5.23
					C50.822,31.18,51.27,30.732,51.27,30.18z"/>
				<path style="fill:#B72E4F;" d="M34.98,29.18h-5.23c-0.552,0-1,0.448-1,1s0.448,1,1,1h5.23c0.552,0,1-0.448,1-1
					S35.532,29.18,34.98,29.18z"/>
				<path style="fill:#B72E4F;" d="M52.04,46.23h-5.13c-0.552,0-1,0.448-1,1s0.448,1,1,1h5.13c0.552,0,1-0.448,1-1
					S52.592,46.23,52.04,46.23z"/>
				<path style="fill:#B72E4F;" d="M33.11,46.23h-5.13c-0.552,0-1,0.448-1,1s0.448,1,1,1h5.13c0.552,0,1-0.448,1-1
					S33.662,46.23,33.11,46.23z"/>
			</g>
			<polygon style="fill:#D14B62;" points="43.24,5.89 43.24,12.17 36.78,12.17 36.78,5.89 40.01,5.89 			"/>
			<polygon style="fill:#D6EAE8;" points="46.17,12.17 46.17,17.23 44.63,17.23 40.01,17.23 35.39,17.23 33.85,17.23 33.85,12.17 
				36.78,12.17 43.24,12.17 			"/>
			<path style="fill:#D14B62;" d="M45.04,30.18h-5.03V17.23h4.62C44.63,21.63,44.77,25.94,45.04,30.18z"/>
			<path style="fill:#D14B62;" d="M49.4,60.14h-9.39V47.23h6.9C47.6,51.63,48.43,55.94,49.4,60.14z"/>
			<path style="fill:#C3DDDA;" d="M46.91,47.23h-6.9V30.18h5.03C45.42,36.01,46.05,41.7,46.91,47.23z"/>
			<path style="fill:#E7F2F1;" d="M40.01,30.18v17.05h-6.9c0.86-5.53,1.49-11.22,1.87-17.05H40.01z"/>
			<path style="fill:#E15C63;" d="M40.01,17.23v12.95h-5.03c0.27-4.24,0.41-8.55,0.41-12.95H40.01z"/>
			<path style="fill:#E15C63;" d="M40.01,47.23v12.91h-9.39c0.97-4.2,1.8-8.51,2.49-12.91H40.01z"/>
			<polygon style="fill:#604533;" points="80.02,120.42 80.02,125 49.24,125 49.24,120.42 53.35,120.42 55.71,120.42 72.51,120.42 
				76.95,120.42 			"/>
			<path style="fill:#D14B62;" d="M45.46,102.29h0.03h12.64c-1.08-2-2.07-4.06-2.98-6.16H44.8C45,98.18,45.22,100.23,45.46,102.29z
				 M46.16,106.82c3.57,2.15,6.62,4.53,8.2,7.53l6.17-7.53H46.16z M76.95,120.42h-4.44c-3.52-2.99-6.66-6.42-9.41-10.2l-7.39,10.2
				h-2.36c0,0-3.08-10.2-13.34-10.2V66.46h10.97C54.65,87.57,62.28,108.15,76.95,120.42z M44.48,92.54h9.23
				c-0.67-1.76-1.27-3.55-1.83-5.35h-7.82C44.19,88.97,44.32,90.76,44.48,92.54z M43.81,83.15h6.94c-0.42-1.62-0.79-3.25-1.12-4.88
				h-6.05C43.65,79.9,43.72,81.52,43.81,83.15z M43.46,74.5h5.48c-0.26-1.57-0.48-3.14-0.66-4.72h-4.91
				c0.02,1.57,0.05,3.13,0.09,4.69V74.5z"/>
			<polygon style="fill:#E7F2F1;" points="53.35,60.14 53.35,66.46 50.98,66.46 40.01,66.46 29.04,66.46 26.67,66.46 26.67,60.14 
				30.62,60.14 40.01,60.14 49.4,60.14 			"/>
			<path style="fill:#E15C63;" d="M33.86,106.82H19.49l6.17,7.53C27.24,111.35,30.29,108.97,33.86,106.82z M34.56,102.29
				c0.24-2.06,0.46-4.11,0.66-6.16H24.87c-0.91,2.1-1.9,4.16-2.98,6.16h12.64H34.56z M40.01,66.46v43.76
				c-10.26,0-13.34,10.2-13.34,10.2h-2.36l-7.39-10.2c-2.75,3.78-5.89,7.21-9.41,10.2H3.07c14.67-12.27,22.3-32.85,25.97-53.96
				H40.01z M36.56,74.47c0.04-1.56,0.07-3.12,0.09-4.69h-4.91c-0.18,1.58-0.4,3.15-0.66,4.72h5.48V74.47z M36.44,78.27h-6.05
				c-0.33,1.63-0.7,3.26-1.12,4.88h6.94C36.3,81.52,36.37,79.9,36.44,78.27z M35.96,87.19h-7.82c-0.56,1.8-1.16,3.59-1.83,5.35h9.23
				C35.7,90.76,35.83,88.97,35.96,87.19z"/>
			<polygon style="fill:#604533;" points="30.78,120.42 30.78,125 0,125 0,120.42 3.07,120.42 7.51,120.42 24.31,120.42 
				26.67,120.42 			"/>
		</g>
		<g>
			<path style="fill:#D6EAE8;" d="M26.67,66.46h2.37h10.97h10.97h2.37v-6.32C53.35,60.14,47.829,66.46,26.67,66.46z"/>
		</g>
	</g>
</g>
</svg>
